%TF.GenerationSoftware,KiCad,Pcbnew,7.0.11*%
%TF.CreationDate,2024-02-24T14:50:18-05:00*%
%TF.ProjectId,destinationWeatherStation_r4-5,64657374-696e-4617-9469-6f6e57656174,03*%
%TF.SameCoordinates,Original*%
%TF.FileFunction,Copper,L2,Bot*%
%TF.FilePolarity,Positive*%
%FSLAX46Y46*%
G04 Gerber Fmt 4.6, Leading zero omitted, Abs format (unit mm)*
G04 Created by KiCad (PCBNEW 7.0.11) date 2024-02-24 14:50:18*
%MOMM*%
%LPD*%
G01*
G04 APERTURE LIST*
%TA.AperFunction,ComponentPad*%
%ADD10O,2.100000X1.300000*%
%TD*%
%TA.AperFunction,ComponentPad*%
%ADD11C,1.500000*%
%TD*%
%TA.AperFunction,ComponentPad*%
%ADD12C,1.750000*%
%TD*%
%TA.AperFunction,ViaPad*%
%ADD13C,0.700000*%
%TD*%
%TA.AperFunction,ViaPad*%
%ADD14C,1.000000*%
%TD*%
%TA.AperFunction,ViaPad*%
%ADD15C,0.800000*%
%TD*%
%TA.AperFunction,Conductor*%
%ADD16C,0.250000*%
%TD*%
%TA.AperFunction,Conductor*%
%ADD17C,0.500000*%
%TD*%
%TA.AperFunction,Conductor*%
%ADD18C,0.200000*%
%TD*%
G04 APERTURE END LIST*
D10*
%TO.P,SW1,*%
%TO.N,*%
X165354000Y-84830000D03*
X165354000Y-76630000D03*
D11*
%TO.P,SW1,1,A*%
%TO.N,Net-(SW1-A)*%
X165354000Y-82730000D03*
%TO.P,SW1,2,B*%
%TO.N,Net-(J1-Pin_1)*%
X165354000Y-80730000D03*
%TO.P,SW1,3,C*%
%TO.N,unconnected-(SW1-C-Pad3)*%
X165354000Y-78730000D03*
%TD*%
D12*
%TO.P,U1,1,D0*%
%TO.N,/SW2*%
X123190000Y-76200000D03*
%TO.P,U1,2,D1*%
%TO.N,/SW3*%
X123190000Y-78740000D03*
%TO.P,U1,3,D2*%
%TO.N,/CD*%
X123190000Y-81280000D03*
%TO.P,U1,4,D3*%
%TO.N,/CS_SD*%
X123190000Y-83820000D03*
%TO.P,U1,5,D4*%
%TO.N,/SDA*%
X123190000Y-86360000D03*
%TO.P,U1,6,D5*%
%TO.N,/SCL*%
X123190000Y-88900000D03*
%TO.P,U1,7,D6*%
%TO.N,/SW4*%
X123190000Y-91440000D03*
%TO.P,U1,8,D7*%
%TO.N,/SW5*%
X138430000Y-91440000D03*
%TO.P,U1,9,D8*%
%TO.N,/SCK*%
X138430000Y-88900000D03*
%TO.P,U1,10,D9*%
%TO.N,/MISO*%
X138430000Y-86360000D03*
%TO.P,U1,11,D10*%
%TO.N,/MOSI*%
X138430000Y-83820000D03*
%TO.P,U1,12,3V3*%
%TO.N,+3V3*%
X138430000Y-81280000D03*
%TO.P,U1,13,GND*%
%TO.N,GND*%
X138430000Y-78740000D03*
%TO.P,U1,14,VIN*%
%TO.N,VCC*%
X138430000Y-76200000D03*
%TD*%
%TO.P,U3,1,GND*%
%TO.N,/OLED1*%
X151130000Y-92710000D03*
%TO.P,U3,2,VCC*%
%TO.N,/OLED2*%
X153670000Y-92710000D03*
%TO.P,U3,3,SCL*%
%TO.N,/SCL*%
X156210000Y-92710000D03*
%TO.P,U3,4,SDA*%
%TO.N,/SDA*%
X158750000Y-92710000D03*
%TD*%
D13*
%TO.N,+3V3*%
X132594000Y-112528000D03*
X134366000Y-112522000D03*
%TO.N,GND*%
X140335000Y-90170000D03*
X117475000Y-92710000D03*
X165100000Y-74930000D03*
X132715000Y-78105000D03*
X168910000Y-92710000D03*
X172085000Y-92710000D03*
X166370000Y-101600000D03*
X146050000Y-99060000D03*
X152400000Y-91440000D03*
X117602000Y-95504000D03*
X172085000Y-102870000D03*
X140970000Y-93980000D03*
X137160000Y-107950000D03*
X125730000Y-88265000D03*
X147955000Y-76835000D03*
X160655000Y-88900000D03*
X127635000Y-78105000D03*
X130175000Y-80645000D03*
X158750000Y-104140000D03*
X128905000Y-100330000D03*
X146050000Y-104140000D03*
X160147000Y-76581000D03*
X168910000Y-77470000D03*
X134620000Y-105410000D03*
X166370000Y-96520000D03*
X140335000Y-73025000D03*
X128905000Y-109855000D03*
X168910000Y-112395000D03*
X135255000Y-80645000D03*
X157480000Y-74930000D03*
X168910000Y-82550000D03*
X137160000Y-92837000D03*
X139065000Y-100965000D03*
X151130000Y-109855000D03*
X117914000Y-103034000D03*
X116332000Y-114681000D03*
X159258000Y-79375000D03*
X134620000Y-100330000D03*
X153670000Y-101600000D03*
X166370000Y-120015000D03*
X115951000Y-95504000D03*
X172085000Y-100330000D03*
X148590000Y-112395000D03*
X172085000Y-107950000D03*
X166370000Y-92710000D03*
X161290000Y-120015000D03*
X123825000Y-109855000D03*
X136525000Y-76835000D03*
X140335000Y-80010000D03*
X168910000Y-104140000D03*
X115570000Y-83185000D03*
X148590000Y-117475000D03*
X175260000Y-96520000D03*
X153670000Y-96520000D03*
X171450000Y-109855000D03*
X168910000Y-80010000D03*
X172085000Y-88011000D03*
X114300000Y-113030000D03*
X119380000Y-76200000D03*
X134620000Y-74930000D03*
X161290000Y-109855000D03*
X173990000Y-112395000D03*
D14*
X132334000Y-118999000D03*
D13*
X118110000Y-80645000D03*
X168910000Y-85090000D03*
X146050000Y-93980000D03*
X142240000Y-81915000D03*
X118110000Y-113030000D03*
X160147000Y-81407000D03*
X135255000Y-85598000D03*
X142240000Y-107950000D03*
X160147000Y-79248000D03*
X137160000Y-102870000D03*
X168910000Y-87630000D03*
X118745000Y-109855000D03*
X115570000Y-87630000D03*
X158115000Y-86995000D03*
X147955000Y-73025000D03*
X161290000Y-74930000D03*
X160020000Y-91440000D03*
X172085000Y-97790000D03*
X126365000Y-117475000D03*
X118745000Y-114935000D03*
X152019000Y-83058000D03*
X127635000Y-83185000D03*
X162560000Y-93980000D03*
X142240000Y-113030000D03*
X166370000Y-87630000D03*
X128905000Y-104775000D03*
X175260000Y-82550000D03*
X160147000Y-75438000D03*
X151130000Y-120015000D03*
X172085000Y-105410000D03*
X146050000Y-74930000D03*
D15*
X168910000Y-73025000D03*
D13*
X175260000Y-92710000D03*
X153670000Y-112395000D03*
X163830000Y-112395000D03*
X175260000Y-77470000D03*
X130175000Y-85725000D03*
X160147000Y-77470000D03*
X143510000Y-101600000D03*
X172085000Y-95250000D03*
X159385000Y-73025000D03*
X120015000Y-95250000D03*
X152400000Y-93980000D03*
X163195000Y-76835000D03*
X163195000Y-80645000D03*
X125095000Y-80645000D03*
X148590000Y-96520000D03*
X168910000Y-99060000D03*
X151765000Y-73025000D03*
X171450000Y-120015000D03*
X142240000Y-74930000D03*
X175260000Y-87630000D03*
X135255000Y-87630000D03*
X144145000Y-80010000D03*
X151638000Y-81153000D03*
X144145000Y-83820000D03*
X148590000Y-91440000D03*
X151130000Y-99060000D03*
X163830000Y-104140000D03*
X138430000Y-96520000D03*
X132715000Y-83185000D03*
X135255000Y-91694000D03*
X168910000Y-117475000D03*
X134620000Y-110490000D03*
X146685000Y-108585000D03*
X144145000Y-73025000D03*
X121285000Y-112395000D03*
X132715000Y-73025000D03*
X146050000Y-114935000D03*
X146050000Y-120015000D03*
X123825000Y-114935000D03*
X168910000Y-90170000D03*
X166370000Y-109855000D03*
X156210000Y-114935000D03*
X160147000Y-80391000D03*
X136525000Y-98425000D03*
X146050000Y-88900000D03*
X140335000Y-76835000D03*
X152400000Y-89662000D03*
X122174000Y-99568000D03*
X118745000Y-120015000D03*
X156210000Y-109855000D03*
X143510000Y-86360000D03*
X120015000Y-92710000D03*
X157480000Y-91440000D03*
X128905000Y-114935000D03*
X136525000Y-73025000D03*
X115570000Y-78740000D03*
X143510000Y-117475000D03*
X159258000Y-75438000D03*
X130175000Y-75565000D03*
X132461000Y-88011000D03*
X137160000Y-113030000D03*
X119380000Y-72390000D03*
X128905000Y-117475000D03*
X154940000Y-93980000D03*
X161290000Y-85090000D03*
X148590000Y-86360000D03*
X163830000Y-90170000D03*
X156210000Y-106680000D03*
X144780000Y-110490000D03*
X160020000Y-96520000D03*
X158750000Y-117475000D03*
X160020000Y-93980000D03*
X139700000Y-115570000D03*
X156210000Y-120015000D03*
X143510000Y-96520000D03*
X175260000Y-101600000D03*
X116205000Y-111125000D03*
X141605000Y-103505000D03*
X161290000Y-101600000D03*
X140970000Y-99060000D03*
X117221000Y-101473000D03*
X161290000Y-114935000D03*
X163830000Y-117475000D03*
D14*
X134620000Y-114681000D03*
D13*
X153670000Y-117475000D03*
X171450000Y-114935000D03*
X161290000Y-106680000D03*
X123825000Y-120015000D03*
X125730000Y-85725000D03*
X128905000Y-73025000D03*
X143510000Y-91440000D03*
X147955000Y-83820000D03*
D15*
X118872000Y-99695000D03*
D13*
X120650000Y-83185000D03*
X166370000Y-106680000D03*
X155575000Y-73025000D03*
X163830000Y-87630000D03*
D14*
X118008400Y-86131400D03*
D13*
X128905000Y-120015000D03*
X159258000Y-77470000D03*
X125730000Y-90805000D03*
X148590000Y-106680000D03*
X139700000Y-105410000D03*
X158750000Y-112395000D03*
X163830000Y-99060000D03*
X175260000Y-106680000D03*
X140335000Y-87630000D03*
X121285000Y-117475000D03*
X116205000Y-107315000D03*
X151130000Y-114935000D03*
X128270000Y-88265000D03*
X149860000Y-81915000D03*
X125095000Y-75565000D03*
X159258000Y-81280000D03*
X163195000Y-73025000D03*
X121412000Y-102870000D03*
X126365000Y-112395000D03*
X140970000Y-120015000D03*
X144145000Y-106045000D03*
X151130000Y-104140000D03*
X140335000Y-85090000D03*
X120015000Y-90170000D03*
X139700000Y-110490000D03*
X148590000Y-101600000D03*
X166370000Y-114935000D03*
X153670000Y-74930000D03*
X154940000Y-91440000D03*
X166370000Y-90170000D03*
%TO.N,VCC*%
X152019000Y-77978000D03*
X152019000Y-79756000D03*
%TO.N,/SDA*%
X123317000Y-94869000D03*
X130175000Y-95758000D03*
X125984000Y-94869000D03*
X133985000Y-96647000D03*
%TO.N,/SCL*%
X133985000Y-95250000D03*
X126492000Y-93472000D03*
X123571000Y-93472000D03*
X131318000Y-94869000D03*
%TO.N,/MISO*%
X124180600Y-97536000D03*
X124180600Y-96012000D03*
X129603500Y-88836500D03*
X130683000Y-87757000D03*
%TO.N,/SCK*%
X132461000Y-89535000D03*
X125120400Y-96012000D03*
X131318000Y-90678000D03*
X124191500Y-98552000D03*
%TO.N,/MOSI*%
X133350000Y-92075000D03*
X131318000Y-92075000D03*
%TO.N,/CS_SD*%
X122174000Y-95885000D03*
X124396500Y-100520500D03*
%TO.N,/SW4*%
X149793190Y-106867190D03*
X151257000Y-108331000D03*
X136017000Y-93472000D03*
X131318000Y-93472000D03*
X133350000Y-93472000D03*
X127558800Y-92354400D03*
X136017000Y-94996000D03*
%TO.N,/SW5*%
X139890500Y-94805500D03*
X152908000Y-107823000D03*
X150904617Y-105819617D03*
%TD*%
D16*
%TO.N,+3V3*%
X134360000Y-112528000D02*
X134366000Y-112522000D01*
X132594000Y-112528000D02*
X134360000Y-112528000D01*
D17*
%TO.N,VCC*%
X152019000Y-79756000D02*
X152019000Y-77978000D01*
D18*
%TO.N,/SDA*%
X123317000Y-94869000D02*
X125984000Y-94869000D01*
X131064000Y-96647000D02*
X133985000Y-96647000D01*
X130175000Y-95758000D02*
X131064000Y-96647000D01*
%TO.N,/SCL*%
X133985000Y-95250000D02*
X133629400Y-94894400D01*
X133629400Y-94894400D02*
X131318000Y-94894400D01*
X123571000Y-93472000D02*
X126492000Y-93472000D01*
%TO.N,/MISO*%
X124180600Y-96012000D02*
X124180600Y-97536000D01*
X129603500Y-88836500D02*
X130683000Y-87757000D01*
X124186000Y-96012000D02*
X124206000Y-96032000D01*
%TO.N,/SCK*%
X132461000Y-89535000D02*
X131318000Y-90678000D01*
X125120400Y-96012000D02*
X125120400Y-97623100D01*
X125120400Y-97623100D02*
X124191500Y-98552000D01*
%TO.N,/MOSI*%
X131318000Y-92075000D02*
X133350000Y-92075000D01*
%TO.N,/CS_SD*%
X122174000Y-98298000D02*
X122174000Y-95885000D01*
X124396500Y-100520500D02*
X122174000Y-98298000D01*
%TO.N,/SW4*%
X151257000Y-108331000D02*
X149793190Y-106867190D01*
X123317000Y-91567000D02*
X123190000Y-91440000D01*
X127558800Y-92354400D02*
X126771400Y-91567000D01*
X133350000Y-93472000D02*
X131318000Y-93472000D01*
X136017000Y-93472000D02*
X136017000Y-94996000D01*
X126771400Y-91567000D02*
X123317000Y-91567000D01*
%TO.N,/SW5*%
X138430000Y-93345000D02*
X138430000Y-91440000D01*
X152908000Y-107823000D02*
X150904617Y-105819617D01*
X139890500Y-94805500D02*
X138430000Y-93345000D01*
%TD*%
%TA.AperFunction,Conductor*%
%TO.N,/SCK*%
G36*
X131749892Y-90119944D02*
G01*
X131876055Y-90246107D01*
X131879482Y-90254380D01*
X131876696Y-90261958D01*
X131787045Y-90367417D01*
X131787042Y-90367421D01*
X131738975Y-90462208D01*
X131714995Y-90555967D01*
X131690754Y-90665968D01*
X131690409Y-90667205D01*
X131645359Y-90800133D01*
X131639458Y-90806869D01*
X131630523Y-90807459D01*
X131629829Y-90807199D01*
X131321808Y-90680563D01*
X131315460Y-90674249D01*
X131188800Y-90366168D01*
X131188823Y-90357216D01*
X131195172Y-90350901D01*
X131195855Y-90350644D01*
X131328801Y-90305586D01*
X131330026Y-90305244D01*
X131440022Y-90281004D01*
X131533789Y-90257023D01*
X131628578Y-90208955D01*
X131734043Y-90119302D01*
X131742564Y-90116555D01*
X131749892Y-90119944D01*
G37*
%TD.AperFunction*%
%TD*%
%TA.AperFunction,Conductor*%
%TO.N,/SW5*%
G36*
X139474456Y-94246802D02*
G01*
X139579920Y-94336455D01*
X139674709Y-94384523D01*
X139741418Y-94401584D01*
X139768467Y-94408502D01*
X139768475Y-94408503D01*
X139768476Y-94408504D01*
X139878467Y-94432743D01*
X139879703Y-94433088D01*
X140012634Y-94478141D01*
X140019369Y-94484042D01*
X140019959Y-94492978D01*
X140019699Y-94493671D01*
X139893063Y-94801691D01*
X139886748Y-94808040D01*
X139886691Y-94808063D01*
X139578671Y-94934699D01*
X139569716Y-94934676D01*
X139563401Y-94928327D01*
X139563141Y-94927634D01*
X139518088Y-94794703D01*
X139517743Y-94793465D01*
X139493502Y-94683467D01*
X139486584Y-94656418D01*
X139469523Y-94589709D01*
X139421455Y-94494920D01*
X139331802Y-94389456D01*
X139329055Y-94380935D01*
X139332443Y-94373608D01*
X139458608Y-94247443D01*
X139466880Y-94244017D01*
X139474456Y-94246802D01*
G37*
%TD.AperFunction*%
%TD*%
%TA.AperFunction,Conductor*%
%TO.N,/SDA*%
G36*
X130495784Y-95628823D02*
G01*
X130502099Y-95635172D01*
X130502359Y-95635866D01*
X130547410Y-95768793D01*
X130547755Y-95770030D01*
X130571995Y-95880030D01*
X130595975Y-95973789D01*
X130644043Y-96068578D01*
X130696781Y-96130617D01*
X130733696Y-96174041D01*
X130736444Y-96182564D01*
X130733055Y-96189892D01*
X130606892Y-96316055D01*
X130598619Y-96319482D01*
X130591041Y-96316696D01*
X130485580Y-96227045D01*
X130485578Y-96227043D01*
X130390789Y-96178975D01*
X130297030Y-96154995D01*
X130187030Y-96130755D01*
X130185793Y-96130410D01*
X130052866Y-96085359D01*
X130046130Y-96079458D01*
X130045540Y-96070523D01*
X130045790Y-96069853D01*
X130172437Y-95761806D01*
X130178748Y-95755461D01*
X130486831Y-95628800D01*
X130495784Y-95628823D01*
G37*
%TD.AperFunction*%
%TD*%
%TA.AperFunction,Conductor*%
%TO.N,/SCL*%
G36*
X133444893Y-94795398D02*
G01*
X133569721Y-94805296D01*
X133571847Y-94805665D01*
X133666818Y-94831424D01*
X133667894Y-94831773D01*
X133749928Y-94862827D01*
X133749932Y-94862828D01*
X133846489Y-94889017D01*
X133963955Y-94898331D01*
X133974255Y-94899148D01*
X133982231Y-94903218D01*
X133985030Y-94910778D01*
X133985977Y-95242149D01*
X133982574Y-95250431D01*
X133978743Y-95252996D01*
X133673675Y-95378970D01*
X133664720Y-95378961D01*
X133658395Y-95372622D01*
X133657981Y-95371446D01*
X133626468Y-95263908D01*
X133626158Y-95262549D01*
X133608639Y-95156612D01*
X133585754Y-95071378D01*
X133534634Y-95014865D01*
X133534633Y-95014864D01*
X133441700Y-94996280D01*
X133434259Y-94991297D01*
X133432294Y-94984807D01*
X133432294Y-94807063D01*
X133435721Y-94798790D01*
X133443994Y-94795363D01*
X133444893Y-94795398D01*
G37*
%TD.AperFunction*%
%TD*%
%TA.AperFunction,Conductor*%
%TO.N,/SCK*%
G36*
X125124878Y-96012868D02*
G01*
X125432254Y-96141138D01*
X125438569Y-96147487D01*
X125438546Y-96156442D01*
X125438239Y-96157116D01*
X125376101Y-96282966D01*
X125375470Y-96284085D01*
X125314826Y-96379013D01*
X125265488Y-96462256D01*
X125265486Y-96462263D01*
X125232451Y-96563272D01*
X125221271Y-96701245D01*
X125217187Y-96709214D01*
X125209609Y-96712000D01*
X125031190Y-96712000D01*
X125022917Y-96708573D01*
X125019528Y-96701245D01*
X125008348Y-96563277D01*
X125008347Y-96563274D01*
X125008347Y-96563272D01*
X124992070Y-96513506D01*
X124975311Y-96462261D01*
X124975309Y-96462259D01*
X124975309Y-96462256D01*
X124925971Y-96379013D01*
X124925964Y-96379001D01*
X124865323Y-96284076D01*
X124864701Y-96282974D01*
X124802559Y-96157114D01*
X124801970Y-96148180D01*
X124807871Y-96141445D01*
X124808525Y-96141146D01*
X125115894Y-96012879D01*
X125124849Y-96012857D01*
X125124878Y-96012868D01*
G37*
%TD.AperFunction*%
%TD*%
%TA.AperFunction,Conductor*%
%TO.N,VCC*%
G36*
X152356618Y-77977964D02*
G01*
X152364881Y-77981415D01*
X152368284Y-77989697D01*
X152368263Y-77990360D01*
X152358648Y-78151803D01*
X152358437Y-78153425D01*
X152333885Y-78274883D01*
X152333681Y-78275729D01*
X152304200Y-78380684D01*
X152304199Y-78380692D01*
X152279400Y-78503372D01*
X152279399Y-78503384D01*
X152269655Y-78666996D01*
X152265743Y-78675050D01*
X152257976Y-78678000D01*
X151780024Y-78678000D01*
X151771751Y-78674573D01*
X151768345Y-78666996D01*
X151758600Y-78503384D01*
X151758600Y-78503376D01*
X151733799Y-78380688D01*
X151704314Y-78275718D01*
X151704113Y-78274883D01*
X151679562Y-78153425D01*
X151679351Y-78151803D01*
X151669736Y-77990360D01*
X151672665Y-77981897D01*
X151680719Y-77977985D01*
X151681360Y-77977964D01*
X152019000Y-77977000D01*
X152356618Y-77977964D01*
G37*
%TD.AperFunction*%
%TD*%
%TA.AperFunction,Conductor*%
%TO.N,/MOSI*%
G36*
X133220554Y-91762471D02*
G01*
X133220861Y-91763145D01*
X133349119Y-92070494D01*
X133349142Y-92079449D01*
X133349119Y-92079506D01*
X133220861Y-92386854D01*
X133214512Y-92393169D01*
X133205557Y-92393146D01*
X133204883Y-92392839D01*
X133079032Y-92330701D01*
X133077913Y-92330070D01*
X132982985Y-92269426D01*
X132899742Y-92220088D01*
X132899735Y-92220086D01*
X132798725Y-92187051D01*
X132798727Y-92187051D01*
X132660755Y-92175871D01*
X132652786Y-92171787D01*
X132650000Y-92164209D01*
X132650000Y-91985790D01*
X132653427Y-91977517D01*
X132660753Y-91974128D01*
X132798722Y-91962948D01*
X132798724Y-91962947D01*
X132798726Y-91962947D01*
X132822870Y-91955050D01*
X132899738Y-91929911D01*
X132899740Y-91929909D01*
X132899742Y-91929909D01*
X132928433Y-91912903D01*
X132982998Y-91880564D01*
X133077929Y-91819918D01*
X133079016Y-91819305D01*
X133204885Y-91757159D01*
X133213819Y-91756570D01*
X133220554Y-91762471D01*
G37*
%TD.AperFunction*%
%TD*%
%TA.AperFunction,Conductor*%
%TO.N,/SW5*%
G36*
X139226437Y-91769880D02*
G01*
X139232762Y-91776219D01*
X139232753Y-91785174D01*
X139232244Y-91786242D01*
X139048966Y-92125812D01*
X139047751Y-92127633D01*
X138858247Y-92360877D01*
X138858161Y-92360981D01*
X138692147Y-92560573D01*
X138692146Y-92560575D01*
X138574603Y-92809152D01*
X138531211Y-93179661D01*
X138526845Y-93187479D01*
X138519590Y-93190000D01*
X138340410Y-93190000D01*
X138332137Y-93186573D01*
X138328789Y-93179661D01*
X138285396Y-92809154D01*
X138167853Y-92560575D01*
X138001773Y-92360904D01*
X137812245Y-92127630D01*
X137811032Y-92125812D01*
X137627753Y-91786240D01*
X137626840Y-91777334D01*
X137632493Y-91770389D01*
X137633546Y-91769886D01*
X138425513Y-91440863D01*
X138434465Y-91440855D01*
X139226437Y-91769880D01*
G37*
%TD.AperFunction*%
%TD*%
%TA.AperFunction,Conductor*%
%TO.N,/SCK*%
G36*
X132149146Y-89405790D02*
G01*
X132457191Y-89532436D01*
X132463540Y-89538751D01*
X132463563Y-89538808D01*
X132590199Y-89846829D01*
X132590176Y-89855784D01*
X132583827Y-89862099D01*
X132583133Y-89862359D01*
X132450205Y-89907409D01*
X132448968Y-89907754D01*
X132338967Y-89931995D01*
X132245208Y-89955975D01*
X132150421Y-90004042D01*
X132150417Y-90004045D01*
X132044958Y-90093696D01*
X132036435Y-90096444D01*
X132029107Y-90093055D01*
X131902944Y-89966892D01*
X131899517Y-89958619D01*
X131902302Y-89951043D01*
X131991955Y-89845578D01*
X132040023Y-89750789D01*
X132064004Y-89657022D01*
X132088244Y-89547026D01*
X132088588Y-89545795D01*
X132090976Y-89538751D01*
X132133641Y-89412864D01*
X132139542Y-89406130D01*
X132148478Y-89405540D01*
X132149146Y-89405790D01*
G37*
%TD.AperFunction*%
%TD*%
%TA.AperFunction,Conductor*%
%TO.N,/MISO*%
G36*
X130371146Y-87627790D02*
G01*
X130679191Y-87754436D01*
X130685540Y-87760751D01*
X130685563Y-87760808D01*
X130812199Y-88068829D01*
X130812176Y-88077784D01*
X130805827Y-88084099D01*
X130805133Y-88084359D01*
X130672205Y-88129409D01*
X130670968Y-88129754D01*
X130560967Y-88153995D01*
X130467208Y-88177975D01*
X130372421Y-88226042D01*
X130372417Y-88226045D01*
X130266958Y-88315696D01*
X130258435Y-88318444D01*
X130251107Y-88315055D01*
X130124944Y-88188892D01*
X130121517Y-88180619D01*
X130124302Y-88173043D01*
X130213955Y-88067578D01*
X130262023Y-87972789D01*
X130286004Y-87879022D01*
X130310244Y-87769026D01*
X130310588Y-87767795D01*
X130312976Y-87760751D01*
X130355641Y-87634864D01*
X130361542Y-87628130D01*
X130370478Y-87627540D01*
X130371146Y-87627790D01*
G37*
%TD.AperFunction*%
%TD*%
%TA.AperFunction,Conductor*%
%TO.N,/SDA*%
G36*
X123461442Y-94550853D02*
G01*
X123462102Y-94551153D01*
X123587974Y-94613301D01*
X123589076Y-94613923D01*
X123684001Y-94674564D01*
X123684013Y-94674571D01*
X123767256Y-94723909D01*
X123767259Y-94723909D01*
X123767261Y-94723911D01*
X123835922Y-94746366D01*
X123868273Y-94756947D01*
X123868274Y-94756947D01*
X123868277Y-94756948D01*
X124006246Y-94768128D01*
X124014214Y-94772212D01*
X124017000Y-94779790D01*
X124017000Y-94958209D01*
X124013573Y-94966482D01*
X124006245Y-94969871D01*
X123868272Y-94981051D01*
X123767263Y-95014086D01*
X123767256Y-95014088D01*
X123684013Y-95063426D01*
X123589085Y-95124070D01*
X123587966Y-95124701D01*
X123462116Y-95186839D01*
X123453181Y-95187429D01*
X123446445Y-95181528D01*
X123446138Y-95180854D01*
X123376546Y-95014088D01*
X123317879Y-94873505D01*
X123317857Y-94864551D01*
X123317880Y-94864494D01*
X123446139Y-94557143D01*
X123452487Y-94550830D01*
X123461442Y-94550853D01*
G37*
%TD.AperFunction*%
%TD*%
%TA.AperFunction,Conductor*%
%TO.N,/CS_SD*%
G36*
X123980456Y-99961802D02*
G01*
X124085920Y-100051455D01*
X124180709Y-100099523D01*
X124247418Y-100116584D01*
X124274467Y-100123502D01*
X124274475Y-100123503D01*
X124274476Y-100123504D01*
X124384467Y-100147743D01*
X124385703Y-100148088D01*
X124518634Y-100193141D01*
X124525369Y-100199042D01*
X124525959Y-100207978D01*
X124525699Y-100208671D01*
X124399063Y-100516691D01*
X124392748Y-100523040D01*
X124392691Y-100523063D01*
X124084671Y-100649699D01*
X124075716Y-100649676D01*
X124069401Y-100643327D01*
X124069141Y-100642634D01*
X124024088Y-100509703D01*
X124023743Y-100508465D01*
X123999502Y-100398467D01*
X123992584Y-100371418D01*
X123975523Y-100304709D01*
X123927455Y-100209920D01*
X123837802Y-100104456D01*
X123835055Y-100095935D01*
X123838443Y-100088608D01*
X123964608Y-99962443D01*
X123972880Y-99959017D01*
X123980456Y-99961802D01*
G37*
%TD.AperFunction*%
%TD*%
%TA.AperFunction,Conductor*%
%TO.N,/SW4*%
G36*
X136114483Y-94299427D02*
G01*
X136117871Y-94306753D01*
X136124749Y-94391640D01*
X136129051Y-94444726D01*
X136162086Y-94545735D01*
X136162088Y-94545742D01*
X136211426Y-94628985D01*
X136272070Y-94723913D01*
X136272701Y-94725032D01*
X136334839Y-94850883D01*
X136335429Y-94859819D01*
X136329528Y-94866554D01*
X136328854Y-94866861D01*
X136021506Y-94995119D01*
X136012551Y-94995142D01*
X136012494Y-94995119D01*
X135705145Y-94866861D01*
X135698830Y-94860512D01*
X135698853Y-94851557D01*
X135699148Y-94850908D01*
X135761305Y-94725016D01*
X135761918Y-94723929D01*
X135822564Y-94628998D01*
X135871911Y-94545738D01*
X135904948Y-94444722D01*
X135916128Y-94306753D01*
X135920212Y-94298786D01*
X135927790Y-94296000D01*
X136106210Y-94296000D01*
X136114483Y-94299427D01*
G37*
%TD.AperFunction*%
%TD*%
%TA.AperFunction,Conductor*%
%TO.N,/SDA*%
G36*
X133855554Y-96334471D02*
G01*
X133855861Y-96335145D01*
X133984119Y-96642494D01*
X133984142Y-96651449D01*
X133984119Y-96651506D01*
X133855861Y-96958854D01*
X133849512Y-96965169D01*
X133840557Y-96965146D01*
X133839883Y-96964839D01*
X133714032Y-96902701D01*
X133712913Y-96902070D01*
X133617985Y-96841426D01*
X133534742Y-96792088D01*
X133534735Y-96792086D01*
X133433725Y-96759051D01*
X133433727Y-96759051D01*
X133295755Y-96747871D01*
X133287786Y-96743787D01*
X133285000Y-96736209D01*
X133285000Y-96557790D01*
X133288427Y-96549517D01*
X133295753Y-96546128D01*
X133433722Y-96534948D01*
X133433724Y-96534947D01*
X133433726Y-96534947D01*
X133457870Y-96527050D01*
X133534738Y-96501911D01*
X133534740Y-96501909D01*
X133534742Y-96501909D01*
X133563433Y-96484903D01*
X133617998Y-96452564D01*
X133712929Y-96391918D01*
X133714016Y-96391305D01*
X133839885Y-96329159D01*
X133848819Y-96328570D01*
X133855554Y-96334471D01*
G37*
%TD.AperFunction*%
%TD*%
%TA.AperFunction,Conductor*%
%TO.N,/SCL*%
G36*
X131462359Y-94551052D02*
G01*
X131463211Y-94551449D01*
X131588929Y-94616213D01*
X131590374Y-94617097D01*
X131683509Y-94683931D01*
X131764560Y-94740655D01*
X131863990Y-94779801D01*
X132002389Y-94793365D01*
X132010289Y-94797582D01*
X132012948Y-94805009D01*
X132012948Y-94983447D01*
X132009521Y-94991720D01*
X132002019Y-94995122D01*
X131866762Y-95004059D01*
X131766118Y-95031297D01*
X131766117Y-95031297D01*
X131766115Y-95031298D01*
X131682477Y-95073494D01*
X131682437Y-95073516D01*
X131587652Y-95127832D01*
X131586856Y-95128249D01*
X131463029Y-95187088D01*
X131454086Y-95187543D01*
X131447440Y-95181541D01*
X131447210Y-95181026D01*
X131425012Y-95127832D01*
X131318879Y-94873505D01*
X131318857Y-94864551D01*
X131318880Y-94864494D01*
X131447056Y-94557342D01*
X131453404Y-94551029D01*
X131462359Y-94551052D01*
G37*
%TD.AperFunction*%
%TD*%
%TA.AperFunction,Conductor*%
%TO.N,/MISO*%
G36*
X124278083Y-96839427D02*
G01*
X124281471Y-96846753D01*
X124288349Y-96931640D01*
X124292651Y-96984726D01*
X124325686Y-97085735D01*
X124325688Y-97085742D01*
X124375026Y-97168985D01*
X124435670Y-97263913D01*
X124436301Y-97265032D01*
X124498439Y-97390883D01*
X124499029Y-97399819D01*
X124493128Y-97406554D01*
X124492454Y-97406861D01*
X124185106Y-97535119D01*
X124176151Y-97535142D01*
X124176094Y-97535119D01*
X123868745Y-97406861D01*
X123862430Y-97400512D01*
X123862453Y-97391557D01*
X123862748Y-97390908D01*
X123924905Y-97265016D01*
X123925518Y-97263929D01*
X123986164Y-97168998D01*
X124035511Y-97085738D01*
X124068548Y-96984722D01*
X124079728Y-96846753D01*
X124083812Y-96838786D01*
X124091390Y-96836000D01*
X124269810Y-96836000D01*
X124278083Y-96839427D01*
G37*
%TD.AperFunction*%
%TD*%
%TA.AperFunction,Conductor*%
%TO.N,/SCK*%
G36*
X124623392Y-97993944D02*
G01*
X124749555Y-98120107D01*
X124752982Y-98128380D01*
X124750196Y-98135958D01*
X124660545Y-98241417D01*
X124660542Y-98241421D01*
X124612475Y-98336208D01*
X124588495Y-98429967D01*
X124564254Y-98539968D01*
X124563909Y-98541205D01*
X124518859Y-98674133D01*
X124512958Y-98680869D01*
X124504023Y-98681459D01*
X124503329Y-98681199D01*
X124195308Y-98554563D01*
X124188960Y-98548249D01*
X124062300Y-98240168D01*
X124062323Y-98231216D01*
X124068672Y-98224901D01*
X124069355Y-98224644D01*
X124202301Y-98179586D01*
X124203526Y-98179244D01*
X124313522Y-98155004D01*
X124407289Y-98131023D01*
X124502078Y-98082955D01*
X124607543Y-97993302D01*
X124616064Y-97990555D01*
X124623392Y-97993944D01*
G37*
%TD.AperFunction*%
%TD*%
%TA.AperFunction,Conductor*%
%TO.N,/SW4*%
G36*
X131462442Y-93153853D02*
G01*
X131463102Y-93154153D01*
X131588974Y-93216301D01*
X131590076Y-93216923D01*
X131685001Y-93277564D01*
X131685013Y-93277571D01*
X131768256Y-93326909D01*
X131768259Y-93326909D01*
X131768261Y-93326911D01*
X131836922Y-93349366D01*
X131869273Y-93359947D01*
X131869274Y-93359947D01*
X131869277Y-93359948D01*
X132007246Y-93371128D01*
X132015214Y-93375212D01*
X132018000Y-93382790D01*
X132018000Y-93561209D01*
X132014573Y-93569482D01*
X132007245Y-93572871D01*
X131869272Y-93584051D01*
X131768263Y-93617086D01*
X131768256Y-93617088D01*
X131685013Y-93666426D01*
X131590085Y-93727070D01*
X131588966Y-93727701D01*
X131463116Y-93789839D01*
X131454181Y-93790429D01*
X131447445Y-93784528D01*
X131447138Y-93783854D01*
X131377546Y-93617088D01*
X131318879Y-93476505D01*
X131318857Y-93467551D01*
X131318880Y-93467494D01*
X131447139Y-93160143D01*
X131453487Y-93153830D01*
X131462442Y-93153853D01*
G37*
%TD.AperFunction*%
%TD*%
%TA.AperFunction,Conductor*%
%TO.N,/SW4*%
G36*
X150840956Y-107772302D02*
G01*
X150946420Y-107861955D01*
X151041209Y-107910023D01*
X151107918Y-107927084D01*
X151134967Y-107934002D01*
X151134975Y-107934003D01*
X151134976Y-107934004D01*
X151244967Y-107958243D01*
X151246203Y-107958588D01*
X151379134Y-108003641D01*
X151385869Y-108009542D01*
X151386459Y-108018478D01*
X151386199Y-108019171D01*
X151259563Y-108327191D01*
X151253248Y-108333540D01*
X151253191Y-108333563D01*
X150945171Y-108460199D01*
X150936216Y-108460176D01*
X150929901Y-108453827D01*
X150929641Y-108453134D01*
X150884588Y-108320203D01*
X150884243Y-108318965D01*
X150860002Y-108208967D01*
X150853084Y-108181918D01*
X150836023Y-108115209D01*
X150787955Y-108020420D01*
X150698302Y-107914956D01*
X150695555Y-107906435D01*
X150698943Y-107899108D01*
X150825108Y-107772943D01*
X150833380Y-107769517D01*
X150840956Y-107772302D01*
G37*
%TD.AperFunction*%
%TD*%
%TA.AperFunction,Conductor*%
%TO.N,/SW5*%
G36*
X152491956Y-107264302D02*
G01*
X152597420Y-107353955D01*
X152692209Y-107402023D01*
X152758918Y-107419084D01*
X152785967Y-107426002D01*
X152785975Y-107426003D01*
X152785976Y-107426004D01*
X152895967Y-107450243D01*
X152897203Y-107450588D01*
X153030134Y-107495641D01*
X153036869Y-107501542D01*
X153037459Y-107510478D01*
X153037199Y-107511171D01*
X152910563Y-107819191D01*
X152904248Y-107825540D01*
X152904191Y-107825563D01*
X152596171Y-107952199D01*
X152587216Y-107952176D01*
X152580901Y-107945827D01*
X152580641Y-107945134D01*
X152535588Y-107812203D01*
X152535243Y-107810965D01*
X152511002Y-107700967D01*
X152504084Y-107673918D01*
X152487023Y-107607209D01*
X152438955Y-107512420D01*
X152349302Y-107406956D01*
X152346555Y-107398435D01*
X152349943Y-107391108D01*
X152476108Y-107264943D01*
X152484380Y-107261517D01*
X152491956Y-107264302D01*
G37*
%TD.AperFunction*%
%TD*%
%TA.AperFunction,Conductor*%
%TO.N,/SCL*%
G36*
X123715442Y-93153853D02*
G01*
X123716102Y-93154153D01*
X123841974Y-93216301D01*
X123843076Y-93216923D01*
X123938001Y-93277564D01*
X123938013Y-93277571D01*
X124021256Y-93326909D01*
X124021259Y-93326909D01*
X124021261Y-93326911D01*
X124089922Y-93349366D01*
X124122273Y-93359947D01*
X124122274Y-93359947D01*
X124122277Y-93359948D01*
X124260246Y-93371128D01*
X124268214Y-93375212D01*
X124271000Y-93382790D01*
X124271000Y-93561209D01*
X124267573Y-93569482D01*
X124260245Y-93572871D01*
X124122272Y-93584051D01*
X124021263Y-93617086D01*
X124021256Y-93617088D01*
X123938013Y-93666426D01*
X123843085Y-93727070D01*
X123841966Y-93727701D01*
X123716116Y-93789839D01*
X123707181Y-93790429D01*
X123700445Y-93784528D01*
X123700138Y-93783854D01*
X123630546Y-93617088D01*
X123571879Y-93476505D01*
X123571857Y-93467551D01*
X123571880Y-93467494D01*
X123700139Y-93160143D01*
X123706487Y-93153830D01*
X123715442Y-93153853D01*
G37*
%TD.AperFunction*%
%TD*%
%TA.AperFunction,Conductor*%
%TO.N,/SW4*%
G36*
X150113974Y-106738013D02*
G01*
X150120289Y-106744362D01*
X150120549Y-106745056D01*
X150165600Y-106877983D01*
X150165945Y-106879220D01*
X150190185Y-106989220D01*
X150214165Y-107082979D01*
X150262233Y-107177768D01*
X150314971Y-107239807D01*
X150351886Y-107283231D01*
X150354634Y-107291754D01*
X150351245Y-107299082D01*
X150225082Y-107425245D01*
X150216809Y-107428672D01*
X150209231Y-107425886D01*
X150103770Y-107336235D01*
X150103768Y-107336233D01*
X150008979Y-107288165D01*
X149915220Y-107264185D01*
X149805220Y-107239945D01*
X149803983Y-107239600D01*
X149671056Y-107194549D01*
X149664320Y-107188648D01*
X149663730Y-107179713D01*
X149663980Y-107179043D01*
X149790627Y-106870996D01*
X149796938Y-106864651D01*
X150105021Y-106737990D01*
X150113974Y-106738013D01*
G37*
%TD.AperFunction*%
%TD*%
%TA.AperFunction,Conductor*%
%TO.N,VCC*%
G36*
X152266249Y-79059427D02*
G01*
X152269655Y-79067004D01*
X152279399Y-79230614D01*
X152279400Y-79230626D01*
X152304199Y-79353314D01*
X152333682Y-79458269D01*
X152333886Y-79459115D01*
X152358437Y-79580573D01*
X152358648Y-79582195D01*
X152368263Y-79743639D01*
X152365334Y-79752102D01*
X152357280Y-79756014D01*
X152356617Y-79756035D01*
X152019033Y-79756999D01*
X152018967Y-79756999D01*
X151681382Y-79756035D01*
X151673118Y-79752584D01*
X151669715Y-79744302D01*
X151669736Y-79743639D01*
X151679351Y-79582195D01*
X151679562Y-79580573D01*
X151704116Y-79459097D01*
X151704311Y-79458286D01*
X151733800Y-79353311D01*
X151758600Y-79230623D01*
X151768345Y-79067004D01*
X151772257Y-79058950D01*
X151780024Y-79056000D01*
X152257976Y-79056000D01*
X152266249Y-79059427D01*
G37*
%TD.AperFunction*%
%TD*%
%TA.AperFunction,Conductor*%
%TO.N,/SW4*%
G36*
X127142756Y-91795702D02*
G01*
X127248220Y-91885355D01*
X127343009Y-91933423D01*
X127409718Y-91950484D01*
X127436767Y-91957402D01*
X127436775Y-91957403D01*
X127436776Y-91957404D01*
X127546767Y-91981643D01*
X127548003Y-91981988D01*
X127680934Y-92027041D01*
X127687669Y-92032942D01*
X127688259Y-92041878D01*
X127687999Y-92042571D01*
X127561363Y-92350591D01*
X127555048Y-92356940D01*
X127554991Y-92356963D01*
X127246971Y-92483599D01*
X127238016Y-92483576D01*
X127231701Y-92477227D01*
X127231441Y-92476534D01*
X127186388Y-92343603D01*
X127186043Y-92342365D01*
X127161802Y-92232367D01*
X127154884Y-92205318D01*
X127137823Y-92138609D01*
X127089755Y-92043820D01*
X127000102Y-91938356D01*
X126997355Y-91929835D01*
X127000743Y-91922508D01*
X127126908Y-91796343D01*
X127135180Y-91792917D01*
X127142756Y-91795702D01*
G37*
%TD.AperFunction*%
%TD*%
%TA.AperFunction,Conductor*%
%TO.N,/SDA*%
G36*
X125854554Y-94556471D02*
G01*
X125854861Y-94557145D01*
X125983119Y-94864494D01*
X125983142Y-94873449D01*
X125983119Y-94873506D01*
X125854861Y-95180854D01*
X125848512Y-95187169D01*
X125839557Y-95187146D01*
X125838883Y-95186839D01*
X125713032Y-95124701D01*
X125711913Y-95124070D01*
X125616985Y-95063426D01*
X125533742Y-95014088D01*
X125533735Y-95014086D01*
X125432725Y-94981051D01*
X125432727Y-94981051D01*
X125294755Y-94969871D01*
X125286786Y-94965787D01*
X125284000Y-94958209D01*
X125284000Y-94779790D01*
X125287427Y-94771517D01*
X125294753Y-94768128D01*
X125432722Y-94756948D01*
X125533737Y-94723911D01*
X125616998Y-94674564D01*
X125711929Y-94613918D01*
X125713016Y-94613305D01*
X125838885Y-94551159D01*
X125847819Y-94550570D01*
X125854554Y-94556471D01*
G37*
%TD.AperFunction*%
%TD*%
%TA.AperFunction,Conductor*%
%TO.N,/MISO*%
G36*
X124185078Y-96012868D02*
G01*
X124492454Y-96141138D01*
X124498769Y-96147487D01*
X124498746Y-96156442D01*
X124498439Y-96157116D01*
X124436301Y-96282966D01*
X124435670Y-96284085D01*
X124375026Y-96379013D01*
X124325688Y-96462256D01*
X124325686Y-96462263D01*
X124292651Y-96563272D01*
X124281471Y-96701245D01*
X124277387Y-96709214D01*
X124269809Y-96712000D01*
X124091390Y-96712000D01*
X124083117Y-96708573D01*
X124079728Y-96701245D01*
X124068548Y-96563277D01*
X124068547Y-96563274D01*
X124068547Y-96563272D01*
X124052270Y-96513506D01*
X124035511Y-96462261D01*
X124035509Y-96462259D01*
X124035509Y-96462256D01*
X123986171Y-96379013D01*
X123986164Y-96379001D01*
X123925523Y-96284076D01*
X123924901Y-96282974D01*
X123862759Y-96157114D01*
X123862170Y-96148180D01*
X123868071Y-96141445D01*
X123868725Y-96141146D01*
X124176094Y-96012879D01*
X124185049Y-96012857D01*
X124185078Y-96012868D01*
G37*
%TD.AperFunction*%
%TD*%
%TA.AperFunction,Conductor*%
%TO.N,+3V3*%
G36*
X134236558Y-112209460D02*
G01*
X134236805Y-112210010D01*
X134365119Y-112517494D01*
X134365142Y-112526449D01*
X134365119Y-112526506D01*
X134236768Y-112834077D01*
X134230419Y-112840392D01*
X134221464Y-112840369D01*
X134220996Y-112840161D01*
X134096455Y-112781671D01*
X134095761Y-112781316D01*
X134000086Y-112728329D01*
X134000078Y-112728325D01*
X133915532Y-112687826D01*
X133814049Y-112662044D01*
X133678174Y-112653676D01*
X133670127Y-112649747D01*
X133667193Y-112641998D01*
X133667193Y-112413917D01*
X133670620Y-112405644D01*
X133678083Y-112402245D01*
X133814634Y-112392780D01*
X133915860Y-112364168D01*
X133999853Y-112320229D01*
X134095175Y-112264276D01*
X134096032Y-112263820D01*
X134220951Y-112203964D01*
X134229893Y-112203480D01*
X134236558Y-112209460D01*
G37*
%TD.AperFunction*%
%TD*%
%TA.AperFunction,Conductor*%
%TO.N,GND*%
G36*
X172720284Y-71520513D02*
G01*
X173053637Y-71536890D01*
X173054723Y-71536997D01*
X173384610Y-71585931D01*
X173385714Y-71586151D01*
X173709176Y-71667174D01*
X173710248Y-71667498D01*
X174024231Y-71779844D01*
X174025269Y-71780274D01*
X174326717Y-71922848D01*
X174327712Y-71923380D01*
X174371368Y-71949546D01*
X174613736Y-72094815D01*
X174614661Y-72095433D01*
X174797142Y-72230771D01*
X174882512Y-72294086D01*
X174883384Y-72294802D01*
X175130462Y-72518739D01*
X175131260Y-72519537D01*
X175355197Y-72766615D01*
X175355913Y-72767487D01*
X175554561Y-73035331D01*
X175555188Y-73036270D01*
X175726619Y-73322287D01*
X175727151Y-73323282D01*
X175869725Y-73624730D01*
X175870157Y-73625773D01*
X175982499Y-73939747D01*
X175982826Y-73940827D01*
X176063847Y-74264284D01*
X176064068Y-74265391D01*
X176113000Y-74595258D01*
X176113110Y-74596381D01*
X176129486Y-74929715D01*
X176129500Y-74930279D01*
X176129500Y-118109720D01*
X176129486Y-118110284D01*
X176113110Y-118443618D01*
X176113000Y-118444741D01*
X176064068Y-118774608D01*
X176063847Y-118775715D01*
X175982826Y-119099172D01*
X175982499Y-119100252D01*
X175870157Y-119414226D01*
X175869725Y-119415269D01*
X175727151Y-119716717D01*
X175726619Y-119717712D01*
X175555188Y-120003729D01*
X175554561Y-120004668D01*
X175355913Y-120272512D01*
X175355197Y-120273384D01*
X175131260Y-120520462D01*
X175130462Y-120521260D01*
X174883384Y-120745197D01*
X174882512Y-120745913D01*
X174614668Y-120944561D01*
X174613729Y-120945188D01*
X174327712Y-121116619D01*
X174326717Y-121117151D01*
X174025269Y-121259725D01*
X174024226Y-121260157D01*
X173710252Y-121372499D01*
X173709172Y-121372826D01*
X173385715Y-121453847D01*
X173384608Y-121454068D01*
X173054741Y-121503000D01*
X173053618Y-121503110D01*
X172720285Y-121519486D01*
X172719721Y-121519500D01*
X116840279Y-121519500D01*
X116839715Y-121519486D01*
X116506381Y-121503110D01*
X116505258Y-121503000D01*
X116175391Y-121454068D01*
X116174284Y-121453847D01*
X115850827Y-121372826D01*
X115849747Y-121372499D01*
X115535773Y-121260157D01*
X115534730Y-121259725D01*
X115233282Y-121117151D01*
X115232287Y-121116619D01*
X114946270Y-120945188D01*
X114945331Y-120944561D01*
X114677487Y-120745913D01*
X114676615Y-120745197D01*
X114429537Y-120521260D01*
X114428739Y-120520462D01*
X114204802Y-120273384D01*
X114204086Y-120272512D01*
X114005438Y-120004668D01*
X114004815Y-120003736D01*
X113862191Y-119765781D01*
X113833380Y-119717712D01*
X113832848Y-119716717D01*
X113690274Y-119415269D01*
X113689842Y-119414226D01*
X113586600Y-119125686D01*
X113577498Y-119100248D01*
X113577173Y-119099172D01*
X113557517Y-119020702D01*
X113496151Y-118775714D01*
X113495931Y-118774608D01*
X113481350Y-118676313D01*
X113446997Y-118444723D01*
X113446890Y-118443637D01*
X113430514Y-118110284D01*
X113430500Y-118109720D01*
X113430500Y-118045818D01*
X115165813Y-118045818D01*
X115175638Y-118302142D01*
X115224473Y-118553952D01*
X115224475Y-118553957D01*
X115311176Y-118795357D01*
X115311175Y-118795357D01*
X115433714Y-119020702D01*
X115493951Y-119099726D01*
X115589213Y-119224697D01*
X115754645Y-119383910D01*
X115774032Y-119402568D01*
X115983819Y-119550129D01*
X115983822Y-119550131D01*
X115983831Y-119550137D01*
X116107660Y-119611448D01*
X116213698Y-119663951D01*
X116213700Y-119663951D01*
X116213701Y-119663952D01*
X116458251Y-119741345D01*
X116549052Y-119755370D01*
X116711737Y-119780499D01*
X116711748Y-119780500D01*
X116904034Y-119780500D01*
X117095743Y-119765782D01*
X117095745Y-119765781D01*
X117095751Y-119765781D01*
X117345508Y-119707336D01*
X117583415Y-119611450D01*
X117803898Y-119480372D01*
X118001788Y-119317173D01*
X118172446Y-119125680D01*
X118311873Y-118910379D01*
X118416801Y-118676319D01*
X118484770Y-118428984D01*
X118514187Y-118174173D01*
X118509267Y-118045818D01*
X171045813Y-118045818D01*
X171055638Y-118302142D01*
X171104473Y-118553952D01*
X171104475Y-118553957D01*
X171191176Y-118795357D01*
X171191175Y-118795357D01*
X171313714Y-119020702D01*
X171373951Y-119099726D01*
X171469213Y-119224697D01*
X171634645Y-119383910D01*
X171654032Y-119402568D01*
X171863819Y-119550129D01*
X171863822Y-119550131D01*
X171863831Y-119550137D01*
X171987660Y-119611448D01*
X172093698Y-119663951D01*
X172093700Y-119663951D01*
X172093701Y-119663952D01*
X172338251Y-119741345D01*
X172429052Y-119755370D01*
X172591737Y-119780499D01*
X172591748Y-119780500D01*
X172784034Y-119780500D01*
X172975743Y-119765782D01*
X172975745Y-119765781D01*
X172975751Y-119765781D01*
X173225508Y-119707336D01*
X173463415Y-119611450D01*
X173683898Y-119480372D01*
X173881788Y-119317173D01*
X174052446Y-119125680D01*
X174191873Y-118910379D01*
X174296801Y-118676319D01*
X174364770Y-118428984D01*
X174394187Y-118174173D01*
X174384362Y-117917858D01*
X174335526Y-117666046D01*
X174248823Y-117424640D01*
X174126286Y-117199298D01*
X173970787Y-116995303D01*
X173785971Y-116817435D01*
X173785967Y-116817431D01*
X173576180Y-116669870D01*
X173576173Y-116669866D01*
X173576169Y-116669863D01*
X173499545Y-116631924D01*
X173346301Y-116556048D01*
X173101754Y-116478656D01*
X173101739Y-116478653D01*
X172848262Y-116439500D01*
X172848252Y-116439500D01*
X172655968Y-116439500D01*
X172655966Y-116439500D01*
X172464256Y-116454217D01*
X172214488Y-116512665D01*
X171976588Y-116608548D01*
X171976583Y-116608551D01*
X171756100Y-116739628D01*
X171558212Y-116902826D01*
X171387559Y-117094313D01*
X171387556Y-117094317D01*
X171248126Y-117309622D01*
X171143201Y-117543676D01*
X171143197Y-117543686D01*
X171075229Y-117791017D01*
X171075229Y-117791019D01*
X171045813Y-118045818D01*
X118509267Y-118045818D01*
X118504362Y-117917858D01*
X118455526Y-117666046D01*
X118368823Y-117424640D01*
X118246286Y-117199298D01*
X118090787Y-116995303D01*
X117905971Y-116817435D01*
X117905967Y-116817431D01*
X117696180Y-116669870D01*
X117696173Y-116669866D01*
X117696169Y-116669863D01*
X117619545Y-116631924D01*
X117466301Y-116556048D01*
X117221754Y-116478656D01*
X117221739Y-116478653D01*
X116968262Y-116439500D01*
X116968252Y-116439500D01*
X116775968Y-116439500D01*
X116775966Y-116439500D01*
X116584256Y-116454217D01*
X116334488Y-116512665D01*
X116096588Y-116608548D01*
X116096583Y-116608551D01*
X115876100Y-116739628D01*
X115678212Y-116902826D01*
X115507559Y-117094313D01*
X115507556Y-117094317D01*
X115368126Y-117309622D01*
X115263201Y-117543676D01*
X115263197Y-117543686D01*
X115195229Y-117791017D01*
X115195229Y-117791019D01*
X115165813Y-118045818D01*
X113430500Y-118045818D01*
X113430500Y-112528000D01*
X131988318Y-112528000D01*
X132008956Y-112684762D01*
X132069464Y-112830841D01*
X132165718Y-112956282D01*
X132291159Y-113052536D01*
X132437238Y-113113044D01*
X132594000Y-113133682D01*
X132750762Y-113113044D01*
X132820656Y-113084092D01*
X132822237Y-113083569D01*
X132848476Y-113076971D01*
X132973470Y-113017713D01*
X132982004Y-113013470D01*
X132982363Y-113013283D01*
X132982794Y-113013059D01*
X132991175Y-113008494D01*
X132997584Y-113004846D01*
X133080618Y-112957581D01*
X133081130Y-112957308D01*
X133134946Y-112930430D01*
X133137100Y-112929613D01*
X133187177Y-112916225D01*
X133189390Y-112915860D01*
X133299681Y-112908672D01*
X133318978Y-112903843D01*
X133321768Y-112903500D01*
X133641286Y-112903500D01*
X133644218Y-112903880D01*
X133649871Y-112905370D01*
X133662469Y-112908693D01*
X133662471Y-112908693D01*
X133662473Y-112908694D01*
X133729728Y-112912835D01*
X133773321Y-112915519D01*
X133775436Y-112915850D01*
X133826931Y-112928932D01*
X133829060Y-112929704D01*
X133872015Y-112950281D01*
X133882572Y-112955338D01*
X133883176Y-112955649D01*
X133972008Y-113004846D01*
X133979389Y-113008776D01*
X133980082Y-113009131D01*
X133983234Y-113010676D01*
X133987843Y-113012936D01*
X134059355Y-113046521D01*
X134112379Y-113071424D01*
X134113532Y-113071951D01*
X134117228Y-113073640D01*
X134117696Y-113073848D01*
X134117732Y-113073864D01*
X134120588Y-113075093D01*
X134123082Y-113076168D01*
X134144610Y-113080507D01*
X134146734Y-113081154D01*
X134209238Y-113107044D01*
X134366000Y-113127682D01*
X134522762Y-113107044D01*
X134668841Y-113046536D01*
X134794282Y-112950282D01*
X134890536Y-112824841D01*
X134951044Y-112678762D01*
X134971682Y-112522000D01*
X134951044Y-112365238D01*
X134890536Y-112219159D01*
X134794282Y-112093718D01*
X134668841Y-111997464D01*
X134522762Y-111936956D01*
X134366000Y-111916318D01*
X134209238Y-111936956D01*
X134138369Y-111966309D01*
X134136819Y-111966825D01*
X134110545Y-111973549D01*
X133985638Y-112033399D01*
X133976010Y-112038264D01*
X133975167Y-112038713D01*
X133975158Y-112038718D01*
X133967613Y-112042938D01*
X133965821Y-112043940D01*
X133876132Y-112096584D01*
X133875642Y-112096856D01*
X133821939Y-112124950D01*
X133819736Y-112125826D01*
X133771729Y-112139396D01*
X133769396Y-112139802D01*
X133660416Y-112147356D01*
X133660415Y-112147356D01*
X133641520Y-112152147D01*
X133638694Y-112152500D01*
X133320527Y-112152500D01*
X133317555Y-112152109D01*
X133299687Y-112147328D01*
X133299684Y-112147327D01*
X133299682Y-112147327D01*
X133278000Y-112145913D01*
X133189395Y-112140137D01*
X133187173Y-112139771D01*
X133137107Y-112126386D01*
X133134941Y-112125565D01*
X133081163Y-112098705D01*
X133080618Y-112098414D01*
X132991174Y-112047502D01*
X132982794Y-112042938D01*
X132982017Y-112042534D01*
X132973438Y-112038269D01*
X132848497Y-111979038D01*
X132848474Y-111979027D01*
X132846008Y-111977892D01*
X132843284Y-111976638D01*
X132843251Y-111976623D01*
X132843220Y-111976609D01*
X132842714Y-111976383D01*
X132842654Y-111976357D01*
X132836905Y-111973873D01*
X132836900Y-111973872D01*
X132815594Y-111969576D01*
X132813466Y-111968928D01*
X132783969Y-111956710D01*
X132750762Y-111942956D01*
X132594000Y-111922318D01*
X132437238Y-111942956D01*
X132291159Y-112003464D01*
X132165718Y-112099718D01*
X132069464Y-112225159D01*
X132008956Y-112371238D01*
X131988318Y-112528000D01*
X113430500Y-112528000D01*
X113430500Y-106867190D01*
X149187508Y-106867190D01*
X149208146Y-107023952D01*
X149268654Y-107170031D01*
X149364908Y-107295472D01*
X149490349Y-107391726D01*
X149564215Y-107422322D01*
X149565557Y-107422984D01*
X149589045Y-107436529D01*
X149655508Y-107459054D01*
X149721965Y-107481578D01*
X149729207Y-107483813D01*
X149735343Y-107485707D01*
X149736580Y-107486052D01*
X149750236Y-107489459D01*
X149855920Y-107512747D01*
X149856272Y-107512831D01*
X149917237Y-107528424D01*
X149919587Y-107529308D01*
X149960076Y-107549840D01*
X149962323Y-107551335D01*
X149987149Y-107572439D01*
X150043747Y-107620553D01*
X150043748Y-107620554D01*
X150043750Y-107620555D01*
X150059579Y-107629796D01*
X150061913Y-107631595D01*
X150493542Y-108063224D01*
X150495456Y-108065760D01*
X150503630Y-108080434D01*
X150503632Y-108080438D01*
X150572851Y-108161863D01*
X150574346Y-108164110D01*
X150594877Y-108204596D01*
X150595761Y-108206948D01*
X150611356Y-108267926D01*
X150611446Y-108268300D01*
X150634735Y-108373974D01*
X150638122Y-108387558D01*
X150638462Y-108388777D01*
X150642614Y-108402234D01*
X150687643Y-108535097D01*
X150690433Y-108542912D01*
X150690681Y-108543575D01*
X150693584Y-108550960D01*
X150693588Y-108550969D01*
X150702363Y-108564178D01*
X150705051Y-108568225D01*
X150706097Y-108570187D01*
X150732464Y-108633841D01*
X150828718Y-108759282D01*
X150954159Y-108855536D01*
X151100238Y-108916044D01*
X151257000Y-108936682D01*
X151413762Y-108916044D01*
X151559841Y-108855536D01*
X151685282Y-108759282D01*
X151781536Y-108633841D01*
X151842044Y-108487762D01*
X151862682Y-108331000D01*
X151842044Y-108174238D01*
X151781536Y-108028159D01*
X151685282Y-107902718D01*
X151559841Y-107806464D01*
X151521789Y-107790702D01*
X151485971Y-107775866D01*
X151484627Y-107775203D01*
X151461150Y-107761663D01*
X151461148Y-107761662D01*
X151461146Y-107761661D01*
X151461141Y-107761659D01*
X151461138Y-107761658D01*
X151328222Y-107716609D01*
X151314898Y-107712496D01*
X151314457Y-107712373D01*
X151313658Y-107712150D01*
X151306742Y-107710424D01*
X151299967Y-107708733D01*
X151194307Y-107685448D01*
X151193933Y-107685358D01*
X151132949Y-107669761D01*
X151130597Y-107668877D01*
X151090110Y-107648346D01*
X151087863Y-107646851D01*
X151006440Y-107577635D01*
X151006435Y-107577631D01*
X150990610Y-107568393D01*
X150988276Y-107566594D01*
X150556645Y-107134963D01*
X150554730Y-107132427D01*
X150546552Y-107117745D01*
X150477335Y-107036323D01*
X150475840Y-107034076D01*
X150455308Y-106993587D01*
X150454424Y-106991236D01*
X150438835Y-106930285D01*
X150438745Y-106929910D01*
X150424924Y-106867190D01*
X150415459Y-106824236D01*
X150412052Y-106810580D01*
X150411707Y-106809343D01*
X150407580Y-106795972D01*
X150362529Y-106663045D01*
X150359809Y-106655420D01*
X150359549Y-106654726D01*
X150356602Y-106647220D01*
X150345132Y-106629954D01*
X150344090Y-106627998D01*
X150317726Y-106564349D01*
X150221472Y-106438908D01*
X150096031Y-106342654D01*
X149949952Y-106282146D01*
X149793190Y-106261508D01*
X149636428Y-106282146D01*
X149490349Y-106342654D01*
X149364908Y-106438908D01*
X149268654Y-106564349D01*
X149208146Y-106710428D01*
X149187508Y-106867190D01*
X113430500Y-106867190D01*
X113430500Y-105819617D01*
X150298935Y-105819617D01*
X150319573Y-105976379D01*
X150380081Y-106122458D01*
X150476335Y-106247899D01*
X150601776Y-106344153D01*
X150675642Y-106374749D01*
X150676984Y-106375411D01*
X150700472Y-106388956D01*
X150766935Y-106411481D01*
X150833392Y-106434005D01*
X150840634Y-106436240D01*
X150846770Y-106438134D01*
X150848007Y-106438479D01*
X150861663Y-106441886D01*
X150967347Y-106465174D01*
X150967699Y-106465258D01*
X151028664Y-106480851D01*
X151031014Y-106481735D01*
X151071503Y-106502267D01*
X151073750Y-106503762D01*
X151155174Y-106572980D01*
X151155175Y-106572981D01*
X151155177Y-106572982D01*
X151171006Y-106582223D01*
X151173340Y-106584022D01*
X152144542Y-107555224D01*
X152146456Y-107557760D01*
X152154630Y-107572434D01*
X152154632Y-107572438D01*
X152223851Y-107653863D01*
X152225346Y-107656110D01*
X152245877Y-107696596D01*
X152246761Y-107698948D01*
X152262356Y-107759926D01*
X152262446Y-107760300D01*
X152285735Y-107865974D01*
X152289122Y-107879558D01*
X152289462Y-107880777D01*
X152293614Y-107894234D01*
X152338643Y-108027097D01*
X152341433Y-108034912D01*
X152341681Y-108035575D01*
X152344584Y-108042960D01*
X152344588Y-108042969D01*
X152353363Y-108056178D01*
X152356051Y-108060225D01*
X152357097Y-108062187D01*
X152364657Y-108080438D01*
X152383464Y-108125841D01*
X152479718Y-108251282D01*
X152605159Y-108347536D01*
X152751238Y-108408044D01*
X152908000Y-108428682D01*
X153064762Y-108408044D01*
X153210841Y-108347536D01*
X153336282Y-108251282D01*
X153432536Y-108125841D01*
X153493044Y-107979762D01*
X153513682Y-107823000D01*
X153493044Y-107666238D01*
X153432536Y-107520159D01*
X153336282Y-107394718D01*
X153210841Y-107298464D01*
X153172789Y-107282702D01*
X153136971Y-107267866D01*
X153135627Y-107267203D01*
X153112150Y-107253663D01*
X153112148Y-107253662D01*
X153112146Y-107253661D01*
X153112141Y-107253659D01*
X153112138Y-107253658D01*
X152979222Y-107208609D01*
X152965898Y-107204496D01*
X152965457Y-107204373D01*
X152964658Y-107204150D01*
X152957742Y-107202424D01*
X152950967Y-107200733D01*
X152845307Y-107177448D01*
X152844933Y-107177358D01*
X152783949Y-107161761D01*
X152781597Y-107160877D01*
X152741110Y-107140346D01*
X152738863Y-107138851D01*
X152657440Y-107069635D01*
X152657435Y-107069631D01*
X152641610Y-107060393D01*
X152639276Y-107058594D01*
X151668072Y-106087390D01*
X151666157Y-106084854D01*
X151657979Y-106070172D01*
X151588762Y-105988750D01*
X151587267Y-105986503D01*
X151566735Y-105946014D01*
X151565851Y-105943663D01*
X151550262Y-105882712D01*
X151550172Y-105882337D01*
X151536351Y-105819617D01*
X151526886Y-105776663D01*
X151523479Y-105763007D01*
X151523134Y-105761770D01*
X151519007Y-105748399D01*
X151473956Y-105615472D01*
X151471236Y-105607847D01*
X151470976Y-105607153D01*
X151468029Y-105599647D01*
X151456559Y-105582381D01*
X151455517Y-105580425D01*
X151429153Y-105516776D01*
X151332899Y-105391335D01*
X151207458Y-105295081D01*
X151061379Y-105234573D01*
X150904617Y-105213935D01*
X150747855Y-105234573D01*
X150601776Y-105295081D01*
X150476335Y-105391335D01*
X150380081Y-105516776D01*
X150319573Y-105662855D01*
X150298935Y-105819617D01*
X113430500Y-105819617D01*
X113430500Y-95885000D01*
X121568318Y-95885000D01*
X121588956Y-96041762D01*
X121596858Y-96060840D01*
X121619548Y-96115620D01*
X121620030Y-96117039D01*
X121622926Y-96127824D01*
X121627062Y-96143228D01*
X121689204Y-96269088D01*
X121689210Y-96269099D01*
X121695792Y-96281553D01*
X121696419Y-96282664D01*
X121703616Y-96294640D01*
X121761853Y-96385801D01*
X121762055Y-96386129D01*
X121794151Y-96440282D01*
X121795188Y-96442570D01*
X121809297Y-96485710D01*
X121809829Y-96488356D01*
X121818462Y-96594880D01*
X121818463Y-96594883D01*
X121823122Y-96612606D01*
X121823500Y-96615530D01*
X121823500Y-98260457D01*
X121823255Y-98262817D01*
X121818956Y-98283314D01*
X121823412Y-98319052D01*
X121823500Y-98320475D01*
X121823500Y-98327038D01*
X121827045Y-98348290D01*
X121827114Y-98348759D01*
X121833426Y-98399391D01*
X121835951Y-98404557D01*
X121836961Y-98407711D01*
X121837696Y-98412113D01*
X121837908Y-98413381D01*
X121845792Y-98427949D01*
X121862173Y-98458220D01*
X121862390Y-98458642D01*
X121884801Y-98504483D01*
X121888865Y-98508547D01*
X121890846Y-98511204D01*
X121893580Y-98516255D01*
X121893582Y-98516258D01*
X121931098Y-98550794D01*
X121931441Y-98551123D01*
X123633042Y-100252724D01*
X123634956Y-100255260D01*
X123643130Y-100269934D01*
X123643132Y-100269938D01*
X123712351Y-100351363D01*
X123713846Y-100353610D01*
X123734377Y-100394096D01*
X123735261Y-100396448D01*
X123750856Y-100457426D01*
X123750946Y-100457800D01*
X123774235Y-100563474D01*
X123777622Y-100577058D01*
X123777962Y-100578277D01*
X123782114Y-100591734D01*
X123827143Y-100724597D01*
X123829933Y-100732412D01*
X123830181Y-100733075D01*
X123833084Y-100740460D01*
X123833088Y-100740469D01*
X123841863Y-100753678D01*
X123844551Y-100757725D01*
X123845597Y-100759687D01*
X123871964Y-100823341D01*
X123968218Y-100948782D01*
X124093659Y-101045036D01*
X124239738Y-101105544D01*
X124396500Y-101126182D01*
X124553262Y-101105544D01*
X124699341Y-101045036D01*
X124824782Y-100948782D01*
X124921036Y-100823341D01*
X124981544Y-100677262D01*
X125002182Y-100520500D01*
X124981544Y-100363738D01*
X124921036Y-100217659D01*
X124824782Y-100092218D01*
X124699341Y-99995964D01*
X124661289Y-99980202D01*
X124625471Y-99965366D01*
X124624127Y-99964703D01*
X124600650Y-99951163D01*
X124600648Y-99951162D01*
X124600646Y-99951161D01*
X124600641Y-99951159D01*
X124600638Y-99951158D01*
X124467722Y-99906109D01*
X124454398Y-99901996D01*
X124453957Y-99901873D01*
X124453158Y-99901650D01*
X124446242Y-99899924D01*
X124439467Y-99898233D01*
X124333807Y-99874948D01*
X124333433Y-99874858D01*
X124272449Y-99859261D01*
X124270097Y-99858377D01*
X124229610Y-99837846D01*
X124227363Y-99836351D01*
X124145940Y-99767135D01*
X124145935Y-99767131D01*
X124130106Y-99757890D01*
X124127772Y-99756091D01*
X122527868Y-98156186D01*
X122524500Y-98148054D01*
X122524500Y-97536000D01*
X123574918Y-97536000D01*
X123595556Y-97692762D01*
X123656064Y-97838841D01*
X123752318Y-97964282D01*
X123831721Y-98025210D01*
X123849767Y-98039057D01*
X123854168Y-98046680D01*
X123851890Y-98055182D01*
X123849767Y-98057304D01*
X123763221Y-98123714D01*
X123763218Y-98123717D01*
X123738304Y-98156186D01*
X123666964Y-98249159D01*
X123606456Y-98395238D01*
X123585818Y-98552000D01*
X123606456Y-98708762D01*
X123666964Y-98854841D01*
X123763218Y-98980282D01*
X123888659Y-99076536D01*
X124034738Y-99137044D01*
X124191500Y-99157682D01*
X124348262Y-99137044D01*
X124494341Y-99076536D01*
X124619782Y-98980282D01*
X124716036Y-98854841D01*
X124746637Y-98780961D01*
X124747292Y-98779633D01*
X124760840Y-98756142D01*
X124805890Y-98623214D01*
X124810016Y-98609845D01*
X124810361Y-98608608D01*
X124813767Y-98594953D01*
X124837051Y-98489288D01*
X124837139Y-98488924D01*
X124852734Y-98427949D01*
X124853618Y-98425598D01*
X124874152Y-98385104D01*
X124875635Y-98382874D01*
X124944862Y-98301443D01*
X124954107Y-98285605D01*
X124955899Y-98283281D01*
X125341699Y-97897481D01*
X125343529Y-97895995D01*
X125361069Y-97884537D01*
X125383188Y-97856116D01*
X125384126Y-97855055D01*
X125388770Y-97850412D01*
X125388770Y-97850411D01*
X125388775Y-97850407D01*
X125401321Y-97832831D01*
X125401576Y-97832490D01*
X125432917Y-97792226D01*
X125434782Y-97786789D01*
X125436300Y-97783843D01*
X125439637Y-97779170D01*
X125439636Y-97779170D01*
X125439640Y-97779166D01*
X125454199Y-97730260D01*
X125454329Y-97729855D01*
X125470900Y-97681588D01*
X125470900Y-97675840D01*
X125471378Y-97672558D01*
X125473017Y-97667054D01*
X125470910Y-97616109D01*
X125470900Y-97615634D01*
X125470900Y-96741184D01*
X125471339Y-96738036D01*
X125475935Y-96721884D01*
X125475935Y-96721883D01*
X125475936Y-96721881D01*
X125484567Y-96615351D01*
X125485099Y-96612707D01*
X125490929Y-96594884D01*
X125499205Y-96569576D01*
X125500242Y-96567290D01*
X125526843Y-96522406D01*
X125532370Y-96513079D01*
X125532562Y-96512769D01*
X125533459Y-96511365D01*
X125590783Y-96421636D01*
X125598025Y-96409583D01*
X125598656Y-96408464D01*
X125598656Y-96408463D01*
X125598678Y-96408425D01*
X125602936Y-96400360D01*
X125605197Y-96396082D01*
X125667335Y-96270232D01*
X125670755Y-96263025D01*
X125671062Y-96262351D01*
X125674345Y-96254824D01*
X125678435Y-96234526D01*
X125679081Y-96232404D01*
X125705444Y-96168762D01*
X125726082Y-96012000D01*
X125705444Y-95855238D01*
X125665167Y-95758000D01*
X129569318Y-95758000D01*
X129589956Y-95914762D01*
X129650464Y-96060841D01*
X129746718Y-96186282D01*
X129872159Y-96282536D01*
X129946025Y-96313132D01*
X129947367Y-96313794D01*
X129970855Y-96327339D01*
X130020484Y-96344159D01*
X130103775Y-96372388D01*
X130111017Y-96374623D01*
X130117153Y-96376517D01*
X130118390Y-96376862D01*
X130132046Y-96380269D01*
X130237730Y-96403557D01*
X130238082Y-96403641D01*
X130299047Y-96419234D01*
X130301397Y-96420118D01*
X130341886Y-96440650D01*
X130344133Y-96442145D01*
X130384822Y-96476734D01*
X130425557Y-96511363D01*
X130425558Y-96511364D01*
X130425560Y-96511365D01*
X130441391Y-96520607D01*
X130443725Y-96522406D01*
X130789612Y-96868293D01*
X130791107Y-96870135D01*
X130802560Y-96887666D01*
X130802565Y-96887671D01*
X130811837Y-96894887D01*
X130830986Y-96909791D01*
X130832038Y-96910719D01*
X130836694Y-96915375D01*
X130854290Y-96927938D01*
X130854568Y-96928146D01*
X130894874Y-96959517D01*
X130894877Y-96959518D01*
X130900307Y-96961382D01*
X130903253Y-96962898D01*
X130907934Y-96966240D01*
X130956824Y-96980795D01*
X130957257Y-96980934D01*
X131005512Y-96997500D01*
X131011259Y-96997500D01*
X131014540Y-96997978D01*
X131016607Y-96998593D01*
X131020046Y-96999617D01*
X131020046Y-96999616D01*
X131020047Y-96999617D01*
X131071000Y-96997510D01*
X131071475Y-96997500D01*
X133255816Y-96997500D01*
X133258961Y-96997938D01*
X133275119Y-97002536D01*
X133275121Y-97002536D01*
X133275126Y-97002537D01*
X133357067Y-97009175D01*
X133381644Y-97011167D01*
X133384289Y-97011699D01*
X133427418Y-97025805D01*
X133429706Y-97026842D01*
X133483899Y-97058960D01*
X133484227Y-97059162D01*
X133575364Y-97117384D01*
X133587399Y-97124616D01*
X133588545Y-97125262D01*
X133600903Y-97131791D01*
X133600914Y-97131796D01*
X133600917Y-97131798D01*
X133726768Y-97193936D01*
X133733974Y-97197355D01*
X133734648Y-97197662D01*
X133734679Y-97197676D01*
X133739565Y-97199806D01*
X133742175Y-97200945D01*
X133762473Y-97205036D01*
X133764597Y-97205683D01*
X133828238Y-97232044D01*
X133985000Y-97252682D01*
X134141762Y-97232044D01*
X134287841Y-97171536D01*
X134413282Y-97075282D01*
X134509536Y-96949841D01*
X134570044Y-96803762D01*
X134590682Y-96647000D01*
X134570044Y-96490238D01*
X134509536Y-96344159D01*
X134413282Y-96218718D01*
X134287841Y-96122464D01*
X134141762Y-96061956D01*
X133985000Y-96041318D01*
X133828238Y-96061956D01*
X133754378Y-96092548D01*
X133752960Y-96093029D01*
X133726772Y-96100061D01*
X133600904Y-96162207D01*
X133588509Y-96168754D01*
X133587409Y-96169375D01*
X133575380Y-96176603D01*
X133484221Y-96234838D01*
X133483893Y-96235040D01*
X133429715Y-96267150D01*
X133427427Y-96268187D01*
X133384286Y-96282297D01*
X133381640Y-96282829D01*
X133275114Y-96291463D01*
X133257393Y-96296122D01*
X133254469Y-96296500D01*
X131213946Y-96296500D01*
X131205814Y-96293132D01*
X130938455Y-96025773D01*
X130936540Y-96023237D01*
X130928362Y-96008555D01*
X130859145Y-95927133D01*
X130857650Y-95924886D01*
X130837118Y-95884397D01*
X130836234Y-95882046D01*
X130824213Y-95835044D01*
X130820641Y-95821082D01*
X130820555Y-95820720D01*
X130806734Y-95758000D01*
X130797269Y-95715046D01*
X130793862Y-95701390D01*
X130793517Y-95700153D01*
X130789390Y-95686782D01*
X130786509Y-95678282D01*
X130744342Y-95553864D01*
X130743977Y-95552840D01*
X130741619Y-95546230D01*
X130741359Y-95545536D01*
X130738412Y-95538030D01*
X130726942Y-95520764D01*
X130725900Y-95518808D01*
X130712917Y-95487464D01*
X130699536Y-95455159D01*
X130603282Y-95329718D01*
X130477841Y-95233464D01*
X130331762Y-95172956D01*
X130175000Y-95152318D01*
X130018238Y-95172956D01*
X129872159Y-95233464D01*
X129746718Y-95329718D01*
X129650464Y-95455159D01*
X129589956Y-95601238D01*
X129569318Y-95758000D01*
X125665167Y-95758000D01*
X125644936Y-95709159D01*
X125548682Y-95583718D01*
X125423241Y-95487464D01*
X125277162Y-95426956D01*
X125120400Y-95406318D01*
X124963638Y-95426956D01*
X124817559Y-95487464D01*
X124692117Y-95583718D01*
X124692114Y-95583721D01*
X124659623Y-95626064D01*
X124652001Y-95630465D01*
X124643499Y-95628186D01*
X124641377Y-95626064D01*
X124608885Y-95583721D01*
X124608882Y-95583718D01*
X124569975Y-95553864D01*
X124483441Y-95487464D01*
X124337362Y-95426956D01*
X124180600Y-95406318D01*
X124023838Y-95426956D01*
X123877759Y-95487464D01*
X123752318Y-95583718D01*
X123656064Y-95709159D01*
X123595556Y-95855238D01*
X123574918Y-96012000D01*
X123595556Y-96168762D01*
X123595807Y-96169367D01*
X123626148Y-96242620D01*
X123626630Y-96244039D01*
X123629526Y-96254824D01*
X123633662Y-96270228D01*
X123695804Y-96396088D01*
X123695810Y-96396099D01*
X123702392Y-96408553D01*
X123703019Y-96409664D01*
X123710216Y-96421640D01*
X123768453Y-96512801D01*
X123768655Y-96513129D01*
X123800751Y-96567282D01*
X123801788Y-96569570D01*
X123815897Y-96612710D01*
X123816429Y-96615356D01*
X123825062Y-96721880D01*
X123825063Y-96721883D01*
X123829722Y-96739606D01*
X123830100Y-96742530D01*
X123830100Y-96806808D01*
X123829661Y-96809955D01*
X123825064Y-96826110D01*
X123825061Y-96826124D01*
X123816430Y-96932636D01*
X123815898Y-96935282D01*
X123801789Y-96978422D01*
X123800752Y-96980710D01*
X123768626Y-97034915D01*
X123768424Y-97035243D01*
X123710203Y-97126380D01*
X123702965Y-97138426D01*
X123702359Y-97139501D01*
X123695813Y-97151890D01*
X123633654Y-97277786D01*
X123630147Y-97285185D01*
X123629835Y-97285870D01*
X123626654Y-97293173D01*
X123626652Y-97293181D01*
X123622560Y-97313478D01*
X123621912Y-97315606D01*
X123595556Y-97379238D01*
X123574918Y-97536000D01*
X122524500Y-97536000D01*
X122524500Y-96614184D01*
X122524939Y-96611036D01*
X122529535Y-96594884D01*
X122529535Y-96594883D01*
X122529536Y-96594881D01*
X122531684Y-96568377D01*
X122538167Y-96488353D01*
X122538699Y-96485707D01*
X122552805Y-96442578D01*
X122553842Y-96440290D01*
X122555458Y-96437563D01*
X122585970Y-96386079D01*
X122586162Y-96385769D01*
X122589676Y-96380269D01*
X122644383Y-96294636D01*
X122651625Y-96282583D01*
X122652256Y-96281464D01*
X122652256Y-96281463D01*
X122652278Y-96281425D01*
X122658189Y-96270232D01*
X122658797Y-96269082D01*
X122720935Y-96143232D01*
X122724355Y-96136025D01*
X122724662Y-96135351D01*
X122727945Y-96127824D01*
X122732035Y-96107526D01*
X122732681Y-96105404D01*
X122759044Y-96041762D01*
X122779682Y-95885000D01*
X122759044Y-95728238D01*
X122698536Y-95582159D01*
X122602282Y-95456718D01*
X122476841Y-95360464D01*
X122330762Y-95299956D01*
X122174000Y-95279318D01*
X122017238Y-95299956D01*
X121871159Y-95360464D01*
X121745718Y-95456718D01*
X121649464Y-95582159D01*
X121588956Y-95728238D01*
X121568318Y-95885000D01*
X113430500Y-95885000D01*
X113430500Y-94869000D01*
X122711318Y-94869000D01*
X122731956Y-95025762D01*
X122792464Y-95171841D01*
X122888718Y-95297282D01*
X123014159Y-95393536D01*
X123160238Y-95454044D01*
X123317000Y-95474682D01*
X123473762Y-95454044D01*
X123547637Y-95423442D01*
X123549044Y-95422964D01*
X123575232Y-95415935D01*
X123701082Y-95353797D01*
X123713464Y-95347256D01*
X123714583Y-95346625D01*
X123726636Y-95339383D01*
X123817802Y-95281141D01*
X123818096Y-95280960D01*
X123872281Y-95248845D01*
X123874566Y-95247809D01*
X123917711Y-95233698D01*
X123920354Y-95233167D01*
X123951346Y-95230656D01*
X124026875Y-95224537D01*
X124026878Y-95224536D01*
X124026881Y-95224536D01*
X124044604Y-95219878D01*
X124047527Y-95219500D01*
X125254816Y-95219500D01*
X125257961Y-95219938D01*
X125274119Y-95224536D01*
X125274121Y-95224536D01*
X125274126Y-95224537D01*
X125356067Y-95231175D01*
X125380644Y-95233167D01*
X125383289Y-95233699D01*
X125426418Y-95247805D01*
X125428706Y-95248842D01*
X125482899Y-95280960D01*
X125483227Y-95281162D01*
X125559729Y-95330035D01*
X125574364Y-95339384D01*
X125586399Y-95346616D01*
X125587545Y-95347262D01*
X125599903Y-95353791D01*
X125599914Y-95353796D01*
X125599917Y-95353798D01*
X125725768Y-95415936D01*
X125732974Y-95419355D01*
X125733648Y-95419662D01*
X125733679Y-95419676D01*
X125738565Y-95421806D01*
X125741175Y-95422945D01*
X125761473Y-95427036D01*
X125763597Y-95427683D01*
X125827238Y-95454044D01*
X125984000Y-95474682D01*
X126140762Y-95454044D01*
X126286841Y-95393536D01*
X126412282Y-95297282D01*
X126508536Y-95171841D01*
X126569044Y-95025762D01*
X126589682Y-94869000D01*
X130712318Y-94869000D01*
X130732956Y-95025762D01*
X130793464Y-95171841D01*
X130889718Y-95297282D01*
X131015159Y-95393536D01*
X131161238Y-95454044D01*
X131318000Y-95474682D01*
X131474762Y-95454044D01*
X131544875Y-95425001D01*
X131546440Y-95424483D01*
X131572685Y-95417860D01*
X131696512Y-95359021D01*
X131705420Y-95354573D01*
X131706216Y-95354156D01*
X131714685Y-95349514D01*
X131803367Y-95298693D01*
X131803832Y-95298444D01*
X131856934Y-95271653D01*
X131859097Y-95270824D01*
X131907871Y-95257624D01*
X131910108Y-95257251D01*
X132018864Y-95250066D01*
X132038072Y-95245245D01*
X132040871Y-95244900D01*
X133354515Y-95244900D01*
X133362647Y-95248268D01*
X133365860Y-95254522D01*
X133368556Y-95270822D01*
X133374082Y-95304239D01*
X133377058Y-95319380D01*
X133377364Y-95320718D01*
X133381277Y-95335751D01*
X133397967Y-95392709D01*
X133398332Y-95394441D01*
X133399955Y-95406759D01*
X133399955Y-95406761D01*
X133399956Y-95406762D01*
X133406866Y-95423445D01*
X133407001Y-95423770D01*
X133407412Y-95424937D01*
X133412790Y-95443291D01*
X133416980Y-95456295D01*
X133417392Y-95457464D01*
X133422234Y-95470134D01*
X133422238Y-95470140D01*
X133432097Y-95484930D01*
X133433153Y-95486908D01*
X133446367Y-95518808D01*
X133460464Y-95552841D01*
X133556718Y-95678282D01*
X133682159Y-95774536D01*
X133828238Y-95835044D01*
X133985000Y-95855682D01*
X134141762Y-95835044D01*
X134287841Y-95774536D01*
X134413282Y-95678282D01*
X134509536Y-95552841D01*
X134570044Y-95406762D01*
X134590682Y-95250000D01*
X134570044Y-95093238D01*
X134529767Y-94996000D01*
X135411318Y-94996000D01*
X135431956Y-95152762D01*
X135492464Y-95298841D01*
X135588718Y-95424282D01*
X135714159Y-95520536D01*
X135860238Y-95581044D01*
X136017000Y-95601682D01*
X136173762Y-95581044D01*
X136319841Y-95520536D01*
X136445282Y-95424282D01*
X136541536Y-95298841D01*
X136602044Y-95152762D01*
X136622682Y-94996000D01*
X136602044Y-94839238D01*
X136571446Y-94765370D01*
X136570965Y-94763952D01*
X136563936Y-94737768D01*
X136501798Y-94611917D01*
X136495256Y-94599534D01*
X136494625Y-94598415D01*
X136494616Y-94598399D01*
X136487394Y-94586380D01*
X136487383Y-94586362D01*
X136429152Y-94495211D01*
X136428950Y-94494883D01*
X136396846Y-94440716D01*
X136395809Y-94438428D01*
X136381699Y-94395286D01*
X136381167Y-94392640D01*
X136372537Y-94286122D01*
X136372536Y-94286118D01*
X136367878Y-94268393D01*
X136367500Y-94265470D01*
X136367500Y-94201184D01*
X136367939Y-94198036D01*
X136369911Y-94191108D01*
X136372536Y-94181881D01*
X136374321Y-94159858D01*
X136377904Y-94115627D01*
X136381167Y-94075351D01*
X136381699Y-94072707D01*
X136388428Y-94052135D01*
X136395805Y-94029576D01*
X136396842Y-94027290D01*
X136397513Y-94026158D01*
X136428970Y-93973079D01*
X136429162Y-93972769D01*
X136487383Y-93881636D01*
X136494625Y-93869583D01*
X136495256Y-93868464D01*
X136495256Y-93868463D01*
X136495278Y-93868425D01*
X136499536Y-93860360D01*
X136501797Y-93856082D01*
X136563935Y-93730232D01*
X136567355Y-93723025D01*
X136567662Y-93722351D01*
X136570945Y-93714824D01*
X136575035Y-93694526D01*
X136575681Y-93692404D01*
X136602044Y-93628762D01*
X136622682Y-93472000D01*
X136602044Y-93315238D01*
X136541536Y-93169159D01*
X136445282Y-93043718D01*
X136319841Y-92947464D01*
X136173762Y-92886956D01*
X136017000Y-92866318D01*
X135860238Y-92886956D01*
X135714159Y-92947464D01*
X135588718Y-93043718D01*
X135492464Y-93169159D01*
X135431956Y-93315238D01*
X135411318Y-93472000D01*
X135431956Y-93628762D01*
X135445235Y-93660823D01*
X135462548Y-93702620D01*
X135463030Y-93704039D01*
X135465926Y-93714824D01*
X135470062Y-93730228D01*
X135532204Y-93856088D01*
X135532210Y-93856099D01*
X135538792Y-93868553D01*
X135539419Y-93869664D01*
X135546616Y-93881640D01*
X135604853Y-93972801D01*
X135605055Y-93973129D01*
X135637151Y-94027282D01*
X135638188Y-94029570D01*
X135652297Y-94072710D01*
X135652829Y-94075356D01*
X135661462Y-94181880D01*
X135661463Y-94181883D01*
X135666122Y-94199606D01*
X135666500Y-94202530D01*
X135666500Y-94266808D01*
X135666061Y-94269955D01*
X135661464Y-94286110D01*
X135661461Y-94286124D01*
X135652830Y-94392636D01*
X135652298Y-94395282D01*
X135638189Y-94438422D01*
X135637152Y-94440710D01*
X135605026Y-94494915D01*
X135604824Y-94495243D01*
X135546603Y-94586380D01*
X135539365Y-94598426D01*
X135538759Y-94599501D01*
X135532213Y-94611890D01*
X135470054Y-94737786D01*
X135466547Y-94745185D01*
X135466235Y-94745870D01*
X135463054Y-94753173D01*
X135463052Y-94753181D01*
X135458960Y-94773478D01*
X135458312Y-94775606D01*
X135431956Y-94839238D01*
X135411318Y-94996000D01*
X134529767Y-94996000D01*
X134509536Y-94947159D01*
X134413282Y-94821718D01*
X134287841Y-94725464D01*
X134141762Y-94664956D01*
X134002654Y-94646641D01*
X134001028Y-94646306D01*
X133994453Y-94644447D01*
X133891471Y-94636280D01*
X133889370Y-94635915D01*
X133860967Y-94628211D01*
X133857158Y-94626211D01*
X133857094Y-94626302D01*
X133856709Y-94626027D01*
X133856707Y-94626025D01*
X133839108Y-94613460D01*
X133838814Y-94613240D01*
X133798526Y-94581883D01*
X133798524Y-94581882D01*
X133798524Y-94581881D01*
X133793088Y-94580015D01*
X133790144Y-94578500D01*
X133785466Y-94575160D01*
X133755234Y-94566159D01*
X133736577Y-94560604D01*
X133736125Y-94560459D01*
X133687888Y-94543900D01*
X133682141Y-94543900D01*
X133678860Y-94543422D01*
X133673352Y-94541782D01*
X133622411Y-94543890D01*
X133621936Y-94543900D01*
X133505938Y-94543900D01*
X133505029Y-94543864D01*
X133465093Y-94540697D01*
X133454817Y-94540089D01*
X133453953Y-94540056D01*
X133443989Y-94539863D01*
X133443987Y-94539863D01*
X133424806Y-94543679D01*
X133422562Y-94543900D01*
X132044924Y-94543900D01*
X132041592Y-94543407D01*
X132033742Y-94541030D01*
X132027310Y-94539083D01*
X132027308Y-94539082D01*
X132027305Y-94539082D01*
X131926001Y-94529153D01*
X131922910Y-94528409D01*
X131887555Y-94514490D01*
X131885174Y-94513211D01*
X131831309Y-94475513D01*
X131831198Y-94475434D01*
X131805286Y-94456840D01*
X131739336Y-94409514D01*
X131733084Y-94405367D01*
X131723714Y-94399150D01*
X131722257Y-94398259D01*
X131705929Y-94389075D01*
X131624845Y-94347305D01*
X131623110Y-94346205D01*
X131620841Y-94344464D01*
X131620838Y-94344462D01*
X131613564Y-94341449D01*
X131612699Y-94341048D01*
X131580257Y-94324335D01*
X131580233Y-94324323D01*
X131580219Y-94324316D01*
X131571124Y-94319857D01*
X131571117Y-94319853D01*
X131571089Y-94319840D01*
X131570263Y-94319456D01*
X131560746Y-94315254D01*
X131560741Y-94315253D01*
X131541536Y-94311381D01*
X131539408Y-94310733D01*
X131538394Y-94310313D01*
X131474762Y-94283956D01*
X131318000Y-94263318D01*
X131161238Y-94283956D01*
X131015159Y-94344464D01*
X130889718Y-94440718D01*
X130793464Y-94566159D01*
X130732956Y-94712238D01*
X130712318Y-94869000D01*
X126589682Y-94869000D01*
X126569044Y-94712238D01*
X126508536Y-94566159D01*
X126412282Y-94440718D01*
X126286841Y-94344464D01*
X126140762Y-94283956D01*
X125984000Y-94263318D01*
X125827238Y-94283956D01*
X125753378Y-94314548D01*
X125751960Y-94315029D01*
X125725772Y-94322061D01*
X125599904Y-94384207D01*
X125587509Y-94390754D01*
X125586409Y-94391375D01*
X125574380Y-94398603D01*
X125483218Y-94456840D01*
X125482890Y-94457042D01*
X125428712Y-94489152D01*
X125426424Y-94490189D01*
X125383284Y-94504298D01*
X125380638Y-94504830D01*
X125274115Y-94513463D01*
X125256394Y-94518122D01*
X125253470Y-94518500D01*
X124046189Y-94518500D01*
X124043042Y-94518061D01*
X124026887Y-94513464D01*
X124026874Y-94513461D01*
X123920361Y-94504830D01*
X123917715Y-94504298D01*
X123874571Y-94490188D01*
X123872283Y-94489151D01*
X123818116Y-94457047D01*
X123817788Y-94456845D01*
X123726627Y-94398609D01*
X123714658Y-94391414D01*
X123713574Y-94390803D01*
X123701099Y-94384210D01*
X123701088Y-94384204D01*
X123575216Y-94322056D01*
X123570542Y-94319840D01*
X123567851Y-94318564D01*
X123567128Y-94318235D01*
X123559826Y-94315055D01*
X123559827Y-94315055D01*
X123559824Y-94315054D01*
X123559822Y-94315053D01*
X123559815Y-94315051D01*
X123539522Y-94310961D01*
X123537393Y-94310313D01*
X123473762Y-94283956D01*
X123317000Y-94263318D01*
X123160238Y-94283956D01*
X123014159Y-94344464D01*
X122888718Y-94440718D01*
X122792464Y-94566159D01*
X122731956Y-94712238D01*
X122711318Y-94869000D01*
X113430500Y-94869000D01*
X113430500Y-93472000D01*
X122965318Y-93472000D01*
X122985956Y-93628762D01*
X123046464Y-93774841D01*
X123142718Y-93900282D01*
X123268159Y-93996536D01*
X123414238Y-94057044D01*
X123571000Y-94077682D01*
X123727762Y-94057044D01*
X123801637Y-94026442D01*
X123803044Y-94025964D01*
X123829232Y-94018935D01*
X123955082Y-93956797D01*
X123967464Y-93950256D01*
X123968583Y-93949625D01*
X123980636Y-93942383D01*
X124071802Y-93884141D01*
X124072096Y-93883960D01*
X124126281Y-93851845D01*
X124128566Y-93850809D01*
X124171711Y-93836698D01*
X124174354Y-93836167D01*
X124205346Y-93833656D01*
X124280875Y-93827537D01*
X124280878Y-93827536D01*
X124280881Y-93827536D01*
X124298604Y-93822878D01*
X124301527Y-93822500D01*
X125762816Y-93822500D01*
X125765961Y-93822938D01*
X125782119Y-93827536D01*
X125782121Y-93827536D01*
X125782126Y-93827537D01*
X125864067Y-93834175D01*
X125888644Y-93836167D01*
X125891289Y-93836699D01*
X125934418Y-93850805D01*
X125936706Y-93851842D01*
X125990899Y-93883960D01*
X125991227Y-93884162D01*
X126082364Y-93942384D01*
X126094399Y-93949616D01*
X126095545Y-93950262D01*
X126107903Y-93956791D01*
X126107914Y-93956796D01*
X126107917Y-93956798D01*
X126233768Y-94018936D01*
X126240974Y-94022355D01*
X126241648Y-94022662D01*
X126241679Y-94022676D01*
X126246565Y-94024806D01*
X126249175Y-94025945D01*
X126269473Y-94030036D01*
X126271597Y-94030683D01*
X126335238Y-94057044D01*
X126492000Y-94077682D01*
X126648762Y-94057044D01*
X126794841Y-93996536D01*
X126920282Y-93900282D01*
X127016536Y-93774841D01*
X127077044Y-93628762D01*
X127097682Y-93472000D01*
X130712318Y-93472000D01*
X130732956Y-93628762D01*
X130793464Y-93774841D01*
X130889718Y-93900282D01*
X131015159Y-93996536D01*
X131161238Y-94057044D01*
X131318000Y-94077682D01*
X131474762Y-94057044D01*
X131548637Y-94026442D01*
X131550044Y-94025964D01*
X131576232Y-94018935D01*
X131702082Y-93956797D01*
X131714464Y-93950256D01*
X131715583Y-93949625D01*
X131727636Y-93942383D01*
X131818802Y-93884141D01*
X131819096Y-93883960D01*
X131873281Y-93851845D01*
X131875566Y-93850809D01*
X131918711Y-93836698D01*
X131921354Y-93836167D01*
X131952346Y-93833656D01*
X132027875Y-93827537D01*
X132027878Y-93827536D01*
X132027881Y-93827536D01*
X132045604Y-93822878D01*
X132048527Y-93822500D01*
X132620816Y-93822500D01*
X132623961Y-93822938D01*
X132640119Y-93827536D01*
X132640121Y-93827536D01*
X132640126Y-93827537D01*
X132722067Y-93834175D01*
X132746644Y-93836167D01*
X132749289Y-93836699D01*
X132792418Y-93850805D01*
X132794706Y-93851842D01*
X132848899Y-93883960D01*
X132849227Y-93884162D01*
X132940364Y-93942384D01*
X132952399Y-93949616D01*
X132953545Y-93950262D01*
X132965903Y-93956791D01*
X132965914Y-93956796D01*
X132965917Y-93956798D01*
X133091768Y-94018936D01*
X133098974Y-94022355D01*
X133099648Y-94022662D01*
X133099679Y-94022676D01*
X133104565Y-94024806D01*
X133107175Y-94025945D01*
X133127473Y-94030036D01*
X133129597Y-94030683D01*
X133193238Y-94057044D01*
X133350000Y-94077682D01*
X133506762Y-94057044D01*
X133652841Y-93996536D01*
X133778282Y-93900282D01*
X133874536Y-93774841D01*
X133935044Y-93628762D01*
X133955682Y-93472000D01*
X133935044Y-93315238D01*
X133874536Y-93169159D01*
X133778282Y-93043718D01*
X133652841Y-92947464D01*
X133506762Y-92886956D01*
X133350000Y-92866318D01*
X133193238Y-92886956D01*
X133119378Y-92917548D01*
X133117960Y-92918029D01*
X133091772Y-92925061D01*
X132965904Y-92987207D01*
X132953509Y-92993754D01*
X132952409Y-92994375D01*
X132940380Y-93001603D01*
X132849221Y-93059838D01*
X132848893Y-93060040D01*
X132794715Y-93092150D01*
X132792427Y-93093187D01*
X132749286Y-93107297D01*
X132746640Y-93107829D01*
X132640114Y-93116463D01*
X132622393Y-93121122D01*
X132619469Y-93121500D01*
X132047189Y-93121500D01*
X132044042Y-93121061D01*
X132027887Y-93116464D01*
X132027874Y-93116461D01*
X131921361Y-93107830D01*
X131918715Y-93107298D01*
X131875571Y-93093188D01*
X131873283Y-93092151D01*
X131819116Y-93060047D01*
X131818788Y-93059845D01*
X131727627Y-93001609D01*
X131715658Y-92994414D01*
X131714574Y-92993803D01*
X131702099Y-92987210D01*
X131702088Y-92987204D01*
X131576216Y-92925056D01*
X131576071Y-92924987D01*
X131568851Y-92921564D01*
X131568128Y-92921235D01*
X131560826Y-92918055D01*
X131560827Y-92918055D01*
X131560824Y-92918054D01*
X131560822Y-92918053D01*
X131560815Y-92918051D01*
X131540522Y-92913961D01*
X131538393Y-92913313D01*
X131474762Y-92886956D01*
X131318000Y-92866318D01*
X131161238Y-92886956D01*
X131015159Y-92947464D01*
X130889718Y-93043718D01*
X130793464Y-93169159D01*
X130732956Y-93315238D01*
X130712318Y-93472000D01*
X127097682Y-93472000D01*
X127077044Y-93315238D01*
X127016536Y-93169159D01*
X126920282Y-93043718D01*
X126794841Y-92947464D01*
X126648762Y-92886956D01*
X126492000Y-92866318D01*
X126335238Y-92886956D01*
X126261378Y-92917548D01*
X126259960Y-92918029D01*
X126233772Y-92925061D01*
X126107904Y-92987207D01*
X126095509Y-92993754D01*
X126094409Y-92994375D01*
X126082380Y-93001603D01*
X125991218Y-93059840D01*
X125990890Y-93060042D01*
X125936712Y-93092152D01*
X125934424Y-93093189D01*
X125891284Y-93107298D01*
X125888638Y-93107830D01*
X125782115Y-93116463D01*
X125764394Y-93121122D01*
X125761470Y-93121500D01*
X124300189Y-93121500D01*
X124297042Y-93121061D01*
X124280887Y-93116464D01*
X124280874Y-93116461D01*
X124174361Y-93107830D01*
X124171715Y-93107298D01*
X124128571Y-93093188D01*
X124126283Y-93092151D01*
X124072116Y-93060047D01*
X124071788Y-93059845D01*
X123980627Y-93001609D01*
X123968658Y-92994414D01*
X123967574Y-92993803D01*
X123955099Y-92987210D01*
X123955088Y-92987204D01*
X123829216Y-92925056D01*
X123829071Y-92924987D01*
X123821851Y-92921564D01*
X123821128Y-92921235D01*
X123813826Y-92918055D01*
X123813827Y-92918055D01*
X123813824Y-92918054D01*
X123813822Y-92918053D01*
X123813815Y-92918051D01*
X123793522Y-92913961D01*
X123791393Y-92913313D01*
X123727762Y-92886956D01*
X123571000Y-92866318D01*
X123414238Y-92886956D01*
X123268159Y-92947464D01*
X123142718Y-93043718D01*
X123046464Y-93169159D01*
X122985956Y-93315238D01*
X122965318Y-93472000D01*
X113430500Y-93472000D01*
X113430500Y-91440000D01*
X122059678Y-91440000D01*
X122078923Y-91647693D01*
X122124529Y-91807980D01*
X122136006Y-91848319D01*
X122136007Y-91848321D01*
X122136009Y-91848326D01*
X122228981Y-92035039D01*
X122228983Y-92035042D01*
X122354674Y-92201484D01*
X122354677Y-92201487D01*
X122354682Y-92201493D01*
X122488106Y-92323125D01*
X122508832Y-92342019D01*
X122666591Y-92439699D01*
X122686172Y-92451823D01*
X122686180Y-92451826D01*
X122686182Y-92451827D01*
X122692313Y-92454202D01*
X122880673Y-92527173D01*
X122880679Y-92527174D01*
X122880685Y-92527176D01*
X123010417Y-92551426D01*
X123085707Y-92565500D01*
X123294293Y-92565500D01*
X123499327Y-92527173D01*
X123627871Y-92477373D01*
X123628907Y-92477029D01*
X123651116Y-92470868D01*
X123672018Y-92460328D01*
X123673003Y-92459889D01*
X123693828Y-92451823D01*
X123715070Y-92438668D01*
X123715913Y-92438196D01*
X123978682Y-92305712D01*
X123993020Y-92297899D01*
X123994311Y-92297141D01*
X124008162Y-92288400D01*
X124238507Y-92132486D01*
X124238618Y-92132412D01*
X124413255Y-92019920D01*
X124415593Y-92018767D01*
X124601817Y-91951850D01*
X124604676Y-91951219D01*
X124926816Y-91922438D01*
X124943671Y-91917895D01*
X124946663Y-91917500D01*
X126621454Y-91917500D01*
X126629586Y-91920868D01*
X126795342Y-92086624D01*
X126797256Y-92089160D01*
X126805430Y-92103834D01*
X126805432Y-92103838D01*
X126874651Y-92185263D01*
X126876146Y-92187510D01*
X126896677Y-92227996D01*
X126897561Y-92230348D01*
X126913156Y-92291326D01*
X126913246Y-92291700D01*
X126936535Y-92397374D01*
X126939922Y-92410958D01*
X126940262Y-92412177D01*
X126944414Y-92425634D01*
X126989443Y-92558497D01*
X126992233Y-92566312D01*
X126992481Y-92566975D01*
X126995384Y-92574360D01*
X126995388Y-92574369D01*
X127004163Y-92587578D01*
X127006851Y-92591625D01*
X127007897Y-92593587D01*
X127034264Y-92657241D01*
X127130518Y-92782682D01*
X127255959Y-92878936D01*
X127402038Y-92939444D01*
X127558800Y-92960082D01*
X127715562Y-92939444D01*
X127861641Y-92878936D01*
X127987082Y-92782682D01*
X128083336Y-92657241D01*
X128143844Y-92511162D01*
X128164482Y-92354400D01*
X128143844Y-92197638D01*
X128093046Y-92075000D01*
X130712318Y-92075000D01*
X130732956Y-92231762D01*
X130793464Y-92377841D01*
X130889718Y-92503282D01*
X131015159Y-92599536D01*
X131161238Y-92660044D01*
X131318000Y-92680682D01*
X131474762Y-92660044D01*
X131548637Y-92629442D01*
X131550044Y-92628964D01*
X131576232Y-92621935D01*
X131702082Y-92559797D01*
X131714464Y-92553256D01*
X131715583Y-92552625D01*
X131727636Y-92545383D01*
X131818802Y-92487141D01*
X131819096Y-92486960D01*
X131873281Y-92454845D01*
X131875566Y-92453809D01*
X131918711Y-92439698D01*
X131921354Y-92439167D01*
X131952346Y-92436656D01*
X132027875Y-92430537D01*
X132027878Y-92430536D01*
X132027881Y-92430536D01*
X132045604Y-92425878D01*
X132048527Y-92425500D01*
X132620816Y-92425500D01*
X132623961Y-92425938D01*
X132640119Y-92430536D01*
X132640121Y-92430536D01*
X132640126Y-92430537D01*
X132722067Y-92437175D01*
X132746644Y-92439167D01*
X132749289Y-92439699D01*
X132792418Y-92453805D01*
X132794706Y-92454842D01*
X132848899Y-92486960D01*
X132849227Y-92487162D01*
X132874459Y-92503281D01*
X132911857Y-92527173D01*
X132940364Y-92545384D01*
X132952399Y-92552616D01*
X132953545Y-92553262D01*
X132965903Y-92559791D01*
X132965914Y-92559796D01*
X132965917Y-92559798D01*
X133091768Y-92621936D01*
X133098974Y-92625355D01*
X133099648Y-92625662D01*
X133099679Y-92625676D01*
X133104565Y-92627806D01*
X133107175Y-92628945D01*
X133127473Y-92633036D01*
X133129597Y-92633683D01*
X133193238Y-92660044D01*
X133350000Y-92680682D01*
X133506762Y-92660044D01*
X133652841Y-92599536D01*
X133778282Y-92503282D01*
X133874536Y-92377841D01*
X133935044Y-92231762D01*
X133955682Y-92075000D01*
X133935044Y-91918238D01*
X133874536Y-91772159D01*
X133778282Y-91646718D01*
X133652841Y-91550464D01*
X133506762Y-91489956D01*
X133350000Y-91469318D01*
X133193238Y-91489956D01*
X133119378Y-91520548D01*
X133117960Y-91521029D01*
X133091772Y-91528061D01*
X132965904Y-91590207D01*
X132953509Y-91596754D01*
X132952409Y-91597375D01*
X132940380Y-91604603D01*
X132849221Y-91662838D01*
X132848893Y-91663040D01*
X132794715Y-91695150D01*
X132792427Y-91696187D01*
X132749286Y-91710297D01*
X132746640Y-91710829D01*
X132640114Y-91719463D01*
X132622393Y-91724122D01*
X132619469Y-91724500D01*
X132047189Y-91724500D01*
X132044042Y-91724061D01*
X132027887Y-91719464D01*
X132027874Y-91719461D01*
X131921361Y-91710830D01*
X131918715Y-91710298D01*
X131875571Y-91696188D01*
X131873283Y-91695151D01*
X131819116Y-91663047D01*
X131818788Y-91662845D01*
X131727627Y-91604609D01*
X131715658Y-91597414D01*
X131714574Y-91596803D01*
X131705094Y-91591793D01*
X131702088Y-91590204D01*
X131576216Y-91528056D01*
X131576071Y-91527987D01*
X131568851Y-91524564D01*
X131568128Y-91524235D01*
X131560826Y-91521055D01*
X131560827Y-91521055D01*
X131560824Y-91521054D01*
X131560822Y-91521053D01*
X131560815Y-91521051D01*
X131540522Y-91516961D01*
X131538393Y-91516313D01*
X131474762Y-91489956D01*
X131318000Y-91469318D01*
X131161238Y-91489956D01*
X131015159Y-91550464D01*
X130889718Y-91646718D01*
X130793464Y-91772159D01*
X130732956Y-91918238D01*
X130712318Y-92075000D01*
X128093046Y-92075000D01*
X128083336Y-92051559D01*
X127987082Y-91926118D01*
X127861641Y-91829864D01*
X127823589Y-91814102D01*
X127787771Y-91799266D01*
X127786427Y-91798603D01*
X127762950Y-91785063D01*
X127762948Y-91785062D01*
X127762946Y-91785061D01*
X127762941Y-91785059D01*
X127762938Y-91785058D01*
X127630022Y-91740009D01*
X127616698Y-91735896D01*
X127616257Y-91735773D01*
X127615458Y-91735550D01*
X127608542Y-91733824D01*
X127601767Y-91732133D01*
X127496107Y-91708848D01*
X127495733Y-91708758D01*
X127434749Y-91693161D01*
X127432397Y-91692277D01*
X127391910Y-91671746D01*
X127389663Y-91670251D01*
X127308239Y-91601034D01*
X127292404Y-91591789D01*
X127290075Y-91589993D01*
X127140082Y-91440000D01*
X137299678Y-91440000D01*
X137318923Y-91647693D01*
X137364529Y-91807980D01*
X137376006Y-91848319D01*
X137376007Y-91848321D01*
X137376009Y-91848326D01*
X137398267Y-91893026D01*
X137398964Y-91894769D01*
X137402910Y-91907590D01*
X137402911Y-91907593D01*
X137436523Y-91969867D01*
X137436697Y-91970203D01*
X137468981Y-92035039D01*
X137468983Y-92035042D01*
X137477976Y-92046950D01*
X137478919Y-92048418D01*
X137586186Y-92247157D01*
X137586197Y-92247176D01*
X137598500Y-92267624D01*
X137599705Y-92269430D01*
X137613955Y-92288757D01*
X137803452Y-92521992D01*
X137805319Y-92524264D01*
X137949783Y-92697947D01*
X137951338Y-92700385D01*
X138035697Y-92878785D01*
X138036723Y-92882363D01*
X138075023Y-93209382D01*
X138079040Y-93223151D01*
X138079500Y-93226372D01*
X138079500Y-93307457D01*
X138079255Y-93309817D01*
X138074956Y-93330314D01*
X138079412Y-93366052D01*
X138079500Y-93367475D01*
X138079500Y-93374038D01*
X138083045Y-93395290D01*
X138083114Y-93395759D01*
X138089426Y-93446391D01*
X138091951Y-93451557D01*
X138092961Y-93454711D01*
X138093696Y-93459113D01*
X138093908Y-93460381D01*
X138099917Y-93471484D01*
X138118173Y-93505220D01*
X138118390Y-93505642D01*
X138140801Y-93551483D01*
X138144865Y-93555547D01*
X138146846Y-93558204D01*
X138149580Y-93563255D01*
X138149582Y-93563258D01*
X138187098Y-93597794D01*
X138187441Y-93598123D01*
X139127042Y-94537723D01*
X139128956Y-94540259D01*
X139137130Y-94554934D01*
X139137135Y-94554941D01*
X139206351Y-94636363D01*
X139207846Y-94638610D01*
X139228377Y-94679096D01*
X139229261Y-94681448D01*
X139244856Y-94742426D01*
X139244946Y-94742800D01*
X139247234Y-94753181D01*
X139266199Y-94839238D01*
X139268235Y-94848474D01*
X139271622Y-94862058D01*
X139271962Y-94863277D01*
X139276114Y-94876734D01*
X139321143Y-95009597D01*
X139323933Y-95017412D01*
X139324181Y-95018075D01*
X139327084Y-95025460D01*
X139327088Y-95025469D01*
X139327283Y-95025762D01*
X139338551Y-95042725D01*
X139339597Y-95044687D01*
X139365964Y-95108341D01*
X139462218Y-95233782D01*
X139587659Y-95330036D01*
X139733738Y-95390544D01*
X139890500Y-95411182D01*
X140047262Y-95390544D01*
X140193341Y-95330036D01*
X140318782Y-95233782D01*
X140415036Y-95108341D01*
X140475544Y-94962262D01*
X140496182Y-94805500D01*
X140475544Y-94648738D01*
X140415036Y-94502659D01*
X140318782Y-94377218D01*
X140193341Y-94280964D01*
X140150739Y-94263318D01*
X140119471Y-94250366D01*
X140118127Y-94249703D01*
X140094650Y-94236163D01*
X140094648Y-94236162D01*
X140094646Y-94236161D01*
X140094641Y-94236159D01*
X140094638Y-94236158D01*
X139961722Y-94191109D01*
X139948398Y-94186996D01*
X139947957Y-94186873D01*
X139947158Y-94186650D01*
X139940242Y-94184924D01*
X139933467Y-94183233D01*
X139827807Y-94159948D01*
X139827433Y-94159858D01*
X139766449Y-94144261D01*
X139764097Y-94143377D01*
X139723610Y-94122846D01*
X139721363Y-94121351D01*
X139639940Y-94052135D01*
X139639935Y-94052131D01*
X139624110Y-94042893D01*
X139621776Y-94041094D01*
X138789447Y-93208765D01*
X138786079Y-93200633D01*
X138786156Y-93199311D01*
X138823276Y-92882353D01*
X138824300Y-92878785D01*
X138904111Y-92710000D01*
X149999678Y-92710000D01*
X150018923Y-92917693D01*
X150076005Y-93118316D01*
X150076009Y-93118326D01*
X150168981Y-93305039D01*
X150168983Y-93305042D01*
X150294674Y-93471484D01*
X150294677Y-93471487D01*
X150294682Y-93471493D01*
X150389800Y-93558204D01*
X150448832Y-93612019D01*
X150595158Y-93702620D01*
X150626172Y-93721823D01*
X150626180Y-93721826D01*
X150626182Y-93721827D01*
X150647752Y-93730183D01*
X150820673Y-93797173D01*
X150820679Y-93797174D01*
X150820685Y-93797176D01*
X150950417Y-93821426D01*
X151025707Y-93835500D01*
X151234293Y-93835500D01*
X151341623Y-93815436D01*
X151439314Y-93797176D01*
X151439317Y-93797174D01*
X151439327Y-93797173D01*
X151633828Y-93721823D01*
X151784124Y-93628763D01*
X151811167Y-93612019D01*
X151811168Y-93612017D01*
X151811171Y-93612016D01*
X151965318Y-93471493D01*
X151973710Y-93460381D01*
X152091016Y-93305042D01*
X152091018Y-93305039D01*
X152091017Y-93305039D01*
X152091019Y-93305038D01*
X152183994Y-93118319D01*
X152241076Y-92917696D01*
X152260322Y-92710000D01*
X152539678Y-92710000D01*
X152558923Y-92917693D01*
X152616005Y-93118316D01*
X152616009Y-93118326D01*
X152708981Y-93305039D01*
X152708983Y-93305042D01*
X152834674Y-93471484D01*
X152834677Y-93471487D01*
X152834682Y-93471493D01*
X152929800Y-93558204D01*
X152988832Y-93612019D01*
X153135158Y-93702620D01*
X153166172Y-93721823D01*
X153166180Y-93721826D01*
X153166182Y-93721827D01*
X153187752Y-93730183D01*
X153360673Y-93797173D01*
X153360679Y-93797174D01*
X153360685Y-93797176D01*
X153490417Y-93821426D01*
X153565707Y-93835500D01*
X153774293Y-93835500D01*
X153881623Y-93815436D01*
X153979314Y-93797176D01*
X153979317Y-93797174D01*
X153979327Y-93797173D01*
X154173828Y-93721823D01*
X154324124Y-93628763D01*
X154351167Y-93612019D01*
X154351168Y-93612017D01*
X154351171Y-93612016D01*
X154505318Y-93471493D01*
X154513710Y-93460381D01*
X154631016Y-93305042D01*
X154631018Y-93305039D01*
X154631017Y-93305039D01*
X154631019Y-93305038D01*
X154723994Y-93118319D01*
X154781076Y-92917696D01*
X154800322Y-92710000D01*
X155079678Y-92710000D01*
X155098923Y-92917693D01*
X155156005Y-93118316D01*
X155156009Y-93118326D01*
X155248981Y-93305039D01*
X155248983Y-93305042D01*
X155374674Y-93471484D01*
X155374677Y-93471487D01*
X155374682Y-93471493D01*
X155469800Y-93558204D01*
X155528832Y-93612019D01*
X155675158Y-93702620D01*
X155706172Y-93721823D01*
X155706180Y-93721826D01*
X155706182Y-93721827D01*
X155727752Y-93730183D01*
X155900673Y-93797173D01*
X155900679Y-93797174D01*
X155900685Y-93797176D01*
X156030417Y-93821426D01*
X156105707Y-93835500D01*
X156314293Y-93835500D01*
X156421623Y-93815436D01*
X156519314Y-93797176D01*
X156519317Y-93797174D01*
X156519327Y-93797173D01*
X156713828Y-93721823D01*
X156864124Y-93628763D01*
X156891167Y-93612019D01*
X156891168Y-93612017D01*
X156891171Y-93612016D01*
X157045318Y-93471493D01*
X157053710Y-93460381D01*
X157171016Y-93305042D01*
X157171018Y-93305039D01*
X157171017Y-93305039D01*
X157171019Y-93305038D01*
X157263994Y-93118319D01*
X157321076Y-92917696D01*
X157340322Y-92710000D01*
X157619678Y-92710000D01*
X157638923Y-92917693D01*
X157696005Y-93118316D01*
X157696009Y-93118326D01*
X157788981Y-93305039D01*
X157788983Y-93305042D01*
X157914674Y-93471484D01*
X157914677Y-93471487D01*
X157914682Y-93471493D01*
X158009800Y-93558204D01*
X158068832Y-93612019D01*
X158215158Y-93702620D01*
X158246172Y-93721823D01*
X158246180Y-93721826D01*
X158246182Y-93721827D01*
X158267752Y-93730183D01*
X158440673Y-93797173D01*
X158440679Y-93797174D01*
X158440685Y-93797176D01*
X158570417Y-93821426D01*
X158645707Y-93835500D01*
X158854293Y-93835500D01*
X158961623Y-93815436D01*
X159059314Y-93797176D01*
X159059317Y-93797174D01*
X159059327Y-93797173D01*
X159253828Y-93721823D01*
X159404124Y-93628763D01*
X159431167Y-93612019D01*
X159431168Y-93612017D01*
X159431171Y-93612016D01*
X159585318Y-93471493D01*
X159593710Y-93460381D01*
X159711016Y-93305042D01*
X159711018Y-93305039D01*
X159711017Y-93305039D01*
X159711019Y-93305038D01*
X159803994Y-93118319D01*
X159861076Y-92917696D01*
X159880322Y-92710000D01*
X159861076Y-92502304D01*
X159803994Y-92301681D01*
X159711019Y-92114962D01*
X159711018Y-92114961D01*
X159711018Y-92114960D01*
X159711016Y-92114957D01*
X159585325Y-91948515D01*
X159585321Y-91948512D01*
X159585318Y-91948507D01*
X159431171Y-91807984D01*
X159431172Y-91807984D01*
X159431167Y-91807980D01*
X159253837Y-91698182D01*
X159253832Y-91698179D01*
X159253828Y-91698177D01*
X159253823Y-91698175D01*
X159253817Y-91698172D01*
X159104773Y-91640432D01*
X159059327Y-91622827D01*
X159059324Y-91622826D01*
X159059314Y-91622823D01*
X158854295Y-91584500D01*
X158854293Y-91584500D01*
X158645707Y-91584500D01*
X158645704Y-91584500D01*
X158440685Y-91622823D01*
X158440670Y-91622828D01*
X158246182Y-91698172D01*
X158246162Y-91698182D01*
X158068832Y-91807980D01*
X157992324Y-91877727D01*
X157914682Y-91948507D01*
X157914680Y-91948509D01*
X157914674Y-91948515D01*
X157788983Y-92114957D01*
X157788981Y-92114960D01*
X157696009Y-92301673D01*
X157696005Y-92301683D01*
X157638923Y-92502306D01*
X157619678Y-92710000D01*
X157340322Y-92710000D01*
X157321076Y-92502304D01*
X157263994Y-92301681D01*
X157171019Y-92114962D01*
X157171018Y-92114961D01*
X157171018Y-92114960D01*
X157171016Y-92114957D01*
X157045325Y-91948515D01*
X157045321Y-91948512D01*
X157045318Y-91948507D01*
X156891171Y-91807984D01*
X156891172Y-91807984D01*
X156891167Y-91807980D01*
X156713837Y-91698182D01*
X156713832Y-91698179D01*
X156713828Y-91698177D01*
X156713823Y-91698175D01*
X156713817Y-91698172D01*
X156564773Y-91640432D01*
X156519327Y-91622827D01*
X156519324Y-91622826D01*
X156519314Y-91622823D01*
X156314295Y-91584500D01*
X156314293Y-91584500D01*
X156105707Y-91584500D01*
X156105704Y-91584500D01*
X155900685Y-91622823D01*
X155900670Y-91622828D01*
X155706182Y-91698172D01*
X155706162Y-91698182D01*
X155528832Y-91807980D01*
X155452324Y-91877727D01*
X155374682Y-91948507D01*
X155374680Y-91948509D01*
X155374674Y-91948515D01*
X155248983Y-92114957D01*
X155248981Y-92114960D01*
X155156009Y-92301673D01*
X155156005Y-92301683D01*
X155098923Y-92502306D01*
X155079678Y-92710000D01*
X154800322Y-92710000D01*
X154781076Y-92502304D01*
X154723994Y-92301681D01*
X154631019Y-92114962D01*
X154631018Y-92114961D01*
X154631018Y-92114960D01*
X154631016Y-92114957D01*
X154505325Y-91948515D01*
X154505321Y-91948512D01*
X154505318Y-91948507D01*
X154351171Y-91807984D01*
X154351172Y-91807984D01*
X154351167Y-91807980D01*
X154173837Y-91698182D01*
X154173832Y-91698179D01*
X154173828Y-91698177D01*
X154173823Y-91698175D01*
X154173817Y-91698172D01*
X154024773Y-91640432D01*
X153979327Y-91622827D01*
X153979324Y-91622826D01*
X153979314Y-91622823D01*
X153774295Y-91584500D01*
X153774293Y-91584500D01*
X153565707Y-91584500D01*
X153565704Y-91584500D01*
X153360685Y-91622823D01*
X153360670Y-91622828D01*
X153166182Y-91698172D01*
X153166162Y-91698182D01*
X152988832Y-91807980D01*
X152912324Y-91877727D01*
X152834682Y-91948507D01*
X152834680Y-91948509D01*
X152834674Y-91948515D01*
X152708983Y-92114957D01*
X152708981Y-92114960D01*
X152616009Y-92301673D01*
X152616005Y-92301683D01*
X152558923Y-92502306D01*
X152539678Y-92710000D01*
X152260322Y-92710000D01*
X152241076Y-92502304D01*
X152183994Y-92301681D01*
X152091019Y-92114962D01*
X152091018Y-92114961D01*
X152091018Y-92114960D01*
X152091016Y-92114957D01*
X151965325Y-91948515D01*
X151965321Y-91948512D01*
X151965318Y-91948507D01*
X151811171Y-91807984D01*
X151811172Y-91807984D01*
X151811167Y-91807980D01*
X151633837Y-91698182D01*
X151633832Y-91698179D01*
X151633828Y-91698177D01*
X151633823Y-91698175D01*
X151633817Y-91698172D01*
X151484773Y-91640432D01*
X151439327Y-91622827D01*
X151439324Y-91622826D01*
X151439314Y-91622823D01*
X151234295Y-91584500D01*
X151234293Y-91584500D01*
X151025707Y-91584500D01*
X151025704Y-91584500D01*
X150820685Y-91622823D01*
X150820670Y-91622828D01*
X150626182Y-91698172D01*
X150626162Y-91698182D01*
X150448832Y-91807980D01*
X150372324Y-91877727D01*
X150294682Y-91948507D01*
X150294680Y-91948509D01*
X150294674Y-91948515D01*
X150168983Y-92114957D01*
X150168981Y-92114960D01*
X150076009Y-92301673D01*
X150076005Y-92301683D01*
X150018923Y-92502306D01*
X149999678Y-92710000D01*
X138904111Y-92710000D01*
X138908659Y-92700382D01*
X138910212Y-92697948D01*
X139013010Y-92574360D01*
X139054614Y-92524341D01*
X139055322Y-92523478D01*
X139056460Y-92522095D01*
X139173664Y-92377840D01*
X139246039Y-92288761D01*
X139246042Y-92288756D01*
X139246050Y-92288747D01*
X139260286Y-92269440D01*
X139261501Y-92267619D01*
X139273807Y-92247167D01*
X139381078Y-92048418D01*
X139382015Y-92046959D01*
X139382022Y-92046950D01*
X139391019Y-92035038D01*
X139423340Y-91970126D01*
X139423475Y-91969867D01*
X139457085Y-91907597D01*
X139462889Y-91896165D01*
X139463398Y-91895097D01*
X139468706Y-91883187D01*
X139469797Y-91877726D01*
X139470780Y-91874854D01*
X139483994Y-91848319D01*
X139541076Y-91647696D01*
X139560322Y-91440000D01*
X139541076Y-91232304D01*
X139483994Y-91031681D01*
X139391019Y-90844962D01*
X139391018Y-90844961D01*
X139391018Y-90844960D01*
X139391016Y-90844957D01*
X139265325Y-90678515D01*
X139265321Y-90678512D01*
X139265318Y-90678507D01*
X139111171Y-90537984D01*
X139111172Y-90537984D01*
X139111167Y-90537980D01*
X138933837Y-90428182D01*
X138933832Y-90428179D01*
X138933828Y-90428177D01*
X138933823Y-90428175D01*
X138933817Y-90428172D01*
X138784773Y-90370432D01*
X138739327Y-90352827D01*
X138739324Y-90352826D01*
X138739314Y-90352823D01*
X138534295Y-90314500D01*
X138534293Y-90314500D01*
X138325707Y-90314500D01*
X138325704Y-90314500D01*
X138120685Y-90352823D01*
X138120670Y-90352828D01*
X137926182Y-90428172D01*
X137926162Y-90428182D01*
X137748832Y-90537980D01*
X137664201Y-90615132D01*
X137594682Y-90678507D01*
X137594680Y-90678509D01*
X137594674Y-90678515D01*
X137468983Y-90844957D01*
X137468981Y-90844960D01*
X137376009Y-91031673D01*
X137376005Y-91031683D01*
X137318923Y-91232306D01*
X137299678Y-91440000D01*
X127140082Y-91440000D01*
X127045784Y-91345702D01*
X127044293Y-91343866D01*
X127032837Y-91326331D01*
X127032834Y-91326329D01*
X127032834Y-91326328D01*
X127018859Y-91315451D01*
X127004417Y-91304211D01*
X127003363Y-91303281D01*
X126998707Y-91298625D01*
X126981108Y-91286060D01*
X126980814Y-91285840D01*
X126940526Y-91254483D01*
X126940524Y-91254482D01*
X126940524Y-91254481D01*
X126935088Y-91252615D01*
X126932144Y-91251100D01*
X126927466Y-91247760D01*
X126878577Y-91233204D01*
X126878125Y-91233059D01*
X126829888Y-91216500D01*
X126824141Y-91216500D01*
X126820860Y-91216022D01*
X126815352Y-91214382D01*
X126764411Y-91216490D01*
X126763936Y-91216500D01*
X124954678Y-91216500D01*
X124950800Y-91215826D01*
X124942336Y-91212794D01*
X124622432Y-91165228D01*
X124618095Y-91163646D01*
X124456271Y-91064033D01*
X124453844Y-91062035D01*
X124292168Y-90886670D01*
X124288070Y-90882331D01*
X124287888Y-90882143D01*
X124287638Y-90881884D01*
X124287616Y-90881861D01*
X124287593Y-90881838D01*
X124283479Y-90877682D01*
X124081190Y-90678000D01*
X130712318Y-90678000D01*
X130732956Y-90834762D01*
X130793464Y-90980841D01*
X130889718Y-91106282D01*
X131015159Y-91202536D01*
X131161238Y-91263044D01*
X131318000Y-91283682D01*
X131474762Y-91263044D01*
X131620841Y-91202536D01*
X131746282Y-91106282D01*
X131842536Y-90980841D01*
X131873137Y-90906961D01*
X131873792Y-90905633D01*
X131887340Y-90882142D01*
X131932390Y-90749214D01*
X131936516Y-90735845D01*
X131936861Y-90734608D01*
X131940267Y-90720953D01*
X131963551Y-90615288D01*
X131963639Y-90614924D01*
X131979234Y-90553949D01*
X131980118Y-90551598D01*
X132000652Y-90511104D01*
X132002135Y-90508874D01*
X132071362Y-90427443D01*
X132080607Y-90411605D01*
X132082399Y-90409281D01*
X132193230Y-90298450D01*
X132195758Y-90296541D01*
X132210444Y-90288362D01*
X132291871Y-90219138D01*
X132294109Y-90217650D01*
X132334600Y-90197116D01*
X132336947Y-90196234D01*
X132397925Y-90180639D01*
X132398289Y-90180551D01*
X132503953Y-90157267D01*
X132517608Y-90153861D01*
X132518845Y-90153516D01*
X132532214Y-90149390D01*
X132665142Y-90104340D01*
X132672769Y-90101619D01*
X132673463Y-90101359D01*
X132680969Y-90098412D01*
X132698234Y-90086941D01*
X132700180Y-90085904D01*
X132763841Y-90059536D01*
X132889282Y-89963282D01*
X132985536Y-89837841D01*
X133046044Y-89691762D01*
X133066682Y-89535000D01*
X133046044Y-89378238D01*
X132985536Y-89232159D01*
X132889282Y-89106718D01*
X132763841Y-89010464D01*
X132617762Y-88949956D01*
X132461000Y-88929318D01*
X132304238Y-88949956D01*
X132158159Y-89010464D01*
X132032718Y-89106718D01*
X131936462Y-89232162D01*
X131905867Y-89306019D01*
X131905206Y-89307362D01*
X131891660Y-89330854D01*
X131891657Y-89330859D01*
X131846616Y-89463755D01*
X131842515Y-89477029D01*
X131842171Y-89478261D01*
X131838724Y-89492068D01*
X131815447Y-89597689D01*
X131815358Y-89598063D01*
X131799761Y-89659047D01*
X131798877Y-89661399D01*
X131778344Y-89701889D01*
X131776849Y-89704136D01*
X131707631Y-89785564D01*
X131698393Y-89801388D01*
X131696594Y-89803722D01*
X131585771Y-89914545D01*
X131583236Y-89916458D01*
X131579897Y-89918318D01*
X131568559Y-89924634D01*
X131487136Y-89993849D01*
X131484889Y-89995344D01*
X131444399Y-90015877D01*
X131442047Y-90016761D01*
X131381063Y-90032358D01*
X131380689Y-90032447D01*
X131275068Y-90055724D01*
X131275040Y-90055731D01*
X131261322Y-90059155D01*
X131261308Y-90059159D01*
X131260093Y-90059498D01*
X131246781Y-90063607D01*
X131113878Y-90108651D01*
X131105856Y-90111519D01*
X131105212Y-90111761D01*
X131098026Y-90114589D01*
X131080770Y-90126052D01*
X131078808Y-90127097D01*
X131015162Y-90153462D01*
X131015159Y-90153463D01*
X131015159Y-90153464D01*
X130889718Y-90249718D01*
X130793464Y-90375159D01*
X130732956Y-90521238D01*
X130712318Y-90678000D01*
X124081190Y-90678000D01*
X124059767Y-90656853D01*
X124059756Y-90656843D01*
X124035492Y-90635736D01*
X124033157Y-90633950D01*
X124033149Y-90633944D01*
X124006365Y-90616019D01*
X124006354Y-90616012D01*
X124006353Y-90616011D01*
X123897501Y-90552723D01*
X123856218Y-90528720D01*
X123855944Y-90528555D01*
X123693837Y-90428182D01*
X123693832Y-90428179D01*
X123693828Y-90428177D01*
X123693823Y-90428175D01*
X123693817Y-90428172D01*
X123662156Y-90415907D01*
X123660865Y-90415313D01*
X123649813Y-90409371D01*
X123648420Y-90408681D01*
X123633027Y-90401681D01*
X123618302Y-90398736D01*
X123616404Y-90398182D01*
X123527302Y-90363664D01*
X123499327Y-90352827D01*
X123499324Y-90352826D01*
X123499314Y-90352823D01*
X123294295Y-90314500D01*
X123294293Y-90314500D01*
X123085707Y-90314500D01*
X123085704Y-90314500D01*
X122880685Y-90352823D01*
X122880670Y-90352828D01*
X122686182Y-90428172D01*
X122686162Y-90428182D01*
X122508832Y-90537980D01*
X122424201Y-90615132D01*
X122354682Y-90678507D01*
X122354680Y-90678509D01*
X122354674Y-90678515D01*
X122228983Y-90844957D01*
X122228981Y-90844960D01*
X122136009Y-91031673D01*
X122136005Y-91031683D01*
X122078923Y-91232306D01*
X122059678Y-91440000D01*
X113430500Y-91440000D01*
X113430500Y-88900000D01*
X122059678Y-88900000D01*
X122078923Y-89107693D01*
X122136005Y-89308316D01*
X122136009Y-89308326D01*
X122228981Y-89495039D01*
X122228983Y-89495042D01*
X122354674Y-89661484D01*
X122354677Y-89661487D01*
X122354682Y-89661493D01*
X122488106Y-89783125D01*
X122508832Y-89802019D01*
X122686162Y-89911817D01*
X122686172Y-89911823D01*
X122880673Y-89987173D01*
X122880679Y-89987174D01*
X122880685Y-89987176D01*
X123010417Y-90011426D01*
X123085707Y-90025500D01*
X123294293Y-90025500D01*
X123401623Y-90005436D01*
X123499314Y-89987176D01*
X123499317Y-89987174D01*
X123499327Y-89987173D01*
X123693828Y-89911823D01*
X123813314Y-89837840D01*
X123871167Y-89802019D01*
X123871168Y-89802017D01*
X123871171Y-89802016D01*
X124025318Y-89661493D01*
X124151019Y-89495038D01*
X124243994Y-89308319D01*
X124301076Y-89107696D01*
X124320322Y-88900000D01*
X124314438Y-88836500D01*
X128997818Y-88836500D01*
X129018456Y-88993262D01*
X129078964Y-89139341D01*
X129175218Y-89264782D01*
X129300659Y-89361036D01*
X129446738Y-89421544D01*
X129603500Y-89442182D01*
X129760262Y-89421544D01*
X129906341Y-89361036D01*
X130031782Y-89264782D01*
X130128036Y-89139341D01*
X130158637Y-89065461D01*
X130159292Y-89064133D01*
X130172840Y-89040642D01*
X130217890Y-88907714D01*
X130220271Y-88900000D01*
X137299678Y-88900000D01*
X137318923Y-89107693D01*
X137376005Y-89308316D01*
X137376009Y-89308326D01*
X137468981Y-89495039D01*
X137468983Y-89495042D01*
X137594674Y-89661484D01*
X137594677Y-89661487D01*
X137594682Y-89661493D01*
X137728106Y-89783125D01*
X137748832Y-89802019D01*
X137926162Y-89911817D01*
X137926172Y-89911823D01*
X138120673Y-89987173D01*
X138120679Y-89987174D01*
X138120685Y-89987176D01*
X138250417Y-90011426D01*
X138325707Y-90025500D01*
X138534293Y-90025500D01*
X138641623Y-90005436D01*
X138739314Y-89987176D01*
X138739317Y-89987174D01*
X138739327Y-89987173D01*
X138933828Y-89911823D01*
X139053314Y-89837840D01*
X139111167Y-89802019D01*
X139111168Y-89802017D01*
X139111171Y-89802016D01*
X139265318Y-89661493D01*
X139391019Y-89495038D01*
X139483994Y-89308319D01*
X139541076Y-89107696D01*
X139560322Y-88900000D01*
X139541076Y-88692304D01*
X139483994Y-88491681D01*
X139391019Y-88304962D01*
X139391018Y-88304961D01*
X139391018Y-88304960D01*
X139391016Y-88304957D01*
X139265325Y-88138515D01*
X139265321Y-88138512D01*
X139265318Y-88138507D01*
X139111171Y-87997984D01*
X139111172Y-87997984D01*
X139111167Y-87997980D01*
X138933837Y-87888182D01*
X138933832Y-87888179D01*
X138933828Y-87888177D01*
X138933823Y-87888175D01*
X138933817Y-87888172D01*
X138757040Y-87819689D01*
X138739327Y-87812827D01*
X138739324Y-87812826D01*
X138739314Y-87812823D01*
X138534295Y-87774500D01*
X138534293Y-87774500D01*
X138325707Y-87774500D01*
X138325704Y-87774500D01*
X138120685Y-87812823D01*
X138120670Y-87812828D01*
X137926182Y-87888172D01*
X137926162Y-87888182D01*
X137748832Y-87997980D01*
X137649941Y-88088131D01*
X137594682Y-88138507D01*
X137594680Y-88138509D01*
X137594674Y-88138515D01*
X137468983Y-88304957D01*
X137468981Y-88304960D01*
X137376009Y-88491673D01*
X137376005Y-88491683D01*
X137318923Y-88692306D01*
X137299678Y-88900000D01*
X130220271Y-88900000D01*
X130222016Y-88894345D01*
X130222361Y-88893108D01*
X130225767Y-88879453D01*
X130249051Y-88773788D01*
X130249139Y-88773424D01*
X130264734Y-88712449D01*
X130265618Y-88710098D01*
X130286152Y-88669604D01*
X130287635Y-88667374D01*
X130356862Y-88585943D01*
X130366107Y-88570105D01*
X130367899Y-88567781D01*
X130415230Y-88520450D01*
X130417758Y-88518541D01*
X130432444Y-88510362D01*
X130513871Y-88441138D01*
X130516109Y-88439650D01*
X130556600Y-88419116D01*
X130558947Y-88418234D01*
X130619925Y-88402639D01*
X130620289Y-88402551D01*
X130725953Y-88379267D01*
X130739608Y-88375861D01*
X130740845Y-88375516D01*
X130754214Y-88371390D01*
X130887142Y-88326340D01*
X130894769Y-88323619D01*
X130895463Y-88323359D01*
X130902969Y-88320412D01*
X130920234Y-88308941D01*
X130922180Y-88307904D01*
X130985841Y-88281536D01*
X131111282Y-88185282D01*
X131207536Y-88059841D01*
X131268044Y-87913762D01*
X131288682Y-87757000D01*
X131268044Y-87600238D01*
X131207536Y-87454159D01*
X131111282Y-87328718D01*
X130985841Y-87232464D01*
X130839762Y-87171956D01*
X130683000Y-87151318D01*
X130526238Y-87171956D01*
X130380159Y-87232464D01*
X130254718Y-87328718D01*
X130163823Y-87447176D01*
X130158462Y-87454162D01*
X130127867Y-87528019D01*
X130127206Y-87529362D01*
X130113660Y-87552854D01*
X130113657Y-87552859D01*
X130068616Y-87685755D01*
X130064515Y-87699029D01*
X130064171Y-87700261D01*
X130060724Y-87714068D01*
X130037447Y-87819689D01*
X130037358Y-87820063D01*
X130021761Y-87881047D01*
X130020877Y-87883399D01*
X130000344Y-87923889D01*
X129998849Y-87926136D01*
X129929631Y-88007564D01*
X129920393Y-88023388D01*
X129918594Y-88025722D01*
X129871271Y-88073045D01*
X129868736Y-88074958D01*
X129865397Y-88076818D01*
X129854059Y-88083134D01*
X129772636Y-88152349D01*
X129770389Y-88153844D01*
X129729899Y-88174377D01*
X129727547Y-88175261D01*
X129666563Y-88190858D01*
X129666189Y-88190947D01*
X129560568Y-88214224D01*
X129560540Y-88214231D01*
X129546822Y-88217655D01*
X129546813Y-88217657D01*
X129546803Y-88217660D01*
X129545593Y-88217998D01*
X129532281Y-88222107D01*
X129399378Y-88267151D01*
X129391356Y-88270019D01*
X129390712Y-88270261D01*
X129383526Y-88273089D01*
X129366270Y-88284552D01*
X129364308Y-88285597D01*
X129300662Y-88311962D01*
X129300659Y-88311963D01*
X129300659Y-88311964D01*
X129175218Y-88408218D01*
X129078964Y-88533659D01*
X129018456Y-88679738D01*
X128997818Y-88836500D01*
X124314438Y-88836500D01*
X124301076Y-88692304D01*
X124243994Y-88491681D01*
X124151019Y-88304962D01*
X124151018Y-88304961D01*
X124151018Y-88304960D01*
X124151016Y-88304957D01*
X124025325Y-88138515D01*
X124025321Y-88138512D01*
X124025318Y-88138507D01*
X123871171Y-87997984D01*
X123871172Y-87997984D01*
X123871167Y-87997980D01*
X123693837Y-87888182D01*
X123693832Y-87888179D01*
X123693828Y-87888177D01*
X123693823Y-87888175D01*
X123693817Y-87888172D01*
X123517040Y-87819689D01*
X123499327Y-87812827D01*
X123499324Y-87812826D01*
X123499314Y-87812823D01*
X123294295Y-87774500D01*
X123294293Y-87774500D01*
X123085707Y-87774500D01*
X123085704Y-87774500D01*
X122880685Y-87812823D01*
X122880670Y-87812828D01*
X122686182Y-87888172D01*
X122686162Y-87888182D01*
X122508832Y-87997980D01*
X122409941Y-88088131D01*
X122354682Y-88138507D01*
X122354680Y-88138509D01*
X122354674Y-88138515D01*
X122228983Y-88304957D01*
X122228981Y-88304960D01*
X122136009Y-88491673D01*
X122136005Y-88491683D01*
X122078923Y-88692306D01*
X122059678Y-88900000D01*
X113430500Y-88900000D01*
X113430500Y-86360000D01*
X122059678Y-86360000D01*
X122078923Y-86567693D01*
X122136005Y-86768316D01*
X122136009Y-86768326D01*
X122228981Y-86955039D01*
X122228983Y-86955042D01*
X122354674Y-87121484D01*
X122354677Y-87121487D01*
X122354682Y-87121493D01*
X122476412Y-87232464D01*
X122508832Y-87262019D01*
X122686162Y-87371817D01*
X122686172Y-87371823D01*
X122880673Y-87447173D01*
X122880679Y-87447174D01*
X122880685Y-87447176D01*
X123010417Y-87471426D01*
X123085707Y-87485500D01*
X123294293Y-87485500D01*
X123401623Y-87465436D01*
X123499314Y-87447176D01*
X123499317Y-87447174D01*
X123499327Y-87447173D01*
X123693828Y-87371823D01*
X123773558Y-87322455D01*
X123871167Y-87262019D01*
X123871168Y-87262017D01*
X123871171Y-87262016D01*
X124025318Y-87121493D01*
X124151019Y-86955038D01*
X124243994Y-86768319D01*
X124301076Y-86567696D01*
X124320322Y-86360000D01*
X137299678Y-86360000D01*
X137318923Y-86567693D01*
X137376005Y-86768316D01*
X137376009Y-86768326D01*
X137468981Y-86955039D01*
X137468983Y-86955042D01*
X137594674Y-87121484D01*
X137594677Y-87121487D01*
X137594682Y-87121493D01*
X137716412Y-87232464D01*
X137748832Y-87262019D01*
X137926162Y-87371817D01*
X137926172Y-87371823D01*
X138120673Y-87447173D01*
X138120679Y-87447174D01*
X138120685Y-87447176D01*
X138250417Y-87471426D01*
X138325707Y-87485500D01*
X138534293Y-87485500D01*
X138641623Y-87465436D01*
X138739314Y-87447176D01*
X138739317Y-87447174D01*
X138739327Y-87447173D01*
X138933828Y-87371823D01*
X139013558Y-87322455D01*
X139111167Y-87262019D01*
X139111168Y-87262017D01*
X139111171Y-87262016D01*
X139265318Y-87121493D01*
X139391019Y-86955038D01*
X139483994Y-86768319D01*
X139541076Y-86567696D01*
X139560322Y-86360000D01*
X139541076Y-86152304D01*
X139483994Y-85951681D01*
X139391019Y-85764962D01*
X139391018Y-85764961D01*
X139391018Y-85764960D01*
X139391016Y-85764957D01*
X139265325Y-85598515D01*
X139265321Y-85598512D01*
X139265318Y-85598507D01*
X139111171Y-85457984D01*
X139111172Y-85457984D01*
X139111167Y-85457980D01*
X138933837Y-85348182D01*
X138933832Y-85348179D01*
X138933828Y-85348177D01*
X138933823Y-85348175D01*
X138933817Y-85348172D01*
X138784773Y-85290432D01*
X138739327Y-85272827D01*
X138739324Y-85272826D01*
X138739314Y-85272823D01*
X138534295Y-85234500D01*
X138534293Y-85234500D01*
X138325707Y-85234500D01*
X138325704Y-85234500D01*
X138120685Y-85272823D01*
X138120670Y-85272828D01*
X137926182Y-85348172D01*
X137926162Y-85348182D01*
X137748832Y-85457980D01*
X137649941Y-85548131D01*
X137594682Y-85598507D01*
X137594680Y-85598509D01*
X137594674Y-85598515D01*
X137468983Y-85764957D01*
X137468981Y-85764960D01*
X137376009Y-85951673D01*
X137376005Y-85951683D01*
X137318923Y-86152306D01*
X137299678Y-86360000D01*
X124320322Y-86360000D01*
X124301076Y-86152304D01*
X124243994Y-85951681D01*
X124151019Y-85764962D01*
X124151018Y-85764961D01*
X124151018Y-85764960D01*
X124151016Y-85764957D01*
X124025325Y-85598515D01*
X124025321Y-85598512D01*
X124025318Y-85598507D01*
X123871171Y-85457984D01*
X123871172Y-85457984D01*
X123871167Y-85457980D01*
X123693837Y-85348182D01*
X123693832Y-85348179D01*
X123693828Y-85348177D01*
X123693823Y-85348175D01*
X123693817Y-85348172D01*
X123544773Y-85290432D01*
X123499327Y-85272827D01*
X123499324Y-85272826D01*
X123499314Y-85272823D01*
X123294295Y-85234500D01*
X123294293Y-85234500D01*
X123085707Y-85234500D01*
X123085704Y-85234500D01*
X122880685Y-85272823D01*
X122880670Y-85272828D01*
X122686182Y-85348172D01*
X122686162Y-85348182D01*
X122508832Y-85457980D01*
X122409941Y-85548131D01*
X122354682Y-85598507D01*
X122354680Y-85598509D01*
X122354674Y-85598515D01*
X122228983Y-85764957D01*
X122228981Y-85764960D01*
X122136009Y-85951673D01*
X122136005Y-85951683D01*
X122078923Y-86152306D01*
X122059678Y-86360000D01*
X113430500Y-86360000D01*
X113430500Y-83820000D01*
X122059678Y-83820000D01*
X122078923Y-84027693D01*
X122136005Y-84228316D01*
X122136009Y-84228326D01*
X122228981Y-84415039D01*
X122228983Y-84415042D01*
X122354674Y-84581484D01*
X122354677Y-84581487D01*
X122354682Y-84581493D01*
X122488106Y-84703125D01*
X122508832Y-84722019D01*
X122686162Y-84831817D01*
X122686172Y-84831823D01*
X122880673Y-84907173D01*
X122880679Y-84907174D01*
X122880685Y-84907176D01*
X123010417Y-84931426D01*
X123085707Y-84945500D01*
X123294293Y-84945500D01*
X123401623Y-84925436D01*
X123499314Y-84907176D01*
X123499317Y-84907174D01*
X123499327Y-84907173D01*
X123693828Y-84831823D01*
X123773558Y-84782455D01*
X123871167Y-84722019D01*
X123871168Y-84722017D01*
X123871171Y-84722016D01*
X124025318Y-84581493D01*
X124151019Y-84415038D01*
X124243994Y-84228319D01*
X124301076Y-84027696D01*
X124320322Y-83820000D01*
X137299678Y-83820000D01*
X137318923Y-84027693D01*
X137376005Y-84228316D01*
X137376009Y-84228326D01*
X137468981Y-84415039D01*
X137468983Y-84415042D01*
X137594674Y-84581484D01*
X137594677Y-84581487D01*
X137594682Y-84581493D01*
X137728106Y-84703125D01*
X137748832Y-84722019D01*
X137926162Y-84831817D01*
X137926172Y-84831823D01*
X138120673Y-84907173D01*
X138120679Y-84907174D01*
X138120685Y-84907176D01*
X138250417Y-84931426D01*
X138325707Y-84945500D01*
X138534293Y-84945500D01*
X138641623Y-84925436D01*
X138645850Y-84924646D01*
X164053500Y-84924646D01*
X164092856Y-85109803D01*
X164169849Y-85282730D01*
X164281112Y-85435871D01*
X164281115Y-85435873D01*
X164281116Y-85435875D01*
X164421785Y-85562534D01*
X164421786Y-85562535D01*
X164585714Y-85657178D01*
X164585716Y-85657179D01*
X164765744Y-85715674D01*
X164906808Y-85730500D01*
X164906816Y-85730500D01*
X165801184Y-85730500D01*
X165801192Y-85730500D01*
X165942256Y-85715674D01*
X166122284Y-85657179D01*
X166286216Y-85562533D01*
X166426888Y-85435871D01*
X166538151Y-85282730D01*
X166615144Y-85109803D01*
X166654500Y-84924646D01*
X166654500Y-84735354D01*
X166615144Y-84550197D01*
X166538151Y-84377270D01*
X166426888Y-84224129D01*
X166426884Y-84224125D01*
X166426883Y-84224124D01*
X166286214Y-84097465D01*
X166286213Y-84097464D01*
X166122285Y-84002821D01*
X165942255Y-83944325D01*
X165801192Y-83929500D01*
X164906808Y-83929500D01*
X164906807Y-83929500D01*
X164765744Y-83944325D01*
X164585714Y-84002821D01*
X164421786Y-84097464D01*
X164421785Y-84097465D01*
X164281116Y-84224124D01*
X164169848Y-84377271D01*
X164092856Y-84550195D01*
X164086204Y-84581493D01*
X164053500Y-84735354D01*
X164053500Y-84924646D01*
X138645850Y-84924646D01*
X138739314Y-84907176D01*
X138739317Y-84907174D01*
X138739327Y-84907173D01*
X138933828Y-84831823D01*
X139013558Y-84782455D01*
X139111167Y-84722019D01*
X139111168Y-84722017D01*
X139111171Y-84722016D01*
X139265318Y-84581493D01*
X139391019Y-84415038D01*
X139483994Y-84228319D01*
X139541076Y-84027696D01*
X139560322Y-83820000D01*
X139541076Y-83612304D01*
X139483994Y-83411681D01*
X139391019Y-83224962D01*
X139391018Y-83224961D01*
X139391018Y-83224960D01*
X139391016Y-83224957D01*
X139265325Y-83058515D01*
X139265321Y-83058512D01*
X139265318Y-83058507D01*
X139138800Y-82943171D01*
X139111167Y-82917980D01*
X138933837Y-82808182D01*
X138933832Y-82808179D01*
X138933828Y-82808177D01*
X138933823Y-82808175D01*
X138933817Y-82808172D01*
X138784773Y-82750432D01*
X138739327Y-82732827D01*
X138739324Y-82732826D01*
X138739314Y-82732823D01*
X138724212Y-82730000D01*
X164348659Y-82730000D01*
X164367976Y-82926132D01*
X164367976Y-82926134D01*
X164367977Y-82926136D01*
X164425184Y-83114720D01*
X164425187Y-83114730D01*
X164518088Y-83288535D01*
X164518090Y-83288538D01*
X164643117Y-83440883D01*
X164795462Y-83565910D01*
X164969273Y-83658814D01*
X165157868Y-83716024D01*
X165354000Y-83735341D01*
X165550132Y-83716024D01*
X165738727Y-83658814D01*
X165912538Y-83565910D01*
X166064883Y-83440883D01*
X166189910Y-83288538D01*
X166282814Y-83114727D01*
X166340024Y-82926132D01*
X166359341Y-82730000D01*
X166340024Y-82533868D01*
X166282814Y-82345273D01*
X166254246Y-82291827D01*
X166189911Y-82171464D01*
X166189910Y-82171462D01*
X166064883Y-82019117D01*
X165912538Y-81894090D01*
X165912536Y-81894089D01*
X165912535Y-81894088D01*
X165738730Y-81801187D01*
X165738720Y-81801184D01*
X165550136Y-81743977D01*
X165550134Y-81743976D01*
X165550132Y-81743976D01*
X165524426Y-81741444D01*
X165516665Y-81737296D01*
X165514110Y-81728873D01*
X165518259Y-81721110D01*
X165524426Y-81718555D01*
X165550132Y-81716024D01*
X165738727Y-81658814D01*
X165912538Y-81565910D01*
X166064883Y-81440883D01*
X166189910Y-81288538D01*
X166282814Y-81114727D01*
X166340024Y-80926132D01*
X166359341Y-80730000D01*
X166340024Y-80533868D01*
X166282814Y-80345273D01*
X166189910Y-80171462D01*
X166064883Y-80019117D01*
X165912538Y-79894090D01*
X165912536Y-79894089D01*
X165912535Y-79894088D01*
X165738730Y-79801187D01*
X165738720Y-79801184D01*
X165550136Y-79743977D01*
X165550134Y-79743976D01*
X165550132Y-79743976D01*
X165524426Y-79741444D01*
X165516665Y-79737296D01*
X165514110Y-79728873D01*
X165518259Y-79721110D01*
X165524426Y-79718555D01*
X165550132Y-79716024D01*
X165738727Y-79658814D01*
X165912538Y-79565910D01*
X166064883Y-79440883D01*
X166189910Y-79288538D01*
X166282814Y-79114727D01*
X166340024Y-78926132D01*
X166359341Y-78730000D01*
X166340024Y-78533868D01*
X166282814Y-78345273D01*
X166277655Y-78335622D01*
X166189911Y-78171464D01*
X166189910Y-78171462D01*
X166064883Y-78019117D01*
X165912538Y-77894090D01*
X165912536Y-77894089D01*
X165912535Y-77894088D01*
X165738730Y-77801187D01*
X165738720Y-77801184D01*
X165550136Y-77743977D01*
X165550134Y-77743976D01*
X165550132Y-77743976D01*
X165354000Y-77724659D01*
X165157868Y-77743976D01*
X165157865Y-77743976D01*
X165157863Y-77743977D01*
X164969279Y-77801184D01*
X164969269Y-77801187D01*
X164795464Y-77894088D01*
X164643117Y-78019117D01*
X164518088Y-78171464D01*
X164425187Y-78345269D01*
X164425184Y-78345279D01*
X164367977Y-78533863D01*
X164367976Y-78533865D01*
X164367976Y-78533868D01*
X164348659Y-78730000D01*
X164367976Y-78926132D01*
X164367976Y-78926134D01*
X164367977Y-78926136D01*
X164425184Y-79114720D01*
X164425187Y-79114730D01*
X164518088Y-79288535D01*
X164518090Y-79288538D01*
X164643117Y-79440883D01*
X164795462Y-79565910D01*
X164969273Y-79658814D01*
X165157868Y-79716024D01*
X165183572Y-79718555D01*
X165191334Y-79722705D01*
X165193889Y-79731127D01*
X165189739Y-79738890D01*
X165183572Y-79741444D01*
X165157868Y-79743976D01*
X165157865Y-79743976D01*
X165157863Y-79743977D01*
X164969279Y-79801184D01*
X164969269Y-79801187D01*
X164795464Y-79894088D01*
X164643117Y-80019117D01*
X164518088Y-80171464D01*
X164425187Y-80345269D01*
X164425184Y-80345279D01*
X164367977Y-80533863D01*
X164367976Y-80533865D01*
X164367976Y-80533868D01*
X164348659Y-80730000D01*
X164367976Y-80926132D01*
X164367976Y-80926134D01*
X164367977Y-80926136D01*
X164425184Y-81114720D01*
X164425187Y-81114730D01*
X164513526Y-81280000D01*
X164518090Y-81288538D01*
X164643117Y-81440883D01*
X164795462Y-81565910D01*
X164969273Y-81658814D01*
X165157868Y-81716024D01*
X165183572Y-81718555D01*
X165191334Y-81722705D01*
X165193889Y-81731127D01*
X165189739Y-81738890D01*
X165183572Y-81741444D01*
X165157868Y-81743976D01*
X165157865Y-81743976D01*
X165157863Y-81743977D01*
X164969279Y-81801184D01*
X164969269Y-81801187D01*
X164795464Y-81894088D01*
X164643117Y-82019117D01*
X164518088Y-82171464D01*
X164425187Y-82345269D01*
X164425184Y-82345279D01*
X164367977Y-82533863D01*
X164367976Y-82533865D01*
X164367976Y-82533868D01*
X164348659Y-82730000D01*
X138724212Y-82730000D01*
X138534295Y-82694500D01*
X138534293Y-82694500D01*
X138325707Y-82694500D01*
X138325704Y-82694500D01*
X138120685Y-82732823D01*
X138120670Y-82732828D01*
X137926182Y-82808172D01*
X137926162Y-82808182D01*
X137748832Y-82917980D01*
X137649941Y-83008131D01*
X137594682Y-83058507D01*
X137594680Y-83058509D01*
X137594674Y-83058515D01*
X137468983Y-83224957D01*
X137468981Y-83224960D01*
X137376009Y-83411673D01*
X137376005Y-83411683D01*
X137318923Y-83612306D01*
X137299678Y-83820000D01*
X124320322Y-83820000D01*
X124301076Y-83612304D01*
X124243994Y-83411681D01*
X124151019Y-83224962D01*
X124151018Y-83224961D01*
X124151018Y-83224960D01*
X124151016Y-83224957D01*
X124025325Y-83058515D01*
X124025321Y-83058512D01*
X124025318Y-83058507D01*
X123898800Y-82943171D01*
X123871167Y-82917980D01*
X123693837Y-82808182D01*
X123693832Y-82808179D01*
X123693828Y-82808177D01*
X123693823Y-82808175D01*
X123693817Y-82808172D01*
X123544773Y-82750432D01*
X123499327Y-82732827D01*
X123499324Y-82732826D01*
X123499314Y-82732823D01*
X123294295Y-82694500D01*
X123294293Y-82694500D01*
X123085707Y-82694500D01*
X123085704Y-82694500D01*
X122880685Y-82732823D01*
X122880670Y-82732828D01*
X122686182Y-82808172D01*
X122686162Y-82808182D01*
X122508832Y-82917980D01*
X122409941Y-83008131D01*
X122354682Y-83058507D01*
X122354680Y-83058509D01*
X122354674Y-83058515D01*
X122228983Y-83224957D01*
X122228981Y-83224960D01*
X122136009Y-83411673D01*
X122136005Y-83411683D01*
X122078923Y-83612306D01*
X122059678Y-83820000D01*
X113430500Y-83820000D01*
X113430500Y-81280000D01*
X122059678Y-81280000D01*
X122078923Y-81487693D01*
X122136005Y-81688316D01*
X122136009Y-81688326D01*
X122228981Y-81875039D01*
X122228983Y-81875042D01*
X122354674Y-82041484D01*
X122354677Y-82041487D01*
X122354682Y-82041493D01*
X122488106Y-82163125D01*
X122508832Y-82182019D01*
X122686162Y-82291817D01*
X122686172Y-82291823D01*
X122880673Y-82367173D01*
X122880679Y-82367174D01*
X122880685Y-82367176D01*
X123010417Y-82391426D01*
X123085707Y-82405500D01*
X123294293Y-82405500D01*
X123401623Y-82385436D01*
X123499314Y-82367176D01*
X123499317Y-82367174D01*
X123499327Y-82367173D01*
X123693828Y-82291823D01*
X123773558Y-82242455D01*
X123871167Y-82182019D01*
X123871168Y-82182017D01*
X123871171Y-82182016D01*
X124025318Y-82041493D01*
X124151019Y-81875038D01*
X124243994Y-81688319D01*
X124301076Y-81487696D01*
X124320322Y-81280000D01*
X137299678Y-81280000D01*
X137318923Y-81487693D01*
X137376005Y-81688316D01*
X137376009Y-81688326D01*
X137468981Y-81875039D01*
X137468983Y-81875042D01*
X137594674Y-82041484D01*
X137594677Y-82041487D01*
X137594682Y-82041493D01*
X137728106Y-82163125D01*
X137748832Y-82182019D01*
X137926162Y-82291817D01*
X137926172Y-82291823D01*
X138120673Y-82367173D01*
X138120679Y-82367174D01*
X138120685Y-82367176D01*
X138250417Y-82391426D01*
X138325707Y-82405500D01*
X138534293Y-82405500D01*
X138641623Y-82385436D01*
X138739314Y-82367176D01*
X138739317Y-82367174D01*
X138739327Y-82367173D01*
X138933828Y-82291823D01*
X139013558Y-82242455D01*
X139111167Y-82182019D01*
X139111168Y-82182017D01*
X139111171Y-82182016D01*
X139265318Y-82041493D01*
X139391019Y-81875038D01*
X139483994Y-81688319D01*
X139541076Y-81487696D01*
X139560322Y-81280000D01*
X139541076Y-81072304D01*
X139483994Y-80871681D01*
X139391019Y-80684962D01*
X139391018Y-80684961D01*
X139391018Y-80684960D01*
X139391016Y-80684957D01*
X139265325Y-80518515D01*
X139265321Y-80518512D01*
X139265318Y-80518507D01*
X139111171Y-80377984D01*
X139111172Y-80377984D01*
X139111167Y-80377980D01*
X138933837Y-80268182D01*
X138933832Y-80268179D01*
X138933828Y-80268177D01*
X138933823Y-80268175D01*
X138933817Y-80268172D01*
X138784773Y-80210432D01*
X138739327Y-80192827D01*
X138739324Y-80192826D01*
X138739314Y-80192823D01*
X138534295Y-80154500D01*
X138534293Y-80154500D01*
X138325707Y-80154500D01*
X138325704Y-80154500D01*
X138120685Y-80192823D01*
X138120670Y-80192828D01*
X137926182Y-80268172D01*
X137926162Y-80268182D01*
X137748832Y-80377980D01*
X137649941Y-80468131D01*
X137594682Y-80518507D01*
X137594680Y-80518509D01*
X137594674Y-80518515D01*
X137468983Y-80684957D01*
X137468981Y-80684960D01*
X137376009Y-80871673D01*
X137376005Y-80871683D01*
X137318923Y-81072306D01*
X137299678Y-81280000D01*
X124320322Y-81280000D01*
X124301076Y-81072304D01*
X124243994Y-80871681D01*
X124151019Y-80684962D01*
X124151018Y-80684961D01*
X124151018Y-80684960D01*
X124151016Y-80684957D01*
X124025325Y-80518515D01*
X124025321Y-80518512D01*
X124025318Y-80518507D01*
X123871171Y-80377984D01*
X123871172Y-80377984D01*
X123871167Y-80377980D01*
X123693837Y-80268182D01*
X123693832Y-80268179D01*
X123693828Y-80268177D01*
X123693823Y-80268175D01*
X123693817Y-80268172D01*
X123544773Y-80210432D01*
X123499327Y-80192827D01*
X123499324Y-80192826D01*
X123499314Y-80192823D01*
X123294295Y-80154500D01*
X123294293Y-80154500D01*
X123085707Y-80154500D01*
X123085704Y-80154500D01*
X122880685Y-80192823D01*
X122880670Y-80192828D01*
X122686182Y-80268172D01*
X122686162Y-80268182D01*
X122508832Y-80377980D01*
X122409941Y-80468131D01*
X122354682Y-80518507D01*
X122354680Y-80518509D01*
X122354674Y-80518515D01*
X122228983Y-80684957D01*
X122228981Y-80684960D01*
X122136009Y-80871673D01*
X122136005Y-80871683D01*
X122078923Y-81072306D01*
X122059678Y-81280000D01*
X113430500Y-81280000D01*
X113430500Y-78740000D01*
X122059678Y-78740000D01*
X122078923Y-78947693D01*
X122136005Y-79148316D01*
X122136009Y-79148326D01*
X122228981Y-79335039D01*
X122228983Y-79335042D01*
X122354674Y-79501484D01*
X122354677Y-79501487D01*
X122354682Y-79501493D01*
X122426546Y-79567005D01*
X122508832Y-79642019D01*
X122686162Y-79751817D01*
X122686172Y-79751823D01*
X122686180Y-79751826D01*
X122686182Y-79751827D01*
X122696954Y-79756000D01*
X122880673Y-79827173D01*
X122880679Y-79827174D01*
X122880685Y-79827176D01*
X123010417Y-79851426D01*
X123085707Y-79865500D01*
X123294293Y-79865500D01*
X123401623Y-79845436D01*
X123499314Y-79827176D01*
X123499317Y-79827174D01*
X123499327Y-79827173D01*
X123693828Y-79751823D01*
X123773558Y-79702455D01*
X123871167Y-79642019D01*
X123871168Y-79642017D01*
X123871171Y-79642016D01*
X124025318Y-79501493D01*
X124102550Y-79399222D01*
X124151016Y-79335042D01*
X124151018Y-79335039D01*
X124151017Y-79335039D01*
X124151019Y-79335038D01*
X124243994Y-79148319D01*
X124301076Y-78947696D01*
X124320322Y-78740000D01*
X137050288Y-78740000D01*
X137069106Y-78967098D01*
X137125044Y-79187989D01*
X137125046Y-79187994D01*
X137216581Y-79396673D01*
X137216583Y-79396677D01*
X137296874Y-79519570D01*
X137946922Y-78869522D01*
X137970507Y-78949844D01*
X138048239Y-79070798D01*
X138156900Y-79164952D01*
X138287685Y-79224680D01*
X138297465Y-79226086D01*
X137649015Y-79874537D01*
X137675370Y-79895050D01*
X137675373Y-79895052D01*
X137875770Y-80003499D01*
X137875778Y-80003503D01*
X138091300Y-80077492D01*
X138091310Y-80077494D01*
X138316066Y-80115000D01*
X138543934Y-80115000D01*
X138768689Y-80077494D01*
X138768699Y-80077492D01*
X138984221Y-80003503D01*
X138984229Y-80003499D01*
X139184626Y-79895052D01*
X139184629Y-79895050D01*
X139210983Y-79874537D01*
X139092446Y-79756000D01*
X151413318Y-79756000D01*
X151433956Y-79912762D01*
X151494464Y-80058841D01*
X151590718Y-80184282D01*
X151716159Y-80280536D01*
X151862238Y-80341044D01*
X152019000Y-80361682D01*
X152175762Y-80341044D01*
X152321841Y-80280536D01*
X152447282Y-80184282D01*
X152543536Y-80058841D01*
X152604044Y-79912762D01*
X152624682Y-79756000D01*
X152622358Y-79738350D01*
X152622367Y-79735292D01*
X152623311Y-79728449D01*
X152613696Y-79567005D01*
X152612013Y-79549236D01*
X152611802Y-79547614D01*
X152608872Y-79529951D01*
X152584321Y-79408493D01*
X152582267Y-79399222D01*
X152582063Y-79398376D01*
X152579661Y-79389171D01*
X152552866Y-79293786D01*
X152552665Y-79292954D01*
X152533543Y-79198352D01*
X152533335Y-79196758D01*
X152525833Y-79070798D01*
X152524703Y-79051814D01*
X152519832Y-79031992D01*
X152519500Y-79029248D01*
X152519500Y-78703558D01*
X152519874Y-78700648D01*
X152524702Y-78682188D01*
X152524703Y-78682186D01*
X152533334Y-78537244D01*
X152533542Y-78535656D01*
X152552667Y-78441040D01*
X152552858Y-78440245D01*
X152579662Y-78344820D01*
X152582062Y-78335622D01*
X152582266Y-78334776D01*
X152584320Y-78325507D01*
X152608872Y-78204049D01*
X152611802Y-78186384D01*
X152612013Y-78184762D01*
X152613696Y-78166993D01*
X152623311Y-78005550D01*
X152623635Y-77998449D01*
X152623656Y-77997786D01*
X152623783Y-77990422D01*
X152623705Y-77990029D01*
X152623588Y-77986307D01*
X152624682Y-77978003D01*
X152624682Y-77978002D01*
X152624682Y-77978000D01*
X152604044Y-77821238D01*
X152543536Y-77675159D01*
X152447282Y-77549718D01*
X152321841Y-77453464D01*
X152175762Y-77392956D01*
X152019000Y-77372318D01*
X151862238Y-77392956D01*
X151716159Y-77453464D01*
X151590718Y-77549718D01*
X151494464Y-77675159D01*
X151433956Y-77821238D01*
X151413318Y-77978000D01*
X151415638Y-77995636D01*
X151415629Y-77998702D01*
X151414688Y-78005544D01*
X151414688Y-78005546D01*
X151424303Y-78166997D01*
X151425986Y-78184762D01*
X151426197Y-78186386D01*
X151429127Y-78204051D01*
X151453677Y-78325502D01*
X151453678Y-78325505D01*
X151455709Y-78334679D01*
X151455910Y-78335514D01*
X151456678Y-78338459D01*
X151458319Y-78344756D01*
X151458328Y-78344788D01*
X151458334Y-78344811D01*
X151468966Y-78382664D01*
X151485132Y-78440220D01*
X151485332Y-78441051D01*
X151504455Y-78535650D01*
X151504663Y-78537245D01*
X151513296Y-78682182D01*
X151518168Y-78702006D01*
X151518500Y-78704750D01*
X151518500Y-79030440D01*
X151518126Y-79033350D01*
X151513297Y-79051812D01*
X151504663Y-79196750D01*
X151504455Y-79198345D01*
X151485331Y-79292953D01*
X151485131Y-79293784D01*
X151458320Y-79389229D01*
X151455889Y-79398560D01*
X151455704Y-79399329D01*
X151453677Y-79408495D01*
X151429127Y-79529947D01*
X151426197Y-79547611D01*
X151425986Y-79549235D01*
X151424407Y-79565911D01*
X151424303Y-79567005D01*
X151414688Y-79728449D01*
X151414688Y-79728453D01*
X151414687Y-79728476D01*
X151414362Y-79735569D01*
X151414342Y-79736211D01*
X151414215Y-79743574D01*
X151414296Y-79743986D01*
X151414411Y-79747691D01*
X151413867Y-79751827D01*
X151413318Y-79756000D01*
X139092446Y-79756000D01*
X138562532Y-79226086D01*
X138572315Y-79224680D01*
X138703100Y-79164952D01*
X138811761Y-79070798D01*
X138889493Y-78949844D01*
X138913077Y-78869523D01*
X139563124Y-79519570D01*
X139563125Y-79519570D01*
X139643416Y-79396677D01*
X139643418Y-79396673D01*
X139734953Y-79187994D01*
X139734955Y-79187989D01*
X139790893Y-78967098D01*
X139809711Y-78740000D01*
X139790893Y-78512901D01*
X139734955Y-78292010D01*
X139734953Y-78292005D01*
X139643418Y-78083326D01*
X139643416Y-78083322D01*
X139563124Y-77960428D01*
X138913076Y-78610475D01*
X138889493Y-78530156D01*
X138811761Y-78409202D01*
X138703100Y-78315048D01*
X138572315Y-78255320D01*
X138562530Y-78253913D01*
X139210983Y-77605461D01*
X139184629Y-77584950D01*
X139184626Y-77584947D01*
X138984229Y-77476500D01*
X138984221Y-77476496D01*
X138768699Y-77402507D01*
X138768689Y-77402505D01*
X138543934Y-77365000D01*
X138316066Y-77365000D01*
X138091310Y-77402505D01*
X138091300Y-77402507D01*
X137875778Y-77476496D01*
X137875770Y-77476500D01*
X137675373Y-77584947D01*
X137675369Y-77584950D01*
X137649015Y-77605461D01*
X138297467Y-78253913D01*
X138287685Y-78255320D01*
X138156900Y-78315048D01*
X138048239Y-78409202D01*
X137970507Y-78530156D01*
X137946923Y-78610476D01*
X137296875Y-77960428D01*
X137296874Y-77960428D01*
X137216583Y-78083322D01*
X137216581Y-78083326D01*
X137125046Y-78292005D01*
X137125044Y-78292010D01*
X137069106Y-78512901D01*
X137050288Y-78740000D01*
X124320322Y-78740000D01*
X124301076Y-78532304D01*
X124243994Y-78331681D01*
X124151019Y-78144962D01*
X124151018Y-78144961D01*
X124151018Y-78144960D01*
X124151016Y-78144957D01*
X124025325Y-77978515D01*
X124025321Y-77978512D01*
X124025318Y-77978507D01*
X123871171Y-77837984D01*
X123871172Y-77837984D01*
X123871167Y-77837980D01*
X123693837Y-77728182D01*
X123693832Y-77728179D01*
X123693828Y-77728177D01*
X123693823Y-77728175D01*
X123693817Y-77728172D01*
X123544773Y-77670432D01*
X123499327Y-77652827D01*
X123499324Y-77652826D01*
X123499314Y-77652823D01*
X123294295Y-77614500D01*
X123294293Y-77614500D01*
X123085707Y-77614500D01*
X123085704Y-77614500D01*
X122880685Y-77652823D01*
X122880670Y-77652828D01*
X122686182Y-77728172D01*
X122686162Y-77728182D01*
X122508832Y-77837980D01*
X122447283Y-77894090D01*
X122354682Y-77978507D01*
X122354680Y-77978509D01*
X122354674Y-77978515D01*
X122228983Y-78144957D01*
X122228981Y-78144960D01*
X122136009Y-78331673D01*
X122136005Y-78331683D01*
X122078923Y-78532306D01*
X122059678Y-78740000D01*
X113430500Y-78740000D01*
X113430500Y-74930279D01*
X113430514Y-74929715D01*
X113432048Y-74898481D01*
X113433653Y-74865818D01*
X115165813Y-74865818D01*
X115175638Y-75122142D01*
X115224473Y-75373952D01*
X115224474Y-75373954D01*
X115307442Y-75604962D01*
X115311176Y-75615357D01*
X115311175Y-75615357D01*
X115433714Y-75840702D01*
X115573534Y-76024129D01*
X115589213Y-76044697D01*
X115726965Y-76177270D01*
X115774032Y-76222568D01*
X115983819Y-76370129D01*
X115983822Y-76370131D01*
X115983831Y-76370137D01*
X116107660Y-76431448D01*
X116213698Y-76483951D01*
X116213700Y-76483951D01*
X116213701Y-76483952D01*
X116458251Y-76561345D01*
X116549052Y-76575370D01*
X116711737Y-76600499D01*
X116711748Y-76600500D01*
X116904034Y-76600500D01*
X117095743Y-76585782D01*
X117095745Y-76585781D01*
X117095751Y-76585781D01*
X117345508Y-76527336D01*
X117583415Y-76431450D01*
X117803898Y-76300372D01*
X117925606Y-76200000D01*
X122059678Y-76200000D01*
X122078923Y-76407693D01*
X122136005Y-76608316D01*
X122136009Y-76608326D01*
X122228981Y-76795039D01*
X122228983Y-76795042D01*
X122354674Y-76961484D01*
X122354677Y-76961487D01*
X122354682Y-76961493D01*
X122487671Y-77082728D01*
X122508832Y-77102019D01*
X122686162Y-77211817D01*
X122686172Y-77211823D01*
X122880673Y-77287173D01*
X122880679Y-77287174D01*
X122880685Y-77287176D01*
X123010417Y-77311426D01*
X123085707Y-77325500D01*
X123294293Y-77325500D01*
X123401623Y-77305436D01*
X123499314Y-77287176D01*
X123499317Y-77287174D01*
X123499327Y-77287173D01*
X123693828Y-77211823D01*
X123773558Y-77162455D01*
X123871167Y-77102019D01*
X123871168Y-77102017D01*
X123871171Y-77102016D01*
X124025318Y-76961493D01*
X124064353Y-76909803D01*
X124151016Y-76795042D01*
X124151018Y-76795039D01*
X124151017Y-76795039D01*
X124151019Y-76795038D01*
X124243994Y-76608319D01*
X124301076Y-76407696D01*
X124320322Y-76200000D01*
X137299678Y-76200000D01*
X137318923Y-76407693D01*
X137376005Y-76608316D01*
X137376009Y-76608326D01*
X137468981Y-76795039D01*
X137468983Y-76795042D01*
X137594674Y-76961484D01*
X137594677Y-76961487D01*
X137594682Y-76961493D01*
X137727671Y-77082728D01*
X137748832Y-77102019D01*
X137926162Y-77211817D01*
X137926172Y-77211823D01*
X138120673Y-77287173D01*
X138120679Y-77287174D01*
X138120685Y-77287176D01*
X138250417Y-77311426D01*
X138325707Y-77325500D01*
X138534293Y-77325500D01*
X138641623Y-77305436D01*
X138739314Y-77287176D01*
X138739317Y-77287174D01*
X138739327Y-77287173D01*
X138933828Y-77211823D01*
X139013558Y-77162455D01*
X139111167Y-77102019D01*
X139111168Y-77102017D01*
X139111171Y-77102016D01*
X139265318Y-76961493D01*
X139304353Y-76909803D01*
X139391016Y-76795042D01*
X139391018Y-76795039D01*
X139391017Y-76795039D01*
X139391019Y-76795038D01*
X139426070Y-76724646D01*
X164053500Y-76724646D01*
X164092856Y-76909803D01*
X164169849Y-77082730D01*
X164281112Y-77235871D01*
X164281115Y-77235873D01*
X164281116Y-77235875D01*
X164421785Y-77362534D01*
X164421786Y-77362535D01*
X164579281Y-77453464D01*
X164585716Y-77457179D01*
X164765744Y-77515674D01*
X164906808Y-77530500D01*
X164906816Y-77530500D01*
X165801184Y-77530500D01*
X165801192Y-77530500D01*
X165942256Y-77515674D01*
X166122284Y-77457179D01*
X166286216Y-77362533D01*
X166426888Y-77235871D01*
X166538151Y-77082730D01*
X166615144Y-76909803D01*
X166654500Y-76724646D01*
X166654500Y-76535354D01*
X166615144Y-76350197D01*
X166538151Y-76177270D01*
X166426888Y-76024129D01*
X166426884Y-76024125D01*
X166426883Y-76024124D01*
X166286214Y-75897465D01*
X166286213Y-75897464D01*
X166122285Y-75802821D01*
X165942255Y-75744325D01*
X165801192Y-75729500D01*
X164906808Y-75729500D01*
X164906807Y-75729500D01*
X164765744Y-75744325D01*
X164585714Y-75802821D01*
X164421786Y-75897464D01*
X164421785Y-75897465D01*
X164281116Y-76024124D01*
X164169848Y-76177271D01*
X164092856Y-76350195D01*
X164080635Y-76407693D01*
X164053500Y-76535354D01*
X164053500Y-76724646D01*
X139426070Y-76724646D01*
X139483994Y-76608319D01*
X139541076Y-76407696D01*
X139560322Y-76200000D01*
X139541076Y-75992304D01*
X139483994Y-75791681D01*
X139391019Y-75604962D01*
X139391018Y-75604961D01*
X139391018Y-75604960D01*
X139391016Y-75604957D01*
X139265325Y-75438515D01*
X139265321Y-75438512D01*
X139265318Y-75438507D01*
X139111171Y-75297984D01*
X139111172Y-75297984D01*
X139111167Y-75297980D01*
X138933837Y-75188182D01*
X138933832Y-75188179D01*
X138933828Y-75188177D01*
X138933823Y-75188175D01*
X138933817Y-75188172D01*
X138763372Y-75122142D01*
X138739327Y-75112827D01*
X138739324Y-75112826D01*
X138739314Y-75112823D01*
X138534295Y-75074500D01*
X138534293Y-75074500D01*
X138325707Y-75074500D01*
X138325704Y-75074500D01*
X138120685Y-75112823D01*
X138120670Y-75112828D01*
X137926182Y-75188172D01*
X137926162Y-75188182D01*
X137748832Y-75297980D01*
X137665490Y-75373957D01*
X137594682Y-75438507D01*
X137594680Y-75438509D01*
X137594674Y-75438515D01*
X137468983Y-75604957D01*
X137468981Y-75604960D01*
X137376009Y-75791673D01*
X137376005Y-75791683D01*
X137318923Y-75992306D01*
X137299678Y-76200000D01*
X124320322Y-76200000D01*
X124301076Y-75992304D01*
X124243994Y-75791681D01*
X124151019Y-75604962D01*
X124151018Y-75604961D01*
X124151018Y-75604960D01*
X124151016Y-75604957D01*
X124025325Y-75438515D01*
X124025321Y-75438512D01*
X124025318Y-75438507D01*
X123871171Y-75297984D01*
X123871172Y-75297984D01*
X123871167Y-75297980D01*
X123693837Y-75188182D01*
X123693832Y-75188179D01*
X123693828Y-75188177D01*
X123693823Y-75188175D01*
X123693817Y-75188172D01*
X123523372Y-75122142D01*
X123499327Y-75112827D01*
X123499324Y-75112826D01*
X123499314Y-75112823D01*
X123294295Y-75074500D01*
X123294293Y-75074500D01*
X123085707Y-75074500D01*
X123085704Y-75074500D01*
X122880685Y-75112823D01*
X122880670Y-75112828D01*
X122686182Y-75188172D01*
X122686162Y-75188182D01*
X122508832Y-75297980D01*
X122425490Y-75373957D01*
X122354682Y-75438507D01*
X122354680Y-75438509D01*
X122354674Y-75438515D01*
X122228983Y-75604957D01*
X122228981Y-75604960D01*
X122136009Y-75791673D01*
X122136005Y-75791683D01*
X122078923Y-75992306D01*
X122059678Y-76200000D01*
X117925606Y-76200000D01*
X118001788Y-76137173D01*
X118172446Y-75945680D01*
X118311873Y-75730379D01*
X118416801Y-75496319D01*
X118484770Y-75248984D01*
X118514187Y-74994173D01*
X118509267Y-74865818D01*
X171045813Y-74865818D01*
X171055638Y-75122142D01*
X171104473Y-75373952D01*
X171104474Y-75373954D01*
X171187442Y-75604962D01*
X171191176Y-75615357D01*
X171191175Y-75615357D01*
X171313714Y-75840702D01*
X171453534Y-76024129D01*
X171469213Y-76044697D01*
X171606965Y-76177270D01*
X171654032Y-76222568D01*
X171863819Y-76370129D01*
X171863822Y-76370131D01*
X171863831Y-76370137D01*
X171987660Y-76431448D01*
X172093698Y-76483951D01*
X172093700Y-76483951D01*
X172093701Y-76483952D01*
X172338251Y-76561345D01*
X172429052Y-76575370D01*
X172591737Y-76600499D01*
X172591748Y-76600500D01*
X172784034Y-76600500D01*
X172975743Y-76585782D01*
X172975745Y-76585781D01*
X172975751Y-76585781D01*
X173225508Y-76527336D01*
X173463415Y-76431450D01*
X173683898Y-76300372D01*
X173881788Y-76137173D01*
X174052446Y-75945680D01*
X174191873Y-75730379D01*
X174296801Y-75496319D01*
X174364770Y-75248984D01*
X174394187Y-74994173D01*
X174384362Y-74737858D01*
X174335526Y-74486046D01*
X174248823Y-74244640D01*
X174126286Y-74019298D01*
X173970787Y-73815303D01*
X173785971Y-73637435D01*
X173785967Y-73637431D01*
X173576180Y-73489870D01*
X173576173Y-73489866D01*
X173576169Y-73489863D01*
X173499545Y-73451924D01*
X173346301Y-73376048D01*
X173101754Y-73298656D01*
X173101739Y-73298653D01*
X172848262Y-73259500D01*
X172848252Y-73259500D01*
X172655968Y-73259500D01*
X172655966Y-73259500D01*
X172464256Y-73274217D01*
X172214488Y-73332665D01*
X171976588Y-73428548D01*
X171976583Y-73428551D01*
X171756100Y-73559628D01*
X171558212Y-73722826D01*
X171387559Y-73914313D01*
X171387556Y-73914317D01*
X171248126Y-74129622D01*
X171143201Y-74363676D01*
X171143197Y-74363686D01*
X171075229Y-74611017D01*
X171075229Y-74611019D01*
X171045813Y-74865818D01*
X118509267Y-74865818D01*
X118504362Y-74737858D01*
X118455526Y-74486046D01*
X118368823Y-74244640D01*
X118246286Y-74019298D01*
X118090787Y-73815303D01*
X117905971Y-73637435D01*
X117905967Y-73637431D01*
X117696180Y-73489870D01*
X117696173Y-73489866D01*
X117696169Y-73489863D01*
X117619545Y-73451924D01*
X117466301Y-73376048D01*
X117221754Y-73298656D01*
X117221739Y-73298653D01*
X116968262Y-73259500D01*
X116968252Y-73259500D01*
X116775968Y-73259500D01*
X116775966Y-73259500D01*
X116584256Y-73274217D01*
X116334488Y-73332665D01*
X116096588Y-73428548D01*
X116096583Y-73428551D01*
X115876100Y-73559628D01*
X115678212Y-73722826D01*
X115507559Y-73914313D01*
X115507556Y-73914317D01*
X115368126Y-74129622D01*
X115263201Y-74363676D01*
X115263197Y-74363686D01*
X115195229Y-74611017D01*
X115195229Y-74611019D01*
X115165813Y-74865818D01*
X113433653Y-74865818D01*
X113446891Y-74596360D01*
X113446996Y-74595278D01*
X113495932Y-74265385D01*
X113496152Y-74264284D01*
X113529883Y-74129621D01*
X113577175Y-73940817D01*
X113577496Y-73939757D01*
X113689846Y-73625761D01*
X113690269Y-73624741D01*
X113832850Y-73323277D01*
X113833380Y-73322287D01*
X113847544Y-73298656D01*
X114004821Y-73036253D01*
X114005426Y-73035347D01*
X114204091Y-72767480D01*
X114204796Y-72766621D01*
X114428751Y-72519524D01*
X114429524Y-72518751D01*
X114676621Y-72294796D01*
X114677480Y-72294091D01*
X114945347Y-72095426D01*
X114946253Y-72094821D01*
X115232291Y-71923377D01*
X115233277Y-71922850D01*
X115534741Y-71780269D01*
X115535761Y-71779846D01*
X115849757Y-71667496D01*
X115850817Y-71667175D01*
X116174289Y-71586150D01*
X116175385Y-71585932D01*
X116505278Y-71536996D01*
X116506360Y-71536891D01*
X116839715Y-71520513D01*
X116840279Y-71520500D01*
X116897583Y-71520500D01*
X172662417Y-71520500D01*
X172719721Y-71520500D01*
X172720284Y-71520513D01*
G37*
%TD.AperFunction*%
%TD*%
%TA.AperFunction,Conductor*%
%TO.N,/MOSI*%
G36*
X131462442Y-91756853D02*
G01*
X131463102Y-91757153D01*
X131588974Y-91819301D01*
X131590076Y-91819923D01*
X131685001Y-91880564D01*
X131685013Y-91880571D01*
X131768256Y-91929909D01*
X131768259Y-91929909D01*
X131768261Y-91929911D01*
X131836922Y-91952366D01*
X131869273Y-91962947D01*
X131869274Y-91962947D01*
X131869277Y-91962948D01*
X132007246Y-91974128D01*
X132015214Y-91978212D01*
X132018000Y-91985790D01*
X132018000Y-92164209D01*
X132014573Y-92172482D01*
X132007245Y-92175871D01*
X131869272Y-92187051D01*
X131768263Y-92220086D01*
X131768256Y-92220088D01*
X131685013Y-92269426D01*
X131590085Y-92330070D01*
X131588966Y-92330701D01*
X131463116Y-92392839D01*
X131454181Y-92393429D01*
X131447445Y-92387528D01*
X131447138Y-92386854D01*
X131377546Y-92220088D01*
X131318879Y-92079505D01*
X131318857Y-92070551D01*
X131318880Y-92070494D01*
X131447139Y-91763143D01*
X131453487Y-91756830D01*
X131462442Y-91756853D01*
G37*
%TD.AperFunction*%
%TD*%
%TA.AperFunction,Conductor*%
%TO.N,/SCL*%
G36*
X126362554Y-93159471D02*
G01*
X126362861Y-93160145D01*
X126491119Y-93467494D01*
X126491142Y-93476449D01*
X126491119Y-93476506D01*
X126362861Y-93783854D01*
X126356512Y-93790169D01*
X126347557Y-93790146D01*
X126346883Y-93789839D01*
X126221032Y-93727701D01*
X126219913Y-93727070D01*
X126124985Y-93666426D01*
X126041742Y-93617088D01*
X126041735Y-93617086D01*
X125940725Y-93584051D01*
X125940727Y-93584051D01*
X125802755Y-93572871D01*
X125794786Y-93568787D01*
X125792000Y-93561209D01*
X125792000Y-93382790D01*
X125795427Y-93374517D01*
X125802753Y-93371128D01*
X125940722Y-93359948D01*
X126041737Y-93326911D01*
X126124998Y-93277564D01*
X126219929Y-93216918D01*
X126221016Y-93216305D01*
X126346885Y-93154159D01*
X126355819Y-93153570D01*
X126362554Y-93159471D01*
G37*
%TD.AperFunction*%
%TD*%
%TA.AperFunction,Conductor*%
%TO.N,+3V3*%
G36*
X132738518Y-112209671D02*
G01*
X132739024Y-112209897D01*
X132864018Y-112269154D01*
X132864794Y-112269558D01*
X132960516Y-112324043D01*
X133044985Y-112366231D01*
X133146565Y-112393388D01*
X133283062Y-112402286D01*
X133291094Y-112406244D01*
X133294000Y-112413961D01*
X133294000Y-112642038D01*
X133290573Y-112650311D01*
X133283061Y-112653713D01*
X133146570Y-112662610D01*
X133146566Y-112662610D01*
X133146565Y-112662611D01*
X133095775Y-112676189D01*
X133044984Y-112689768D01*
X132960515Y-112731955D01*
X132960502Y-112731962D01*
X132864794Y-112786440D01*
X132864018Y-112786844D01*
X132739024Y-112846102D01*
X132730080Y-112846550D01*
X132723440Y-112840542D01*
X132723214Y-112840036D01*
X132678111Y-112731955D01*
X132594879Y-112532505D01*
X132594857Y-112523551D01*
X132594880Y-112523494D01*
X132649174Y-112393388D01*
X132723215Y-112215961D01*
X132729563Y-112209648D01*
X132738518Y-112209671D01*
G37*
%TD.AperFunction*%
%TD*%
%TA.AperFunction,Conductor*%
%TO.N,/MISO*%
G36*
X130035392Y-88278444D02*
G01*
X130161555Y-88404607D01*
X130164982Y-88412880D01*
X130162196Y-88420458D01*
X130072545Y-88525917D01*
X130072542Y-88525921D01*
X130024475Y-88620708D01*
X130000495Y-88714467D01*
X129976254Y-88824468D01*
X129975909Y-88825705D01*
X129930859Y-88958633D01*
X129924958Y-88965369D01*
X129916023Y-88965959D01*
X129915329Y-88965699D01*
X129607308Y-88839063D01*
X129600960Y-88832749D01*
X129474300Y-88524668D01*
X129474323Y-88515716D01*
X129480672Y-88509401D01*
X129481355Y-88509144D01*
X129614301Y-88464086D01*
X129615526Y-88463744D01*
X129725522Y-88439504D01*
X129819289Y-88415523D01*
X129914078Y-88367455D01*
X130019543Y-88277802D01*
X130028064Y-88275055D01*
X130035392Y-88278444D01*
G37*
%TD.AperFunction*%
%TD*%
%TA.AperFunction,Conductor*%
%TO.N,/SW4*%
G36*
X136021478Y-93472868D02*
G01*
X136328854Y-93601138D01*
X136335169Y-93607487D01*
X136335146Y-93616442D01*
X136334839Y-93617116D01*
X136272701Y-93742966D01*
X136272070Y-93744085D01*
X136211426Y-93839013D01*
X136162088Y-93922256D01*
X136162086Y-93922263D01*
X136129051Y-94023272D01*
X136117871Y-94161245D01*
X136113787Y-94169214D01*
X136106209Y-94172000D01*
X135927790Y-94172000D01*
X135919517Y-94168573D01*
X135916128Y-94161245D01*
X135904948Y-94023277D01*
X135904947Y-94023274D01*
X135904947Y-94023272D01*
X135888670Y-93973506D01*
X135871911Y-93922261D01*
X135871909Y-93922259D01*
X135871909Y-93922256D01*
X135822571Y-93839013D01*
X135822564Y-93839001D01*
X135761923Y-93744076D01*
X135761301Y-93742974D01*
X135699159Y-93617114D01*
X135698570Y-93608180D01*
X135704471Y-93601445D01*
X135705125Y-93601146D01*
X136012494Y-93472879D01*
X136021449Y-93472857D01*
X136021478Y-93472868D01*
G37*
%TD.AperFunction*%
%TD*%
%TA.AperFunction,Conductor*%
%TO.N,/SW5*%
G36*
X151225401Y-105690440D02*
G01*
X151231716Y-105696789D01*
X151231976Y-105697483D01*
X151277027Y-105830410D01*
X151277372Y-105831647D01*
X151301612Y-105941647D01*
X151325592Y-106035406D01*
X151373660Y-106130195D01*
X151426398Y-106192234D01*
X151463313Y-106235658D01*
X151466061Y-106244181D01*
X151462672Y-106251509D01*
X151336509Y-106377672D01*
X151328236Y-106381099D01*
X151320658Y-106378313D01*
X151215197Y-106288662D01*
X151215195Y-106288660D01*
X151120406Y-106240592D01*
X151026647Y-106216612D01*
X150916647Y-106192372D01*
X150915410Y-106192027D01*
X150782483Y-106146976D01*
X150775747Y-106141075D01*
X150775157Y-106132140D01*
X150775407Y-106131470D01*
X150902054Y-105823423D01*
X150908365Y-105817078D01*
X151216448Y-105690417D01*
X151225401Y-105690440D01*
G37*
%TD.AperFunction*%
%TD*%
%TA.AperFunction,Conductor*%
%TO.N,/SW4*%
G36*
X123535013Y-90637634D02*
G01*
X123536400Y-90638321D01*
X123877931Y-90836891D01*
X123880266Y-90838677D01*
X124103983Y-91059510D01*
X124104366Y-91059906D01*
X124290964Y-91262303D01*
X124530749Y-91409906D01*
X124904759Y-91465516D01*
X124912438Y-91470123D01*
X124914738Y-91477089D01*
X124914738Y-91656298D01*
X124911311Y-91664571D01*
X124904079Y-91667952D01*
X124623342Y-91693034D01*
X124547735Y-91699790D01*
X124451382Y-91734413D01*
X124300512Y-91788626D01*
X124300508Y-91788628D01*
X124097779Y-91919216D01*
X123864946Y-92076812D01*
X123863655Y-92077570D01*
X123536089Y-92242726D01*
X123527159Y-92243391D01*
X123520375Y-92237546D01*
X123520022Y-92236780D01*
X123190863Y-91444486D01*
X123190855Y-91435534D01*
X123519719Y-90643949D01*
X123526058Y-90637625D01*
X123535013Y-90637634D01*
G37*
%TD.AperFunction*%
%TD*%
%TA.AperFunction,Conductor*%
%TO.N,/SW4*%
G36*
X133220554Y-93159471D02*
G01*
X133220861Y-93160145D01*
X133349119Y-93467494D01*
X133349142Y-93476449D01*
X133349119Y-93476506D01*
X133220861Y-93783854D01*
X133214512Y-93790169D01*
X133205557Y-93790146D01*
X133204883Y-93789839D01*
X133079032Y-93727701D01*
X133077913Y-93727070D01*
X132982985Y-93666426D01*
X132899742Y-93617088D01*
X132899735Y-93617086D01*
X132798725Y-93584051D01*
X132798727Y-93584051D01*
X132660755Y-93572871D01*
X132652786Y-93568787D01*
X132650000Y-93561209D01*
X132650000Y-93382790D01*
X132653427Y-93374517D01*
X132660753Y-93371128D01*
X132798722Y-93359948D01*
X132798724Y-93359947D01*
X132798726Y-93359947D01*
X132822870Y-93352050D01*
X132899738Y-93326911D01*
X132899740Y-93326909D01*
X132899742Y-93326909D01*
X132928433Y-93309903D01*
X132982998Y-93277564D01*
X133077929Y-93216918D01*
X133079016Y-93216305D01*
X133204885Y-93154159D01*
X133213819Y-93153570D01*
X133220554Y-93159471D01*
G37*
%TD.AperFunction*%
%TD*%
%TA.AperFunction,Conductor*%
%TO.N,/CS_SD*%
G36*
X122178478Y-95885868D02*
G01*
X122485854Y-96014138D01*
X122492169Y-96020487D01*
X122492146Y-96029442D01*
X122491839Y-96030116D01*
X122429701Y-96155966D01*
X122429070Y-96157085D01*
X122368426Y-96252013D01*
X122319088Y-96335256D01*
X122319086Y-96335263D01*
X122286051Y-96436272D01*
X122274871Y-96574245D01*
X122270787Y-96582214D01*
X122263209Y-96585000D01*
X122084790Y-96585000D01*
X122076517Y-96581573D01*
X122073128Y-96574245D01*
X122061948Y-96436277D01*
X122061947Y-96436274D01*
X122061947Y-96436272D01*
X122045670Y-96386506D01*
X122028911Y-96335261D01*
X122028909Y-96335259D01*
X122028909Y-96335256D01*
X121979571Y-96252013D01*
X121979564Y-96252001D01*
X121918923Y-96157076D01*
X121918301Y-96155974D01*
X121856159Y-96030114D01*
X121855570Y-96021180D01*
X121861471Y-96014445D01*
X121862125Y-96014146D01*
X122169494Y-95885879D01*
X122178449Y-95885857D01*
X122178478Y-95885868D01*
G37*
%TD.AperFunction*%
%TD*%
M02*
