%TF.GenerationSoftware,KiCad,Pcbnew,7.0.10*%
%TF.CreationDate,2024-02-16T08:22:26-05:00*%
%TF.ProjectId,destinationWeatherStation_r4-5,64657374-696e-4617-9469-6f6e57656174,03*%
%TF.SameCoordinates,Original*%
%TF.FileFunction,Copper,L2,Bot*%
%TF.FilePolarity,Positive*%
%FSLAX46Y46*%
G04 Gerber Fmt 4.6, Leading zero omitted, Abs format (unit mm)*
G04 Created by KiCad (PCBNEW 7.0.10) date 2024-02-16 08:22:26*
%MOMM*%
%LPD*%
G01*
G04 APERTURE LIST*
%TA.AperFunction,ComponentPad*%
%ADD10O,2.100000X1.300000*%
%TD*%
%TA.AperFunction,ComponentPad*%
%ADD11C,1.500000*%
%TD*%
%TA.AperFunction,ComponentPad*%
%ADD12C,1.750000*%
%TD*%
%TA.AperFunction,ViaPad*%
%ADD13C,0.700000*%
%TD*%
%TA.AperFunction,ViaPad*%
%ADD14C,1.000000*%
%TD*%
%TA.AperFunction,Conductor*%
%ADD15C,0.250000*%
%TD*%
%TA.AperFunction,Conductor*%
%ADD16C,0.500000*%
%TD*%
%TA.AperFunction,Conductor*%
%ADD17C,0.200000*%
%TD*%
G04 APERTURE END LIST*
D10*
%TO.P,SW1,*%
%TO.N,*%
X165354000Y-84830000D03*
X165354000Y-76630000D03*
D11*
%TO.P,SW1,1,A*%
%TO.N,Net-(SW1-A)*%
X165354000Y-82730000D03*
%TO.P,SW1,2,B*%
%TO.N,Net-(J1-Pin_1)*%
X165354000Y-80730000D03*
%TO.P,SW1,3,C*%
%TO.N,unconnected-(SW1-C-Pad3)*%
X165354000Y-78730000D03*
%TD*%
D12*
%TO.P,U1,1,D0*%
%TO.N,/SW2*%
X123190000Y-76200000D03*
%TO.P,U1,2,D1*%
%TO.N,/SW3*%
X123190000Y-78740000D03*
%TO.P,U1,3,D2*%
%TO.N,/CD*%
X123190000Y-81280000D03*
%TO.P,U1,4,D3*%
%TO.N,/CS_SD*%
X123190000Y-83820000D03*
%TO.P,U1,5,D4*%
%TO.N,/SDA*%
X123190000Y-86360000D03*
%TO.P,U1,6,D5*%
%TO.N,/SCL*%
X123190000Y-88900000D03*
%TO.P,U1,7,D6*%
%TO.N,/SW4*%
X123190000Y-91440000D03*
%TO.P,U1,8,D7*%
%TO.N,/SW5*%
X138430000Y-91440000D03*
%TO.P,U1,9,D8*%
%TO.N,/SCK*%
X138430000Y-88900000D03*
%TO.P,U1,10,D9*%
%TO.N,/MISO*%
X138430000Y-86360000D03*
%TO.P,U1,11,D10*%
%TO.N,/MOSI*%
X138430000Y-83820000D03*
%TO.P,U1,12,3V3*%
%TO.N,+3V3*%
X138430000Y-81280000D03*
%TO.P,U1,13,GND*%
%TO.N,GND*%
X138430000Y-78740000D03*
%TO.P,U1,14,VIN*%
%TO.N,VCC*%
X138430000Y-76200000D03*
%TD*%
%TO.P,U3,1,GND*%
%TO.N,/OLED1*%
X151130000Y-92710000D03*
%TO.P,U3,2,VCC*%
%TO.N,/OLED2*%
X153670000Y-92710000D03*
%TO.P,U3,3,SCL*%
%TO.N,/SCL*%
X156210000Y-92710000D03*
%TO.P,U3,4,SDA*%
%TO.N,/SDA*%
X158750000Y-92710000D03*
%TD*%
D13*
%TO.N,+3V3*%
X139185734Y-117595734D03*
X134366000Y-119634000D03*
%TO.N,GND*%
X117602000Y-95504000D03*
X160147000Y-76581000D03*
X117914000Y-103034000D03*
X116332000Y-114681000D03*
X159258000Y-79375000D03*
X115951000Y-95504000D03*
D14*
X131900000Y-118800000D03*
D13*
X160147000Y-81280000D03*
X160147000Y-79375000D03*
X160147000Y-75565000D03*
X160147000Y-77470000D03*
X156006800Y-86207600D03*
X160147000Y-80391000D03*
X152400000Y-89662000D03*
D14*
X129286000Y-116840000D03*
D13*
X159258000Y-75565000D03*
X117221000Y-101473000D03*
D14*
X134400000Y-114900000D03*
X118008400Y-86131400D03*
D13*
X159258000Y-77470000D03*
X159258000Y-81280000D03*
%TO.N,VCC*%
X152019000Y-77978000D03*
X152019000Y-79756000D03*
%TO.N,/SDA*%
X130302000Y-95758000D03*
X126746000Y-95250000D03*
X133999500Y-99441000D03*
%TO.N,/SCL*%
X135001000Y-98552000D03*
X126746000Y-94234000D03*
X131318000Y-94879503D03*
%TO.N,/MISO*%
X124206000Y-97536000D03*
X124206000Y-96131500D03*
X129603500Y-88836500D03*
X130683000Y-87757000D03*
%TO.N,/SCK*%
X133350000Y-91567000D03*
X125105503Y-96131500D03*
X131684500Y-91567000D03*
X124191500Y-98552000D03*
%TO.N,/MOSI*%
X133350000Y-92964000D03*
X131318000Y-92964000D03*
X136525000Y-89789000D03*
%TO.N,/CS_SD*%
X122174000Y-95631000D03*
X125222000Y-100965000D03*
%TO.N,/SW2*%
X123190000Y-73400500D03*
%TO.N,/SW3*%
X120777000Y-78232000D03*
%TO.N,/SW4*%
X150234734Y-106546734D03*
X151638000Y-107950000D03*
X136906000Y-93980000D03*
X131318000Y-93980000D03*
X133350000Y-93980000D03*
X126746000Y-93198109D03*
X138430000Y-94742000D03*
%TO.N,/SW5*%
X139001500Y-93916500D03*
X152908000Y-107823000D03*
X150933234Y-105848234D03*
%TD*%
D15*
%TO.N,+3V3*%
X137147468Y-119634000D02*
X134366000Y-119634000D01*
X139185734Y-117595734D02*
X137147468Y-119634000D01*
D16*
%TO.N,VCC*%
X152019000Y-79756000D02*
X152019000Y-77978000D01*
D17*
%TO.N,/SDA*%
X133985000Y-99441000D02*
X133999500Y-99441000D01*
X121412000Y-88138000D02*
X123190000Y-86360000D01*
X126746000Y-95250000D02*
X123952000Y-95250000D01*
X123952000Y-95250000D02*
X121412000Y-92710000D01*
X121412000Y-92710000D02*
X121412000Y-88138000D01*
X130302000Y-95758000D02*
X133985000Y-99441000D01*
%TO.N,/SCL*%
X124073649Y-94234000D02*
X121920000Y-92080351D01*
X121920000Y-92080351D02*
X121920000Y-90170000D01*
X126746000Y-94234000D02*
X124073649Y-94234000D01*
X135001000Y-98552000D02*
X134990497Y-98552000D01*
X134990497Y-98552000D02*
X131318000Y-94879503D01*
X121920000Y-90170000D02*
X123190000Y-88900000D01*
%TO.N,/MISO*%
X129603500Y-88836500D02*
X130683000Y-87757000D01*
X124206000Y-97536000D02*
X124206000Y-96131500D01*
%TO.N,/SCK*%
X124191500Y-98552000D02*
X125105503Y-97637997D01*
X125105503Y-97637997D02*
X125105503Y-96131500D01*
X131684500Y-91567000D02*
X133350000Y-91567000D01*
%TO.N,/MOSI*%
X136525000Y-85725000D02*
X138430000Y-83820000D01*
X131318000Y-92964000D02*
X133350000Y-92964000D01*
X136525000Y-89789000D02*
X136525000Y-85725000D01*
%TO.N,/CS_SD*%
X122174000Y-98201239D02*
X122174000Y-95631000D01*
X124937761Y-100965000D02*
X122174000Y-98201239D01*
X125222000Y-100965000D02*
X124937761Y-100965000D01*
%TO.N,/SW2*%
X123190000Y-73400500D02*
X123190000Y-76200000D01*
%TO.N,/SW3*%
X121285000Y-78740000D02*
X123190000Y-78740000D01*
X120777000Y-78232000D02*
X121285000Y-78740000D01*
%TO.N,/SW4*%
X151638000Y-107950000D02*
X150234734Y-106546734D01*
X137668000Y-93980000D02*
X136906000Y-93980000D01*
X133350000Y-93980000D02*
X131318000Y-93980000D01*
X138430000Y-94742000D02*
X137668000Y-93980000D01*
X126746000Y-93198109D02*
X124948109Y-93198109D01*
X124948109Y-93198109D02*
X123190000Y-91440000D01*
%TO.N,/SW5*%
X138430000Y-93345000D02*
X138430000Y-91440000D01*
X152908000Y-107823000D02*
X150933234Y-105848234D01*
X139001500Y-93916500D02*
X138430000Y-93345000D01*
%TD*%
%TA.AperFunction,Conductor*%
%TO.N,GND*%
G36*
X172720284Y-71501513D02*
G01*
X173055500Y-71517981D01*
X173056586Y-71518088D01*
X173388317Y-71567296D01*
X173389421Y-71567516D01*
X173714691Y-71648992D01*
X173715763Y-71649316D01*
X174031502Y-71762290D01*
X174032540Y-71762720D01*
X174335674Y-71906092D01*
X174336669Y-71906624D01*
X174430721Y-71962996D01*
X174624292Y-72079017D01*
X174625217Y-72079635D01*
X174808547Y-72215603D01*
X174894565Y-72279399D01*
X174895437Y-72280115D01*
X175143897Y-72505304D01*
X175144695Y-72506102D01*
X175369884Y-72754562D01*
X175370600Y-72755434D01*
X175570359Y-73024775D01*
X175570986Y-73025714D01*
X175743375Y-73313330D01*
X175743907Y-73314325D01*
X175887279Y-73617459D01*
X175887711Y-73618502D01*
X176000681Y-73934232D01*
X176001008Y-73935312D01*
X176082482Y-74260577D01*
X176082703Y-74261684D01*
X176131909Y-74593395D01*
X176132019Y-74594518D01*
X176148486Y-74929715D01*
X176148500Y-74930279D01*
X176148500Y-118109720D01*
X176148486Y-118110284D01*
X176132019Y-118445481D01*
X176131909Y-118446604D01*
X176082703Y-118778315D01*
X176082482Y-118779422D01*
X176001008Y-119104687D01*
X176000681Y-119105767D01*
X175887711Y-119421497D01*
X175887279Y-119422540D01*
X175743907Y-119725674D01*
X175743375Y-119726669D01*
X175570986Y-120014285D01*
X175570359Y-120015224D01*
X175370600Y-120284565D01*
X175369884Y-120285437D01*
X175144695Y-120533897D01*
X175143897Y-120534695D01*
X174895437Y-120759884D01*
X174894565Y-120760600D01*
X174625224Y-120960359D01*
X174624285Y-120960986D01*
X174336669Y-121133375D01*
X174335674Y-121133907D01*
X174032540Y-121277279D01*
X174031497Y-121277711D01*
X173715767Y-121390681D01*
X173714687Y-121391008D01*
X173389422Y-121472482D01*
X173388315Y-121472703D01*
X173056604Y-121521909D01*
X173055481Y-121522019D01*
X172720285Y-121538486D01*
X172719721Y-121538500D01*
X116840279Y-121538500D01*
X116839715Y-121538486D01*
X116504518Y-121522019D01*
X116503395Y-121521909D01*
X116171684Y-121472703D01*
X116170577Y-121472482D01*
X115845312Y-121391008D01*
X115844232Y-121390681D01*
X115528502Y-121277711D01*
X115527459Y-121277279D01*
X115224325Y-121133907D01*
X115223330Y-121133375D01*
X114935714Y-120960986D01*
X114934775Y-120960359D01*
X114665434Y-120760600D01*
X114664562Y-120759884D01*
X114416102Y-120534695D01*
X114415304Y-120533897D01*
X114190115Y-120285437D01*
X114189399Y-120284565D01*
X114024541Y-120062282D01*
X113989635Y-120015217D01*
X113989017Y-120014292D01*
X113863479Y-119804843D01*
X113816624Y-119726669D01*
X113816092Y-119725674D01*
X113685813Y-119450223D01*
X113672718Y-119422536D01*
X113672288Y-119421497D01*
X113622159Y-119281397D01*
X113559316Y-119105763D01*
X113558991Y-119104687D01*
X113553741Y-119083729D01*
X113477516Y-118779421D01*
X113477296Y-118778315D01*
X113464151Y-118689701D01*
X113428088Y-118446586D01*
X113427981Y-118445500D01*
X113411514Y-118110284D01*
X113411507Y-118110000D01*
X115183393Y-118110000D01*
X115203789Y-118369155D01*
X115264471Y-118621915D01*
X115264472Y-118621918D01*
X115264473Y-118621920D01*
X115363952Y-118862084D01*
X115499777Y-119083729D01*
X115668602Y-119281398D01*
X115866271Y-119450223D01*
X116087916Y-119586048D01*
X116328080Y-119685527D01*
X116328083Y-119685527D01*
X116328084Y-119685528D01*
X116580845Y-119746210D01*
X116580847Y-119746210D01*
X116580850Y-119746211D01*
X116775111Y-119761500D01*
X116775120Y-119761500D01*
X116904880Y-119761500D01*
X116904889Y-119761500D01*
X117099150Y-119746211D01*
X117099153Y-119746210D01*
X117099155Y-119746210D01*
X117225535Y-119715869D01*
X117351920Y-119685527D01*
X117476317Y-119634000D01*
X133760318Y-119634000D01*
X133780956Y-119790762D01*
X133841464Y-119936841D01*
X133937718Y-120062282D01*
X134063159Y-120158536D01*
X134209238Y-120219044D01*
X134366000Y-120239682D01*
X134522762Y-120219044D01*
X134668841Y-120158536D01*
X134794282Y-120062282D01*
X134830737Y-120014773D01*
X134831331Y-120013999D01*
X134838954Y-120009598D01*
X134840455Y-120009500D01*
X137107333Y-120009500D01*
X137109693Y-120009745D01*
X137131736Y-120014367D01*
X137170077Y-120009587D01*
X137171498Y-120009500D01*
X137178580Y-120009500D01*
X137178582Y-120009500D01*
X137201399Y-120005691D01*
X137201802Y-120005632D01*
X137256094Y-119998866D01*
X137261735Y-119996107D01*
X137264889Y-119995097D01*
X137271078Y-119994065D01*
X137319196Y-119968024D01*
X137319489Y-119967873D01*
X137368679Y-119943826D01*
X137373119Y-119939384D01*
X137375769Y-119937407D01*
X137381294Y-119934419D01*
X137418337Y-119894178D01*
X137418618Y-119893885D01*
X139115762Y-118196741D01*
X139123893Y-118193374D01*
X139125391Y-118193471D01*
X139185734Y-118201416D01*
X139342496Y-118180778D01*
X139488575Y-118120270D01*
X139501959Y-118110000D01*
X171063393Y-118110000D01*
X171083789Y-118369155D01*
X171144471Y-118621915D01*
X171144472Y-118621918D01*
X171144473Y-118621920D01*
X171243952Y-118862084D01*
X171379777Y-119083729D01*
X171548602Y-119281398D01*
X171746271Y-119450223D01*
X171967916Y-119586048D01*
X172208080Y-119685527D01*
X172208083Y-119685527D01*
X172208084Y-119685528D01*
X172460845Y-119746210D01*
X172460847Y-119746210D01*
X172460850Y-119746211D01*
X172655111Y-119761500D01*
X172655120Y-119761500D01*
X172784880Y-119761500D01*
X172784889Y-119761500D01*
X172979150Y-119746211D01*
X172979153Y-119746210D01*
X172979155Y-119746210D01*
X173105535Y-119715869D01*
X173231920Y-119685527D01*
X173472084Y-119586048D01*
X173693729Y-119450223D01*
X173891398Y-119281398D01*
X174060223Y-119083729D01*
X174196048Y-118862084D01*
X174295527Y-118621920D01*
X174356211Y-118369150D01*
X174376607Y-118110000D01*
X174356211Y-117850850D01*
X174332598Y-117752495D01*
X174295528Y-117598084D01*
X174295527Y-117598081D01*
X174196048Y-117357917D01*
X174196048Y-117357916D01*
X174060223Y-117136271D01*
X173891398Y-116938602D01*
X173693729Y-116769777D01*
X173472084Y-116633952D01*
X173231920Y-116534473D01*
X173231918Y-116534472D01*
X173231915Y-116534471D01*
X172979154Y-116473789D01*
X172979156Y-116473789D01*
X172901445Y-116467673D01*
X172784889Y-116458500D01*
X172655111Y-116458500D01*
X172538554Y-116467673D01*
X172460844Y-116473789D01*
X172208084Y-116534471D01*
X172208081Y-116534472D01*
X171967917Y-116633951D01*
X171746274Y-116769775D01*
X171746271Y-116769777D01*
X171548602Y-116938602D01*
X171379777Y-117136271D01*
X171379775Y-117136273D01*
X171379775Y-117136274D01*
X171243951Y-117357917D01*
X171144472Y-117598081D01*
X171144471Y-117598084D01*
X171083789Y-117850844D01*
X171063393Y-118110000D01*
X139501959Y-118110000D01*
X139614016Y-118024016D01*
X139710270Y-117898575D01*
X139770778Y-117752496D01*
X139791416Y-117595734D01*
X139770778Y-117438972D01*
X139710270Y-117292893D01*
X139614016Y-117167452D01*
X139488575Y-117071198D01*
X139342496Y-117010690D01*
X139185734Y-116990052D01*
X139028972Y-117010690D01*
X138882893Y-117071198D01*
X138757452Y-117167452D01*
X138661198Y-117292893D01*
X138600690Y-117438972D01*
X138580052Y-117595734D01*
X138587994Y-117656071D01*
X138585715Y-117664573D01*
X138584724Y-117665704D01*
X136995298Y-119255132D01*
X136987166Y-119258500D01*
X134840455Y-119258500D01*
X134832323Y-119255132D01*
X134831331Y-119254001D01*
X134825166Y-119245967D01*
X134794282Y-119205718D01*
X134668841Y-119109464D01*
X134522762Y-119048956D01*
X134366000Y-119028318D01*
X134209238Y-119048956D01*
X134063159Y-119109464D01*
X133937718Y-119205718D01*
X133841464Y-119331159D01*
X133780956Y-119477238D01*
X133760318Y-119634000D01*
X117476317Y-119634000D01*
X117592084Y-119586048D01*
X117813729Y-119450223D01*
X118011398Y-119281398D01*
X118180223Y-119083729D01*
X118316048Y-118862084D01*
X118415527Y-118621920D01*
X118476211Y-118369150D01*
X118496607Y-118110000D01*
X118476211Y-117850850D01*
X118452598Y-117752495D01*
X118415528Y-117598084D01*
X118415527Y-117598081D01*
X118316048Y-117357917D01*
X118316048Y-117357916D01*
X118180223Y-117136271D01*
X118011398Y-116938602D01*
X117813729Y-116769777D01*
X117592084Y-116633952D01*
X117351920Y-116534473D01*
X117351918Y-116534472D01*
X117351915Y-116534471D01*
X117099154Y-116473789D01*
X117099156Y-116473789D01*
X117021445Y-116467673D01*
X116904889Y-116458500D01*
X116775111Y-116458500D01*
X116658554Y-116467673D01*
X116580844Y-116473789D01*
X116328084Y-116534471D01*
X116328081Y-116534472D01*
X116087917Y-116633951D01*
X115866274Y-116769775D01*
X115866271Y-116769777D01*
X115668602Y-116938602D01*
X115499777Y-117136271D01*
X115499775Y-117136273D01*
X115499775Y-117136274D01*
X115363951Y-117357917D01*
X115264472Y-117598081D01*
X115264471Y-117598084D01*
X115203789Y-117850844D01*
X115183393Y-118110000D01*
X113411507Y-118110000D01*
X113411500Y-118109720D01*
X113411500Y-106546734D01*
X149629052Y-106546734D01*
X149649690Y-106703496D01*
X149710198Y-106849575D01*
X149806452Y-106975016D01*
X149931893Y-107071270D01*
X150077972Y-107131778D01*
X150234734Y-107152416D01*
X150326314Y-107140359D01*
X150334816Y-107142637D01*
X150335947Y-107143629D01*
X151041104Y-107848785D01*
X151044472Y-107856917D01*
X151044374Y-107858418D01*
X151032318Y-107949999D01*
X151032318Y-107950000D01*
X151052956Y-108106762D01*
X151113464Y-108252841D01*
X151209718Y-108378282D01*
X151335159Y-108474536D01*
X151481238Y-108535044D01*
X151638000Y-108555682D01*
X151794762Y-108535044D01*
X151940841Y-108474536D01*
X152066282Y-108378282D01*
X152162536Y-108252841D01*
X152223044Y-108106762D01*
X152243682Y-107950000D01*
X152223044Y-107793238D01*
X152162536Y-107647159D01*
X152066282Y-107521718D01*
X151940841Y-107425464D01*
X151794762Y-107364956D01*
X151638000Y-107344318D01*
X151637999Y-107344318D01*
X151546418Y-107356373D01*
X151537916Y-107354094D01*
X151536785Y-107353103D01*
X150831629Y-106647947D01*
X150828261Y-106639815D01*
X150828359Y-106638314D01*
X150840416Y-106546734D01*
X150828299Y-106454701D01*
X150830577Y-106446200D01*
X150838200Y-106441799D01*
X150841200Y-106441799D01*
X150933234Y-106453916D01*
X151024814Y-106441859D01*
X151033316Y-106444137D01*
X151034447Y-106445129D01*
X152311104Y-107721785D01*
X152314472Y-107729917D01*
X152314374Y-107731418D01*
X152306236Y-107793238D01*
X152302318Y-107823000D01*
X152322956Y-107979762D01*
X152383464Y-108125841D01*
X152479718Y-108251282D01*
X152605159Y-108347536D01*
X152751238Y-108408044D01*
X152908000Y-108428682D01*
X153064762Y-108408044D01*
X153210841Y-108347536D01*
X153336282Y-108251282D01*
X153432536Y-108125841D01*
X153493044Y-107979762D01*
X153513682Y-107823000D01*
X153493044Y-107666238D01*
X153432536Y-107520159D01*
X153336282Y-107394718D01*
X153210841Y-107298464D01*
X153064762Y-107237956D01*
X152908000Y-107217318D01*
X152907999Y-107217318D01*
X152816418Y-107229373D01*
X152807916Y-107227094D01*
X152806785Y-107226103D01*
X151530129Y-105949447D01*
X151526761Y-105941315D01*
X151526859Y-105939814D01*
X151538916Y-105848234D01*
X151518278Y-105691472D01*
X151457770Y-105545393D01*
X151361516Y-105419952D01*
X151236075Y-105323698D01*
X151089996Y-105263190D01*
X150933234Y-105242552D01*
X150776472Y-105263190D01*
X150630393Y-105323698D01*
X150504952Y-105419952D01*
X150408698Y-105545393D01*
X150348190Y-105691472D01*
X150327552Y-105848234D01*
X150339667Y-105940264D01*
X150337388Y-105948766D01*
X150329766Y-105953167D01*
X150326764Y-105953167D01*
X150234734Y-105941052D01*
X150077972Y-105961690D01*
X149931893Y-106022198D01*
X149806452Y-106118452D01*
X149710198Y-106243893D01*
X149649690Y-106389972D01*
X149629052Y-106546734D01*
X113411500Y-106546734D01*
X113411500Y-95631000D01*
X121568318Y-95631000D01*
X121588956Y-95787762D01*
X121649464Y-95933841D01*
X121745718Y-96059282D01*
X121819001Y-96115514D01*
X121823402Y-96123136D01*
X121823500Y-96124637D01*
X121823500Y-98163696D01*
X121823255Y-98166056D01*
X121818956Y-98186553D01*
X121823412Y-98222291D01*
X121823500Y-98223714D01*
X121823500Y-98230277D01*
X121827045Y-98251529D01*
X121827114Y-98251998D01*
X121833426Y-98302630D01*
X121835951Y-98307796D01*
X121836961Y-98310950D01*
X121837696Y-98315352D01*
X121837908Y-98316620D01*
X121847872Y-98335032D01*
X121862173Y-98361459D01*
X121862390Y-98361881D01*
X121884801Y-98407722D01*
X121888865Y-98411786D01*
X121890846Y-98414443D01*
X121893580Y-98419494D01*
X121893582Y-98419497D01*
X121927570Y-98450785D01*
X121931098Y-98454033D01*
X121931441Y-98454362D01*
X124662289Y-101185210D01*
X124664782Y-101188941D01*
X124697464Y-101267841D01*
X124793718Y-101393282D01*
X124919159Y-101489536D01*
X125065238Y-101550044D01*
X125222000Y-101570682D01*
X125378762Y-101550044D01*
X125524841Y-101489536D01*
X125650282Y-101393282D01*
X125746536Y-101267841D01*
X125807044Y-101121762D01*
X125827682Y-100965000D01*
X125807044Y-100808238D01*
X125746536Y-100662159D01*
X125650282Y-100536718D01*
X125524841Y-100440464D01*
X125378762Y-100379956D01*
X125222000Y-100359318D01*
X125065238Y-100379956D01*
X124919009Y-100440526D01*
X124910207Y-100440526D01*
X124906476Y-100438033D01*
X122527868Y-98059425D01*
X122524500Y-98051293D01*
X122524500Y-96124637D01*
X122527868Y-96116505D01*
X122528991Y-96115519D01*
X122602282Y-96059282D01*
X122698536Y-95933841D01*
X122759044Y-95787762D01*
X122779682Y-95631000D01*
X122759044Y-95474238D01*
X122698536Y-95328159D01*
X122602282Y-95202718D01*
X122476841Y-95106464D01*
X122330762Y-95045956D01*
X122174000Y-95025318D01*
X122017238Y-95045956D01*
X121871159Y-95106464D01*
X121745718Y-95202718D01*
X121649464Y-95328159D01*
X121588956Y-95474238D01*
X121568318Y-95631000D01*
X113411500Y-95631000D01*
X113411500Y-92695314D01*
X121056956Y-92695314D01*
X121061412Y-92731052D01*
X121061500Y-92732475D01*
X121061500Y-92739038D01*
X121065045Y-92760290D01*
X121065114Y-92760759D01*
X121071426Y-92811391D01*
X121073951Y-92816557D01*
X121074961Y-92819711D01*
X121075696Y-92824113D01*
X121075908Y-92825381D01*
X121085503Y-92843110D01*
X121100173Y-92870220D01*
X121100390Y-92870642D01*
X121122801Y-92916483D01*
X121126865Y-92920547D01*
X121128846Y-92923204D01*
X121131580Y-92928255D01*
X121131582Y-92928258D01*
X121169098Y-92962794D01*
X121169441Y-92963123D01*
X123677614Y-95471296D01*
X123679109Y-95473138D01*
X123690560Y-95490666D01*
X123690565Y-95490671D01*
X123699851Y-95497898D01*
X123718982Y-95512788D01*
X123720034Y-95513716D01*
X123724693Y-95518375D01*
X123742297Y-95530944D01*
X123742576Y-95531152D01*
X123782874Y-95562517D01*
X123788310Y-95564382D01*
X123791254Y-95565898D01*
X123795933Y-95569239D01*
X123844816Y-95583792D01*
X123845249Y-95583931D01*
X123885733Y-95597829D01*
X123892329Y-95603654D01*
X123892875Y-95612439D01*
X123888999Y-95617829D01*
X123810215Y-95678282D01*
X123777718Y-95703218D01*
X123681464Y-95828659D01*
X123620956Y-95974738D01*
X123600318Y-96131500D01*
X123620956Y-96288262D01*
X123681464Y-96434341D01*
X123777718Y-96559782D01*
X123851001Y-96616014D01*
X123855402Y-96623636D01*
X123855500Y-96625137D01*
X123855500Y-97042361D01*
X123852132Y-97050493D01*
X123851001Y-97051484D01*
X123777721Y-97107714D01*
X123777718Y-97107717D01*
X123681464Y-97233159D01*
X123620956Y-97379238D01*
X123600318Y-97536000D01*
X123620956Y-97692762D01*
X123681464Y-97838841D01*
X123777718Y-97964282D01*
X123846836Y-98017318D01*
X123862467Y-98029312D01*
X123866868Y-98036935D01*
X123864590Y-98045437D01*
X123862467Y-98047559D01*
X123763221Y-98123714D01*
X123763218Y-98123717D01*
X123681453Y-98230277D01*
X123666964Y-98249159D01*
X123606456Y-98395238D01*
X123585818Y-98552000D01*
X123606456Y-98708762D01*
X123666964Y-98854841D01*
X123763218Y-98980282D01*
X123888659Y-99076536D01*
X124034738Y-99137044D01*
X124191500Y-99157682D01*
X124348262Y-99137044D01*
X124494341Y-99076536D01*
X124619782Y-98980282D01*
X124716036Y-98854841D01*
X124776544Y-98708762D01*
X124797182Y-98552000D01*
X124785125Y-98460417D01*
X124787403Y-98451916D01*
X124788387Y-98450793D01*
X125326802Y-97912378D01*
X125328632Y-97910892D01*
X125346172Y-97899434D01*
X125368291Y-97871013D01*
X125369229Y-97869952D01*
X125373876Y-97865306D01*
X125373879Y-97865302D01*
X125386427Y-97847725D01*
X125386661Y-97847411D01*
X125418020Y-97807123D01*
X125419886Y-97801684D01*
X125421400Y-97798742D01*
X125424742Y-97794064D01*
X125439299Y-97745165D01*
X125439429Y-97744760D01*
X125456003Y-97696485D01*
X125456003Y-97690737D01*
X125456481Y-97687455D01*
X125458120Y-97681951D01*
X125456013Y-97631007D01*
X125456003Y-97630532D01*
X125456003Y-96625137D01*
X125459371Y-96617005D01*
X125460494Y-96616019D01*
X125533785Y-96559782D01*
X125630039Y-96434341D01*
X125690547Y-96288262D01*
X125711185Y-96131500D01*
X125690547Y-95974738D01*
X125630039Y-95828659D01*
X125533785Y-95703218D01*
X125426796Y-95621123D01*
X125422396Y-95613501D01*
X125424674Y-95604999D01*
X125432297Y-95600598D01*
X125433798Y-95600500D01*
X126252362Y-95600500D01*
X126260494Y-95603868D01*
X126261486Y-95604999D01*
X126317718Y-95678282D01*
X126443159Y-95774536D01*
X126589238Y-95835044D01*
X126746000Y-95855682D01*
X126902762Y-95835044D01*
X127048841Y-95774536D01*
X127070391Y-95758000D01*
X129696318Y-95758000D01*
X129716956Y-95914762D01*
X129777464Y-96060841D01*
X129873718Y-96186282D01*
X129999159Y-96282536D01*
X130145238Y-96343044D01*
X130302000Y-96363682D01*
X130393580Y-96351625D01*
X130402082Y-96353903D01*
X130403213Y-96354895D01*
X133400917Y-99352599D01*
X133404285Y-99360731D01*
X133404187Y-99362232D01*
X133393818Y-99440999D01*
X133393818Y-99441000D01*
X133414456Y-99597762D01*
X133474964Y-99743841D01*
X133571218Y-99869282D01*
X133696659Y-99965536D01*
X133842738Y-100026044D01*
X133999500Y-100046682D01*
X134156262Y-100026044D01*
X134302341Y-99965536D01*
X134427782Y-99869282D01*
X134524036Y-99743841D01*
X134584544Y-99597762D01*
X134605182Y-99441000D01*
X134584544Y-99284238D01*
X134524036Y-99138159D01*
X134427782Y-99012718D01*
X134302341Y-98916464D01*
X134156262Y-98855956D01*
X133999500Y-98835318D01*
X133999499Y-98835318D01*
X133895105Y-98849060D01*
X133886603Y-98846781D01*
X133885472Y-98845790D01*
X130898895Y-95859213D01*
X130895527Y-95851081D01*
X130895625Y-95849580D01*
X130897539Y-95835043D01*
X130907682Y-95758000D01*
X130887044Y-95601238D01*
X130826536Y-95455159D01*
X130730282Y-95329718D01*
X130604841Y-95233464D01*
X130458762Y-95172956D01*
X130302000Y-95152318D01*
X130145238Y-95172956D01*
X129999159Y-95233464D01*
X129873718Y-95329718D01*
X129777464Y-95455159D01*
X129716956Y-95601238D01*
X129696318Y-95758000D01*
X127070391Y-95758000D01*
X127174282Y-95678282D01*
X127270536Y-95552841D01*
X127331044Y-95406762D01*
X127351682Y-95250000D01*
X127331044Y-95093238D01*
X127270536Y-94947159D01*
X127218622Y-94879503D01*
X130712318Y-94879503D01*
X130732956Y-95036265D01*
X130793464Y-95182344D01*
X130889718Y-95307785D01*
X131015159Y-95404039D01*
X131161238Y-95464547D01*
X131318000Y-95485185D01*
X131409580Y-95473128D01*
X131418082Y-95475406D01*
X131419213Y-95476398D01*
X134402882Y-98460067D01*
X134406250Y-98468199D01*
X134406152Y-98469700D01*
X134395318Y-98551999D01*
X134395318Y-98552000D01*
X134415956Y-98708762D01*
X134476464Y-98854841D01*
X134572718Y-98980282D01*
X134698159Y-99076536D01*
X134844238Y-99137044D01*
X135001000Y-99157682D01*
X135157762Y-99137044D01*
X135303841Y-99076536D01*
X135429282Y-98980282D01*
X135525536Y-98854841D01*
X135586044Y-98708762D01*
X135606682Y-98552000D01*
X135586044Y-98395238D01*
X135525536Y-98249159D01*
X135429282Y-98123718D01*
X135303841Y-98027464D01*
X135157762Y-97966956D01*
X135001000Y-97946318D01*
X135000999Y-97946318D01*
X134900137Y-97959595D01*
X134891635Y-97957316D01*
X134890504Y-97956325D01*
X131914895Y-94980716D01*
X131911527Y-94972584D01*
X131911625Y-94971083D01*
X131923682Y-94879503D01*
X131903044Y-94722741D01*
X131842536Y-94576662D01*
X131746282Y-94451221D01*
X131730191Y-94438874D01*
X131725791Y-94431252D01*
X131728069Y-94422750D01*
X131730193Y-94420627D01*
X131746279Y-94408284D01*
X131746282Y-94408282D01*
X131802514Y-94334999D01*
X131810137Y-94330598D01*
X131811638Y-94330500D01*
X132856362Y-94330500D01*
X132864494Y-94333868D01*
X132865486Y-94334999D01*
X132921718Y-94408282D01*
X133047159Y-94504536D01*
X133193238Y-94565044D01*
X133350000Y-94585682D01*
X133506762Y-94565044D01*
X133652841Y-94504536D01*
X133778282Y-94408282D01*
X133874536Y-94282841D01*
X133935044Y-94136762D01*
X133955682Y-93980000D01*
X136300318Y-93980000D01*
X136320956Y-94136762D01*
X136381464Y-94282841D01*
X136477718Y-94408282D01*
X136603159Y-94504536D01*
X136749238Y-94565044D01*
X136906000Y-94585682D01*
X137062762Y-94565044D01*
X137208841Y-94504536D01*
X137334282Y-94408282D01*
X137390514Y-94334999D01*
X137398137Y-94330598D01*
X137399638Y-94330500D01*
X137518054Y-94330500D01*
X137526186Y-94333868D01*
X137833104Y-94640785D01*
X137836472Y-94648917D01*
X137836374Y-94650418D01*
X137824318Y-94741999D01*
X137824318Y-94742000D01*
X137844956Y-94898762D01*
X137905464Y-95044841D01*
X138001718Y-95170282D01*
X138127159Y-95266536D01*
X138273238Y-95327044D01*
X138430000Y-95347682D01*
X138586762Y-95327044D01*
X138732841Y-95266536D01*
X138858282Y-95170282D01*
X138954536Y-95044841D01*
X139015044Y-94898762D01*
X139035682Y-94742000D01*
X139015044Y-94585238D01*
X138995310Y-94537596D01*
X138995310Y-94528796D01*
X139001534Y-94522572D01*
X139004428Y-94521796D01*
X139158262Y-94501544D01*
X139304341Y-94441036D01*
X139429782Y-94344782D01*
X139526036Y-94219341D01*
X139586544Y-94073262D01*
X139607182Y-93916500D01*
X139586544Y-93759738D01*
X139526036Y-93613659D01*
X139429782Y-93488218D01*
X139304341Y-93391964D01*
X139158262Y-93331456D01*
X139001500Y-93310818D01*
X139001499Y-93310818D01*
X138909918Y-93322873D01*
X138901416Y-93320594D01*
X138900285Y-93319603D01*
X138783868Y-93203186D01*
X138780500Y-93195054D01*
X138780500Y-92710000D01*
X149999678Y-92710000D01*
X150018923Y-92917693D01*
X150076005Y-93118316D01*
X150076009Y-93118326D01*
X150168981Y-93305039D01*
X150168983Y-93305042D01*
X150294674Y-93471484D01*
X150294677Y-93471487D01*
X150294682Y-93471493D01*
X150389800Y-93558204D01*
X150448832Y-93612019D01*
X150617210Y-93716274D01*
X150626172Y-93721823D01*
X150820673Y-93797173D01*
X150820679Y-93797174D01*
X150820685Y-93797176D01*
X150939022Y-93819296D01*
X151025707Y-93835500D01*
X151234293Y-93835500D01*
X151342435Y-93815285D01*
X151439314Y-93797176D01*
X151439317Y-93797174D01*
X151439327Y-93797173D01*
X151633828Y-93721823D01*
X151727056Y-93664098D01*
X151811167Y-93612019D01*
X151811168Y-93612017D01*
X151811171Y-93612016D01*
X151965318Y-93471493D01*
X151972991Y-93461333D01*
X152091016Y-93305042D01*
X152091018Y-93305039D01*
X152091017Y-93305039D01*
X152091019Y-93305038D01*
X152183994Y-93118319D01*
X152241076Y-92917696D01*
X152260322Y-92710000D01*
X152539678Y-92710000D01*
X152558923Y-92917693D01*
X152616005Y-93118316D01*
X152616009Y-93118326D01*
X152708981Y-93305039D01*
X152708983Y-93305042D01*
X152834674Y-93471484D01*
X152834677Y-93471487D01*
X152834682Y-93471493D01*
X152929800Y-93558204D01*
X152988832Y-93612019D01*
X153157210Y-93716274D01*
X153166172Y-93721823D01*
X153360673Y-93797173D01*
X153360679Y-93797174D01*
X153360685Y-93797176D01*
X153479022Y-93819296D01*
X153565707Y-93835500D01*
X153774293Y-93835500D01*
X153882435Y-93815285D01*
X153979314Y-93797176D01*
X153979317Y-93797174D01*
X153979327Y-93797173D01*
X154173828Y-93721823D01*
X154267056Y-93664098D01*
X154351167Y-93612019D01*
X154351168Y-93612017D01*
X154351171Y-93612016D01*
X154505318Y-93471493D01*
X154512991Y-93461333D01*
X154631016Y-93305042D01*
X154631018Y-93305039D01*
X154631017Y-93305039D01*
X154631019Y-93305038D01*
X154723994Y-93118319D01*
X154781076Y-92917696D01*
X154800322Y-92710000D01*
X155079678Y-92710000D01*
X155098923Y-92917693D01*
X155156005Y-93118316D01*
X155156009Y-93118326D01*
X155248981Y-93305039D01*
X155248983Y-93305042D01*
X155374674Y-93471484D01*
X155374677Y-93471487D01*
X155374682Y-93471493D01*
X155469800Y-93558204D01*
X155528832Y-93612019D01*
X155697210Y-93716274D01*
X155706172Y-93721823D01*
X155900673Y-93797173D01*
X155900679Y-93797174D01*
X155900685Y-93797176D01*
X156019022Y-93819296D01*
X156105707Y-93835500D01*
X156314293Y-93835500D01*
X156422435Y-93815285D01*
X156519314Y-93797176D01*
X156519317Y-93797174D01*
X156519327Y-93797173D01*
X156713828Y-93721823D01*
X156807056Y-93664098D01*
X156891167Y-93612019D01*
X156891168Y-93612017D01*
X156891171Y-93612016D01*
X157045318Y-93471493D01*
X157052991Y-93461333D01*
X157171016Y-93305042D01*
X157171018Y-93305039D01*
X157171017Y-93305039D01*
X157171019Y-93305038D01*
X157263994Y-93118319D01*
X157321076Y-92917696D01*
X157340322Y-92710000D01*
X157619678Y-92710000D01*
X157638923Y-92917693D01*
X157696005Y-93118316D01*
X157696009Y-93118326D01*
X157788981Y-93305039D01*
X157788983Y-93305042D01*
X157914674Y-93471484D01*
X157914677Y-93471487D01*
X157914682Y-93471493D01*
X158009800Y-93558204D01*
X158068832Y-93612019D01*
X158237210Y-93716274D01*
X158246172Y-93721823D01*
X158440673Y-93797173D01*
X158440679Y-93797174D01*
X158440685Y-93797176D01*
X158559022Y-93819296D01*
X158645707Y-93835500D01*
X158854293Y-93835500D01*
X158962435Y-93815285D01*
X159059314Y-93797176D01*
X159059317Y-93797174D01*
X159059327Y-93797173D01*
X159253828Y-93721823D01*
X159347056Y-93664098D01*
X159431167Y-93612019D01*
X159431168Y-93612017D01*
X159431171Y-93612016D01*
X159585318Y-93471493D01*
X159592991Y-93461333D01*
X159711016Y-93305042D01*
X159711018Y-93305039D01*
X159711017Y-93305039D01*
X159711019Y-93305038D01*
X159803994Y-93118319D01*
X159861076Y-92917696D01*
X159880322Y-92710000D01*
X159861076Y-92502304D01*
X159803994Y-92301681D01*
X159711019Y-92114962D01*
X159711018Y-92114961D01*
X159711018Y-92114960D01*
X159711016Y-92114957D01*
X159585325Y-91948515D01*
X159585321Y-91948512D01*
X159585318Y-91948507D01*
X159431171Y-91807984D01*
X159431172Y-91807984D01*
X159431167Y-91807980D01*
X159253837Y-91698182D01*
X159253832Y-91698179D01*
X159253828Y-91698177D01*
X159253823Y-91698175D01*
X159253817Y-91698172D01*
X159104773Y-91640432D01*
X159059327Y-91622827D01*
X159059324Y-91622826D01*
X159059314Y-91622823D01*
X158854295Y-91584500D01*
X158854293Y-91584500D01*
X158645707Y-91584500D01*
X158645704Y-91584500D01*
X158440685Y-91622823D01*
X158440670Y-91622828D01*
X158246182Y-91698172D01*
X158246162Y-91698182D01*
X158068832Y-91807980D01*
X157969941Y-91898131D01*
X157914682Y-91948507D01*
X157914680Y-91948509D01*
X157914674Y-91948515D01*
X157788983Y-92114957D01*
X157788981Y-92114960D01*
X157696009Y-92301673D01*
X157696005Y-92301683D01*
X157638923Y-92502306D01*
X157619678Y-92710000D01*
X157340322Y-92710000D01*
X157321076Y-92502304D01*
X157263994Y-92301681D01*
X157171019Y-92114962D01*
X157171018Y-92114961D01*
X157171018Y-92114960D01*
X157171016Y-92114957D01*
X157045325Y-91948515D01*
X157045321Y-91948512D01*
X157045318Y-91948507D01*
X156891171Y-91807984D01*
X156891172Y-91807984D01*
X156891167Y-91807980D01*
X156713837Y-91698182D01*
X156713832Y-91698179D01*
X156713828Y-91698177D01*
X156713823Y-91698175D01*
X156713817Y-91698172D01*
X156564773Y-91640432D01*
X156519327Y-91622827D01*
X156519324Y-91622826D01*
X156519314Y-91622823D01*
X156314295Y-91584500D01*
X156314293Y-91584500D01*
X156105707Y-91584500D01*
X156105704Y-91584500D01*
X155900685Y-91622823D01*
X155900670Y-91622828D01*
X155706182Y-91698172D01*
X155706162Y-91698182D01*
X155528832Y-91807980D01*
X155429941Y-91898131D01*
X155374682Y-91948507D01*
X155374680Y-91948509D01*
X155374674Y-91948515D01*
X155248983Y-92114957D01*
X155248981Y-92114960D01*
X155156009Y-92301673D01*
X155156005Y-92301683D01*
X155098923Y-92502306D01*
X155079678Y-92710000D01*
X154800322Y-92710000D01*
X154781076Y-92502304D01*
X154723994Y-92301681D01*
X154631019Y-92114962D01*
X154631018Y-92114961D01*
X154631018Y-92114960D01*
X154631016Y-92114957D01*
X154505325Y-91948515D01*
X154505321Y-91948512D01*
X154505318Y-91948507D01*
X154351171Y-91807984D01*
X154351172Y-91807984D01*
X154351167Y-91807980D01*
X154173837Y-91698182D01*
X154173832Y-91698179D01*
X154173828Y-91698177D01*
X154173823Y-91698175D01*
X154173817Y-91698172D01*
X154024773Y-91640432D01*
X153979327Y-91622827D01*
X153979324Y-91622826D01*
X153979314Y-91622823D01*
X153774295Y-91584500D01*
X153774293Y-91584500D01*
X153565707Y-91584500D01*
X153565704Y-91584500D01*
X153360685Y-91622823D01*
X153360670Y-91622828D01*
X153166182Y-91698172D01*
X153166162Y-91698182D01*
X152988832Y-91807980D01*
X152889941Y-91898131D01*
X152834682Y-91948507D01*
X152834680Y-91948509D01*
X152834674Y-91948515D01*
X152708983Y-92114957D01*
X152708981Y-92114960D01*
X152616009Y-92301673D01*
X152616005Y-92301683D01*
X152558923Y-92502306D01*
X152539678Y-92710000D01*
X152260322Y-92710000D01*
X152241076Y-92502304D01*
X152183994Y-92301681D01*
X152091019Y-92114962D01*
X152091018Y-92114961D01*
X152091018Y-92114960D01*
X152091016Y-92114957D01*
X151965325Y-91948515D01*
X151965321Y-91948512D01*
X151965318Y-91948507D01*
X151811171Y-91807984D01*
X151811172Y-91807984D01*
X151811167Y-91807980D01*
X151633837Y-91698182D01*
X151633832Y-91698179D01*
X151633828Y-91698177D01*
X151633823Y-91698175D01*
X151633817Y-91698172D01*
X151484773Y-91640432D01*
X151439327Y-91622827D01*
X151439324Y-91622826D01*
X151439314Y-91622823D01*
X151234295Y-91584500D01*
X151234293Y-91584500D01*
X151025707Y-91584500D01*
X151025704Y-91584500D01*
X150820685Y-91622823D01*
X150820670Y-91622828D01*
X150626182Y-91698172D01*
X150626162Y-91698182D01*
X150448832Y-91807980D01*
X150349941Y-91898131D01*
X150294682Y-91948507D01*
X150294680Y-91948509D01*
X150294674Y-91948515D01*
X150168983Y-92114957D01*
X150168981Y-92114960D01*
X150076009Y-92301673D01*
X150076005Y-92301683D01*
X150018923Y-92502306D01*
X149999678Y-92710000D01*
X138780500Y-92710000D01*
X138780500Y-92519099D01*
X138783868Y-92510967D01*
X138787846Y-92508376D01*
X138803520Y-92502304D01*
X138933828Y-92451823D01*
X139013558Y-92402455D01*
X139111167Y-92342019D01*
X139111168Y-92342017D01*
X139111171Y-92342016D01*
X139265318Y-92201493D01*
X139348355Y-92091535D01*
X139391016Y-92035042D01*
X139391018Y-92035039D01*
X139391017Y-92035039D01*
X139391019Y-92035038D01*
X139483994Y-91848319D01*
X139541076Y-91647696D01*
X139560322Y-91440000D01*
X139541076Y-91232304D01*
X139483994Y-91031681D01*
X139391019Y-90844962D01*
X139391018Y-90844961D01*
X139391018Y-90844960D01*
X139391016Y-90844957D01*
X139265325Y-90678515D01*
X139265321Y-90678512D01*
X139265318Y-90678507D01*
X139111171Y-90537984D01*
X139111172Y-90537984D01*
X139111167Y-90537980D01*
X138933837Y-90428182D01*
X138933832Y-90428179D01*
X138933828Y-90428177D01*
X138933823Y-90428175D01*
X138933817Y-90428172D01*
X138784773Y-90370432D01*
X138739327Y-90352827D01*
X138739324Y-90352826D01*
X138739314Y-90352823D01*
X138534295Y-90314500D01*
X138534293Y-90314500D01*
X138325707Y-90314500D01*
X138325704Y-90314500D01*
X138120685Y-90352823D01*
X138120670Y-90352828D01*
X137926182Y-90428172D01*
X137926162Y-90428182D01*
X137748832Y-90537980D01*
X137649941Y-90628131D01*
X137594682Y-90678507D01*
X137594680Y-90678509D01*
X137594674Y-90678515D01*
X137468983Y-90844957D01*
X137468981Y-90844960D01*
X137376009Y-91031673D01*
X137376005Y-91031683D01*
X137318923Y-91232306D01*
X137299678Y-91440000D01*
X137318923Y-91647693D01*
X137364529Y-91807980D01*
X137376006Y-91848319D01*
X137376007Y-91848321D01*
X137376009Y-91848326D01*
X137468981Y-92035039D01*
X137468983Y-92035042D01*
X137594674Y-92201484D01*
X137594677Y-92201487D01*
X137594682Y-92201493D01*
X137704586Y-92301683D01*
X137748832Y-92342019D01*
X137925784Y-92451583D01*
X137926172Y-92451823D01*
X137926180Y-92451826D01*
X137926182Y-92451827D01*
X138072154Y-92508376D01*
X138078520Y-92514454D01*
X138079500Y-92519099D01*
X138079500Y-93307457D01*
X138079255Y-93309817D01*
X138074956Y-93330314D01*
X138079412Y-93366052D01*
X138079500Y-93367475D01*
X138079500Y-93374040D01*
X138081394Y-93385395D01*
X138083045Y-93395290D01*
X138083114Y-93395759D01*
X138089426Y-93446391D01*
X138091951Y-93451557D01*
X138092961Y-93454711D01*
X138093087Y-93455464D01*
X138093908Y-93460381D01*
X138099384Y-93470499D01*
X138118173Y-93505220D01*
X138118390Y-93505642D01*
X138140801Y-93551483D01*
X138144865Y-93555547D01*
X138146846Y-93558204D01*
X138149580Y-93563255D01*
X138149582Y-93563258D01*
X138187098Y-93597794D01*
X138187441Y-93598123D01*
X138404603Y-93815285D01*
X138407971Y-93823417D01*
X138407873Y-93824918D01*
X138395818Y-93916499D01*
X138416456Y-94073261D01*
X138436188Y-94120901D01*
X138436188Y-94129703D01*
X138429964Y-94135927D01*
X138427064Y-94136704D01*
X138338418Y-94148374D01*
X138329916Y-94146096D01*
X138328785Y-94145104D01*
X137942384Y-93758702D01*
X137940893Y-93756866D01*
X137929437Y-93739331D01*
X137929434Y-93739329D01*
X137929434Y-93739328D01*
X137911253Y-93725178D01*
X137901017Y-93717211D01*
X137899963Y-93716281D01*
X137895307Y-93711625D01*
X137877708Y-93699060D01*
X137877414Y-93698840D01*
X137837126Y-93667483D01*
X137837124Y-93667482D01*
X137837124Y-93667481D01*
X137831688Y-93665615D01*
X137828744Y-93664100D01*
X137824066Y-93660760D01*
X137775177Y-93646204D01*
X137774725Y-93646059D01*
X137726488Y-93629500D01*
X137720741Y-93629500D01*
X137717460Y-93629022D01*
X137711952Y-93627382D01*
X137661011Y-93629490D01*
X137660536Y-93629500D01*
X137399638Y-93629500D01*
X137391506Y-93626132D01*
X137390514Y-93625001D01*
X137380550Y-93612016D01*
X137334282Y-93551718D01*
X137208841Y-93455464D01*
X137062762Y-93394956D01*
X136906000Y-93374318D01*
X136749238Y-93394956D01*
X136603159Y-93455464D01*
X136477718Y-93551718D01*
X136381464Y-93677159D01*
X136320956Y-93823238D01*
X136300318Y-93980000D01*
X133955682Y-93980000D01*
X133935044Y-93823238D01*
X133874536Y-93677159D01*
X133778282Y-93551718D01*
X133686280Y-93481123D01*
X133681880Y-93473501D01*
X133684158Y-93464999D01*
X133686278Y-93462878D01*
X133778282Y-93392282D01*
X133874536Y-93266841D01*
X133935044Y-93120762D01*
X133955682Y-92964000D01*
X133935044Y-92807238D01*
X133874536Y-92661159D01*
X133778282Y-92535718D01*
X133652841Y-92439464D01*
X133506762Y-92378956D01*
X133350000Y-92358318D01*
X133193238Y-92378956D01*
X133047159Y-92439464D01*
X132921718Y-92535718D01*
X132865486Y-92609001D01*
X132857863Y-92613402D01*
X132856362Y-92613500D01*
X131811638Y-92613500D01*
X131803506Y-92610132D01*
X131802514Y-92609001D01*
X131769134Y-92565500D01*
X131746282Y-92535718D01*
X131620841Y-92439464D01*
X131474762Y-92378956D01*
X131318000Y-92358318D01*
X131161238Y-92378956D01*
X131015159Y-92439464D01*
X130889718Y-92535718D01*
X130793464Y-92661159D01*
X130732956Y-92807238D01*
X130712318Y-92964000D01*
X130732956Y-93120762D01*
X130793464Y-93266841D01*
X130889718Y-93392282D01*
X130950315Y-93438780D01*
X130981717Y-93462876D01*
X130986118Y-93470499D01*
X130983840Y-93479001D01*
X130981717Y-93481124D01*
X130940839Y-93512491D01*
X130889718Y-93551718D01*
X130793464Y-93677159D01*
X130732956Y-93823238D01*
X130712318Y-93980000D01*
X130732956Y-94136762D01*
X130793464Y-94282841D01*
X130889718Y-94408282D01*
X130905807Y-94420627D01*
X130910208Y-94428250D01*
X130907930Y-94436752D01*
X130905807Y-94438874D01*
X130889721Y-94451217D01*
X130889718Y-94451220D01*
X130802379Y-94565044D01*
X130793464Y-94576662D01*
X130732956Y-94722741D01*
X130712318Y-94879503D01*
X127218622Y-94879503D01*
X127174282Y-94821718D01*
X127082280Y-94751123D01*
X127077880Y-94743501D01*
X127080158Y-94734999D01*
X127082278Y-94732878D01*
X127174282Y-94662282D01*
X127270536Y-94536841D01*
X127331044Y-94390762D01*
X127351682Y-94234000D01*
X127331044Y-94077238D01*
X127270536Y-93931159D01*
X127174282Y-93805718D01*
X127069318Y-93725177D01*
X127064918Y-93717555D01*
X127067196Y-93709053D01*
X127069316Y-93706932D01*
X127174282Y-93626391D01*
X127270536Y-93500950D01*
X127331044Y-93354871D01*
X127351682Y-93198109D01*
X127331044Y-93041347D01*
X127270536Y-92895268D01*
X127174282Y-92769827D01*
X127048841Y-92673573D01*
X126902762Y-92613065D01*
X126746000Y-92592427D01*
X126589238Y-92613065D01*
X126443159Y-92673573D01*
X126317718Y-92769827D01*
X126261486Y-92843110D01*
X126253863Y-92847511D01*
X126252362Y-92847609D01*
X125098054Y-92847609D01*
X125089922Y-92844241D01*
X124199983Y-91954302D01*
X124196615Y-91946170D01*
X124197820Y-91941047D01*
X124243994Y-91848319D01*
X124301076Y-91647696D01*
X124308554Y-91567000D01*
X131078818Y-91567000D01*
X131099456Y-91723762D01*
X131159964Y-91869841D01*
X131256218Y-91995282D01*
X131381659Y-92091536D01*
X131527738Y-92152044D01*
X131684500Y-92172682D01*
X131841262Y-92152044D01*
X131987341Y-92091536D01*
X132112782Y-91995282D01*
X132169014Y-91921999D01*
X132176637Y-91917598D01*
X132178138Y-91917500D01*
X132856362Y-91917500D01*
X132864494Y-91920868D01*
X132865486Y-91921999D01*
X132921718Y-91995282D01*
X133047159Y-92091536D01*
X133193238Y-92152044D01*
X133350000Y-92172682D01*
X133506762Y-92152044D01*
X133652841Y-92091536D01*
X133778282Y-91995282D01*
X133874536Y-91869841D01*
X133935044Y-91723762D01*
X133955682Y-91567000D01*
X133935044Y-91410238D01*
X133874536Y-91264159D01*
X133778282Y-91138718D01*
X133652841Y-91042464D01*
X133506762Y-90981956D01*
X133350000Y-90961318D01*
X133193238Y-90981956D01*
X133047159Y-91042464D01*
X132921718Y-91138718D01*
X132865486Y-91212001D01*
X132857863Y-91216402D01*
X132856362Y-91216500D01*
X132178138Y-91216500D01*
X132170006Y-91213132D01*
X132169014Y-91212001D01*
X132159998Y-91200251D01*
X132112782Y-91138718D01*
X131987341Y-91042464D01*
X131841262Y-90981956D01*
X131684500Y-90961318D01*
X131527738Y-90981956D01*
X131381659Y-91042464D01*
X131256218Y-91138718D01*
X131159964Y-91264159D01*
X131099456Y-91410238D01*
X131078818Y-91567000D01*
X124308554Y-91567000D01*
X124320322Y-91440000D01*
X124301076Y-91232304D01*
X124243994Y-91031681D01*
X124151019Y-90844962D01*
X124151018Y-90844961D01*
X124151018Y-90844960D01*
X124151016Y-90844957D01*
X124025325Y-90678515D01*
X124025321Y-90678512D01*
X124025318Y-90678507D01*
X123871171Y-90537984D01*
X123871172Y-90537984D01*
X123871167Y-90537980D01*
X123693837Y-90428182D01*
X123693832Y-90428179D01*
X123693828Y-90428177D01*
X123693823Y-90428175D01*
X123693817Y-90428172D01*
X123544773Y-90370432D01*
X123499327Y-90352827D01*
X123499324Y-90352826D01*
X123499314Y-90352823D01*
X123294295Y-90314500D01*
X123294293Y-90314500D01*
X123085707Y-90314500D01*
X123085704Y-90314500D01*
X122880685Y-90352823D01*
X122880670Y-90352828D01*
X122686182Y-90428172D01*
X122686162Y-90428182D01*
X122508832Y-90537980D01*
X122409941Y-90628131D01*
X122354682Y-90678507D01*
X122354680Y-90678509D01*
X122354674Y-90678515D01*
X122291177Y-90762600D01*
X122283589Y-90767060D01*
X122275070Y-90764847D01*
X122270610Y-90757259D01*
X122270500Y-90755670D01*
X122270500Y-90319945D01*
X122273867Y-90311814D01*
X122672127Y-89913553D01*
X122680258Y-89910186D01*
X122685628Y-89911719D01*
X122685696Y-89911585D01*
X122686163Y-89911817D01*
X122686172Y-89911823D01*
X122880673Y-89987173D01*
X122880679Y-89987174D01*
X122880685Y-89987176D01*
X123010417Y-90011426D01*
X123085707Y-90025500D01*
X123294293Y-90025500D01*
X123401623Y-90005436D01*
X123499314Y-89987176D01*
X123499317Y-89987174D01*
X123499327Y-89987173D01*
X123693828Y-89911823D01*
X123773558Y-89862455D01*
X123871167Y-89802019D01*
X123871168Y-89802017D01*
X123871171Y-89802016D01*
X123885449Y-89789000D01*
X135919318Y-89789000D01*
X135939956Y-89945762D01*
X136000464Y-90091841D01*
X136096718Y-90217282D01*
X136222159Y-90313536D01*
X136368238Y-90374044D01*
X136525000Y-90394682D01*
X136681762Y-90374044D01*
X136827841Y-90313536D01*
X136953282Y-90217282D01*
X137049536Y-90091841D01*
X137110044Y-89945762D01*
X137130682Y-89789000D01*
X137110044Y-89632238D01*
X137049536Y-89486159D01*
X136953282Y-89360718D01*
X136953281Y-89360717D01*
X136953278Y-89360714D01*
X136879999Y-89304484D01*
X136875598Y-89296862D01*
X136875500Y-89295361D01*
X136875500Y-88900000D01*
X137299678Y-88900000D01*
X137318923Y-89107693D01*
X137318924Y-89107696D01*
X137376006Y-89308319D01*
X137376007Y-89308321D01*
X137376009Y-89308326D01*
X137468981Y-89495039D01*
X137468983Y-89495042D01*
X137594674Y-89661484D01*
X137594677Y-89661487D01*
X137594682Y-89661493D01*
X137728106Y-89783125D01*
X137748832Y-89802019D01*
X137926004Y-89911719D01*
X137926172Y-89911823D01*
X138120673Y-89987173D01*
X138120679Y-89987174D01*
X138120685Y-89987176D01*
X138250417Y-90011426D01*
X138325707Y-90025500D01*
X138534293Y-90025500D01*
X138641623Y-90005436D01*
X138739314Y-89987176D01*
X138739317Y-89987174D01*
X138739327Y-89987173D01*
X138933828Y-89911823D01*
X139013558Y-89862455D01*
X139111167Y-89802019D01*
X139111168Y-89802017D01*
X139111171Y-89802016D01*
X139265318Y-89661493D01*
X139287411Y-89632238D01*
X139391016Y-89495042D01*
X139391018Y-89495039D01*
X139391017Y-89495039D01*
X139391019Y-89495038D01*
X139483994Y-89308319D01*
X139541076Y-89107696D01*
X139560322Y-88900000D01*
X139541076Y-88692304D01*
X139483994Y-88491681D01*
X139391019Y-88304962D01*
X139391018Y-88304961D01*
X139391018Y-88304960D01*
X139391016Y-88304957D01*
X139265325Y-88138515D01*
X139265321Y-88138512D01*
X139265318Y-88138507D01*
X139111171Y-87997984D01*
X139111172Y-87997984D01*
X139111167Y-87997980D01*
X138933837Y-87888182D01*
X138933832Y-87888179D01*
X138933828Y-87888177D01*
X138933823Y-87888175D01*
X138933817Y-87888172D01*
X138784773Y-87830432D01*
X138739327Y-87812827D01*
X138739324Y-87812826D01*
X138739314Y-87812823D01*
X138534295Y-87774500D01*
X138534293Y-87774500D01*
X138325707Y-87774500D01*
X138325704Y-87774500D01*
X138120685Y-87812823D01*
X138120670Y-87812828D01*
X137926182Y-87888172D01*
X137926162Y-87888182D01*
X137748832Y-87997980D01*
X137651254Y-88086935D01*
X137594682Y-88138507D01*
X137594680Y-88138509D01*
X137594674Y-88138515D01*
X137468983Y-88304957D01*
X137468981Y-88304960D01*
X137376009Y-88491673D01*
X137376005Y-88491683D01*
X137318923Y-88692306D01*
X137299678Y-88900000D01*
X136875500Y-88900000D01*
X136875500Y-86360000D01*
X137299678Y-86360000D01*
X137318923Y-86567693D01*
X137376005Y-86768316D01*
X137376009Y-86768326D01*
X137468981Y-86955039D01*
X137468983Y-86955042D01*
X137594674Y-87121484D01*
X137594677Y-87121487D01*
X137594682Y-87121493D01*
X137716412Y-87232464D01*
X137748832Y-87262019D01*
X137926004Y-87371719D01*
X137926172Y-87371823D01*
X138120673Y-87447173D01*
X138120679Y-87447174D01*
X138120685Y-87447176D01*
X138250417Y-87471426D01*
X138325707Y-87485500D01*
X138534293Y-87485500D01*
X138641623Y-87465436D01*
X138739314Y-87447176D01*
X138739317Y-87447174D01*
X138739327Y-87447173D01*
X138933828Y-87371823D01*
X139013558Y-87322455D01*
X139111167Y-87262019D01*
X139111168Y-87262017D01*
X139111171Y-87262016D01*
X139265318Y-87121493D01*
X139391019Y-86955038D01*
X139483994Y-86768319D01*
X139541076Y-86567696D01*
X139560322Y-86360000D01*
X139541076Y-86152304D01*
X139483994Y-85951681D01*
X139391019Y-85764962D01*
X139391018Y-85764961D01*
X139391018Y-85764960D01*
X139391016Y-85764957D01*
X139265325Y-85598515D01*
X139265321Y-85598512D01*
X139265318Y-85598507D01*
X139111171Y-85457984D01*
X139111172Y-85457984D01*
X139111167Y-85457980D01*
X138933837Y-85348182D01*
X138933832Y-85348179D01*
X138933828Y-85348177D01*
X138933823Y-85348175D01*
X138933817Y-85348172D01*
X138784773Y-85290432D01*
X138739327Y-85272827D01*
X138739324Y-85272826D01*
X138739314Y-85272823D01*
X138534295Y-85234500D01*
X138534293Y-85234500D01*
X138325707Y-85234500D01*
X138325704Y-85234500D01*
X138120685Y-85272823D01*
X138120670Y-85272828D01*
X137926182Y-85348172D01*
X137926162Y-85348182D01*
X137748832Y-85457980D01*
X137649941Y-85548131D01*
X137594682Y-85598507D01*
X137594680Y-85598509D01*
X137594674Y-85598515D01*
X137468983Y-85764957D01*
X137468981Y-85764960D01*
X137376009Y-85951673D01*
X137376005Y-85951683D01*
X137318923Y-86152306D01*
X137299678Y-86360000D01*
X136875500Y-86360000D01*
X136875500Y-85874945D01*
X136878868Y-85866813D01*
X137309810Y-85435871D01*
X137912127Y-84833553D01*
X137920258Y-84830186D01*
X137925628Y-84831719D01*
X137925696Y-84831585D01*
X137926163Y-84831817D01*
X137926172Y-84831823D01*
X138120673Y-84907173D01*
X138120679Y-84907174D01*
X138120685Y-84907176D01*
X138250417Y-84931426D01*
X138325707Y-84945500D01*
X138534293Y-84945500D01*
X138641623Y-84925436D01*
X138645850Y-84924646D01*
X164053500Y-84924646D01*
X164092856Y-85109803D01*
X164169849Y-85282730D01*
X164281112Y-85435871D01*
X164281115Y-85435873D01*
X164281116Y-85435875D01*
X164421785Y-85562534D01*
X164421786Y-85562535D01*
X164585714Y-85657178D01*
X164585716Y-85657179D01*
X164765744Y-85715674D01*
X164906808Y-85730500D01*
X164906816Y-85730500D01*
X165801184Y-85730500D01*
X165801192Y-85730500D01*
X165942256Y-85715674D01*
X166122284Y-85657179D01*
X166223907Y-85598507D01*
X166286213Y-85562535D01*
X166286214Y-85562534D01*
X166286213Y-85562534D01*
X166286216Y-85562533D01*
X166426888Y-85435871D01*
X166538151Y-85282730D01*
X166615144Y-85109803D01*
X166654500Y-84924646D01*
X166654500Y-84735354D01*
X166615144Y-84550197D01*
X166538151Y-84377270D01*
X166426888Y-84224129D01*
X166426884Y-84224125D01*
X166426883Y-84224124D01*
X166286214Y-84097465D01*
X166286213Y-84097464D01*
X166122285Y-84002821D01*
X165942255Y-83944325D01*
X165801192Y-83929500D01*
X164906808Y-83929500D01*
X164906807Y-83929500D01*
X164765744Y-83944325D01*
X164585714Y-84002821D01*
X164421786Y-84097464D01*
X164421785Y-84097465D01*
X164281116Y-84224124D01*
X164169848Y-84377271D01*
X164092856Y-84550195D01*
X164086204Y-84581493D01*
X164053500Y-84735354D01*
X164053500Y-84924646D01*
X138645850Y-84924646D01*
X138739314Y-84907176D01*
X138739317Y-84907174D01*
X138739327Y-84907173D01*
X138933828Y-84831823D01*
X139013558Y-84782455D01*
X139111167Y-84722019D01*
X139111168Y-84722017D01*
X139111171Y-84722016D01*
X139265318Y-84581493D01*
X139391019Y-84415038D01*
X139483994Y-84228319D01*
X139541076Y-84027696D01*
X139560322Y-83820000D01*
X139541076Y-83612304D01*
X139483994Y-83411681D01*
X139391019Y-83224962D01*
X139391018Y-83224961D01*
X139391018Y-83224960D01*
X139391016Y-83224957D01*
X139265325Y-83058515D01*
X139265321Y-83058512D01*
X139265318Y-83058507D01*
X139138800Y-82943171D01*
X139111167Y-82917980D01*
X138933837Y-82808182D01*
X138933832Y-82808179D01*
X138933828Y-82808177D01*
X138933823Y-82808175D01*
X138933817Y-82808172D01*
X138784773Y-82750432D01*
X138739327Y-82732827D01*
X138739324Y-82732826D01*
X138739314Y-82732823D01*
X138724212Y-82730000D01*
X164348659Y-82730000D01*
X164367976Y-82926132D01*
X164367976Y-82926134D01*
X164367977Y-82926136D01*
X164425184Y-83114720D01*
X164425187Y-83114730D01*
X164518088Y-83288535D01*
X164518090Y-83288538D01*
X164643117Y-83440883D01*
X164795462Y-83565910D01*
X164969273Y-83658814D01*
X165157868Y-83716024D01*
X165354000Y-83735341D01*
X165550132Y-83716024D01*
X165738727Y-83658814D01*
X165912538Y-83565910D01*
X166064883Y-83440883D01*
X166189910Y-83288538D01*
X166282814Y-83114727D01*
X166340024Y-82926132D01*
X166359341Y-82730000D01*
X166340024Y-82533868D01*
X166282814Y-82345273D01*
X166254246Y-82291827D01*
X166189911Y-82171464D01*
X166189910Y-82171462D01*
X166064883Y-82019117D01*
X165912538Y-81894090D01*
X165912536Y-81894089D01*
X165912535Y-81894088D01*
X165738730Y-81801187D01*
X165738720Y-81801184D01*
X165550136Y-81743977D01*
X165550134Y-81743976D01*
X165550132Y-81743976D01*
X165524426Y-81741444D01*
X165516665Y-81737296D01*
X165514110Y-81728873D01*
X165518259Y-81721110D01*
X165524426Y-81718555D01*
X165550132Y-81716024D01*
X165738727Y-81658814D01*
X165912538Y-81565910D01*
X166064883Y-81440883D01*
X166189910Y-81288538D01*
X166282814Y-81114727D01*
X166340024Y-80926132D01*
X166359341Y-80730000D01*
X166340024Y-80533868D01*
X166282814Y-80345273D01*
X166189910Y-80171462D01*
X166064883Y-80019117D01*
X165912538Y-79894090D01*
X165912536Y-79894089D01*
X165912535Y-79894088D01*
X165738730Y-79801187D01*
X165738720Y-79801184D01*
X165550136Y-79743977D01*
X165550134Y-79743976D01*
X165550132Y-79743976D01*
X165524426Y-79741444D01*
X165516665Y-79737296D01*
X165514110Y-79728873D01*
X165518259Y-79721110D01*
X165524426Y-79718555D01*
X165550132Y-79716024D01*
X165738727Y-79658814D01*
X165912538Y-79565910D01*
X166064883Y-79440883D01*
X166189910Y-79288538D01*
X166282814Y-79114727D01*
X166340024Y-78926132D01*
X166359341Y-78730000D01*
X166340024Y-78533868D01*
X166282814Y-78345273D01*
X166274224Y-78329203D01*
X166189911Y-78171464D01*
X166189910Y-78171462D01*
X166064883Y-78019117D01*
X165912538Y-77894090D01*
X165912536Y-77894089D01*
X165912535Y-77894088D01*
X165738730Y-77801187D01*
X165738720Y-77801184D01*
X165550136Y-77743977D01*
X165550134Y-77743976D01*
X165550132Y-77743976D01*
X165354000Y-77724659D01*
X165157868Y-77743976D01*
X165157865Y-77743976D01*
X165157863Y-77743977D01*
X164969279Y-77801184D01*
X164969269Y-77801187D01*
X164795464Y-77894088D01*
X164643117Y-78019117D01*
X164518088Y-78171464D01*
X164425187Y-78345269D01*
X164425184Y-78345279D01*
X164367977Y-78533863D01*
X164367976Y-78533865D01*
X164367976Y-78533868D01*
X164348659Y-78730000D01*
X164367976Y-78926132D01*
X164418858Y-79093868D01*
X164425184Y-79114720D01*
X164425187Y-79114730D01*
X164518088Y-79288535D01*
X164518090Y-79288538D01*
X164643117Y-79440883D01*
X164795462Y-79565910D01*
X164969273Y-79658814D01*
X165157868Y-79716024D01*
X165183572Y-79718555D01*
X165191334Y-79722705D01*
X165193889Y-79731127D01*
X165189739Y-79738890D01*
X165183572Y-79741444D01*
X165157868Y-79743976D01*
X165157865Y-79743976D01*
X165157863Y-79743977D01*
X164969279Y-79801184D01*
X164969269Y-79801187D01*
X164795464Y-79894088D01*
X164643117Y-80019117D01*
X164518088Y-80171464D01*
X164425187Y-80345269D01*
X164425184Y-80345279D01*
X164367977Y-80533863D01*
X164367976Y-80533865D01*
X164367976Y-80533868D01*
X164348659Y-80730000D01*
X164367976Y-80926132D01*
X164367976Y-80926134D01*
X164367977Y-80926136D01*
X164425184Y-81114720D01*
X164425187Y-81114730D01*
X164513526Y-81280000D01*
X164518090Y-81288538D01*
X164643117Y-81440883D01*
X164795462Y-81565910D01*
X164969273Y-81658814D01*
X165157868Y-81716024D01*
X165183572Y-81718555D01*
X165191334Y-81722705D01*
X165193889Y-81731127D01*
X165189739Y-81738890D01*
X165183572Y-81741444D01*
X165157868Y-81743976D01*
X165157865Y-81743976D01*
X165157863Y-81743977D01*
X164969279Y-81801184D01*
X164969269Y-81801187D01*
X164795464Y-81894088D01*
X164643117Y-82019117D01*
X164518088Y-82171464D01*
X164425187Y-82345269D01*
X164425184Y-82345279D01*
X164367977Y-82533863D01*
X164367976Y-82533865D01*
X164367976Y-82533868D01*
X164348659Y-82730000D01*
X138724212Y-82730000D01*
X138534295Y-82694500D01*
X138534293Y-82694500D01*
X138325707Y-82694500D01*
X138325704Y-82694500D01*
X138120685Y-82732823D01*
X138120670Y-82732828D01*
X137926182Y-82808172D01*
X137926162Y-82808182D01*
X137748832Y-82917980D01*
X137649941Y-83008131D01*
X137594682Y-83058507D01*
X137594680Y-83058509D01*
X137594674Y-83058515D01*
X137468983Y-83224957D01*
X137468981Y-83224960D01*
X137376009Y-83411673D01*
X137376005Y-83411683D01*
X137318923Y-83612306D01*
X137299678Y-83820000D01*
X137318923Y-84027693D01*
X137376006Y-84228320D01*
X137422177Y-84321043D01*
X137422787Y-84329824D01*
X137420015Y-84334301D01*
X136303701Y-85450615D01*
X136301859Y-85452110D01*
X136284334Y-85463560D01*
X136284331Y-85463563D01*
X136262213Y-85491978D01*
X136261271Y-85493044D01*
X136256630Y-85497686D01*
X136256623Y-85497694D01*
X136244094Y-85515243D01*
X136243810Y-85515624D01*
X136212483Y-85555872D01*
X136212483Y-85555873D01*
X136210615Y-85561311D01*
X136209100Y-85564254D01*
X136205760Y-85568934D01*
X136191204Y-85617821D01*
X136191059Y-85618273D01*
X136174500Y-85666511D01*
X136174500Y-85672259D01*
X136174022Y-85675540D01*
X136172382Y-85681047D01*
X136174490Y-85731989D01*
X136174500Y-85732464D01*
X136174500Y-89295361D01*
X136171132Y-89303493D01*
X136170001Y-89304484D01*
X136096721Y-89360714D01*
X136096718Y-89360717D01*
X136000464Y-89486159D01*
X135939956Y-89632238D01*
X135919318Y-89789000D01*
X123885449Y-89789000D01*
X124025318Y-89661493D01*
X124047411Y-89632238D01*
X124151016Y-89495042D01*
X124151018Y-89495039D01*
X124151017Y-89495039D01*
X124151019Y-89495038D01*
X124243994Y-89308319D01*
X124301076Y-89107696D01*
X124320322Y-88900000D01*
X124314438Y-88836500D01*
X128997818Y-88836500D01*
X129018456Y-88993262D01*
X129078964Y-89139341D01*
X129175218Y-89264782D01*
X129300659Y-89361036D01*
X129446738Y-89421544D01*
X129603500Y-89442182D01*
X129760262Y-89421544D01*
X129906341Y-89361036D01*
X130031782Y-89264782D01*
X130128036Y-89139341D01*
X130188544Y-88993262D01*
X130209182Y-88836500D01*
X130197125Y-88744917D01*
X130199403Y-88736416D01*
X130200387Y-88735293D01*
X130581786Y-88353894D01*
X130589917Y-88350527D01*
X130591415Y-88350624D01*
X130683000Y-88362682D01*
X130839762Y-88342044D01*
X130985841Y-88281536D01*
X131111282Y-88185282D01*
X131207536Y-88059841D01*
X131268044Y-87913762D01*
X131288682Y-87757000D01*
X131268044Y-87600238D01*
X131207536Y-87454159D01*
X131111282Y-87328718D01*
X130985841Y-87232464D01*
X130839762Y-87171956D01*
X130683000Y-87151318D01*
X130526238Y-87171956D01*
X130380159Y-87232464D01*
X130254718Y-87328718D01*
X130158464Y-87454159D01*
X130097956Y-87600238D01*
X130077318Y-87757000D01*
X130089373Y-87848580D01*
X130087094Y-87857082D01*
X130086103Y-87858213D01*
X129704713Y-88239603D01*
X129696581Y-88242971D01*
X129695080Y-88242873D01*
X129603500Y-88230818D01*
X129446738Y-88251456D01*
X129300659Y-88311964D01*
X129175218Y-88408218D01*
X129078964Y-88533659D01*
X129018456Y-88679738D01*
X128997818Y-88836500D01*
X124314438Y-88836500D01*
X124301076Y-88692304D01*
X124243994Y-88491681D01*
X124151019Y-88304962D01*
X124151018Y-88304961D01*
X124151018Y-88304960D01*
X124151016Y-88304957D01*
X124025325Y-88138515D01*
X124025321Y-88138512D01*
X124025318Y-88138507D01*
X123871171Y-87997984D01*
X123871172Y-87997984D01*
X123871167Y-87997980D01*
X123693837Y-87888182D01*
X123693832Y-87888179D01*
X123693828Y-87888177D01*
X123693823Y-87888175D01*
X123693817Y-87888172D01*
X123544773Y-87830432D01*
X123499327Y-87812827D01*
X123499324Y-87812826D01*
X123499314Y-87812823D01*
X123294295Y-87774500D01*
X123294293Y-87774500D01*
X123085707Y-87774500D01*
X123085704Y-87774500D01*
X122880685Y-87812823D01*
X122880670Y-87812828D01*
X122686182Y-87888172D01*
X122686162Y-87888182D01*
X122508832Y-87997980D01*
X122411254Y-88086935D01*
X122354682Y-88138507D01*
X122354680Y-88138509D01*
X122354674Y-88138515D01*
X122228983Y-88304957D01*
X122228981Y-88304960D01*
X122136009Y-88491673D01*
X122136005Y-88491683D01*
X122078923Y-88692306D01*
X122059678Y-88900000D01*
X122078923Y-89107693D01*
X122136006Y-89308320D01*
X122182177Y-89401043D01*
X122182787Y-89409824D01*
X122180015Y-89414301D01*
X121782132Y-89812185D01*
X121774000Y-89815553D01*
X121765868Y-89812185D01*
X121762500Y-89804053D01*
X121762500Y-88287945D01*
X121765867Y-88279814D01*
X122672127Y-87373553D01*
X122680258Y-87370186D01*
X122685628Y-87371719D01*
X122685696Y-87371585D01*
X122686163Y-87371817D01*
X122686172Y-87371823D01*
X122880673Y-87447173D01*
X122880679Y-87447174D01*
X122880685Y-87447176D01*
X123010417Y-87471426D01*
X123085707Y-87485500D01*
X123294293Y-87485500D01*
X123401623Y-87465436D01*
X123499314Y-87447176D01*
X123499317Y-87447174D01*
X123499327Y-87447173D01*
X123693828Y-87371823D01*
X123773558Y-87322455D01*
X123871167Y-87262019D01*
X123871168Y-87262017D01*
X123871171Y-87262016D01*
X124025318Y-87121493D01*
X124151019Y-86955038D01*
X124243994Y-86768319D01*
X124301076Y-86567696D01*
X124320322Y-86360000D01*
X124301076Y-86152304D01*
X124243994Y-85951681D01*
X124151019Y-85764962D01*
X124151018Y-85764961D01*
X124151018Y-85764960D01*
X124151016Y-85764957D01*
X124025325Y-85598515D01*
X124025321Y-85598512D01*
X124025318Y-85598507D01*
X123871171Y-85457984D01*
X123871172Y-85457984D01*
X123871167Y-85457980D01*
X123693837Y-85348182D01*
X123693832Y-85348179D01*
X123693828Y-85348177D01*
X123693823Y-85348175D01*
X123693817Y-85348172D01*
X123544773Y-85290432D01*
X123499327Y-85272827D01*
X123499324Y-85272826D01*
X123499314Y-85272823D01*
X123294295Y-85234500D01*
X123294293Y-85234500D01*
X123085707Y-85234500D01*
X123085704Y-85234500D01*
X122880685Y-85272823D01*
X122880670Y-85272828D01*
X122686182Y-85348172D01*
X122686162Y-85348182D01*
X122508832Y-85457980D01*
X122409941Y-85548131D01*
X122354682Y-85598507D01*
X122354680Y-85598509D01*
X122354674Y-85598515D01*
X122228983Y-85764957D01*
X122228981Y-85764960D01*
X122136009Y-85951673D01*
X122136005Y-85951683D01*
X122078923Y-86152306D01*
X122059678Y-86360000D01*
X122078923Y-86567693D01*
X122136005Y-86768316D01*
X122136009Y-86768326D01*
X122182177Y-86861044D01*
X122182787Y-86869825D01*
X122180015Y-86874302D01*
X121190701Y-87863615D01*
X121188859Y-87865110D01*
X121171334Y-87876560D01*
X121171331Y-87876563D01*
X121149213Y-87904978D01*
X121148271Y-87906044D01*
X121143630Y-87910686D01*
X121143623Y-87910694D01*
X121131094Y-87928243D01*
X121130810Y-87928624D01*
X121099483Y-87968872D01*
X121099483Y-87968873D01*
X121097615Y-87974311D01*
X121096100Y-87977254D01*
X121092760Y-87981934D01*
X121078204Y-88030821D01*
X121078059Y-88031273D01*
X121061500Y-88079511D01*
X121061500Y-88085259D01*
X121061022Y-88088540D01*
X121059382Y-88094047D01*
X121061490Y-88144989D01*
X121061500Y-88145464D01*
X121061500Y-92672457D01*
X121061255Y-92674817D01*
X121056956Y-92695314D01*
X113411500Y-92695314D01*
X113411500Y-83820000D01*
X122059678Y-83820000D01*
X122078923Y-84027693D01*
X122098776Y-84097467D01*
X122136006Y-84228319D01*
X122136007Y-84228321D01*
X122136009Y-84228326D01*
X122228981Y-84415039D01*
X122228983Y-84415042D01*
X122354674Y-84581484D01*
X122354677Y-84581487D01*
X122354682Y-84581493D01*
X122488106Y-84703125D01*
X122508832Y-84722019D01*
X122686004Y-84831719D01*
X122686172Y-84831823D01*
X122880673Y-84907173D01*
X122880679Y-84907174D01*
X122880685Y-84907176D01*
X123010417Y-84931426D01*
X123085707Y-84945500D01*
X123294293Y-84945500D01*
X123401623Y-84925436D01*
X123499314Y-84907176D01*
X123499317Y-84907174D01*
X123499327Y-84907173D01*
X123693828Y-84831823D01*
X123773558Y-84782455D01*
X123871167Y-84722019D01*
X123871168Y-84722017D01*
X123871171Y-84722016D01*
X124025318Y-84581493D01*
X124151019Y-84415038D01*
X124243994Y-84228319D01*
X124301076Y-84027696D01*
X124320322Y-83820000D01*
X124301076Y-83612304D01*
X124243994Y-83411681D01*
X124151019Y-83224962D01*
X124151018Y-83224961D01*
X124151018Y-83224960D01*
X124151016Y-83224957D01*
X124025325Y-83058515D01*
X124025321Y-83058512D01*
X124025318Y-83058507D01*
X123898800Y-82943171D01*
X123871167Y-82917980D01*
X123693837Y-82808182D01*
X123693832Y-82808179D01*
X123693828Y-82808177D01*
X123693823Y-82808175D01*
X123693817Y-82808172D01*
X123544773Y-82750432D01*
X123499327Y-82732827D01*
X123499324Y-82732826D01*
X123499314Y-82732823D01*
X123294295Y-82694500D01*
X123294293Y-82694500D01*
X123085707Y-82694500D01*
X123085704Y-82694500D01*
X122880685Y-82732823D01*
X122880670Y-82732828D01*
X122686182Y-82808172D01*
X122686162Y-82808182D01*
X122508832Y-82917980D01*
X122409941Y-83008131D01*
X122354682Y-83058507D01*
X122354680Y-83058509D01*
X122354674Y-83058515D01*
X122228983Y-83224957D01*
X122228981Y-83224960D01*
X122136009Y-83411673D01*
X122136005Y-83411683D01*
X122078923Y-83612306D01*
X122059678Y-83820000D01*
X113411500Y-83820000D01*
X113411500Y-81280000D01*
X122059678Y-81280000D01*
X122078923Y-81487693D01*
X122136005Y-81688316D01*
X122136009Y-81688326D01*
X122228981Y-81875039D01*
X122228983Y-81875042D01*
X122354674Y-82041484D01*
X122354677Y-82041487D01*
X122354682Y-82041493D01*
X122488106Y-82163125D01*
X122508832Y-82182019D01*
X122686162Y-82291817D01*
X122686172Y-82291823D01*
X122880673Y-82367173D01*
X122880679Y-82367174D01*
X122880685Y-82367176D01*
X123010417Y-82391426D01*
X123085707Y-82405500D01*
X123294293Y-82405500D01*
X123401623Y-82385436D01*
X123499314Y-82367176D01*
X123499317Y-82367174D01*
X123499327Y-82367173D01*
X123693828Y-82291823D01*
X123773558Y-82242455D01*
X123871167Y-82182019D01*
X123871168Y-82182017D01*
X123871171Y-82182016D01*
X124025318Y-82041493D01*
X124151019Y-81875038D01*
X124243994Y-81688319D01*
X124301076Y-81487696D01*
X124320322Y-81280000D01*
X137299678Y-81280000D01*
X137318923Y-81487693D01*
X137376005Y-81688316D01*
X137376009Y-81688326D01*
X137468981Y-81875039D01*
X137468983Y-81875042D01*
X137594674Y-82041484D01*
X137594677Y-82041487D01*
X137594682Y-82041493D01*
X137728106Y-82163125D01*
X137748832Y-82182019D01*
X137926162Y-82291817D01*
X137926172Y-82291823D01*
X138120673Y-82367173D01*
X138120679Y-82367174D01*
X138120685Y-82367176D01*
X138250417Y-82391426D01*
X138325707Y-82405500D01*
X138534293Y-82405500D01*
X138641623Y-82385436D01*
X138739314Y-82367176D01*
X138739317Y-82367174D01*
X138739327Y-82367173D01*
X138933828Y-82291823D01*
X139013558Y-82242455D01*
X139111167Y-82182019D01*
X139111168Y-82182017D01*
X139111171Y-82182016D01*
X139265318Y-82041493D01*
X139391019Y-81875038D01*
X139483994Y-81688319D01*
X139541076Y-81487696D01*
X139560322Y-81280000D01*
X139541076Y-81072304D01*
X139483994Y-80871681D01*
X139391019Y-80684962D01*
X139391018Y-80684961D01*
X139391018Y-80684960D01*
X139391016Y-80684957D01*
X139265325Y-80518515D01*
X139265321Y-80518512D01*
X139265318Y-80518507D01*
X139111171Y-80377984D01*
X139111172Y-80377984D01*
X139111167Y-80377980D01*
X138933837Y-80268182D01*
X138933832Y-80268179D01*
X138933828Y-80268177D01*
X138933823Y-80268175D01*
X138933817Y-80268172D01*
X138784773Y-80210432D01*
X138739327Y-80192827D01*
X138739324Y-80192826D01*
X138739314Y-80192823D01*
X138534295Y-80154500D01*
X138534293Y-80154500D01*
X138325707Y-80154500D01*
X138325704Y-80154500D01*
X138120685Y-80192823D01*
X138120670Y-80192828D01*
X137926182Y-80268172D01*
X137926162Y-80268182D01*
X137748832Y-80377980D01*
X137649941Y-80468131D01*
X137594682Y-80518507D01*
X137594680Y-80518509D01*
X137594674Y-80518515D01*
X137468983Y-80684957D01*
X137468981Y-80684960D01*
X137376009Y-80871673D01*
X137376005Y-80871683D01*
X137318923Y-81072306D01*
X137299678Y-81280000D01*
X124320322Y-81280000D01*
X124301076Y-81072304D01*
X124243994Y-80871681D01*
X124151019Y-80684962D01*
X124151018Y-80684961D01*
X124151018Y-80684960D01*
X124151016Y-80684957D01*
X124025325Y-80518515D01*
X124025321Y-80518512D01*
X124025318Y-80518507D01*
X123871171Y-80377984D01*
X123871172Y-80377984D01*
X123871167Y-80377980D01*
X123693837Y-80268182D01*
X123693832Y-80268179D01*
X123693828Y-80268177D01*
X123693823Y-80268175D01*
X123693817Y-80268172D01*
X123544773Y-80210432D01*
X123499327Y-80192827D01*
X123499324Y-80192826D01*
X123499314Y-80192823D01*
X123294295Y-80154500D01*
X123294293Y-80154500D01*
X123085707Y-80154500D01*
X123085704Y-80154500D01*
X122880685Y-80192823D01*
X122880670Y-80192828D01*
X122686182Y-80268172D01*
X122686162Y-80268182D01*
X122508832Y-80377980D01*
X122409941Y-80468131D01*
X122354682Y-80518507D01*
X122354680Y-80518509D01*
X122354674Y-80518515D01*
X122228983Y-80684957D01*
X122228981Y-80684960D01*
X122136009Y-80871673D01*
X122136005Y-80871683D01*
X122078923Y-81072306D01*
X122059678Y-81280000D01*
X113411500Y-81280000D01*
X113411500Y-78232000D01*
X120171318Y-78232000D01*
X120191956Y-78388762D01*
X120252464Y-78534841D01*
X120348718Y-78660282D01*
X120474159Y-78756536D01*
X120620238Y-78817044D01*
X120777000Y-78837682D01*
X120868580Y-78825625D01*
X120877082Y-78827903D01*
X120878213Y-78828895D01*
X121010614Y-78961296D01*
X121012109Y-78963138D01*
X121023560Y-78980666D01*
X121023565Y-78980671D01*
X121032851Y-78987898D01*
X121051982Y-79002788D01*
X121053034Y-79003716D01*
X121057693Y-79008375D01*
X121075297Y-79020944D01*
X121075576Y-79021152D01*
X121115874Y-79052517D01*
X121121310Y-79054382D01*
X121124254Y-79055898D01*
X121128933Y-79059239D01*
X121177816Y-79073792D01*
X121178249Y-79073931D01*
X121226512Y-79090500D01*
X121232259Y-79090500D01*
X121235540Y-79090978D01*
X121237607Y-79091593D01*
X121241046Y-79092617D01*
X121241046Y-79092616D01*
X121241047Y-79092617D01*
X121291989Y-79090510D01*
X121292464Y-79090500D01*
X122110871Y-79090500D01*
X122119003Y-79093868D01*
X122121932Y-79098853D01*
X122136006Y-79148320D01*
X122228981Y-79335039D01*
X122228983Y-79335042D01*
X122354674Y-79501484D01*
X122354677Y-79501487D01*
X122354682Y-79501493D01*
X122461904Y-79599238D01*
X122508832Y-79642019D01*
X122673500Y-79743977D01*
X122686172Y-79751823D01*
X122880673Y-79827173D01*
X122880679Y-79827174D01*
X122880685Y-79827176D01*
X123010417Y-79851426D01*
X123085707Y-79865500D01*
X123294293Y-79865500D01*
X123401623Y-79845436D01*
X123499314Y-79827176D01*
X123499317Y-79827174D01*
X123499327Y-79827173D01*
X123693828Y-79751823D01*
X123773558Y-79702455D01*
X123871167Y-79642019D01*
X123871168Y-79642017D01*
X123871171Y-79642016D01*
X124025318Y-79501493D01*
X124083137Y-79424929D01*
X124151016Y-79335042D01*
X124151018Y-79335039D01*
X124151017Y-79335039D01*
X124151019Y-79335038D01*
X124243994Y-79148319D01*
X124301076Y-78947696D01*
X124320322Y-78740000D01*
X137050288Y-78740000D01*
X137069106Y-78967098D01*
X137125044Y-79187989D01*
X137125046Y-79187994D01*
X137216581Y-79396673D01*
X137216583Y-79396677D01*
X137296874Y-79519570D01*
X137946922Y-78869522D01*
X137970507Y-78949844D01*
X138048239Y-79070798D01*
X138156900Y-79164952D01*
X138287685Y-79224680D01*
X138297465Y-79226086D01*
X137649015Y-79874537D01*
X137675370Y-79895050D01*
X137675373Y-79895052D01*
X137875770Y-80003499D01*
X137875778Y-80003503D01*
X138091300Y-80077492D01*
X138091310Y-80077494D01*
X138316066Y-80115000D01*
X138543934Y-80115000D01*
X138768689Y-80077494D01*
X138768699Y-80077492D01*
X138984221Y-80003503D01*
X138984229Y-80003499D01*
X139184626Y-79895052D01*
X139184629Y-79895050D01*
X139210983Y-79874537D01*
X139092446Y-79756000D01*
X151413318Y-79756000D01*
X151433956Y-79912762D01*
X151494464Y-80058841D01*
X151590718Y-80184282D01*
X151716159Y-80280536D01*
X151862238Y-80341044D01*
X152019000Y-80361682D01*
X152175762Y-80341044D01*
X152321841Y-80280536D01*
X152447282Y-80184282D01*
X152543536Y-80058841D01*
X152604044Y-79912762D01*
X152624682Y-79756000D01*
X152604044Y-79599238D01*
X152543536Y-79453159D01*
X152537386Y-79445144D01*
X152521876Y-79424929D01*
X152519500Y-79417929D01*
X152519500Y-78316069D01*
X152521876Y-78309068D01*
X152543536Y-78280841D01*
X152604044Y-78134762D01*
X152624682Y-77978000D01*
X152604044Y-77821238D01*
X152543536Y-77675159D01*
X152447282Y-77549718D01*
X152321841Y-77453464D01*
X152175762Y-77392956D01*
X152019000Y-77372318D01*
X151862238Y-77392956D01*
X151716159Y-77453464D01*
X151590718Y-77549718D01*
X151494464Y-77675159D01*
X151433956Y-77821238D01*
X151413318Y-77978000D01*
X151433956Y-78134762D01*
X151494464Y-78280841D01*
X151516124Y-78309068D01*
X151518500Y-78316069D01*
X151518500Y-79417929D01*
X151516124Y-79424929D01*
X151494465Y-79453157D01*
X151494464Y-79453158D01*
X151494464Y-79453159D01*
X151433956Y-79599238D01*
X151413318Y-79756000D01*
X139092446Y-79756000D01*
X138562532Y-79226086D01*
X138572315Y-79224680D01*
X138703100Y-79164952D01*
X138811761Y-79070798D01*
X138889493Y-78949844D01*
X138913077Y-78869523D01*
X139563124Y-79519570D01*
X139563125Y-79519570D01*
X139643416Y-79396677D01*
X139643418Y-79396673D01*
X139734953Y-79187994D01*
X139734955Y-79187989D01*
X139790893Y-78967098D01*
X139809711Y-78740000D01*
X139790893Y-78512901D01*
X139734955Y-78292010D01*
X139734953Y-78292005D01*
X139643418Y-78083326D01*
X139643416Y-78083322D01*
X139563124Y-77960428D01*
X138913076Y-78610475D01*
X138889493Y-78530156D01*
X138811761Y-78409202D01*
X138703100Y-78315048D01*
X138572315Y-78255320D01*
X138562530Y-78253913D01*
X139210983Y-77605461D01*
X139184629Y-77584950D01*
X139184626Y-77584947D01*
X138984229Y-77476500D01*
X138984221Y-77476496D01*
X138768699Y-77402507D01*
X138768689Y-77402505D01*
X138543934Y-77365000D01*
X138316066Y-77365000D01*
X138091310Y-77402505D01*
X138091300Y-77402507D01*
X137875778Y-77476496D01*
X137875770Y-77476500D01*
X137675373Y-77584947D01*
X137675369Y-77584950D01*
X137649015Y-77605461D01*
X138297467Y-78253913D01*
X138287685Y-78255320D01*
X138156900Y-78315048D01*
X138048239Y-78409202D01*
X137970507Y-78530156D01*
X137946923Y-78610476D01*
X137296875Y-77960428D01*
X137296874Y-77960428D01*
X137216583Y-78083322D01*
X137216581Y-78083326D01*
X137125046Y-78292005D01*
X137125044Y-78292010D01*
X137069106Y-78512901D01*
X137050288Y-78740000D01*
X124320322Y-78740000D01*
X124301076Y-78532304D01*
X124243994Y-78331681D01*
X124151019Y-78144962D01*
X124151018Y-78144961D01*
X124151018Y-78144960D01*
X124151016Y-78144957D01*
X124025325Y-77978515D01*
X124025321Y-77978512D01*
X124025318Y-77978507D01*
X123871171Y-77837984D01*
X123871172Y-77837984D01*
X123871167Y-77837980D01*
X123693837Y-77728182D01*
X123693832Y-77728179D01*
X123693828Y-77728177D01*
X123693823Y-77728175D01*
X123693817Y-77728172D01*
X123544773Y-77670432D01*
X123499327Y-77652827D01*
X123499324Y-77652826D01*
X123499314Y-77652823D01*
X123294295Y-77614500D01*
X123294293Y-77614500D01*
X123085707Y-77614500D01*
X123085704Y-77614500D01*
X122880685Y-77652823D01*
X122880670Y-77652828D01*
X122686182Y-77728172D01*
X122686162Y-77728182D01*
X122508832Y-77837980D01*
X122447283Y-77894090D01*
X122354682Y-77978507D01*
X122354680Y-77978509D01*
X122354674Y-77978515D01*
X122228983Y-78144957D01*
X122228981Y-78144960D01*
X122136006Y-78331679D01*
X122121932Y-78381147D01*
X122116467Y-78388047D01*
X122110871Y-78389500D01*
X121434946Y-78389500D01*
X121426814Y-78386132D01*
X121373895Y-78333213D01*
X121370527Y-78325081D01*
X121370625Y-78323580D01*
X121371614Y-78316069D01*
X121382682Y-78232000D01*
X121362044Y-78075238D01*
X121301536Y-77929159D01*
X121205282Y-77803718D01*
X121079841Y-77707464D01*
X120933762Y-77646956D01*
X120777000Y-77626318D01*
X120620238Y-77646956D01*
X120474159Y-77707464D01*
X120348718Y-77803718D01*
X120252464Y-77929159D01*
X120191956Y-78075238D01*
X120171318Y-78232000D01*
X113411500Y-78232000D01*
X113411500Y-74930279D01*
X113411507Y-74930000D01*
X115183393Y-74930000D01*
X115203789Y-75189155D01*
X115264471Y-75441915D01*
X115264472Y-75441918D01*
X115264473Y-75441920D01*
X115363952Y-75682084D01*
X115499777Y-75903729D01*
X115668602Y-76101398D01*
X115866271Y-76270223D01*
X116087916Y-76406048D01*
X116328080Y-76505527D01*
X116328083Y-76505527D01*
X116328084Y-76505528D01*
X116580845Y-76566210D01*
X116580847Y-76566210D01*
X116580850Y-76566211D01*
X116775111Y-76581500D01*
X116775120Y-76581500D01*
X116904880Y-76581500D01*
X116904889Y-76581500D01*
X117099150Y-76566211D01*
X117099153Y-76566210D01*
X117099155Y-76566210D01*
X117227680Y-76535354D01*
X117351920Y-76505527D01*
X117592084Y-76406048D01*
X117813729Y-76270223D01*
X117895950Y-76200000D01*
X122059678Y-76200000D01*
X122078923Y-76407693D01*
X122136005Y-76608316D01*
X122136009Y-76608326D01*
X122228981Y-76795039D01*
X122228983Y-76795042D01*
X122354674Y-76961484D01*
X122354677Y-76961487D01*
X122354682Y-76961493D01*
X122487671Y-77082728D01*
X122508832Y-77102019D01*
X122686162Y-77211817D01*
X122686172Y-77211823D01*
X122880673Y-77287173D01*
X122880679Y-77287174D01*
X122880685Y-77287176D01*
X123010417Y-77311426D01*
X123085707Y-77325500D01*
X123294293Y-77325500D01*
X123401623Y-77305436D01*
X123499314Y-77287176D01*
X123499317Y-77287174D01*
X123499327Y-77287173D01*
X123693828Y-77211823D01*
X123773558Y-77162455D01*
X123871167Y-77102019D01*
X123871168Y-77102017D01*
X123871171Y-77102016D01*
X124025318Y-76961493D01*
X124064353Y-76909803D01*
X124151016Y-76795042D01*
X124151018Y-76795039D01*
X124151017Y-76795039D01*
X124151019Y-76795038D01*
X124243994Y-76608319D01*
X124301076Y-76407696D01*
X124320322Y-76200000D01*
X137299678Y-76200000D01*
X137318923Y-76407693D01*
X137376005Y-76608316D01*
X137376009Y-76608326D01*
X137468981Y-76795039D01*
X137468983Y-76795042D01*
X137594674Y-76961484D01*
X137594677Y-76961487D01*
X137594682Y-76961493D01*
X137727671Y-77082728D01*
X137748832Y-77102019D01*
X137926162Y-77211817D01*
X137926172Y-77211823D01*
X138120673Y-77287173D01*
X138120679Y-77287174D01*
X138120685Y-77287176D01*
X138250417Y-77311426D01*
X138325707Y-77325500D01*
X138534293Y-77325500D01*
X138641623Y-77305436D01*
X138739314Y-77287176D01*
X138739317Y-77287174D01*
X138739327Y-77287173D01*
X138933828Y-77211823D01*
X139013558Y-77162455D01*
X139111167Y-77102019D01*
X139111168Y-77102017D01*
X139111171Y-77102016D01*
X139265318Y-76961493D01*
X139304353Y-76909803D01*
X139391016Y-76795042D01*
X139391018Y-76795039D01*
X139391017Y-76795039D01*
X139391019Y-76795038D01*
X139426070Y-76724646D01*
X164053500Y-76724646D01*
X164092856Y-76909803D01*
X164169849Y-77082730D01*
X164281112Y-77235871D01*
X164281115Y-77235873D01*
X164281116Y-77235875D01*
X164421785Y-77362534D01*
X164421786Y-77362535D01*
X164579281Y-77453464D01*
X164585716Y-77457179D01*
X164765744Y-77515674D01*
X164906808Y-77530500D01*
X164906816Y-77530500D01*
X165801184Y-77530500D01*
X165801192Y-77530500D01*
X165942256Y-77515674D01*
X166122284Y-77457179D01*
X166286216Y-77362533D01*
X166426888Y-77235871D01*
X166538151Y-77082730D01*
X166615144Y-76909803D01*
X166654500Y-76724646D01*
X166654500Y-76535354D01*
X166615144Y-76350197D01*
X166538151Y-76177270D01*
X166426888Y-76024129D01*
X166426884Y-76024125D01*
X166426883Y-76024124D01*
X166286214Y-75897465D01*
X166286213Y-75897464D01*
X166122285Y-75802821D01*
X165942255Y-75744325D01*
X165801192Y-75729500D01*
X164906808Y-75729500D01*
X164906807Y-75729500D01*
X164765744Y-75744325D01*
X164585714Y-75802821D01*
X164421786Y-75897464D01*
X164421785Y-75897465D01*
X164281116Y-76024124D01*
X164169848Y-76177271D01*
X164092856Y-76350195D01*
X164080635Y-76407693D01*
X164053500Y-76535354D01*
X164053500Y-76724646D01*
X139426070Y-76724646D01*
X139483994Y-76608319D01*
X139541076Y-76407696D01*
X139560322Y-76200000D01*
X139541076Y-75992304D01*
X139483994Y-75791681D01*
X139391019Y-75604962D01*
X139391018Y-75604961D01*
X139391018Y-75604960D01*
X139391016Y-75604957D01*
X139265325Y-75438515D01*
X139265321Y-75438512D01*
X139265318Y-75438507D01*
X139111171Y-75297984D01*
X139111172Y-75297984D01*
X139111167Y-75297980D01*
X138933837Y-75188182D01*
X138933832Y-75188179D01*
X138933828Y-75188177D01*
X138933823Y-75188175D01*
X138933817Y-75188172D01*
X138760163Y-75120899D01*
X138739327Y-75112827D01*
X138739324Y-75112826D01*
X138739314Y-75112823D01*
X138534295Y-75074500D01*
X138534293Y-75074500D01*
X138325707Y-75074500D01*
X138325704Y-75074500D01*
X138120685Y-75112823D01*
X138120670Y-75112828D01*
X137926182Y-75188172D01*
X137926162Y-75188182D01*
X137748832Y-75297980D01*
X137649941Y-75388131D01*
X137594682Y-75438507D01*
X137594680Y-75438509D01*
X137594674Y-75438515D01*
X137468983Y-75604957D01*
X137468981Y-75604960D01*
X137376009Y-75791673D01*
X137376005Y-75791683D01*
X137318923Y-75992306D01*
X137299678Y-76200000D01*
X124320322Y-76200000D01*
X124301076Y-75992304D01*
X124243994Y-75791681D01*
X124151019Y-75604962D01*
X124151018Y-75604961D01*
X124151018Y-75604960D01*
X124151016Y-75604957D01*
X124025325Y-75438515D01*
X124025321Y-75438512D01*
X124025318Y-75438507D01*
X123871171Y-75297984D01*
X123871172Y-75297984D01*
X123871167Y-75297980D01*
X123693837Y-75188182D01*
X123693832Y-75188179D01*
X123693828Y-75188177D01*
X123693823Y-75188175D01*
X123693817Y-75188172D01*
X123547846Y-75131622D01*
X123541480Y-75125544D01*
X123540500Y-75120899D01*
X123540500Y-74930000D01*
X171063393Y-74930000D01*
X171083789Y-75189155D01*
X171144471Y-75441915D01*
X171144472Y-75441918D01*
X171144473Y-75441920D01*
X171243952Y-75682084D01*
X171379777Y-75903729D01*
X171548602Y-76101398D01*
X171746271Y-76270223D01*
X171967916Y-76406048D01*
X172208080Y-76505527D01*
X172208083Y-76505527D01*
X172208084Y-76505528D01*
X172460845Y-76566210D01*
X172460847Y-76566210D01*
X172460850Y-76566211D01*
X172655111Y-76581500D01*
X172655120Y-76581500D01*
X172784880Y-76581500D01*
X172784889Y-76581500D01*
X172979150Y-76566211D01*
X172979153Y-76566210D01*
X172979155Y-76566210D01*
X173107680Y-76535354D01*
X173231920Y-76505527D01*
X173472084Y-76406048D01*
X173693729Y-76270223D01*
X173891398Y-76101398D01*
X174060223Y-75903729D01*
X174196048Y-75682084D01*
X174295527Y-75441920D01*
X174356211Y-75189150D01*
X174376607Y-74930000D01*
X174356211Y-74670850D01*
X174295527Y-74418080D01*
X174196048Y-74177916D01*
X174060223Y-73956271D01*
X173891398Y-73758602D01*
X173693729Y-73589777D01*
X173472084Y-73453952D01*
X173343040Y-73400500D01*
X173231918Y-73354472D01*
X173231915Y-73354471D01*
X172979154Y-73293789D01*
X172979156Y-73293789D01*
X172901445Y-73287673D01*
X172784889Y-73278500D01*
X172655111Y-73278500D01*
X172538554Y-73287673D01*
X172460844Y-73293789D01*
X172208084Y-73354471D01*
X172208081Y-73354472D01*
X171967917Y-73453951D01*
X171799332Y-73557261D01*
X171746271Y-73589777D01*
X171548602Y-73758602D01*
X171379777Y-73956271D01*
X171379775Y-73956273D01*
X171379775Y-73956274D01*
X171243951Y-74177917D01*
X171144472Y-74418081D01*
X171144471Y-74418084D01*
X171083789Y-74670844D01*
X171063393Y-74930000D01*
X123540500Y-74930000D01*
X123540500Y-73894137D01*
X123543868Y-73886005D01*
X123544991Y-73885019D01*
X123618282Y-73828782D01*
X123714536Y-73703341D01*
X123775044Y-73557262D01*
X123795682Y-73400500D01*
X123775044Y-73243738D01*
X123714536Y-73097659D01*
X123618282Y-72972218D01*
X123492841Y-72875964D01*
X123346762Y-72815456D01*
X123190000Y-72794818D01*
X123033238Y-72815456D01*
X122887159Y-72875964D01*
X122761718Y-72972218D01*
X122665464Y-73097659D01*
X122604956Y-73243738D01*
X122584318Y-73400500D01*
X122604956Y-73557262D01*
X122665464Y-73703341D01*
X122761718Y-73828782D01*
X122835001Y-73885014D01*
X122839402Y-73892636D01*
X122839500Y-73894137D01*
X122839500Y-75120899D01*
X122836132Y-75129031D01*
X122832154Y-75131622D01*
X122686182Y-75188172D01*
X122686162Y-75188182D01*
X122508832Y-75297980D01*
X122409941Y-75388131D01*
X122354682Y-75438507D01*
X122354680Y-75438509D01*
X122354674Y-75438515D01*
X122228983Y-75604957D01*
X122228981Y-75604960D01*
X122136009Y-75791673D01*
X122136005Y-75791683D01*
X122078923Y-75992306D01*
X122059678Y-76200000D01*
X117895950Y-76200000D01*
X118011398Y-76101398D01*
X118180223Y-75903729D01*
X118316048Y-75682084D01*
X118415527Y-75441920D01*
X118476211Y-75189150D01*
X118496607Y-74930000D01*
X118476211Y-74670850D01*
X118415527Y-74418080D01*
X118316048Y-74177916D01*
X118180223Y-73956271D01*
X118011398Y-73758602D01*
X117813729Y-73589777D01*
X117592084Y-73453952D01*
X117463040Y-73400500D01*
X117351918Y-73354472D01*
X117351915Y-73354471D01*
X117099154Y-73293789D01*
X117099156Y-73293789D01*
X117021445Y-73287673D01*
X116904889Y-73278500D01*
X116775111Y-73278500D01*
X116658554Y-73287673D01*
X116580844Y-73293789D01*
X116328084Y-73354471D01*
X116328081Y-73354472D01*
X116087917Y-73453951D01*
X115919332Y-73557261D01*
X115866271Y-73589777D01*
X115668602Y-73758602D01*
X115499777Y-73956271D01*
X115499775Y-73956273D01*
X115499775Y-73956274D01*
X115363951Y-74177917D01*
X115264472Y-74418081D01*
X115264471Y-74418084D01*
X115203789Y-74670844D01*
X115183393Y-74930000D01*
X113411507Y-74930000D01*
X113411514Y-74929715D01*
X113414627Y-74866339D01*
X113427982Y-74594497D01*
X113428087Y-74593415D01*
X113477297Y-74261678D01*
X113477517Y-74260577D01*
X113498222Y-74177917D01*
X113558993Y-73935302D01*
X113559314Y-73934242D01*
X113672292Y-73618490D01*
X113672715Y-73617470D01*
X113816094Y-73314320D01*
X113816624Y-73313330D01*
X113989023Y-73025697D01*
X113989628Y-73024791D01*
X114189404Y-72755427D01*
X114190109Y-72754568D01*
X114415316Y-72506089D01*
X114416089Y-72505316D01*
X114664568Y-72280109D01*
X114665427Y-72279404D01*
X114934791Y-72079628D01*
X114935697Y-72079023D01*
X115223334Y-71906621D01*
X115224320Y-71906094D01*
X115527470Y-71762715D01*
X115528490Y-71762292D01*
X115844242Y-71649314D01*
X115845302Y-71648993D01*
X116170582Y-71567515D01*
X116171678Y-71567297D01*
X116503415Y-71518087D01*
X116504497Y-71517982D01*
X116839715Y-71501513D01*
X116840279Y-71501500D01*
X116894851Y-71501500D01*
X172665149Y-71501500D01*
X172719721Y-71501500D01*
X172720284Y-71501513D01*
G37*
%TD.AperFunction*%
%TD*%
M02*
