%TF.GenerationSoftware,KiCad,Pcbnew,7.0.11*%
%TF.CreationDate,2024-02-24T14:50:18-05:00*%
%TF.ProjectId,destinationWeatherStation_r4-5,64657374-696e-4617-9469-6f6e57656174,03*%
%TF.SameCoordinates,Original*%
%TF.FileFunction,Other,Comment*%
%FSLAX46Y46*%
G04 Gerber Fmt 4.6, Leading zero omitted, Abs format (unit mm)*
G04 Created by KiCad (PCBNEW 7.0.11) date 2024-02-24 14:50:18*
%MOMM*%
%LPD*%
G01*
G04 APERTURE LIST*
%ADD10C,0.150000*%
G04 APERTURE END LIST*
D10*
X176866779Y-121789819D02*
X176866779Y-120789819D01*
X176866779Y-120789819D02*
X177247731Y-120789819D01*
X177247731Y-120789819D02*
X177342969Y-120837438D01*
X177342969Y-120837438D02*
X177390588Y-120885057D01*
X177390588Y-120885057D02*
X177438207Y-120980295D01*
X177438207Y-120980295D02*
X177438207Y-121123152D01*
X177438207Y-121123152D02*
X177390588Y-121218390D01*
X177390588Y-121218390D02*
X177342969Y-121266009D01*
X177342969Y-121266009D02*
X177247731Y-121313628D01*
X177247731Y-121313628D02*
X176866779Y-121313628D01*
X178438207Y-121694580D02*
X178390588Y-121742200D01*
X178390588Y-121742200D02*
X178247731Y-121789819D01*
X178247731Y-121789819D02*
X178152493Y-121789819D01*
X178152493Y-121789819D02*
X178009636Y-121742200D01*
X178009636Y-121742200D02*
X177914398Y-121646961D01*
X177914398Y-121646961D02*
X177866779Y-121551723D01*
X177866779Y-121551723D02*
X177819160Y-121361247D01*
X177819160Y-121361247D02*
X177819160Y-121218390D01*
X177819160Y-121218390D02*
X177866779Y-121027914D01*
X177866779Y-121027914D02*
X177914398Y-120932676D01*
X177914398Y-120932676D02*
X178009636Y-120837438D01*
X178009636Y-120837438D02*
X178152493Y-120789819D01*
X178152493Y-120789819D02*
X178247731Y-120789819D01*
X178247731Y-120789819D02*
X178390588Y-120837438D01*
X178390588Y-120837438D02*
X178438207Y-120885057D01*
X179200112Y-121266009D02*
X179342969Y-121313628D01*
X179342969Y-121313628D02*
X179390588Y-121361247D01*
X179390588Y-121361247D02*
X179438207Y-121456485D01*
X179438207Y-121456485D02*
X179438207Y-121599342D01*
X179438207Y-121599342D02*
X179390588Y-121694580D01*
X179390588Y-121694580D02*
X179342969Y-121742200D01*
X179342969Y-121742200D02*
X179247731Y-121789819D01*
X179247731Y-121789819D02*
X178866779Y-121789819D01*
X178866779Y-121789819D02*
X178866779Y-120789819D01*
X178866779Y-120789819D02*
X179200112Y-120789819D01*
X179200112Y-120789819D02*
X179295350Y-120837438D01*
X179295350Y-120837438D02*
X179342969Y-120885057D01*
X179342969Y-120885057D02*
X179390588Y-120980295D01*
X179390588Y-120980295D02*
X179390588Y-121075533D01*
X179390588Y-121075533D02*
X179342969Y-121170771D01*
X179342969Y-121170771D02*
X179295350Y-121218390D01*
X179295350Y-121218390D02*
X179200112Y-121266009D01*
X179200112Y-121266009D02*
X178866779Y-121266009D01*
X179771541Y-120789819D02*
X180390588Y-120789819D01*
X180390588Y-120789819D02*
X180057255Y-121170771D01*
X180057255Y-121170771D02*
X180200112Y-121170771D01*
X180200112Y-121170771D02*
X180295350Y-121218390D01*
X180295350Y-121218390D02*
X180342969Y-121266009D01*
X180342969Y-121266009D02*
X180390588Y-121361247D01*
X180390588Y-121361247D02*
X180390588Y-121599342D01*
X180390588Y-121599342D02*
X180342969Y-121694580D01*
X180342969Y-121694580D02*
X180295350Y-121742200D01*
X180295350Y-121742200D02*
X180200112Y-121789819D01*
X180200112Y-121789819D02*
X179914398Y-121789819D01*
X179914398Y-121789819D02*
X179819160Y-121742200D01*
X179819160Y-121742200D02*
X179771541Y-121694580D01*
X180819160Y-121789819D02*
X180819160Y-120789819D01*
X180819160Y-120789819D02*
X181057255Y-120789819D01*
X181057255Y-120789819D02*
X181200112Y-120837438D01*
X181200112Y-120837438D02*
X181295350Y-120932676D01*
X181295350Y-120932676D02*
X181342969Y-121027914D01*
X181342969Y-121027914D02*
X181390588Y-121218390D01*
X181390588Y-121218390D02*
X181390588Y-121361247D01*
X181390588Y-121361247D02*
X181342969Y-121551723D01*
X181342969Y-121551723D02*
X181295350Y-121646961D01*
X181295350Y-121646961D02*
X181200112Y-121742200D01*
X181200112Y-121742200D02*
X181057255Y-121789819D01*
X181057255Y-121789819D02*
X180819160Y-121789819D01*
X181581065Y-121885057D02*
X182342969Y-121885057D01*
X182914398Y-121266009D02*
X183057255Y-121313628D01*
X183057255Y-121313628D02*
X183104874Y-121361247D01*
X183104874Y-121361247D02*
X183152493Y-121456485D01*
X183152493Y-121456485D02*
X183152493Y-121599342D01*
X183152493Y-121599342D02*
X183104874Y-121694580D01*
X183104874Y-121694580D02*
X183057255Y-121742200D01*
X183057255Y-121742200D02*
X182962017Y-121789819D01*
X182962017Y-121789819D02*
X182581065Y-121789819D01*
X182581065Y-121789819D02*
X182581065Y-120789819D01*
X182581065Y-120789819D02*
X182914398Y-120789819D01*
X182914398Y-120789819D02*
X183009636Y-120837438D01*
X183009636Y-120837438D02*
X183057255Y-120885057D01*
X183057255Y-120885057D02*
X183104874Y-120980295D01*
X183104874Y-120980295D02*
X183104874Y-121075533D01*
X183104874Y-121075533D02*
X183057255Y-121170771D01*
X183057255Y-121170771D02*
X183009636Y-121218390D01*
X183009636Y-121218390D02*
X182914398Y-121266009D01*
X182914398Y-121266009D02*
X182581065Y-121266009D01*
X184152493Y-121789819D02*
X183819160Y-121313628D01*
X183581065Y-121789819D02*
X183581065Y-120789819D01*
X183581065Y-120789819D02*
X183962017Y-120789819D01*
X183962017Y-120789819D02*
X184057255Y-120837438D01*
X184057255Y-120837438D02*
X184104874Y-120885057D01*
X184104874Y-120885057D02*
X184152493Y-120980295D01*
X184152493Y-120980295D02*
X184152493Y-121123152D01*
X184152493Y-121123152D02*
X184104874Y-121218390D01*
X184104874Y-121218390D02*
X184057255Y-121266009D01*
X184057255Y-121266009D02*
X183962017Y-121313628D01*
X183962017Y-121313628D02*
X183581065Y-121313628D01*
X184342970Y-121885057D02*
X185104874Y-121885057D01*
X185342970Y-121789819D02*
X185342970Y-120789819D01*
X185342970Y-120789819D02*
X185581065Y-120789819D01*
X185581065Y-120789819D02*
X185723922Y-120837438D01*
X185723922Y-120837438D02*
X185819160Y-120932676D01*
X185819160Y-120932676D02*
X185866779Y-121027914D01*
X185866779Y-121027914D02*
X185914398Y-121218390D01*
X185914398Y-121218390D02*
X185914398Y-121361247D01*
X185914398Y-121361247D02*
X185866779Y-121551723D01*
X185866779Y-121551723D02*
X185819160Y-121646961D01*
X185819160Y-121646961D02*
X185723922Y-121742200D01*
X185723922Y-121742200D02*
X185581065Y-121789819D01*
X185581065Y-121789819D02*
X185342970Y-121789819D01*
X186295351Y-121742200D02*
X186438208Y-121789819D01*
X186438208Y-121789819D02*
X186676303Y-121789819D01*
X186676303Y-121789819D02*
X186771541Y-121742200D01*
X186771541Y-121742200D02*
X186819160Y-121694580D01*
X186819160Y-121694580D02*
X186866779Y-121599342D01*
X186866779Y-121599342D02*
X186866779Y-121504104D01*
X186866779Y-121504104D02*
X186819160Y-121408866D01*
X186819160Y-121408866D02*
X186771541Y-121361247D01*
X186771541Y-121361247D02*
X186676303Y-121313628D01*
X186676303Y-121313628D02*
X186485827Y-121266009D01*
X186485827Y-121266009D02*
X186390589Y-121218390D01*
X186390589Y-121218390D02*
X186342970Y-121170771D01*
X186342970Y-121170771D02*
X186295351Y-121075533D01*
X186295351Y-121075533D02*
X186295351Y-120980295D01*
X186295351Y-120980295D02*
X186342970Y-120885057D01*
X186342970Y-120885057D02*
X186390589Y-120837438D01*
X186390589Y-120837438D02*
X186485827Y-120789819D01*
X186485827Y-120789819D02*
X186723922Y-120789819D01*
X186723922Y-120789819D02*
X186866779Y-120837438D01*
X187295351Y-121408866D02*
X188057256Y-121408866D01*
X188438208Y-120789819D02*
X188676303Y-121789819D01*
X188676303Y-121789819D02*
X188866779Y-121075533D01*
X188866779Y-121075533D02*
X189057255Y-121789819D01*
X189057255Y-121789819D02*
X189295351Y-120789819D01*
X189581065Y-120789819D02*
X190247731Y-121789819D01*
X190247731Y-120789819D02*
X189581065Y-121789819D01*
X190628684Y-121408866D02*
X191390589Y-121408866D01*
X191819160Y-121742200D02*
X191962017Y-121789819D01*
X191962017Y-121789819D02*
X192200112Y-121789819D01*
X192200112Y-121789819D02*
X192295350Y-121742200D01*
X192295350Y-121742200D02*
X192342969Y-121694580D01*
X192342969Y-121694580D02*
X192390588Y-121599342D01*
X192390588Y-121599342D02*
X192390588Y-121504104D01*
X192390588Y-121504104D02*
X192342969Y-121408866D01*
X192342969Y-121408866D02*
X192295350Y-121361247D01*
X192295350Y-121361247D02*
X192200112Y-121313628D01*
X192200112Y-121313628D02*
X192009636Y-121266009D01*
X192009636Y-121266009D02*
X191914398Y-121218390D01*
X191914398Y-121218390D02*
X191866779Y-121170771D01*
X191866779Y-121170771D02*
X191819160Y-121075533D01*
X191819160Y-121075533D02*
X191819160Y-120980295D01*
X191819160Y-120980295D02*
X191866779Y-120885057D01*
X191866779Y-120885057D02*
X191914398Y-120837438D01*
X191914398Y-120837438D02*
X192009636Y-120789819D01*
X192009636Y-120789819D02*
X192247731Y-120789819D01*
X192247731Y-120789819D02*
X192390588Y-120837438D01*
X192676303Y-120789819D02*
X193247731Y-120789819D01*
X192962017Y-121789819D02*
X192962017Y-120789819D01*
X193581065Y-121789819D02*
X193581065Y-120789819D01*
X193581065Y-120789819D02*
X194152493Y-121789819D01*
X194152493Y-121789819D02*
X194152493Y-120789819D01*
X194628684Y-121408866D02*
X195390589Y-121408866D01*
X195771541Y-121123152D02*
X196009636Y-121789819D01*
X196009636Y-121789819D02*
X196247731Y-121123152D01*
X197057255Y-121123152D02*
X197057255Y-121789819D01*
X196819160Y-120742200D02*
X196581065Y-121456485D01*
X196581065Y-121456485D02*
X197200112Y-121456485D01*
X197581065Y-121408866D02*
X198342970Y-121408866D01*
X199295350Y-120789819D02*
X198819160Y-120789819D01*
X198819160Y-120789819D02*
X198771541Y-121266009D01*
X198771541Y-121266009D02*
X198819160Y-121218390D01*
X198819160Y-121218390D02*
X198914398Y-121170771D01*
X198914398Y-121170771D02*
X199152493Y-121170771D01*
X199152493Y-121170771D02*
X199247731Y-121218390D01*
X199247731Y-121218390D02*
X199295350Y-121266009D01*
X199295350Y-121266009D02*
X199342969Y-121361247D01*
X199342969Y-121361247D02*
X199342969Y-121599342D01*
X199342969Y-121599342D02*
X199295350Y-121694580D01*
X199295350Y-121694580D02*
X199247731Y-121742200D01*
X199247731Y-121742200D02*
X199152493Y-121789819D01*
X199152493Y-121789819D02*
X198914398Y-121789819D01*
X198914398Y-121789819D02*
X198819160Y-121742200D01*
X198819160Y-121742200D02*
X198771541Y-121694580D01*
X90693220Y-70989819D02*
X90693220Y-69989819D01*
X90693220Y-69989819D02*
X91074172Y-69989819D01*
X91074172Y-69989819D02*
X91169410Y-70037438D01*
X91169410Y-70037438D02*
X91217029Y-70085057D01*
X91217029Y-70085057D02*
X91264648Y-70180295D01*
X91264648Y-70180295D02*
X91264648Y-70323152D01*
X91264648Y-70323152D02*
X91217029Y-70418390D01*
X91217029Y-70418390D02*
X91169410Y-70466009D01*
X91169410Y-70466009D02*
X91074172Y-70513628D01*
X91074172Y-70513628D02*
X90693220Y-70513628D01*
X92264648Y-70894580D02*
X92217029Y-70942200D01*
X92217029Y-70942200D02*
X92074172Y-70989819D01*
X92074172Y-70989819D02*
X91978934Y-70989819D01*
X91978934Y-70989819D02*
X91836077Y-70942200D01*
X91836077Y-70942200D02*
X91740839Y-70846961D01*
X91740839Y-70846961D02*
X91693220Y-70751723D01*
X91693220Y-70751723D02*
X91645601Y-70561247D01*
X91645601Y-70561247D02*
X91645601Y-70418390D01*
X91645601Y-70418390D02*
X91693220Y-70227914D01*
X91693220Y-70227914D02*
X91740839Y-70132676D01*
X91740839Y-70132676D02*
X91836077Y-70037438D01*
X91836077Y-70037438D02*
X91978934Y-69989819D01*
X91978934Y-69989819D02*
X92074172Y-69989819D01*
X92074172Y-69989819D02*
X92217029Y-70037438D01*
X92217029Y-70037438D02*
X92264648Y-70085057D01*
X93026553Y-70466009D02*
X93169410Y-70513628D01*
X93169410Y-70513628D02*
X93217029Y-70561247D01*
X93217029Y-70561247D02*
X93264648Y-70656485D01*
X93264648Y-70656485D02*
X93264648Y-70799342D01*
X93264648Y-70799342D02*
X93217029Y-70894580D01*
X93217029Y-70894580D02*
X93169410Y-70942200D01*
X93169410Y-70942200D02*
X93074172Y-70989819D01*
X93074172Y-70989819D02*
X92693220Y-70989819D01*
X92693220Y-70989819D02*
X92693220Y-69989819D01*
X92693220Y-69989819D02*
X93026553Y-69989819D01*
X93026553Y-69989819D02*
X93121791Y-70037438D01*
X93121791Y-70037438D02*
X93169410Y-70085057D01*
X93169410Y-70085057D02*
X93217029Y-70180295D01*
X93217029Y-70180295D02*
X93217029Y-70275533D01*
X93217029Y-70275533D02*
X93169410Y-70370771D01*
X93169410Y-70370771D02*
X93121791Y-70418390D01*
X93121791Y-70418390D02*
X93026553Y-70466009D01*
X93026553Y-70466009D02*
X92693220Y-70466009D01*
X93597982Y-69989819D02*
X94217029Y-69989819D01*
X94217029Y-69989819D02*
X93883696Y-70370771D01*
X93883696Y-70370771D02*
X94026553Y-70370771D01*
X94026553Y-70370771D02*
X94121791Y-70418390D01*
X94121791Y-70418390D02*
X94169410Y-70466009D01*
X94169410Y-70466009D02*
X94217029Y-70561247D01*
X94217029Y-70561247D02*
X94217029Y-70799342D01*
X94217029Y-70799342D02*
X94169410Y-70894580D01*
X94169410Y-70894580D02*
X94121791Y-70942200D01*
X94121791Y-70942200D02*
X94026553Y-70989819D01*
X94026553Y-70989819D02*
X93740839Y-70989819D01*
X93740839Y-70989819D02*
X93645601Y-70942200D01*
X93645601Y-70942200D02*
X93597982Y-70894580D01*
X94645601Y-70989819D02*
X94645601Y-69989819D01*
X94645601Y-69989819D02*
X94883696Y-69989819D01*
X94883696Y-69989819D02*
X95026553Y-70037438D01*
X95026553Y-70037438D02*
X95121791Y-70132676D01*
X95121791Y-70132676D02*
X95169410Y-70227914D01*
X95169410Y-70227914D02*
X95217029Y-70418390D01*
X95217029Y-70418390D02*
X95217029Y-70561247D01*
X95217029Y-70561247D02*
X95169410Y-70751723D01*
X95169410Y-70751723D02*
X95121791Y-70846961D01*
X95121791Y-70846961D02*
X95026553Y-70942200D01*
X95026553Y-70942200D02*
X94883696Y-70989819D01*
X94883696Y-70989819D02*
X94645601Y-70989819D01*
X95407506Y-71085057D02*
X96169410Y-71085057D01*
X96264649Y-69989819D02*
X96836077Y-69989819D01*
X96550363Y-70989819D02*
X96550363Y-69989819D01*
X97645601Y-70989819D02*
X97169411Y-70989819D01*
X97169411Y-70989819D02*
X97169411Y-69989819D01*
X97740840Y-71085057D02*
X98502744Y-71085057D01*
X98740840Y-70989819D02*
X98740840Y-69989819D01*
X98740840Y-69989819D02*
X98978935Y-69989819D01*
X98978935Y-69989819D02*
X99121792Y-70037438D01*
X99121792Y-70037438D02*
X99217030Y-70132676D01*
X99217030Y-70132676D02*
X99264649Y-70227914D01*
X99264649Y-70227914D02*
X99312268Y-70418390D01*
X99312268Y-70418390D02*
X99312268Y-70561247D01*
X99312268Y-70561247D02*
X99264649Y-70751723D01*
X99264649Y-70751723D02*
X99217030Y-70846961D01*
X99217030Y-70846961D02*
X99121792Y-70942200D01*
X99121792Y-70942200D02*
X98978935Y-70989819D01*
X98978935Y-70989819D02*
X98740840Y-70989819D01*
X99693221Y-70942200D02*
X99836078Y-70989819D01*
X99836078Y-70989819D02*
X100074173Y-70989819D01*
X100074173Y-70989819D02*
X100169411Y-70942200D01*
X100169411Y-70942200D02*
X100217030Y-70894580D01*
X100217030Y-70894580D02*
X100264649Y-70799342D01*
X100264649Y-70799342D02*
X100264649Y-70704104D01*
X100264649Y-70704104D02*
X100217030Y-70608866D01*
X100217030Y-70608866D02*
X100169411Y-70561247D01*
X100169411Y-70561247D02*
X100074173Y-70513628D01*
X100074173Y-70513628D02*
X99883697Y-70466009D01*
X99883697Y-70466009D02*
X99788459Y-70418390D01*
X99788459Y-70418390D02*
X99740840Y-70370771D01*
X99740840Y-70370771D02*
X99693221Y-70275533D01*
X99693221Y-70275533D02*
X99693221Y-70180295D01*
X99693221Y-70180295D02*
X99740840Y-70085057D01*
X99740840Y-70085057D02*
X99788459Y-70037438D01*
X99788459Y-70037438D02*
X99883697Y-69989819D01*
X99883697Y-69989819D02*
X100121792Y-69989819D01*
X100121792Y-69989819D02*
X100264649Y-70037438D01*
X100693221Y-70608866D02*
X101455126Y-70608866D01*
X101836078Y-69989819D02*
X102074173Y-70989819D01*
X102074173Y-70989819D02*
X102264649Y-70275533D01*
X102264649Y-70275533D02*
X102455125Y-70989819D01*
X102455125Y-70989819D02*
X102693221Y-69989819D01*
X102978935Y-69989819D02*
X103645601Y-70989819D01*
X103645601Y-69989819D02*
X102978935Y-70989819D01*
X104026554Y-70608866D02*
X104788459Y-70608866D01*
X105217030Y-70942200D02*
X105359887Y-70989819D01*
X105359887Y-70989819D02*
X105597982Y-70989819D01*
X105597982Y-70989819D02*
X105693220Y-70942200D01*
X105693220Y-70942200D02*
X105740839Y-70894580D01*
X105740839Y-70894580D02*
X105788458Y-70799342D01*
X105788458Y-70799342D02*
X105788458Y-70704104D01*
X105788458Y-70704104D02*
X105740839Y-70608866D01*
X105740839Y-70608866D02*
X105693220Y-70561247D01*
X105693220Y-70561247D02*
X105597982Y-70513628D01*
X105597982Y-70513628D02*
X105407506Y-70466009D01*
X105407506Y-70466009D02*
X105312268Y-70418390D01*
X105312268Y-70418390D02*
X105264649Y-70370771D01*
X105264649Y-70370771D02*
X105217030Y-70275533D01*
X105217030Y-70275533D02*
X105217030Y-70180295D01*
X105217030Y-70180295D02*
X105264649Y-70085057D01*
X105264649Y-70085057D02*
X105312268Y-70037438D01*
X105312268Y-70037438D02*
X105407506Y-69989819D01*
X105407506Y-69989819D02*
X105645601Y-69989819D01*
X105645601Y-69989819D02*
X105788458Y-70037438D01*
X106074173Y-69989819D02*
X106645601Y-69989819D01*
X106359887Y-70989819D02*
X106359887Y-69989819D01*
X106978935Y-70989819D02*
X106978935Y-69989819D01*
X106978935Y-69989819D02*
X107550363Y-70989819D01*
X107550363Y-70989819D02*
X107550363Y-69989819D01*
X108026554Y-70608866D02*
X108788459Y-70608866D01*
X109169411Y-70323152D02*
X109407506Y-70989819D01*
X109407506Y-70989819D02*
X109645601Y-70323152D01*
X110455125Y-70323152D02*
X110455125Y-70989819D01*
X110217030Y-69942200D02*
X109978935Y-70656485D01*
X109978935Y-70656485D02*
X110597982Y-70656485D01*
X110978935Y-70608866D02*
X111740840Y-70608866D01*
X112693220Y-69989819D02*
X112217030Y-69989819D01*
X112217030Y-69989819D02*
X112169411Y-70466009D01*
X112169411Y-70466009D02*
X112217030Y-70418390D01*
X112217030Y-70418390D02*
X112312268Y-70370771D01*
X112312268Y-70370771D02*
X112550363Y-70370771D01*
X112550363Y-70370771D02*
X112645601Y-70418390D01*
X112645601Y-70418390D02*
X112693220Y-70466009D01*
X112693220Y-70466009D02*
X112740839Y-70561247D01*
X112740839Y-70561247D02*
X112740839Y-70799342D01*
X112740839Y-70799342D02*
X112693220Y-70894580D01*
X112693220Y-70894580D02*
X112645601Y-70942200D01*
X112645601Y-70942200D02*
X112550363Y-70989819D01*
X112550363Y-70989819D02*
X112312268Y-70989819D01*
X112312268Y-70989819D02*
X112217030Y-70942200D01*
X112217030Y-70942200D02*
X112169411Y-70894580D01*
M02*
