%TF.GenerationSoftware,KiCad,Pcbnew,7.0.11*%
%TF.CreationDate,2024-02-24T16:34:23-05:00*%
%TF.ProjectId,destinationWeatherStation_r4-5,64657374-696e-4617-9469-6f6e57656174,03*%
%TF.SameCoordinates,Original*%
%TF.FileFunction,OtherDrawing,Comment*%
%FSLAX46Y46*%
G04 Gerber Fmt 4.6, Leading zero omitted, Abs format (unit mm)*
G04 Created by KiCad (PCBNEW 7.0.11) date 2024-02-24 16:34:23*
%MOMM*%
%LPD*%
G01*
G04 APERTURE LIST*
%ADD10C,0.300000*%
%ADD11C,0.150000*%
%ADD12C,0.200000*%
%ADD13C,0.025000*%
G04 APERTURE END LIST*
D10*
X182028328Y-102734284D02*
X183028328Y-102734284D01*
X181456900Y-103091426D02*
X182528328Y-103448569D01*
X182528328Y-103448569D02*
X182528328Y-102519998D01*
X181528328Y-102091427D02*
X181528328Y-101162855D01*
X181528328Y-101162855D02*
X182099757Y-101662855D01*
X182099757Y-101662855D02*
X182099757Y-101448570D01*
X182099757Y-101448570D02*
X182171185Y-101305713D01*
X182171185Y-101305713D02*
X182242614Y-101234284D01*
X182242614Y-101234284D02*
X182385471Y-101162855D01*
X182385471Y-101162855D02*
X182742614Y-101162855D01*
X182742614Y-101162855D02*
X182885471Y-101234284D01*
X182885471Y-101234284D02*
X182956900Y-101305713D01*
X182956900Y-101305713D02*
X183028328Y-101448570D01*
X183028328Y-101448570D02*
X183028328Y-101877141D01*
X183028328Y-101877141D02*
X182956900Y-102019998D01*
X182956900Y-102019998D02*
X182885471Y-102091427D01*
X182885471Y-100519999D02*
X182956900Y-100448570D01*
X182956900Y-100448570D02*
X183028328Y-100519999D01*
X183028328Y-100519999D02*
X182956900Y-100591427D01*
X182956900Y-100591427D02*
X182885471Y-100519999D01*
X182885471Y-100519999D02*
X183028328Y-100519999D01*
X183028328Y-99019998D02*
X183028328Y-99877141D01*
X183028328Y-99448570D02*
X181528328Y-99448570D01*
X181528328Y-99448570D02*
X181742614Y-99591427D01*
X181742614Y-99591427D02*
X181885471Y-99734284D01*
X181885471Y-99734284D02*
X181956900Y-99877141D01*
X182171185Y-98162856D02*
X182099757Y-98305713D01*
X182099757Y-98305713D02*
X182028328Y-98377142D01*
X182028328Y-98377142D02*
X181885471Y-98448570D01*
X181885471Y-98448570D02*
X181814042Y-98448570D01*
X181814042Y-98448570D02*
X181671185Y-98377142D01*
X181671185Y-98377142D02*
X181599757Y-98305713D01*
X181599757Y-98305713D02*
X181528328Y-98162856D01*
X181528328Y-98162856D02*
X181528328Y-97877142D01*
X181528328Y-97877142D02*
X181599757Y-97734285D01*
X181599757Y-97734285D02*
X181671185Y-97662856D01*
X181671185Y-97662856D02*
X181814042Y-97591427D01*
X181814042Y-97591427D02*
X181885471Y-97591427D01*
X181885471Y-97591427D02*
X182028328Y-97662856D01*
X182028328Y-97662856D02*
X182099757Y-97734285D01*
X182099757Y-97734285D02*
X182171185Y-97877142D01*
X182171185Y-97877142D02*
X182171185Y-98162856D01*
X182171185Y-98162856D02*
X182242614Y-98305713D01*
X182242614Y-98305713D02*
X182314042Y-98377142D01*
X182314042Y-98377142D02*
X182456900Y-98448570D01*
X182456900Y-98448570D02*
X182742614Y-98448570D01*
X182742614Y-98448570D02*
X182885471Y-98377142D01*
X182885471Y-98377142D02*
X182956900Y-98305713D01*
X182956900Y-98305713D02*
X183028328Y-98162856D01*
X183028328Y-98162856D02*
X183028328Y-97877142D01*
X183028328Y-97877142D02*
X182956900Y-97734285D01*
X182956900Y-97734285D02*
X182885471Y-97662856D01*
X182885471Y-97662856D02*
X182742614Y-97591427D01*
X182742614Y-97591427D02*
X182456900Y-97591427D01*
X182456900Y-97591427D02*
X182314042Y-97662856D01*
X182314042Y-97662856D02*
X182242614Y-97734285D01*
X182242614Y-97734285D02*
X182171185Y-97877142D01*
X181528328Y-96662856D02*
X181528328Y-96519999D01*
X181528328Y-96519999D02*
X181599757Y-96377142D01*
X181599757Y-96377142D02*
X181671185Y-96305714D01*
X181671185Y-96305714D02*
X181814042Y-96234285D01*
X181814042Y-96234285D02*
X182099757Y-96162856D01*
X182099757Y-96162856D02*
X182456900Y-96162856D01*
X182456900Y-96162856D02*
X182742614Y-96234285D01*
X182742614Y-96234285D02*
X182885471Y-96305714D01*
X182885471Y-96305714D02*
X182956900Y-96377142D01*
X182956900Y-96377142D02*
X183028328Y-96519999D01*
X183028328Y-96519999D02*
X183028328Y-96662856D01*
X183028328Y-96662856D02*
X182956900Y-96805714D01*
X182956900Y-96805714D02*
X182885471Y-96877142D01*
X182885471Y-96877142D02*
X182742614Y-96948571D01*
X182742614Y-96948571D02*
X182456900Y-97019999D01*
X182456900Y-97019999D02*
X182099757Y-97019999D01*
X182099757Y-97019999D02*
X181814042Y-96948571D01*
X181814042Y-96948571D02*
X181671185Y-96877142D01*
X181671185Y-96877142D02*
X181599757Y-96805714D01*
X181599757Y-96805714D02*
X181528328Y-96662856D01*
X181528328Y-95234285D02*
X181528328Y-95091428D01*
X181528328Y-95091428D02*
X181599757Y-94948571D01*
X181599757Y-94948571D02*
X181671185Y-94877143D01*
X181671185Y-94877143D02*
X181814042Y-94805714D01*
X181814042Y-94805714D02*
X182099757Y-94734285D01*
X182099757Y-94734285D02*
X182456900Y-94734285D01*
X182456900Y-94734285D02*
X182742614Y-94805714D01*
X182742614Y-94805714D02*
X182885471Y-94877143D01*
X182885471Y-94877143D02*
X182956900Y-94948571D01*
X182956900Y-94948571D02*
X183028328Y-95091428D01*
X183028328Y-95091428D02*
X183028328Y-95234285D01*
X183028328Y-95234285D02*
X182956900Y-95377143D01*
X182956900Y-95377143D02*
X182885471Y-95448571D01*
X182885471Y-95448571D02*
X182742614Y-95520000D01*
X182742614Y-95520000D02*
X182456900Y-95591428D01*
X182456900Y-95591428D02*
X182099757Y-95591428D01*
X182099757Y-95591428D02*
X181814042Y-95520000D01*
X181814042Y-95520000D02*
X181671185Y-95448571D01*
X181671185Y-95448571D02*
X181599757Y-95377143D01*
X181599757Y-95377143D02*
X181528328Y-95234285D01*
X183028328Y-92948572D02*
X182028328Y-92948572D01*
X182171185Y-92948572D02*
X182099757Y-92877143D01*
X182099757Y-92877143D02*
X182028328Y-92734286D01*
X182028328Y-92734286D02*
X182028328Y-92520000D01*
X182028328Y-92520000D02*
X182099757Y-92377143D01*
X182099757Y-92377143D02*
X182242614Y-92305715D01*
X182242614Y-92305715D02*
X183028328Y-92305715D01*
X182242614Y-92305715D02*
X182099757Y-92234286D01*
X182099757Y-92234286D02*
X182028328Y-92091429D01*
X182028328Y-92091429D02*
X182028328Y-91877143D01*
X182028328Y-91877143D02*
X182099757Y-91734286D01*
X182099757Y-91734286D02*
X182242614Y-91662857D01*
X182242614Y-91662857D02*
X183028328Y-91662857D01*
X183028328Y-90948572D02*
X182028328Y-90948572D01*
X182171185Y-90948572D02*
X182099757Y-90877143D01*
X182099757Y-90877143D02*
X182028328Y-90734286D01*
X182028328Y-90734286D02*
X182028328Y-90520000D01*
X182028328Y-90520000D02*
X182099757Y-90377143D01*
X182099757Y-90377143D02*
X182242614Y-90305715D01*
X182242614Y-90305715D02*
X183028328Y-90305715D01*
X182242614Y-90305715D02*
X182099757Y-90234286D01*
X182099757Y-90234286D02*
X182028328Y-90091429D01*
X182028328Y-90091429D02*
X182028328Y-89877143D01*
X182028328Y-89877143D02*
X182099757Y-89734286D01*
X182099757Y-89734286D02*
X182242614Y-89662857D01*
X182242614Y-89662857D02*
X183028328Y-89662857D01*
D11*
X173220000Y-74930000D02*
X184736420Y-74930000D01*
X173220000Y-118110000D02*
X184736420Y-118110000D01*
X184150000Y-74930000D02*
X184150000Y-118110000D01*
X184150000Y-74930000D02*
X184150000Y-118110000D01*
X184150000Y-74930000D02*
X184736421Y-76056504D01*
X184150000Y-74930000D02*
X183563579Y-76056504D01*
X184150000Y-118110000D02*
X183563579Y-116983496D01*
X184150000Y-118110000D02*
X184736421Y-116983496D01*
D10*
X105828328Y-101305713D02*
X106828328Y-101305713D01*
X105256900Y-101662855D02*
X106328328Y-102019998D01*
X106328328Y-102019998D02*
X106328328Y-101091427D01*
X105328328Y-100662856D02*
X105328328Y-99734284D01*
X105328328Y-99734284D02*
X105899757Y-100234284D01*
X105899757Y-100234284D02*
X105899757Y-100019999D01*
X105899757Y-100019999D02*
X105971185Y-99877142D01*
X105971185Y-99877142D02*
X106042614Y-99805713D01*
X106042614Y-99805713D02*
X106185471Y-99734284D01*
X106185471Y-99734284D02*
X106542614Y-99734284D01*
X106542614Y-99734284D02*
X106685471Y-99805713D01*
X106685471Y-99805713D02*
X106756900Y-99877142D01*
X106756900Y-99877142D02*
X106828328Y-100019999D01*
X106828328Y-100019999D02*
X106828328Y-100448570D01*
X106828328Y-100448570D02*
X106756900Y-100591427D01*
X106756900Y-100591427D02*
X106685471Y-100662856D01*
X106685471Y-99091428D02*
X106756900Y-99019999D01*
X106756900Y-99019999D02*
X106828328Y-99091428D01*
X106828328Y-99091428D02*
X106756900Y-99162856D01*
X106756900Y-99162856D02*
X106685471Y-99091428D01*
X106685471Y-99091428D02*
X106828328Y-99091428D01*
X106828328Y-97591427D02*
X106828328Y-98448570D01*
X106828328Y-98019999D02*
X105328328Y-98019999D01*
X105328328Y-98019999D02*
X105542614Y-98162856D01*
X105542614Y-98162856D02*
X105685471Y-98305713D01*
X105685471Y-98305713D02*
X105756900Y-98448570D01*
X105971185Y-96734285D02*
X105899757Y-96877142D01*
X105899757Y-96877142D02*
X105828328Y-96948571D01*
X105828328Y-96948571D02*
X105685471Y-97019999D01*
X105685471Y-97019999D02*
X105614042Y-97019999D01*
X105614042Y-97019999D02*
X105471185Y-96948571D01*
X105471185Y-96948571D02*
X105399757Y-96877142D01*
X105399757Y-96877142D02*
X105328328Y-96734285D01*
X105328328Y-96734285D02*
X105328328Y-96448571D01*
X105328328Y-96448571D02*
X105399757Y-96305714D01*
X105399757Y-96305714D02*
X105471185Y-96234285D01*
X105471185Y-96234285D02*
X105614042Y-96162856D01*
X105614042Y-96162856D02*
X105685471Y-96162856D01*
X105685471Y-96162856D02*
X105828328Y-96234285D01*
X105828328Y-96234285D02*
X105899757Y-96305714D01*
X105899757Y-96305714D02*
X105971185Y-96448571D01*
X105971185Y-96448571D02*
X105971185Y-96734285D01*
X105971185Y-96734285D02*
X106042614Y-96877142D01*
X106042614Y-96877142D02*
X106114042Y-96948571D01*
X106114042Y-96948571D02*
X106256900Y-97019999D01*
X106256900Y-97019999D02*
X106542614Y-97019999D01*
X106542614Y-97019999D02*
X106685471Y-96948571D01*
X106685471Y-96948571D02*
X106756900Y-96877142D01*
X106756900Y-96877142D02*
X106828328Y-96734285D01*
X106828328Y-96734285D02*
X106828328Y-96448571D01*
X106828328Y-96448571D02*
X106756900Y-96305714D01*
X106756900Y-96305714D02*
X106685471Y-96234285D01*
X106685471Y-96234285D02*
X106542614Y-96162856D01*
X106542614Y-96162856D02*
X106256900Y-96162856D01*
X106256900Y-96162856D02*
X106114042Y-96234285D01*
X106114042Y-96234285D02*
X106042614Y-96305714D01*
X106042614Y-96305714D02*
X105971185Y-96448571D01*
X106828328Y-94377143D02*
X105828328Y-94377143D01*
X105971185Y-94377143D02*
X105899757Y-94305714D01*
X105899757Y-94305714D02*
X105828328Y-94162857D01*
X105828328Y-94162857D02*
X105828328Y-93948571D01*
X105828328Y-93948571D02*
X105899757Y-93805714D01*
X105899757Y-93805714D02*
X106042614Y-93734286D01*
X106042614Y-93734286D02*
X106828328Y-93734286D01*
X106042614Y-93734286D02*
X105899757Y-93662857D01*
X105899757Y-93662857D02*
X105828328Y-93520000D01*
X105828328Y-93520000D02*
X105828328Y-93305714D01*
X105828328Y-93305714D02*
X105899757Y-93162857D01*
X105899757Y-93162857D02*
X106042614Y-93091428D01*
X106042614Y-93091428D02*
X106828328Y-93091428D01*
X106828328Y-92377143D02*
X105828328Y-92377143D01*
X105971185Y-92377143D02*
X105899757Y-92305714D01*
X105899757Y-92305714D02*
X105828328Y-92162857D01*
X105828328Y-92162857D02*
X105828328Y-91948571D01*
X105828328Y-91948571D02*
X105899757Y-91805714D01*
X105899757Y-91805714D02*
X106042614Y-91734286D01*
X106042614Y-91734286D02*
X106828328Y-91734286D01*
X106042614Y-91734286D02*
X105899757Y-91662857D01*
X105899757Y-91662857D02*
X105828328Y-91520000D01*
X105828328Y-91520000D02*
X105828328Y-91305714D01*
X105828328Y-91305714D02*
X105899757Y-91162857D01*
X105899757Y-91162857D02*
X106042614Y-91091428D01*
X106042614Y-91091428D02*
X106828328Y-91091428D01*
D12*
X116340000Y-74930000D02*
X107363580Y-74930000D01*
X116340000Y-118110000D02*
X107363580Y-118110000D01*
X107950000Y-74930000D02*
X107950000Y-118110000D01*
X107950000Y-74930000D02*
X107950000Y-118110000D01*
X107950000Y-74930000D02*
X108536421Y-76056504D01*
X107950000Y-74930000D02*
X107363579Y-76056504D01*
X107950000Y-118110000D02*
X107363579Y-116983496D01*
X107950000Y-118110000D02*
X108536421Y-116983496D01*
D11*
X109944819Y-82917730D02*
X109944819Y-82298683D01*
X109944819Y-82298683D02*
X110325771Y-82632016D01*
X110325771Y-82632016D02*
X110325771Y-82489159D01*
X110325771Y-82489159D02*
X110373390Y-82393921D01*
X110373390Y-82393921D02*
X110421009Y-82346302D01*
X110421009Y-82346302D02*
X110516247Y-82298683D01*
X110516247Y-82298683D02*
X110754342Y-82298683D01*
X110754342Y-82298683D02*
X110849580Y-82346302D01*
X110849580Y-82346302D02*
X110897200Y-82393921D01*
X110897200Y-82393921D02*
X110944819Y-82489159D01*
X110944819Y-82489159D02*
X110944819Y-82774873D01*
X110944819Y-82774873D02*
X110897200Y-82870111D01*
X110897200Y-82870111D02*
X110849580Y-82917730D01*
X110849580Y-81870111D02*
X110897200Y-81822492D01*
X110897200Y-81822492D02*
X110944819Y-81870111D01*
X110944819Y-81870111D02*
X110897200Y-81917730D01*
X110897200Y-81917730D02*
X110849580Y-81870111D01*
X110849580Y-81870111D02*
X110944819Y-81870111D01*
X110373390Y-81251064D02*
X110325771Y-81346302D01*
X110325771Y-81346302D02*
X110278152Y-81393921D01*
X110278152Y-81393921D02*
X110182914Y-81441540D01*
X110182914Y-81441540D02*
X110135295Y-81441540D01*
X110135295Y-81441540D02*
X110040057Y-81393921D01*
X110040057Y-81393921D02*
X109992438Y-81346302D01*
X109992438Y-81346302D02*
X109944819Y-81251064D01*
X109944819Y-81251064D02*
X109944819Y-81060588D01*
X109944819Y-81060588D02*
X109992438Y-80965350D01*
X109992438Y-80965350D02*
X110040057Y-80917731D01*
X110040057Y-80917731D02*
X110135295Y-80870112D01*
X110135295Y-80870112D02*
X110182914Y-80870112D01*
X110182914Y-80870112D02*
X110278152Y-80917731D01*
X110278152Y-80917731D02*
X110325771Y-80965350D01*
X110325771Y-80965350D02*
X110373390Y-81060588D01*
X110373390Y-81060588D02*
X110373390Y-81251064D01*
X110373390Y-81251064D02*
X110421009Y-81346302D01*
X110421009Y-81346302D02*
X110468628Y-81393921D01*
X110468628Y-81393921D02*
X110563866Y-81441540D01*
X110563866Y-81441540D02*
X110754342Y-81441540D01*
X110754342Y-81441540D02*
X110849580Y-81393921D01*
X110849580Y-81393921D02*
X110897200Y-81346302D01*
X110897200Y-81346302D02*
X110944819Y-81251064D01*
X110944819Y-81251064D02*
X110944819Y-81060588D01*
X110944819Y-81060588D02*
X110897200Y-80965350D01*
X110897200Y-80965350D02*
X110849580Y-80917731D01*
X110849580Y-80917731D02*
X110754342Y-80870112D01*
X110754342Y-80870112D02*
X110563866Y-80870112D01*
X110563866Y-80870112D02*
X110468628Y-80917731D01*
X110468628Y-80917731D02*
X110421009Y-80965350D01*
X110421009Y-80965350D02*
X110373390Y-81060588D01*
X110944819Y-79917731D02*
X110944819Y-80489159D01*
X110944819Y-80203445D02*
X109944819Y-80203445D01*
X109944819Y-80203445D02*
X110087676Y-80298683D01*
X110087676Y-80298683D02*
X110182914Y-80393921D01*
X110182914Y-80393921D02*
X110230533Y-80489159D01*
X110944819Y-78727254D02*
X110278152Y-78727254D01*
X110373390Y-78727254D02*
X110325771Y-78679635D01*
X110325771Y-78679635D02*
X110278152Y-78584397D01*
X110278152Y-78584397D02*
X110278152Y-78441540D01*
X110278152Y-78441540D02*
X110325771Y-78346302D01*
X110325771Y-78346302D02*
X110421009Y-78298683D01*
X110421009Y-78298683D02*
X110944819Y-78298683D01*
X110421009Y-78298683D02*
X110325771Y-78251064D01*
X110325771Y-78251064D02*
X110278152Y-78155826D01*
X110278152Y-78155826D02*
X110278152Y-78012969D01*
X110278152Y-78012969D02*
X110325771Y-77917730D01*
X110325771Y-77917730D02*
X110421009Y-77870111D01*
X110421009Y-77870111D02*
X110944819Y-77870111D01*
X110944819Y-77393921D02*
X110278152Y-77393921D01*
X110373390Y-77393921D02*
X110325771Y-77346302D01*
X110325771Y-77346302D02*
X110278152Y-77251064D01*
X110278152Y-77251064D02*
X110278152Y-77108207D01*
X110278152Y-77108207D02*
X110325771Y-77012969D01*
X110325771Y-77012969D02*
X110421009Y-76965350D01*
X110421009Y-76965350D02*
X110944819Y-76965350D01*
X110421009Y-76965350D02*
X110325771Y-76917731D01*
X110325771Y-76917731D02*
X110278152Y-76822493D01*
X110278152Y-76822493D02*
X110278152Y-76679636D01*
X110278152Y-76679636D02*
X110325771Y-76584397D01*
X110325771Y-76584397D02*
X110421009Y-76536778D01*
X110421009Y-76536778D02*
X110944819Y-76536778D01*
X116340000Y-74930000D02*
X109903580Y-74930000D01*
X116340000Y-71120000D02*
X109903580Y-71120000D01*
X110490000Y-74930000D02*
X110490000Y-71120000D01*
X110490000Y-74930000D02*
X110490000Y-71120000D01*
X110490000Y-74930000D02*
X109903579Y-73803496D01*
X110490000Y-74930000D02*
X111076421Y-73803496D01*
X110490000Y-71120000D02*
X111076421Y-72246504D01*
X110490000Y-71120000D02*
X109903579Y-72246504D01*
D10*
X139994287Y-64688328D02*
X139708572Y-64688328D01*
X139708572Y-64688328D02*
X139565715Y-64759757D01*
X139565715Y-64759757D02*
X139494287Y-64831185D01*
X139494287Y-64831185D02*
X139351429Y-65045471D01*
X139351429Y-65045471D02*
X139280001Y-65331185D01*
X139280001Y-65331185D02*
X139280001Y-65902614D01*
X139280001Y-65902614D02*
X139351429Y-66045471D01*
X139351429Y-66045471D02*
X139422858Y-66116900D01*
X139422858Y-66116900D02*
X139565715Y-66188328D01*
X139565715Y-66188328D02*
X139851429Y-66188328D01*
X139851429Y-66188328D02*
X139994287Y-66116900D01*
X139994287Y-66116900D02*
X140065715Y-66045471D01*
X140065715Y-66045471D02*
X140137144Y-65902614D01*
X140137144Y-65902614D02*
X140137144Y-65545471D01*
X140137144Y-65545471D02*
X140065715Y-65402614D01*
X140065715Y-65402614D02*
X139994287Y-65331185D01*
X139994287Y-65331185D02*
X139851429Y-65259757D01*
X139851429Y-65259757D02*
X139565715Y-65259757D01*
X139565715Y-65259757D02*
X139422858Y-65331185D01*
X139422858Y-65331185D02*
X139351429Y-65402614D01*
X139351429Y-65402614D02*
X139280001Y-65545471D01*
X140637143Y-64688328D02*
X141565715Y-64688328D01*
X141565715Y-64688328D02*
X141065715Y-65259757D01*
X141065715Y-65259757D02*
X141280000Y-65259757D01*
X141280000Y-65259757D02*
X141422858Y-65331185D01*
X141422858Y-65331185D02*
X141494286Y-65402614D01*
X141494286Y-65402614D02*
X141565715Y-65545471D01*
X141565715Y-65545471D02*
X141565715Y-65902614D01*
X141565715Y-65902614D02*
X141494286Y-66045471D01*
X141494286Y-66045471D02*
X141422858Y-66116900D01*
X141422858Y-66116900D02*
X141280000Y-66188328D01*
X141280000Y-66188328D02*
X140851429Y-66188328D01*
X140851429Y-66188328D02*
X140708572Y-66116900D01*
X140708572Y-66116900D02*
X140637143Y-66045471D01*
X142208571Y-66045471D02*
X142280000Y-66116900D01*
X142280000Y-66116900D02*
X142208571Y-66188328D01*
X142208571Y-66188328D02*
X142137143Y-66116900D01*
X142137143Y-66116900D02*
X142208571Y-66045471D01*
X142208571Y-66045471D02*
X142208571Y-66188328D01*
X143637143Y-64688328D02*
X142922857Y-64688328D01*
X142922857Y-64688328D02*
X142851429Y-65402614D01*
X142851429Y-65402614D02*
X142922857Y-65331185D01*
X142922857Y-65331185D02*
X143065715Y-65259757D01*
X143065715Y-65259757D02*
X143422857Y-65259757D01*
X143422857Y-65259757D02*
X143565715Y-65331185D01*
X143565715Y-65331185D02*
X143637143Y-65402614D01*
X143637143Y-65402614D02*
X143708572Y-65545471D01*
X143708572Y-65545471D02*
X143708572Y-65902614D01*
X143708572Y-65902614D02*
X143637143Y-66045471D01*
X143637143Y-66045471D02*
X143565715Y-66116900D01*
X143565715Y-66116900D02*
X143422857Y-66188328D01*
X143422857Y-66188328D02*
X143065715Y-66188328D01*
X143065715Y-66188328D02*
X142922857Y-66116900D01*
X142922857Y-66116900D02*
X142851429Y-66045471D01*
X144637143Y-64688328D02*
X144780000Y-64688328D01*
X144780000Y-64688328D02*
X144922857Y-64759757D01*
X144922857Y-64759757D02*
X144994286Y-64831185D01*
X144994286Y-64831185D02*
X145065714Y-64974042D01*
X145065714Y-64974042D02*
X145137143Y-65259757D01*
X145137143Y-65259757D02*
X145137143Y-65616900D01*
X145137143Y-65616900D02*
X145065714Y-65902614D01*
X145065714Y-65902614D02*
X144994286Y-66045471D01*
X144994286Y-66045471D02*
X144922857Y-66116900D01*
X144922857Y-66116900D02*
X144780000Y-66188328D01*
X144780000Y-66188328D02*
X144637143Y-66188328D01*
X144637143Y-66188328D02*
X144494286Y-66116900D01*
X144494286Y-66116900D02*
X144422857Y-66045471D01*
X144422857Y-66045471D02*
X144351428Y-65902614D01*
X144351428Y-65902614D02*
X144280000Y-65616900D01*
X144280000Y-65616900D02*
X144280000Y-65259757D01*
X144280000Y-65259757D02*
X144351428Y-64974042D01*
X144351428Y-64974042D02*
X144422857Y-64831185D01*
X144422857Y-64831185D02*
X144494286Y-64759757D01*
X144494286Y-64759757D02*
X144637143Y-64688328D01*
X146922856Y-66188328D02*
X146922856Y-65188328D01*
X146922856Y-65331185D02*
X146994285Y-65259757D01*
X146994285Y-65259757D02*
X147137142Y-65188328D01*
X147137142Y-65188328D02*
X147351428Y-65188328D01*
X147351428Y-65188328D02*
X147494285Y-65259757D01*
X147494285Y-65259757D02*
X147565714Y-65402614D01*
X147565714Y-65402614D02*
X147565714Y-66188328D01*
X147565714Y-65402614D02*
X147637142Y-65259757D01*
X147637142Y-65259757D02*
X147779999Y-65188328D01*
X147779999Y-65188328D02*
X147994285Y-65188328D01*
X147994285Y-65188328D02*
X148137142Y-65259757D01*
X148137142Y-65259757D02*
X148208571Y-65402614D01*
X148208571Y-65402614D02*
X148208571Y-66188328D01*
X148922856Y-66188328D02*
X148922856Y-65188328D01*
X148922856Y-65331185D02*
X148994285Y-65259757D01*
X148994285Y-65259757D02*
X149137142Y-65188328D01*
X149137142Y-65188328D02*
X149351428Y-65188328D01*
X149351428Y-65188328D02*
X149494285Y-65259757D01*
X149494285Y-65259757D02*
X149565714Y-65402614D01*
X149565714Y-65402614D02*
X149565714Y-66188328D01*
X149565714Y-65402614D02*
X149637142Y-65259757D01*
X149637142Y-65259757D02*
X149779999Y-65188328D01*
X149779999Y-65188328D02*
X149994285Y-65188328D01*
X149994285Y-65188328D02*
X150137142Y-65259757D01*
X150137142Y-65259757D02*
X150208571Y-65402614D01*
X150208571Y-65402614D02*
X150208571Y-66188328D01*
D12*
X113030000Y-74430000D02*
X113030000Y-66723580D01*
X176530000Y-74430000D02*
X176530000Y-66723580D01*
X113030000Y-67310000D02*
X176530000Y-67310000D01*
X113030000Y-67310000D02*
X176530000Y-67310000D01*
X113030000Y-67310000D02*
X114156504Y-66723579D01*
X113030000Y-67310000D02*
X114156504Y-67896421D01*
X176530000Y-67310000D02*
X175403496Y-67896421D01*
X176530000Y-67310000D02*
X175403496Y-66723579D01*
D10*
X138637144Y-123638328D02*
X137922858Y-123638328D01*
X137922858Y-123638328D02*
X137851430Y-124352614D01*
X137851430Y-124352614D02*
X137922858Y-124281185D01*
X137922858Y-124281185D02*
X138065716Y-124209757D01*
X138065716Y-124209757D02*
X138422858Y-124209757D01*
X138422858Y-124209757D02*
X138565716Y-124281185D01*
X138565716Y-124281185D02*
X138637144Y-124352614D01*
X138637144Y-124352614D02*
X138708573Y-124495471D01*
X138708573Y-124495471D02*
X138708573Y-124852614D01*
X138708573Y-124852614D02*
X138637144Y-124995471D01*
X138637144Y-124995471D02*
X138565716Y-125066900D01*
X138565716Y-125066900D02*
X138422858Y-125138328D01*
X138422858Y-125138328D02*
X138065716Y-125138328D01*
X138065716Y-125138328D02*
X137922858Y-125066900D01*
X137922858Y-125066900D02*
X137851430Y-124995471D01*
X140065715Y-123638328D02*
X139351429Y-123638328D01*
X139351429Y-123638328D02*
X139280001Y-124352614D01*
X139280001Y-124352614D02*
X139351429Y-124281185D01*
X139351429Y-124281185D02*
X139494287Y-124209757D01*
X139494287Y-124209757D02*
X139851429Y-124209757D01*
X139851429Y-124209757D02*
X139994287Y-124281185D01*
X139994287Y-124281185D02*
X140065715Y-124352614D01*
X140065715Y-124352614D02*
X140137144Y-124495471D01*
X140137144Y-124495471D02*
X140137144Y-124852614D01*
X140137144Y-124852614D02*
X140065715Y-124995471D01*
X140065715Y-124995471D02*
X139994287Y-125066900D01*
X139994287Y-125066900D02*
X139851429Y-125138328D01*
X139851429Y-125138328D02*
X139494287Y-125138328D01*
X139494287Y-125138328D02*
X139351429Y-125066900D01*
X139351429Y-125066900D02*
X139280001Y-124995471D01*
X140780000Y-124995471D02*
X140851429Y-125066900D01*
X140851429Y-125066900D02*
X140780000Y-125138328D01*
X140780000Y-125138328D02*
X140708572Y-125066900D01*
X140708572Y-125066900D02*
X140780000Y-124995471D01*
X140780000Y-124995471D02*
X140780000Y-125138328D01*
X141708572Y-124281185D02*
X141565715Y-124209757D01*
X141565715Y-124209757D02*
X141494286Y-124138328D01*
X141494286Y-124138328D02*
X141422858Y-123995471D01*
X141422858Y-123995471D02*
X141422858Y-123924042D01*
X141422858Y-123924042D02*
X141494286Y-123781185D01*
X141494286Y-123781185D02*
X141565715Y-123709757D01*
X141565715Y-123709757D02*
X141708572Y-123638328D01*
X141708572Y-123638328D02*
X141994286Y-123638328D01*
X141994286Y-123638328D02*
X142137144Y-123709757D01*
X142137144Y-123709757D02*
X142208572Y-123781185D01*
X142208572Y-123781185D02*
X142280001Y-123924042D01*
X142280001Y-123924042D02*
X142280001Y-123995471D01*
X142280001Y-123995471D02*
X142208572Y-124138328D01*
X142208572Y-124138328D02*
X142137144Y-124209757D01*
X142137144Y-124209757D02*
X141994286Y-124281185D01*
X141994286Y-124281185D02*
X141708572Y-124281185D01*
X141708572Y-124281185D02*
X141565715Y-124352614D01*
X141565715Y-124352614D02*
X141494286Y-124424042D01*
X141494286Y-124424042D02*
X141422858Y-124566900D01*
X141422858Y-124566900D02*
X141422858Y-124852614D01*
X141422858Y-124852614D02*
X141494286Y-124995471D01*
X141494286Y-124995471D02*
X141565715Y-125066900D01*
X141565715Y-125066900D02*
X141708572Y-125138328D01*
X141708572Y-125138328D02*
X141994286Y-125138328D01*
X141994286Y-125138328D02*
X142137144Y-125066900D01*
X142137144Y-125066900D02*
X142208572Y-124995471D01*
X142208572Y-124995471D02*
X142280001Y-124852614D01*
X142280001Y-124852614D02*
X142280001Y-124566900D01*
X142280001Y-124566900D02*
X142208572Y-124424042D01*
X142208572Y-124424042D02*
X142137144Y-124352614D01*
X142137144Y-124352614D02*
X141994286Y-124281185D01*
X143137143Y-124281185D02*
X142994286Y-124209757D01*
X142994286Y-124209757D02*
X142922857Y-124138328D01*
X142922857Y-124138328D02*
X142851429Y-123995471D01*
X142851429Y-123995471D02*
X142851429Y-123924042D01*
X142851429Y-123924042D02*
X142922857Y-123781185D01*
X142922857Y-123781185D02*
X142994286Y-123709757D01*
X142994286Y-123709757D02*
X143137143Y-123638328D01*
X143137143Y-123638328D02*
X143422857Y-123638328D01*
X143422857Y-123638328D02*
X143565715Y-123709757D01*
X143565715Y-123709757D02*
X143637143Y-123781185D01*
X143637143Y-123781185D02*
X143708572Y-123924042D01*
X143708572Y-123924042D02*
X143708572Y-123995471D01*
X143708572Y-123995471D02*
X143637143Y-124138328D01*
X143637143Y-124138328D02*
X143565715Y-124209757D01*
X143565715Y-124209757D02*
X143422857Y-124281185D01*
X143422857Y-124281185D02*
X143137143Y-124281185D01*
X143137143Y-124281185D02*
X142994286Y-124352614D01*
X142994286Y-124352614D02*
X142922857Y-124424042D01*
X142922857Y-124424042D02*
X142851429Y-124566900D01*
X142851429Y-124566900D02*
X142851429Y-124852614D01*
X142851429Y-124852614D02*
X142922857Y-124995471D01*
X142922857Y-124995471D02*
X142994286Y-125066900D01*
X142994286Y-125066900D02*
X143137143Y-125138328D01*
X143137143Y-125138328D02*
X143422857Y-125138328D01*
X143422857Y-125138328D02*
X143565715Y-125066900D01*
X143565715Y-125066900D02*
X143637143Y-124995471D01*
X143637143Y-124995471D02*
X143708572Y-124852614D01*
X143708572Y-124852614D02*
X143708572Y-124566900D01*
X143708572Y-124566900D02*
X143637143Y-124424042D01*
X143637143Y-124424042D02*
X143565715Y-124352614D01*
X143565715Y-124352614D02*
X143422857Y-124281185D01*
X144637143Y-123638328D02*
X144780000Y-123638328D01*
X144780000Y-123638328D02*
X144922857Y-123709757D01*
X144922857Y-123709757D02*
X144994286Y-123781185D01*
X144994286Y-123781185D02*
X145065714Y-123924042D01*
X145065714Y-123924042D02*
X145137143Y-124209757D01*
X145137143Y-124209757D02*
X145137143Y-124566900D01*
X145137143Y-124566900D02*
X145065714Y-124852614D01*
X145065714Y-124852614D02*
X144994286Y-124995471D01*
X144994286Y-124995471D02*
X144922857Y-125066900D01*
X144922857Y-125066900D02*
X144780000Y-125138328D01*
X144780000Y-125138328D02*
X144637143Y-125138328D01*
X144637143Y-125138328D02*
X144494286Y-125066900D01*
X144494286Y-125066900D02*
X144422857Y-124995471D01*
X144422857Y-124995471D02*
X144351428Y-124852614D01*
X144351428Y-124852614D02*
X144280000Y-124566900D01*
X144280000Y-124566900D02*
X144280000Y-124209757D01*
X144280000Y-124209757D02*
X144351428Y-123924042D01*
X144351428Y-123924042D02*
X144422857Y-123781185D01*
X144422857Y-123781185D02*
X144494286Y-123709757D01*
X144494286Y-123709757D02*
X144637143Y-123638328D01*
X146065714Y-123638328D02*
X146208571Y-123638328D01*
X146208571Y-123638328D02*
X146351428Y-123709757D01*
X146351428Y-123709757D02*
X146422857Y-123781185D01*
X146422857Y-123781185D02*
X146494285Y-123924042D01*
X146494285Y-123924042D02*
X146565714Y-124209757D01*
X146565714Y-124209757D02*
X146565714Y-124566900D01*
X146565714Y-124566900D02*
X146494285Y-124852614D01*
X146494285Y-124852614D02*
X146422857Y-124995471D01*
X146422857Y-124995471D02*
X146351428Y-125066900D01*
X146351428Y-125066900D02*
X146208571Y-125138328D01*
X146208571Y-125138328D02*
X146065714Y-125138328D01*
X146065714Y-125138328D02*
X145922857Y-125066900D01*
X145922857Y-125066900D02*
X145851428Y-124995471D01*
X145851428Y-124995471D02*
X145779999Y-124852614D01*
X145779999Y-124852614D02*
X145708571Y-124566900D01*
X145708571Y-124566900D02*
X145708571Y-124209757D01*
X145708571Y-124209757D02*
X145779999Y-123924042D01*
X145779999Y-123924042D02*
X145851428Y-123781185D01*
X145851428Y-123781185D02*
X145922857Y-123709757D01*
X145922857Y-123709757D02*
X146065714Y-123638328D01*
X148351427Y-125138328D02*
X148351427Y-124138328D01*
X148351427Y-124281185D02*
X148422856Y-124209757D01*
X148422856Y-124209757D02*
X148565713Y-124138328D01*
X148565713Y-124138328D02*
X148779999Y-124138328D01*
X148779999Y-124138328D02*
X148922856Y-124209757D01*
X148922856Y-124209757D02*
X148994285Y-124352614D01*
X148994285Y-124352614D02*
X148994285Y-125138328D01*
X148994285Y-124352614D02*
X149065713Y-124209757D01*
X149065713Y-124209757D02*
X149208570Y-124138328D01*
X149208570Y-124138328D02*
X149422856Y-124138328D01*
X149422856Y-124138328D02*
X149565713Y-124209757D01*
X149565713Y-124209757D02*
X149637142Y-124352614D01*
X149637142Y-124352614D02*
X149637142Y-125138328D01*
X150351427Y-125138328D02*
X150351427Y-124138328D01*
X150351427Y-124281185D02*
X150422856Y-124209757D01*
X150422856Y-124209757D02*
X150565713Y-124138328D01*
X150565713Y-124138328D02*
X150779999Y-124138328D01*
X150779999Y-124138328D02*
X150922856Y-124209757D01*
X150922856Y-124209757D02*
X150994285Y-124352614D01*
X150994285Y-124352614D02*
X150994285Y-125138328D01*
X150994285Y-124352614D02*
X151065713Y-124209757D01*
X151065713Y-124209757D02*
X151208570Y-124138328D01*
X151208570Y-124138328D02*
X151422856Y-124138328D01*
X151422856Y-124138328D02*
X151565713Y-124209757D01*
X151565713Y-124209757D02*
X151637142Y-124352614D01*
X151637142Y-124352614D02*
X151637142Y-125138328D01*
D11*
X116840000Y-118610000D02*
X116840000Y-127586420D01*
X172720000Y-118610000D02*
X172720000Y-127586420D01*
X116840000Y-127000000D02*
X172720000Y-127000000D01*
X116840000Y-127000000D02*
X172720000Y-127000000D01*
X116840000Y-127000000D02*
X117966504Y-126413579D01*
X116840000Y-127000000D02*
X117966504Y-127586421D01*
X172720000Y-127000000D02*
X171593496Y-127586421D01*
X172720000Y-127000000D02*
X171593496Y-126413579D01*
X118351541Y-68669819D02*
X118970588Y-68669819D01*
X118970588Y-68669819D02*
X118637255Y-69050771D01*
X118637255Y-69050771D02*
X118780112Y-69050771D01*
X118780112Y-69050771D02*
X118875350Y-69098390D01*
X118875350Y-69098390D02*
X118922969Y-69146009D01*
X118922969Y-69146009D02*
X118970588Y-69241247D01*
X118970588Y-69241247D02*
X118970588Y-69479342D01*
X118970588Y-69479342D02*
X118922969Y-69574580D01*
X118922969Y-69574580D02*
X118875350Y-69622200D01*
X118875350Y-69622200D02*
X118780112Y-69669819D01*
X118780112Y-69669819D02*
X118494398Y-69669819D01*
X118494398Y-69669819D02*
X118399160Y-69622200D01*
X118399160Y-69622200D02*
X118351541Y-69574580D01*
X119399160Y-69574580D02*
X119446779Y-69622200D01*
X119446779Y-69622200D02*
X119399160Y-69669819D01*
X119399160Y-69669819D02*
X119351541Y-69622200D01*
X119351541Y-69622200D02*
X119399160Y-69574580D01*
X119399160Y-69574580D02*
X119399160Y-69669819D01*
X120018207Y-69098390D02*
X119922969Y-69050771D01*
X119922969Y-69050771D02*
X119875350Y-69003152D01*
X119875350Y-69003152D02*
X119827731Y-68907914D01*
X119827731Y-68907914D02*
X119827731Y-68860295D01*
X119827731Y-68860295D02*
X119875350Y-68765057D01*
X119875350Y-68765057D02*
X119922969Y-68717438D01*
X119922969Y-68717438D02*
X120018207Y-68669819D01*
X120018207Y-68669819D02*
X120208683Y-68669819D01*
X120208683Y-68669819D02*
X120303921Y-68717438D01*
X120303921Y-68717438D02*
X120351540Y-68765057D01*
X120351540Y-68765057D02*
X120399159Y-68860295D01*
X120399159Y-68860295D02*
X120399159Y-68907914D01*
X120399159Y-68907914D02*
X120351540Y-69003152D01*
X120351540Y-69003152D02*
X120303921Y-69050771D01*
X120303921Y-69050771D02*
X120208683Y-69098390D01*
X120208683Y-69098390D02*
X120018207Y-69098390D01*
X120018207Y-69098390D02*
X119922969Y-69146009D01*
X119922969Y-69146009D02*
X119875350Y-69193628D01*
X119875350Y-69193628D02*
X119827731Y-69288866D01*
X119827731Y-69288866D02*
X119827731Y-69479342D01*
X119827731Y-69479342D02*
X119875350Y-69574580D01*
X119875350Y-69574580D02*
X119922969Y-69622200D01*
X119922969Y-69622200D02*
X120018207Y-69669819D01*
X120018207Y-69669819D02*
X120208683Y-69669819D01*
X120208683Y-69669819D02*
X120303921Y-69622200D01*
X120303921Y-69622200D02*
X120351540Y-69574580D01*
X120351540Y-69574580D02*
X120399159Y-69479342D01*
X120399159Y-69479342D02*
X120399159Y-69288866D01*
X120399159Y-69288866D02*
X120351540Y-69193628D01*
X120351540Y-69193628D02*
X120303921Y-69146009D01*
X120303921Y-69146009D02*
X120208683Y-69098390D01*
X121351540Y-69669819D02*
X120780112Y-69669819D01*
X121065826Y-69669819D02*
X121065826Y-68669819D01*
X121065826Y-68669819D02*
X120970588Y-68812676D01*
X120970588Y-68812676D02*
X120875350Y-68907914D01*
X120875350Y-68907914D02*
X120780112Y-68955533D01*
X122542017Y-69669819D02*
X122542017Y-69003152D01*
X122542017Y-69098390D02*
X122589636Y-69050771D01*
X122589636Y-69050771D02*
X122684874Y-69003152D01*
X122684874Y-69003152D02*
X122827731Y-69003152D01*
X122827731Y-69003152D02*
X122922969Y-69050771D01*
X122922969Y-69050771D02*
X122970588Y-69146009D01*
X122970588Y-69146009D02*
X122970588Y-69669819D01*
X122970588Y-69146009D02*
X123018207Y-69050771D01*
X123018207Y-69050771D02*
X123113445Y-69003152D01*
X123113445Y-69003152D02*
X123256302Y-69003152D01*
X123256302Y-69003152D02*
X123351541Y-69050771D01*
X123351541Y-69050771D02*
X123399160Y-69146009D01*
X123399160Y-69146009D02*
X123399160Y-69669819D01*
X123875350Y-69669819D02*
X123875350Y-69003152D01*
X123875350Y-69098390D02*
X123922969Y-69050771D01*
X123922969Y-69050771D02*
X124018207Y-69003152D01*
X124018207Y-69003152D02*
X124161064Y-69003152D01*
X124161064Y-69003152D02*
X124256302Y-69050771D01*
X124256302Y-69050771D02*
X124303921Y-69146009D01*
X124303921Y-69146009D02*
X124303921Y-69669819D01*
X124303921Y-69146009D02*
X124351540Y-69050771D01*
X124351540Y-69050771D02*
X124446778Y-69003152D01*
X124446778Y-69003152D02*
X124589635Y-69003152D01*
X124589635Y-69003152D02*
X124684874Y-69050771D01*
X124684874Y-69050771D02*
X124732493Y-69146009D01*
X124732493Y-69146009D02*
X124732493Y-69669819D01*
X113030000Y-74430000D02*
X113030000Y-68628580D01*
X116840000Y-74430000D02*
X116840000Y-68628580D01*
X113030000Y-69215000D02*
X116840000Y-69215000D01*
X113030000Y-69215000D02*
X116840000Y-69215000D01*
X113030000Y-69215000D02*
X114156504Y-68628579D01*
X113030000Y-69215000D02*
X114156504Y-69801421D01*
X116840000Y-69215000D02*
X115713496Y-69801421D01*
X116840000Y-69215000D02*
X115713496Y-68628579D01*
X156191554Y-69003152D02*
X156191554Y-69669819D01*
X155953459Y-68622200D02*
X155715364Y-69336485D01*
X155715364Y-69336485D02*
X156334411Y-69336485D01*
X156620126Y-69669819D02*
X157143935Y-69003152D01*
X156620126Y-69003152D02*
X157143935Y-69669819D01*
X158239174Y-68765057D02*
X158286793Y-68717438D01*
X158286793Y-68717438D02*
X158382031Y-68669819D01*
X158382031Y-68669819D02*
X158620126Y-68669819D01*
X158620126Y-68669819D02*
X158715364Y-68717438D01*
X158715364Y-68717438D02*
X158762983Y-68765057D01*
X158762983Y-68765057D02*
X158810602Y-68860295D01*
X158810602Y-68860295D02*
X158810602Y-68955533D01*
X158810602Y-68955533D02*
X158762983Y-69098390D01*
X158762983Y-69098390D02*
X158191555Y-69669819D01*
X158191555Y-69669819D02*
X158810602Y-69669819D01*
X159239174Y-69574580D02*
X159286793Y-69622200D01*
X159286793Y-69622200D02*
X159239174Y-69669819D01*
X159239174Y-69669819D02*
X159191555Y-69622200D01*
X159191555Y-69622200D02*
X159239174Y-69574580D01*
X159239174Y-69574580D02*
X159239174Y-69669819D01*
X160191554Y-68669819D02*
X159715364Y-68669819D01*
X159715364Y-68669819D02*
X159667745Y-69146009D01*
X159667745Y-69146009D02*
X159715364Y-69098390D01*
X159715364Y-69098390D02*
X159810602Y-69050771D01*
X159810602Y-69050771D02*
X160048697Y-69050771D01*
X160048697Y-69050771D02*
X160143935Y-69098390D01*
X160143935Y-69098390D02*
X160191554Y-69146009D01*
X160191554Y-69146009D02*
X160239173Y-69241247D01*
X160239173Y-69241247D02*
X160239173Y-69479342D01*
X160239173Y-69479342D02*
X160191554Y-69574580D01*
X160191554Y-69574580D02*
X160143935Y-69622200D01*
X160143935Y-69622200D02*
X160048697Y-69669819D01*
X160048697Y-69669819D02*
X159810602Y-69669819D01*
X159810602Y-69669819D02*
X159715364Y-69622200D01*
X159715364Y-69622200D02*
X159667745Y-69574580D01*
X160667745Y-69669819D02*
X160667745Y-69003152D01*
X160667745Y-69098390D02*
X160715364Y-69050771D01*
X160715364Y-69050771D02*
X160810602Y-69003152D01*
X160810602Y-69003152D02*
X160953459Y-69003152D01*
X160953459Y-69003152D02*
X161048697Y-69050771D01*
X161048697Y-69050771D02*
X161096316Y-69146009D01*
X161096316Y-69146009D02*
X161096316Y-69669819D01*
X161096316Y-69146009D02*
X161143935Y-69050771D01*
X161143935Y-69050771D02*
X161239173Y-69003152D01*
X161239173Y-69003152D02*
X161382030Y-69003152D01*
X161382030Y-69003152D02*
X161477269Y-69050771D01*
X161477269Y-69050771D02*
X161524888Y-69146009D01*
X161524888Y-69146009D02*
X161524888Y-69669819D01*
X162001078Y-69669819D02*
X162001078Y-69003152D01*
X162001078Y-69098390D02*
X162048697Y-69050771D01*
X162048697Y-69050771D02*
X162143935Y-69003152D01*
X162143935Y-69003152D02*
X162286792Y-69003152D01*
X162286792Y-69003152D02*
X162382030Y-69050771D01*
X162382030Y-69050771D02*
X162429649Y-69146009D01*
X162429649Y-69146009D02*
X162429649Y-69669819D01*
X162429649Y-69146009D02*
X162477268Y-69050771D01*
X162477268Y-69050771D02*
X162572506Y-69003152D01*
X162572506Y-69003152D02*
X162715363Y-69003152D01*
X162715363Y-69003152D02*
X162810602Y-69050771D01*
X162810602Y-69050771D02*
X162858221Y-69146009D01*
X162858221Y-69146009D02*
X162858221Y-69669819D01*
X172366447Y-74576447D02*
X167005000Y-69215000D01*
X172366447Y-74576447D02*
X171155226Y-74194551D01*
X172366447Y-74576447D02*
X171984551Y-73365226D01*
X167005000Y-69215000D02*
X163695000Y-69215000D01*
X172366447Y-74576447D02*
X167005000Y-69215000D01*
X172366447Y-74576447D02*
X171155226Y-74194551D01*
X172366447Y-74576447D02*
X171984551Y-73365226D01*
X167005000Y-69215000D02*
X163695000Y-69215000D01*
X103100476Y-66764819D02*
X103195714Y-66764819D01*
X103195714Y-66764819D02*
X103290952Y-66812438D01*
X103290952Y-66812438D02*
X103338571Y-66860057D01*
X103338571Y-66860057D02*
X103386190Y-66955295D01*
X103386190Y-66955295D02*
X103433809Y-67145771D01*
X103433809Y-67145771D02*
X103433809Y-67383866D01*
X103433809Y-67383866D02*
X103386190Y-67574342D01*
X103386190Y-67574342D02*
X103338571Y-67669580D01*
X103338571Y-67669580D02*
X103290952Y-67717200D01*
X103290952Y-67717200D02*
X103195714Y-67764819D01*
X103195714Y-67764819D02*
X103100476Y-67764819D01*
X103100476Y-67764819D02*
X103005238Y-67717200D01*
X103005238Y-67717200D02*
X102957619Y-67669580D01*
X102957619Y-67669580D02*
X102910000Y-67574342D01*
X102910000Y-67574342D02*
X102862381Y-67383866D01*
X102862381Y-67383866D02*
X102862381Y-67145771D01*
X102862381Y-67145771D02*
X102910000Y-66955295D01*
X102910000Y-66955295D02*
X102957619Y-66860057D01*
X102957619Y-66860057D02*
X103005238Y-66812438D01*
X103005238Y-66812438D02*
X103100476Y-66764819D01*
X103862381Y-67669580D02*
X103910000Y-67717200D01*
X103910000Y-67717200D02*
X103862381Y-67764819D01*
X103862381Y-67764819D02*
X103814762Y-67717200D01*
X103814762Y-67717200D02*
X103862381Y-67669580D01*
X103862381Y-67669580D02*
X103862381Y-67764819D01*
X104862380Y-67764819D02*
X104290952Y-67764819D01*
X104576666Y-67764819D02*
X104576666Y-66764819D01*
X104576666Y-66764819D02*
X104481428Y-66907676D01*
X104481428Y-66907676D02*
X104386190Y-67002914D01*
X104386190Y-67002914D02*
X104290952Y-67050533D01*
X105767142Y-66764819D02*
X105290952Y-66764819D01*
X105290952Y-66764819D02*
X105243333Y-67241009D01*
X105243333Y-67241009D02*
X105290952Y-67193390D01*
X105290952Y-67193390D02*
X105386190Y-67145771D01*
X105386190Y-67145771D02*
X105624285Y-67145771D01*
X105624285Y-67145771D02*
X105719523Y-67193390D01*
X105719523Y-67193390D02*
X105767142Y-67241009D01*
X105767142Y-67241009D02*
X105814761Y-67336247D01*
X105814761Y-67336247D02*
X105814761Y-67574342D01*
X105814761Y-67574342D02*
X105767142Y-67669580D01*
X105767142Y-67669580D02*
X105719523Y-67717200D01*
X105719523Y-67717200D02*
X105624285Y-67764819D01*
X105624285Y-67764819D02*
X105386190Y-67764819D01*
X105386190Y-67764819D02*
X105290952Y-67717200D01*
X105290952Y-67717200D02*
X105243333Y-67669580D01*
X107005238Y-67764819D02*
X107005238Y-67098152D01*
X107005238Y-66764819D02*
X106957619Y-66812438D01*
X106957619Y-66812438D02*
X107005238Y-66860057D01*
X107005238Y-66860057D02*
X107052857Y-66812438D01*
X107052857Y-66812438D02*
X107005238Y-66764819D01*
X107005238Y-66764819D02*
X107005238Y-66860057D01*
X107481428Y-67098152D02*
X107481428Y-67764819D01*
X107481428Y-67193390D02*
X107529047Y-67145771D01*
X107529047Y-67145771D02*
X107624285Y-67098152D01*
X107624285Y-67098152D02*
X107767142Y-67098152D01*
X107767142Y-67098152D02*
X107862380Y-67145771D01*
X107862380Y-67145771D02*
X107909999Y-67241009D01*
X107909999Y-67241009D02*
X107909999Y-67764819D01*
X113771647Y-71904385D02*
X108773095Y-67476616D01*
X113771647Y-71904385D02*
X112539559Y-71596395D01*
X113771647Y-71904385D02*
X113317241Y-70718461D01*
X113771647Y-71904385D02*
X108773095Y-67476616D01*
X113771647Y-71904385D02*
X112539559Y-71596395D01*
X113771647Y-71904385D02*
X113317241Y-70718461D01*
D13*
%TO.C,Q2*%
X157465000Y-78930000D02*
X157465000Y-76010000D01*
X158765000Y-78930000D02*
X157465000Y-78930000D01*
X158800000Y-78620000D02*
X158800000Y-78220000D01*
X159300000Y-78620000D02*
X158800000Y-78620000D01*
X158800000Y-78220000D02*
X159300000Y-78220000D01*
X159300000Y-78220000D02*
X159300000Y-78620000D01*
X156930000Y-77670000D02*
X156930000Y-77270000D01*
X157430000Y-77670000D02*
X156930000Y-77670000D01*
X156930000Y-77270000D02*
X157430000Y-77270000D01*
X157430000Y-77270000D02*
X157430000Y-77670000D01*
X158800000Y-76720000D02*
X158800000Y-76320000D01*
X159300000Y-76720000D02*
X158800000Y-76720000D01*
X158800000Y-76320000D02*
X159300000Y-76320000D01*
X159300000Y-76320000D02*
X159300000Y-76720000D01*
X157465000Y-76010000D02*
X158765000Y-76010000D01*
X158765000Y-76010000D02*
X158765000Y-78930000D01*
%TO.C,R12*%
X155339000Y-85440000D02*
X155339000Y-85740000D01*
X155339000Y-85440000D02*
X155339000Y-87040000D01*
X154539000Y-85440000D02*
X155339000Y-85440000D01*
X154539000Y-85440000D02*
X155339000Y-85440000D01*
X155339000Y-85740000D02*
X154539000Y-85740000D01*
X154539000Y-85740000D02*
X154539000Y-85440000D01*
X155339000Y-86740000D02*
X155339000Y-87040000D01*
X154539000Y-86740000D02*
X155339000Y-86740000D01*
X155339000Y-86950000D02*
X155339000Y-88550000D01*
X154539000Y-86950000D02*
X155339000Y-86950000D01*
X155339000Y-87040000D02*
X154539000Y-87040000D01*
X155339000Y-87040000D02*
X154539000Y-87040000D01*
X154539000Y-87040000D02*
X154539000Y-85440000D01*
X154539000Y-87040000D02*
X154539000Y-86740000D01*
X155339000Y-87250000D02*
X154539000Y-87250000D01*
X155339000Y-88250000D02*
X155339000Y-88550000D01*
X154539000Y-88250000D02*
X155339000Y-88250000D01*
X155339000Y-88550000D02*
X154539000Y-88550000D01*
X154539000Y-88550000D02*
X154539000Y-86950000D01*
%TO.C,C2*%
X130956000Y-117552000D02*
X130956000Y-117902000D01*
X130956000Y-117552000D02*
X130956000Y-119152000D01*
X130156000Y-117552000D02*
X130956000Y-117552000D01*
X130156000Y-117552000D02*
X130956000Y-117552000D01*
X130956000Y-117902000D02*
X130156000Y-117902000D01*
X130156000Y-117902000D02*
X130156000Y-117552000D01*
X130956000Y-118802000D02*
X130956000Y-119152000D01*
X130156000Y-118802000D02*
X130956000Y-118802000D01*
X130956000Y-119152000D02*
X130156000Y-119152000D01*
X130956000Y-119152000D02*
X130156000Y-119152000D01*
X130156000Y-119152000D02*
X130156000Y-117552000D01*
X130156000Y-119152000D02*
X130156000Y-118802000D01*
%TO.C,Q4*%
X153355000Y-78920000D02*
X153355000Y-76020000D01*
X155255000Y-78920000D02*
X153355000Y-78920000D01*
X152905000Y-78608000D02*
X152905000Y-78232000D01*
X153305000Y-78608000D02*
X152905000Y-78608000D01*
X155305000Y-78608000D02*
X155305000Y-78232000D01*
X155705000Y-78608000D02*
X155305000Y-78608000D01*
X152905000Y-78232000D02*
X153305000Y-78232000D01*
X153305000Y-78232000D02*
X153305000Y-78608000D01*
X155305000Y-78232000D02*
X155705000Y-78232000D01*
X155705000Y-78232000D02*
X155705000Y-78608000D01*
X152905000Y-77658000D02*
X152905000Y-77282000D01*
X153305000Y-77658000D02*
X152905000Y-77658000D01*
X155305000Y-77658000D02*
X155305000Y-77282000D01*
X155705000Y-77658000D02*
X155305000Y-77658000D01*
X152905000Y-77282000D02*
X153305000Y-77282000D01*
X153305000Y-77282000D02*
X153305000Y-77658000D01*
X155305000Y-77282000D02*
X155705000Y-77282000D01*
X155705000Y-77282000D02*
X155705000Y-77658000D01*
X152905000Y-76708000D02*
X152905000Y-76332000D01*
X153305000Y-76708000D02*
X152905000Y-76708000D01*
X155305000Y-76708000D02*
X155305000Y-76332000D01*
X155705000Y-76708000D02*
X155305000Y-76708000D01*
X152905000Y-76332000D02*
X153305000Y-76332000D01*
X153305000Y-76332000D02*
X153305000Y-76708000D01*
X155305000Y-76332000D02*
X155705000Y-76332000D01*
X155705000Y-76332000D02*
X155705000Y-76708000D01*
X153355000Y-76020000D02*
X155255000Y-76020000D01*
X155255000Y-76020000D02*
X155255000Y-78920000D01*
%TO.C,R10*%
X137955000Y-118764000D02*
X137655000Y-118764000D01*
X137955000Y-118764000D02*
X136355000Y-118764000D01*
X137955000Y-117964000D02*
X137955000Y-118764000D01*
X137955000Y-117964000D02*
X137955000Y-118764000D01*
X137655000Y-118764000D02*
X137655000Y-117964000D01*
X137655000Y-117964000D02*
X137955000Y-117964000D01*
X136655000Y-118764000D02*
X136355000Y-118764000D01*
X136655000Y-117964000D02*
X136655000Y-118764000D01*
X136355000Y-118764000D02*
X136355000Y-117964000D01*
X136355000Y-118764000D02*
X136355000Y-117964000D01*
X136355000Y-117964000D02*
X137955000Y-117964000D01*
X136355000Y-117964000D02*
X136655000Y-117964000D01*
%TO.C,R5*%
X128289000Y-96736000D02*
X128289000Y-97036000D01*
X128289000Y-96736000D02*
X128289000Y-98336000D01*
X127489000Y-96736000D02*
X128289000Y-96736000D01*
X127489000Y-96736000D02*
X128289000Y-96736000D01*
X128289000Y-97036000D02*
X127489000Y-97036000D01*
X127489000Y-97036000D02*
X127489000Y-96736000D01*
X128289000Y-98036000D02*
X128289000Y-98336000D01*
X127489000Y-98036000D02*
X128289000Y-98036000D01*
X128289000Y-98336000D02*
X127489000Y-98336000D01*
X128289000Y-98336000D02*
X127489000Y-98336000D01*
X127489000Y-98336000D02*
X127489000Y-96736000D01*
X127489000Y-98336000D02*
X127489000Y-98036000D01*
%TO.C,C4*%
X117202000Y-98336000D02*
X117202000Y-97986000D01*
X117202000Y-98336000D02*
X117202000Y-96736000D01*
X118002000Y-98336000D02*
X117202000Y-98336000D01*
X118002000Y-98336000D02*
X117202000Y-98336000D01*
X117202000Y-97986000D02*
X118002000Y-97986000D01*
X118002000Y-97986000D02*
X118002000Y-98336000D01*
X117202000Y-97086000D02*
X117202000Y-96736000D01*
X118002000Y-97086000D02*
X117202000Y-97086000D01*
X117202000Y-96736000D02*
X118002000Y-96736000D01*
X117202000Y-96736000D02*
X118002000Y-96736000D01*
X118002000Y-96736000D02*
X118002000Y-98336000D01*
X118002000Y-96736000D02*
X118002000Y-97086000D01*
%TO.C,R3*%
X121743000Y-96736000D02*
X121743000Y-97036000D01*
X121743000Y-96736000D02*
X121743000Y-98336000D01*
X120943000Y-96736000D02*
X121743000Y-96736000D01*
X120943000Y-96736000D02*
X121743000Y-96736000D01*
X121743000Y-97036000D02*
X120943000Y-97036000D01*
X120943000Y-97036000D02*
X120943000Y-96736000D01*
X121743000Y-98036000D02*
X121743000Y-98336000D01*
X120943000Y-98036000D02*
X121743000Y-98036000D01*
X121743000Y-98336000D02*
X120943000Y-98336000D01*
X121743000Y-98336000D02*
X120943000Y-98336000D01*
X120943000Y-98336000D02*
X120943000Y-96736000D01*
X120943000Y-98336000D02*
X120943000Y-98036000D01*
%TO.C,R1*%
X131591000Y-96736000D02*
X131591000Y-97036000D01*
X131591000Y-96736000D02*
X131591000Y-98336000D01*
X130791000Y-96736000D02*
X131591000Y-96736000D01*
X130791000Y-96736000D02*
X131591000Y-96736000D01*
X131591000Y-97036000D02*
X130791000Y-97036000D01*
X130791000Y-97036000D02*
X130791000Y-96736000D01*
X131591000Y-98036000D02*
X131591000Y-98336000D01*
X130791000Y-98036000D02*
X131591000Y-98036000D01*
X131591000Y-98336000D02*
X130791000Y-98336000D01*
X131591000Y-98336000D02*
X130791000Y-98336000D01*
X130791000Y-98336000D02*
X130791000Y-96736000D01*
X130791000Y-98336000D02*
X130791000Y-98036000D01*
%TO.C,Q1*%
X157465000Y-82740000D02*
X157465000Y-79820000D01*
X158765000Y-82740000D02*
X157465000Y-82740000D01*
X158800000Y-82430000D02*
X158800000Y-82030000D01*
X159300000Y-82430000D02*
X158800000Y-82430000D01*
X158800000Y-82030000D02*
X159300000Y-82030000D01*
X159300000Y-82030000D02*
X159300000Y-82430000D01*
X156930000Y-81480000D02*
X156930000Y-81080000D01*
X157430000Y-81480000D02*
X156930000Y-81480000D01*
X156930000Y-81080000D02*
X157430000Y-81080000D01*
X157430000Y-81080000D02*
X157430000Y-81480000D01*
X158800000Y-80530000D02*
X158800000Y-80130000D01*
X159300000Y-80530000D02*
X158800000Y-80530000D01*
X158800000Y-80130000D02*
X159300000Y-80130000D01*
X159300000Y-80130000D02*
X159300000Y-80530000D01*
X157465000Y-79820000D02*
X158765000Y-79820000D01*
X158765000Y-79820000D02*
X158765000Y-82740000D01*
%TO.C,R2*%
X120092000Y-96736000D02*
X120092000Y-97036000D01*
X120092000Y-96736000D02*
X120092000Y-98336000D01*
X119292000Y-96736000D02*
X120092000Y-96736000D01*
X119292000Y-96736000D02*
X120092000Y-96736000D01*
X120092000Y-97036000D02*
X119292000Y-97036000D01*
X119292000Y-97036000D02*
X119292000Y-96736000D01*
X120092000Y-98036000D02*
X120092000Y-98336000D01*
X119292000Y-98036000D02*
X120092000Y-98036000D01*
X120092000Y-98336000D02*
X119292000Y-98336000D01*
X120092000Y-98336000D02*
X119292000Y-98336000D01*
X119292000Y-98336000D02*
X119292000Y-96736000D01*
X119292000Y-98336000D02*
X119292000Y-98036000D01*
%TO.C,R9*%
X137965000Y-117240000D02*
X137665000Y-117240000D01*
X137965000Y-117240000D02*
X136365000Y-117240000D01*
X137965000Y-116440000D02*
X137965000Y-117240000D01*
X137965000Y-116440000D02*
X137965000Y-117240000D01*
X137665000Y-117240000D02*
X137665000Y-116440000D01*
X137665000Y-116440000D02*
X137965000Y-116440000D01*
X136665000Y-117240000D02*
X136365000Y-117240000D01*
X136665000Y-116440000D02*
X136665000Y-117240000D01*
X136365000Y-117240000D02*
X136365000Y-116440000D01*
X136365000Y-117240000D02*
X136365000Y-116440000D01*
X136365000Y-116440000D02*
X137965000Y-116440000D01*
X136365000Y-116440000D02*
X136665000Y-116440000D01*
%TO.C,R6*%
X126638000Y-96736000D02*
X126638000Y-97036000D01*
X126638000Y-96736000D02*
X126638000Y-98336000D01*
X125838000Y-96736000D02*
X126638000Y-96736000D01*
X125838000Y-96736000D02*
X126638000Y-96736000D01*
X126638000Y-97036000D02*
X125838000Y-97036000D01*
X125838000Y-97036000D02*
X125838000Y-96736000D01*
X126638000Y-98036000D02*
X126638000Y-98336000D01*
X125838000Y-98036000D02*
X126638000Y-98036000D01*
X126638000Y-98336000D02*
X125838000Y-98336000D01*
X126638000Y-98336000D02*
X125838000Y-98336000D01*
X125838000Y-98336000D02*
X125838000Y-96736000D01*
X125838000Y-98336000D02*
X125838000Y-98036000D01*
%TO.C,R7*%
X129940000Y-96736000D02*
X129940000Y-97036000D01*
X129940000Y-96736000D02*
X129940000Y-98336000D01*
X129140000Y-96736000D02*
X129940000Y-96736000D01*
X129140000Y-96736000D02*
X129940000Y-96736000D01*
X129940000Y-97036000D02*
X129140000Y-97036000D01*
X129140000Y-97036000D02*
X129140000Y-96736000D01*
X129940000Y-98036000D02*
X129940000Y-98336000D01*
X129140000Y-98036000D02*
X129940000Y-98036000D01*
X129940000Y-98336000D02*
X129140000Y-98336000D01*
X129940000Y-98336000D02*
X129140000Y-98336000D01*
X129140000Y-98336000D02*
X129140000Y-96736000D01*
X129140000Y-98336000D02*
X129140000Y-98036000D01*
%TO.C,R11*%
X152800000Y-85440000D02*
X152800000Y-85740000D01*
X152800000Y-85440000D02*
X152800000Y-87040000D01*
X152000000Y-85440000D02*
X152800000Y-85440000D01*
X152000000Y-85440000D02*
X152800000Y-85440000D01*
X152800000Y-85740000D02*
X152000000Y-85740000D01*
X152000000Y-85740000D02*
X152000000Y-85440000D01*
X152800000Y-86740000D02*
X152800000Y-87040000D01*
X152000000Y-86740000D02*
X152800000Y-86740000D01*
X152800000Y-86950000D02*
X152800000Y-88550000D01*
X152000000Y-86950000D02*
X152800000Y-86950000D01*
X152800000Y-87040000D02*
X152000000Y-87040000D01*
X152800000Y-87040000D02*
X152000000Y-87040000D01*
X152000000Y-87040000D02*
X152000000Y-85440000D01*
X152000000Y-87040000D02*
X152000000Y-86740000D01*
X152800000Y-87250000D02*
X152000000Y-87250000D01*
X152800000Y-88250000D02*
X152800000Y-88550000D01*
X152000000Y-88250000D02*
X152800000Y-88250000D01*
X152800000Y-88550000D02*
X152000000Y-88550000D01*
X152000000Y-88550000D02*
X152000000Y-86950000D01*
%TO.C,R8*%
X137965000Y-115716000D02*
X137665000Y-115716000D01*
X137965000Y-115716000D02*
X136365000Y-115716000D01*
X137965000Y-114916000D02*
X137965000Y-115716000D01*
X137965000Y-114916000D02*
X137965000Y-115716000D01*
X137665000Y-115716000D02*
X137665000Y-114916000D01*
X137665000Y-114916000D02*
X137965000Y-114916000D01*
X136665000Y-115716000D02*
X136365000Y-115716000D01*
X136665000Y-114916000D02*
X136665000Y-115716000D01*
X136365000Y-115716000D02*
X136365000Y-114916000D01*
X136365000Y-115716000D02*
X136365000Y-114916000D01*
X136365000Y-114916000D02*
X137965000Y-114916000D01*
X136365000Y-114916000D02*
X136665000Y-114916000D01*
%TO.C,C1*%
X130956000Y-114516000D02*
X130956000Y-114866000D01*
X130956000Y-114516000D02*
X130956000Y-116116000D01*
X130156000Y-114516000D02*
X130956000Y-114516000D01*
X130156000Y-114516000D02*
X130956000Y-114516000D01*
X130956000Y-114866000D02*
X130156000Y-114866000D01*
X130156000Y-114866000D02*
X130156000Y-114516000D01*
X130956000Y-115766000D02*
X130956000Y-116116000D01*
X130156000Y-115766000D02*
X130956000Y-115766000D01*
X130956000Y-116116000D02*
X130156000Y-116116000D01*
X130956000Y-116116000D02*
X130156000Y-116116000D01*
X130156000Y-116116000D02*
X130156000Y-114516000D01*
X130156000Y-116116000D02*
X130156000Y-115766000D01*
%TO.C,R4*%
X123463000Y-96736000D02*
X123463000Y-97036000D01*
X123463000Y-96736000D02*
X123463000Y-98336000D01*
X122663000Y-96736000D02*
X123463000Y-96736000D01*
X122663000Y-96736000D02*
X123463000Y-96736000D01*
X123463000Y-97036000D02*
X122663000Y-97036000D01*
X122663000Y-97036000D02*
X122663000Y-96736000D01*
X123463000Y-98036000D02*
X123463000Y-98336000D01*
X122663000Y-98036000D02*
X123463000Y-98036000D01*
X123463000Y-98336000D02*
X122663000Y-98336000D01*
X123463000Y-98336000D02*
X122663000Y-98336000D01*
X122663000Y-98336000D02*
X122663000Y-96736000D01*
X122663000Y-98336000D02*
X122663000Y-98036000D01*
%TO.C,C3*%
X115551000Y-98336000D02*
X115551000Y-97986000D01*
X115551000Y-98336000D02*
X115551000Y-96736000D01*
X116351000Y-98336000D02*
X115551000Y-98336000D01*
X116351000Y-98336000D02*
X115551000Y-98336000D01*
X115551000Y-97986000D02*
X116351000Y-97986000D01*
X116351000Y-97986000D02*
X116351000Y-98336000D01*
X115551000Y-97086000D02*
X115551000Y-96736000D01*
X116351000Y-97086000D02*
X115551000Y-97086000D01*
X115551000Y-96736000D02*
X116351000Y-96736000D01*
X115551000Y-96736000D02*
X116351000Y-96736000D01*
X116351000Y-96736000D02*
X116351000Y-98336000D01*
X116351000Y-96736000D02*
X116351000Y-97086000D01*
%TO.C,Q3*%
X153355000Y-82730000D02*
X153355000Y-79830000D01*
X155255000Y-82730000D02*
X153355000Y-82730000D01*
X152905000Y-82418000D02*
X152905000Y-82042000D01*
X153305000Y-82418000D02*
X152905000Y-82418000D01*
X155305000Y-82418000D02*
X155305000Y-82042000D01*
X155705000Y-82418000D02*
X155305000Y-82418000D01*
X152905000Y-82042000D02*
X153305000Y-82042000D01*
X153305000Y-82042000D02*
X153305000Y-82418000D01*
X155305000Y-82042000D02*
X155705000Y-82042000D01*
X155705000Y-82042000D02*
X155705000Y-82418000D01*
X152905000Y-81468000D02*
X152905000Y-81092000D01*
X153305000Y-81468000D02*
X152905000Y-81468000D01*
X155305000Y-81468000D02*
X155305000Y-81092000D01*
X155705000Y-81468000D02*
X155305000Y-81468000D01*
X152905000Y-81092000D02*
X153305000Y-81092000D01*
X153305000Y-81092000D02*
X153305000Y-81468000D01*
X155305000Y-81092000D02*
X155705000Y-81092000D01*
X155705000Y-81092000D02*
X155705000Y-81468000D01*
X152905000Y-80518000D02*
X152905000Y-80142000D01*
X153305000Y-80518000D02*
X152905000Y-80518000D01*
X155305000Y-80518000D02*
X155305000Y-80142000D01*
X155705000Y-80518000D02*
X155305000Y-80518000D01*
X152905000Y-80142000D02*
X153305000Y-80142000D01*
X153305000Y-80142000D02*
X153305000Y-80518000D01*
X155305000Y-80142000D02*
X155705000Y-80142000D01*
X155705000Y-80142000D02*
X155705000Y-80518000D01*
X153355000Y-79830000D02*
X155255000Y-79830000D01*
X155255000Y-79830000D02*
X155255000Y-82730000D01*
%TD*%
M02*
