M48
; DRILL file {KiCad 7.0.10} date Fri Feb 16 08:22:34 2024
; FORMAT={-:-/ absolute / metric / decimal}
; #@! TF.CreationDate,2024-02-16T08:22:34-05:00
; #@! TF.GenerationSoftware,Kicad,Pcbnew,7.0.10
; #@! TF.FileFunction,Plated,1,2,PTH
FMAT,2
METRIC
; #@! TA.AperFunction,Plated,PTH,ViaDrill
T1C0.310
; #@! TA.AperFunction,Plated,PTH,ViaDrill
T2C0.400
; #@! TA.AperFunction,Plated,PTH,ComponentDrill
T3C0.700
; #@! TA.AperFunction,Plated,PTH,ComponentDrill
T4C0.900
; #@! TA.AperFunction,Plated,PTH,ComponentDrill
T5C1.000
%
G90
G05
T1
X115.951Y-95.504
X116.332Y-114.681
X117.221Y-101.473
X117.602Y-95.504
X117.914Y-103.034
X120.777Y-78.232
X122.174Y-95.631
X123.19Y-73.4
X124.191Y-98.552
X124.206Y-96.132
X124.206Y-97.536
X125.106Y-96.132
X125.222Y-100.965
X126.746Y-93.198
X126.746Y-94.234
X126.746Y-95.25
X129.603Y-88.837
X130.302Y-95.758
X130.683Y-87.757
X131.318Y-92.964
X131.318Y-93.98
X131.318Y-94.88
X131.684Y-91.567
X133.35Y-91.567
X133.35Y-92.964
X133.35Y-93.98
X133.999Y-99.441
X134.366Y-119.634
X135.001Y-98.552
X136.525Y-89.789
X136.906Y-93.98
X138.43Y-94.742
X139.001Y-93.916
X139.186Y-117.596
X150.235Y-106.547
X150.933Y-105.848
X151.638Y-107.95
X152.019Y-77.978
X152.019Y-79.756
X152.4Y-89.662
X152.908Y-107.823
X156.007Y-86.208
X159.258Y-75.565
X159.258Y-77.47
X159.258Y-79.375
X159.258Y-81.28
X160.147Y-75.565
X160.147Y-76.581
X160.147Y-77.47
X160.147Y-79.375
X160.147Y-80.391
X160.147Y-81.28
T2
X118.008Y-86.131
X129.286Y-116.84
X131.9Y-118.8
X134.4Y-114.9
T4
X165.354Y-78.73
X165.354Y-80.73
X165.354Y-82.73
T5
X123.19Y-76.2
X123.19Y-78.74
X123.19Y-81.28
X123.19Y-83.82
X123.19Y-86.36
X123.19Y-88.9
X123.19Y-91.44
X138.43Y-76.2
X138.43Y-78.74
X138.43Y-81.28
X138.43Y-83.82
X138.43Y-86.36
X138.43Y-88.9
X138.43Y-91.44
X151.13Y-92.71
X153.67Y-92.71
X156.21Y-92.71
X158.75Y-92.71
T3
G00X164.954Y-76.63
M15
G01X165.754Y-76.63
M16
G05
G00X164.954Y-84.83
M15
G01X165.754Y-84.83
M16
G05
M30
