%TF.GenerationSoftware,KiCad,Pcbnew,7.0.8*%
%TF.CreationDate,2023-11-01T10:58:09-04:00*%
%TF.ProjectId,destinationWeatherStation_r4-5,64657374-696e-4617-9469-6f6e57656174,4.5*%
%TF.SameCoordinates,Original*%
%TF.FileFunction,Copper,L1,Top*%
%TF.FilePolarity,Positive*%
%FSLAX46Y46*%
G04 Gerber Fmt 4.6, Leading zero omitted, Abs format (unit mm)*
G04 Created by KiCad (PCBNEW 7.0.8) date 2023-11-01 10:58:09*
%MOMM*%
%LPD*%
G01*
G04 APERTURE LIST*
G04 Aperture macros list*
%AMFreePoly0*
4,1,19,0.550000,-0.750000,0.000000,-0.750000,0.000000,-0.744911,-0.071157,-0.744911,-0.207708,-0.704816,-0.327430,-0.627875,-0.420627,-0.520320,-0.479746,-0.390866,-0.500000,-0.250000,-0.500000,0.250000,-0.479746,0.390866,-0.420627,0.520320,-0.327430,0.627875,-0.207708,0.704816,-0.071157,0.744911,0.000000,0.744911,0.000000,0.750000,0.550000,0.750000,0.550000,-0.750000,0.550000,-0.750000,
$1*%
%AMFreePoly1*
4,1,19,0.000000,0.744911,0.071157,0.744911,0.207708,0.704816,0.327430,0.627875,0.420627,0.520320,0.479746,0.390866,0.500000,0.250000,0.500000,-0.250000,0.479746,-0.390866,0.420627,-0.520320,0.327430,-0.627875,0.207708,-0.704816,0.071157,-0.744911,0.000000,-0.744911,0.000000,-0.750000,-0.550000,-0.750000,-0.550000,0.750000,0.000000,0.750000,0.000000,0.744911,0.000000,0.744911,
$1*%
G04 Aperture macros list end*
%TA.AperFunction,SMDPad,CuDef*%
%ADD10R,1.000000X1.550000*%
%TD*%
%TA.AperFunction,ComponentPad*%
%ADD11O,2.600000X1.350000*%
%TD*%
%TA.AperFunction,ComponentPad*%
%ADD12C,1.700000*%
%TD*%
%TA.AperFunction,SMDPad,CuDef*%
%ADD13R,0.826000X0.609000*%
%TD*%
%TA.AperFunction,SMDPad,CuDef*%
%ADD14C,2.000000*%
%TD*%
%TA.AperFunction,SMDPad,CuDef*%
%ADD15R,0.970000X0.871000*%
%TD*%
%TA.AperFunction,SMDPad,CuDef*%
%ADD16R,1.500000X3.400000*%
%TD*%
%TA.AperFunction,SMDPad,CuDef*%
%ADD17R,1.000000X3.500000*%
%TD*%
%TA.AperFunction,ComponentPad*%
%ADD18C,2.000000*%
%TD*%
%TA.AperFunction,SMDPad,CuDef*%
%ADD19R,0.706000X0.567000*%
%TD*%
%TA.AperFunction,SMDPad,CuDef*%
%ADD20R,2.000000X0.800000*%
%TD*%
%TA.AperFunction,SMDPad,CuDef*%
%ADD21R,1.400000X1.800000*%
%TD*%
%TA.AperFunction,SMDPad,CuDef*%
%ADD22R,1.900000X1.400000*%
%TD*%
%TA.AperFunction,SMDPad,CuDef*%
%ADD23R,0.820000X0.929000*%
%TD*%
%TA.AperFunction,SMDPad,CuDef*%
%ADD24R,0.929000X0.820000*%
%TD*%
%TA.AperFunction,SMDPad,CuDef*%
%ADD25FreePoly0,270.000000*%
%TD*%
%TA.AperFunction,SMDPad,CuDef*%
%ADD26R,1.500000X1.000000*%
%TD*%
%TA.AperFunction,SMDPad,CuDef*%
%ADD27FreePoly1,270.000000*%
%TD*%
%TA.AperFunction,ComponentPad*%
%ADD28C,1.750000*%
%TD*%
%TA.AperFunction,SMDPad,CuDef*%
%ADD29R,1.800000X1.200000*%
%TD*%
%TA.AperFunction,SMDPad,CuDef*%
%ADD30R,1.550000X0.600000*%
%TD*%
%TA.AperFunction,SMDPad,CuDef*%
%ADD31R,0.500000X0.350000*%
%TD*%
%TA.AperFunction,SMDPad,CuDef*%
%ADD32FreePoly0,90.000000*%
%TD*%
%TA.AperFunction,SMDPad,CuDef*%
%ADD33FreePoly1,90.000000*%
%TD*%
%TA.AperFunction,ViaPad*%
%ADD34C,0.700000*%
%TD*%
%TA.AperFunction,ViaPad*%
%ADD35C,1.000000*%
%TD*%
%TA.AperFunction,Conductor*%
%ADD36C,0.300000*%
%TD*%
%TA.AperFunction,Conductor*%
%ADD37C,0.200000*%
%TD*%
%TA.AperFunction,Conductor*%
%ADD38C,0.500000*%
%TD*%
%TA.AperFunction,Conductor*%
%ADD39C,0.250000*%
%TD*%
G04 APERTURE END LIST*
D10*
%TO.P,SW5,1*%
%TO.N,+3V3*%
X173685000Y-102785000D03*
%TO.P,SW5,2*%
X173685000Y-108035000D03*
%TO.P,SW5,3*%
%TO.N,/SW5*%
X170485000Y-102785000D03*
%TO.P,SW5,4*%
X170485000Y-108035000D03*
%TD*%
%TO.P,SW3,1*%
%TO.N,+3V3*%
X173685000Y-87545000D03*
%TO.P,SW3,2*%
X173685000Y-92795000D03*
%TO.P,SW3,3*%
%TO.N,/SW3*%
X170485000Y-87545000D03*
%TO.P,SW3,4*%
X170485000Y-92795000D03*
%TD*%
%TO.P,SW2,1*%
%TO.N,+3V3*%
X173685000Y-79925000D03*
%TO.P,SW2,2*%
X173685000Y-85175000D03*
%TO.P,SW2,3*%
%TO.N,/SW2*%
X170485000Y-79925000D03*
%TO.P,SW2,4*%
X170485000Y-85175000D03*
%TD*%
D11*
%TO.P,SW1,*%
%TO.N,*%
X165354000Y-87080000D03*
X165354000Y-75480000D03*
D12*
%TO.P,SW1,1,A*%
%TO.N,Net-(SW1-A)*%
X165354000Y-84280000D03*
%TO.P,SW1,2,B*%
%TO.N,Net-(J1-Pin_1)*%
X165354000Y-81280000D03*
%TO.P,SW1,3,C*%
%TO.N,unconnected-(SW1-C-Pad3)*%
X165354000Y-78280000D03*
%TD*%
D13*
%TO.P,Q2,1*%
%TO.N,Net-(SW1-A)*%
X159228000Y-78420000D03*
%TO.P,Q2,2*%
%TO.N,GND*%
X159228000Y-76520000D03*
%TO.P,Q2,3*%
%TO.N,Net-(J1-Pin_2)*%
X157002000Y-77470000D03*
%TD*%
D14*
%TO.P,TP5,1,1*%
%TO.N,/SCL*%
X139319000Y-113030000D03*
%TD*%
D15*
%TO.P,C2,1*%
%TO.N,+3V3*%
X130683000Y-117360000D03*
%TO.P,C2,2*%
%TO.N,GND*%
X130683000Y-118860000D03*
%TD*%
D16*
%TO.P,J1,*%
%TO.N,*%
X150670000Y-75586000D03*
X143970000Y-75586000D03*
D17*
%TO.P,J1,1,Pin_1*%
%TO.N,Net-(J1-Pin_1)*%
X148320000Y-81336000D03*
%TO.P,J1,2,Pin_2*%
%TO.N,Net-(J1-Pin_2)*%
X146320000Y-81336000D03*
%TD*%
D18*
%TO.P,TP3,1,1*%
%TO.N,GND*%
X159639000Y-73660000D03*
%TD*%
D19*
%TO.P,Q4,1*%
%TO.N,Net-(J1-Pin_2)*%
X155608000Y-78420000D03*
%TO.P,Q4,2*%
X155608000Y-77470000D03*
%TO.P,Q4,3*%
%TO.N,Net-(SW1-A)*%
X155608000Y-76520000D03*
%TO.P,Q4,4*%
%TO.N,VCC*%
X153002000Y-76520000D03*
%TO.P,Q4,5*%
%TO.N,Net-(J1-Pin_2)*%
X153002000Y-77470000D03*
%TO.P,Q4,6*%
X153002000Y-78420000D03*
%TD*%
D20*
%TO.P,J2,1,DAT2*%
%TO.N,/DAT2*%
X119879000Y-108505000D03*
%TO.P,J2,2,DAT3/CD*%
%TO.N,/CS_SD*%
X120279000Y-107405000D03*
%TO.P,J2,3,CMD*%
%TO.N,/MOSI*%
X119879000Y-106305000D03*
%TO.P,J2,4,VDD*%
%TO.N,+3V3*%
X119679000Y-105205000D03*
%TO.P,J2,5,CLK*%
%TO.N,/SCK*%
X119879000Y-104105000D03*
%TO.P,J2,6,VSS*%
%TO.N,GND*%
X119679000Y-103005000D03*
%TO.P,J2,7,DAT0*%
%TO.N,/MISO*%
X119879000Y-101905000D03*
%TO.P,J2,8,DAT1*%
%TO.N,/DAT1*%
X119879000Y-100805000D03*
D21*
%TO.P,J2,9,DET*%
%TO.N,/CD*%
X130429000Y-101615000D03*
X130429000Y-107315000D03*
D22*
%TO.P,J2,10,SHIELD*%
%TO.N,GND*%
X117279000Y-100015000D03*
X116279000Y-113165000D03*
%TD*%
D10*
%TO.P,SW4,1*%
%TO.N,+3V3*%
X173685000Y-95165000D03*
%TO.P,SW4,2*%
X173685000Y-100415000D03*
%TO.P,SW4,3*%
%TO.N,/SW4*%
X170485000Y-95165000D03*
%TO.P,SW4,4*%
X170485000Y-100415000D03*
%TD*%
D23*
%TO.P,R10,1*%
%TO.N,+3V3*%
X137910000Y-118364000D03*
%TO.P,R10,2*%
%TO.N,/SCL*%
X136400000Y-118364000D03*
%TD*%
D14*
%TO.P,TP1,1,1*%
%TO.N,VCC*%
X156083000Y-73533000D03*
%TD*%
D24*
%TO.P,R5,1*%
%TO.N,+3V3*%
X127889000Y-96781000D03*
%TO.P,R5,2*%
%TO.N,/MOSI*%
X127889000Y-98291000D03*
%TD*%
D25*
%TO.P,JP2,1,A*%
%TO.N,+3V3*%
X154940000Y-85695000D03*
D26*
%TO.P,JP2,2,C*%
%TO.N,/OLED2*%
X154940000Y-86995000D03*
D27*
%TO.P,JP2,3,B*%
%TO.N,GND*%
X154940000Y-88295000D03*
%TD*%
D15*
%TO.P,C4,1*%
%TO.N,+3V3*%
X117602000Y-98286000D03*
%TO.P,C4,2*%
%TO.N,GND*%
X117602000Y-96786000D03*
%TD*%
D24*
%TO.P,R3,1*%
%TO.N,+3V3*%
X121343000Y-96781000D03*
%TO.P,R3,2*%
%TO.N,/MISO*%
X121343000Y-98291000D03*
%TD*%
D28*
%TO.P,U1,1,D0*%
%TO.N,/SW2*%
X123190000Y-76200000D03*
%TO.P,U1,2,D1*%
%TO.N,/SW3*%
X123190000Y-78740000D03*
%TO.P,U1,3,D2*%
%TO.N,/CD*%
X123190000Y-81280000D03*
%TO.P,U1,4,D3*%
%TO.N,/CS_SD*%
X123190000Y-83820000D03*
%TO.P,U1,5,SDA*%
%TO.N,/SDA*%
X123190000Y-86360000D03*
%TO.P,U1,6,SCL*%
%TO.N,/SCL*%
X123190000Y-88900000D03*
%TO.P,U1,7,D6*%
%TO.N,/SW4*%
X123190000Y-91440000D03*
%TO.P,U1,8,D7*%
%TO.N,/SW5*%
X138430000Y-91440000D03*
%TO.P,U1,9,SCK*%
%TO.N,/SCK*%
X138430000Y-88900000D03*
%TO.P,U1,10,MISO*%
%TO.N,/MISO*%
X138430000Y-86360000D03*
%TO.P,U1,11,MOSI*%
%TO.N,/MOSI*%
X138430000Y-83820000D03*
%TO.P,U1,12,3V3*%
%TO.N,+3V3*%
X138430000Y-81280000D03*
%TO.P,U1,13,GND*%
%TO.N,GND*%
X138430000Y-78740000D03*
%TO.P,U1,14,VIN*%
%TO.N,VCC*%
X138430000Y-76200000D03*
%TD*%
D29*
%TO.P,J3,*%
%TO.N,*%
X116235000Y-84830000D03*
X116235000Y-90430000D03*
D30*
%TO.P,J3,1,Pin_1*%
%TO.N,GND*%
X120110000Y-86130000D03*
%TO.P,J3,2,Pin_2*%
%TO.N,+3V3*%
X120110000Y-87130000D03*
%TO.P,J3,3,Pin_3*%
%TO.N,/SDA*%
X120110000Y-88130000D03*
%TO.P,J3,4,Pin_4*%
%TO.N,/SCL*%
X120110000Y-89130000D03*
%TD*%
D24*
%TO.P,R1,1*%
%TO.N,+3V3*%
X131191000Y-96781000D03*
%TO.P,R1,2*%
%TO.N,/CD*%
X131191000Y-98291000D03*
%TD*%
D31*
%TO.P,U2,1,GND*%
%TO.N,GND*%
X134375000Y-115865000D03*
%TO.P,U2,2,CSB*%
%TO.N,/BME_CS*%
X134375000Y-116515000D03*
%TO.P,U2,3,SDI*%
%TO.N,/SDA*%
X134375000Y-117165000D03*
%TO.P,U2,4,SCK*%
%TO.N,/SCL*%
X134375000Y-117815000D03*
%TO.P,U2,5,SDO*%
%TO.N,GND*%
X132325000Y-117815000D03*
%TO.P,U2,6,VDDIO*%
%TO.N,+3V3*%
X132325000Y-117165000D03*
%TO.P,U2,7,GND*%
%TO.N,GND*%
X132325000Y-116515000D03*
%TO.P,U2,8,VDD*%
%TO.N,+3V3*%
X132325000Y-115865000D03*
%TD*%
D13*
%TO.P,Q1,1*%
%TO.N,Net-(J1-Pin_2)*%
X159228000Y-82230000D03*
%TO.P,Q1,2*%
%TO.N,GND*%
X159228000Y-80330000D03*
%TO.P,Q1,3*%
%TO.N,Net-(SW1-A)*%
X157002000Y-81280000D03*
%TD*%
D24*
%TO.P,R2,1*%
%TO.N,+3V3*%
X119692000Y-96781000D03*
%TO.P,R2,2*%
%TO.N,/DAT1*%
X119692000Y-98291000D03*
%TD*%
D28*
%TO.P,U3,1,GND*%
%TO.N,/OLED1*%
X151130000Y-92710000D03*
%TO.P,U3,2,VCC*%
%TO.N,/OLED2*%
X153670000Y-92710000D03*
%TO.P,U3,3,SCL*%
%TO.N,/SCL*%
X156210000Y-92710000D03*
%TO.P,U3,4,SDA*%
%TO.N,/SDA*%
X158750000Y-92710000D03*
%TD*%
D14*
%TO.P,TP4,1,1*%
%TO.N,/SDA*%
X135509000Y-112903000D03*
%TD*%
D23*
%TO.P,R9,1*%
%TO.N,+3V3*%
X137920000Y-116840000D03*
%TO.P,R9,2*%
%TO.N,/SDA*%
X136410000Y-116840000D03*
%TD*%
D24*
%TO.P,R6,1*%
%TO.N,+3V3*%
X126238000Y-96781000D03*
%TO.P,R6,2*%
%TO.N,/CS_SD*%
X126238000Y-98291000D03*
%TD*%
D32*
%TO.P,JP1,1,A*%
%TO.N,+3V3*%
X152400000Y-88295000D03*
D26*
%TO.P,JP1,2,C*%
%TO.N,/OLED1*%
X152400000Y-86995000D03*
D33*
%TO.P,JP1,3,B*%
%TO.N,GND*%
X152400000Y-85695000D03*
%TD*%
D24*
%TO.P,R7,1*%
%TO.N,+3V3*%
X129540000Y-96781000D03*
%TO.P,R7,2*%
%TO.N,/DAT2*%
X129540000Y-98291000D03*
%TD*%
D14*
%TO.P,TP2,1,1*%
%TO.N,+3V3*%
X141097000Y-75057000D03*
%TD*%
D23*
%TO.P,R8,1*%
%TO.N,+3V3*%
X137920000Y-115316000D03*
%TO.P,R8,2*%
%TO.N,/BME_CS*%
X136410000Y-115316000D03*
%TD*%
D15*
%TO.P,C1,1*%
%TO.N,+3V3*%
X130683000Y-114693000D03*
%TO.P,C1,2*%
%TO.N,GND*%
X130683000Y-116193000D03*
%TD*%
D24*
%TO.P,R4,1*%
%TO.N,+3V3*%
X123063000Y-96781000D03*
%TO.P,R4,2*%
%TO.N,/SCK*%
X123063000Y-98291000D03*
%TD*%
D15*
%TO.P,C3,1*%
%TO.N,+3V3*%
X115951000Y-98286000D03*
%TO.P,C3,2*%
%TO.N,GND*%
X115951000Y-96786000D03*
%TD*%
D19*
%TO.P,Q3,1*%
%TO.N,Net-(SW1-A)*%
X155608000Y-82230000D03*
%TO.P,Q3,2*%
X155608000Y-81280000D03*
%TO.P,Q3,3*%
%TO.N,Net-(J1-Pin_2)*%
X155608000Y-80330000D03*
%TO.P,Q3,4*%
%TO.N,VCC*%
X153002000Y-80330000D03*
%TO.P,Q3,5*%
%TO.N,Net-(SW1-A)*%
X153002000Y-81280000D03*
%TO.P,Q3,6*%
X153002000Y-82230000D03*
%TD*%
D34*
%TO.N,+3V3*%
X139185734Y-117595734D03*
X134366000Y-119634000D03*
D35*
%TO.N,GND*%
X153650000Y-89400000D03*
D34*
X117602000Y-95504000D03*
X160147000Y-76581000D03*
D35*
X150800000Y-86400000D03*
D34*
X117914000Y-103034000D03*
X116332000Y-114681000D03*
X159258000Y-79375000D03*
X115951000Y-95504000D03*
D35*
X131900000Y-118800000D03*
D34*
X160147000Y-81280000D03*
X160147000Y-79375000D03*
X160147000Y-75565000D03*
X160147000Y-77470000D03*
X160147000Y-80391000D03*
D35*
X129500000Y-116800000D03*
D34*
X159258000Y-75565000D03*
X117221000Y-101473000D03*
D35*
X134400000Y-114900000D03*
X118008400Y-86131400D03*
D34*
X159258000Y-77470000D03*
X159258000Y-81280000D03*
%TO.N,VCC*%
X152019000Y-77978000D03*
X152019000Y-79756000D03*
%TO.N,/SDA*%
X130302000Y-95758000D03*
X125984000Y-95250000D03*
X133999500Y-99441000D03*
%TO.N,/SCL*%
X134634767Y-98185767D03*
X125984000Y-94107000D03*
X131318000Y-94879503D03*
%TO.N,/MISO*%
X124206000Y-97536000D03*
X124206000Y-96131500D03*
X129603500Y-88836500D03*
X130683000Y-87757000D03*
%TO.N,/SCK*%
X133350000Y-91567000D03*
X125222000Y-96131500D03*
X131684500Y-91567000D03*
X123952000Y-99060000D03*
%TO.N,/MOSI*%
X133350000Y-92964000D03*
X131699000Y-92964000D03*
X136525000Y-89789000D03*
%TO.N,/CS_SD*%
X122174000Y-95631000D03*
X125222000Y-100965000D03*
%TO.N,/SW2*%
X123190000Y-73400500D03*
%TO.N,/SW3*%
X120777000Y-78740000D03*
%TO.N,/SW4*%
X150234734Y-106546734D03*
X151638000Y-107950000D03*
X136906000Y-93980000D03*
X131318000Y-93980000D03*
X133350000Y-93980000D03*
X126726109Y-93198109D03*
X138430000Y-94742000D03*
%TO.N,/SW5*%
X139001500Y-93916500D03*
X152908000Y-107823000D03*
X150933234Y-105848234D03*
%TD*%
D36*
%TO.N,+3V3*%
X173685000Y-95165000D02*
X172635000Y-95165000D01*
D37*
X115951000Y-98286000D02*
X117602000Y-98286000D01*
D36*
X173685000Y-87545000D02*
X173685000Y-92795000D01*
D37*
X153355000Y-88295000D02*
X153700000Y-87950000D01*
X139179468Y-117602000D02*
X137910000Y-117602000D01*
X132325000Y-115865000D02*
X132722500Y-115865000D01*
D36*
X164465000Y-93980000D02*
X156180000Y-85695000D01*
D37*
X153700000Y-87950000D02*
X153700000Y-85250000D01*
X120620000Y-87130000D02*
X121450000Y-86300000D01*
X126238000Y-96781000D02*
X129540000Y-96781000D01*
X132875000Y-117094000D02*
X132804000Y-117165000D01*
X129540000Y-96781000D02*
X131191000Y-96781000D01*
X130683000Y-117410000D02*
X130928000Y-117165000D01*
X153705000Y-85695000D02*
X154940000Y-85695000D01*
X118745000Y-87995736D02*
X118745000Y-95834000D01*
X132722500Y-115865000D02*
X132875000Y-116017500D01*
D36*
X172635000Y-95165000D02*
X171450000Y-93980000D01*
D37*
X139185734Y-117595734D02*
X139179468Y-117602000D01*
X121450000Y-75250000D02*
X122650000Y-74050000D01*
X119761000Y-96712000D02*
X119692000Y-96781000D01*
X153700000Y-85250000D02*
X153150000Y-84700000D01*
D36*
X173685000Y-100415000D02*
X173685000Y-102785000D01*
X173685000Y-95165000D02*
X173685000Y-100415000D01*
D37*
X140097000Y-74057000D02*
X137017000Y-74057000D01*
D36*
X173685000Y-79925000D02*
X173685000Y-85175000D01*
D37*
X130928000Y-117165000D02*
X132325000Y-117165000D01*
D36*
X171450000Y-93980000D02*
X164465000Y-93980000D01*
D37*
X141850000Y-90052000D02*
X133350000Y-98552000D01*
X118187000Y-98286000D02*
X119692000Y-96781000D01*
X118679000Y-105205000D02*
X119679000Y-105205000D01*
X115951000Y-98286000D02*
X115951000Y-102477000D01*
X132875000Y-118143000D02*
X134366000Y-119634000D01*
X141850000Y-84700000D02*
X141850000Y-90052000D01*
X137910000Y-118364000D02*
X137910000Y-117602000D01*
X117602000Y-98286000D02*
X118187000Y-98286000D01*
X130683000Y-114743000D02*
X131805000Y-115865000D01*
X121450000Y-86300000D02*
X121450000Y-75250000D01*
X119692000Y-96781000D02*
X126238000Y-96781000D01*
X153150000Y-84700000D02*
X141850000Y-84700000D01*
X132875000Y-116017500D02*
X132875000Y-117025000D01*
X119610736Y-87130000D02*
X118745000Y-87995736D01*
X120110000Y-87130000D02*
X120620000Y-87130000D01*
X118745000Y-95834000D02*
X119692000Y-96781000D01*
X153700000Y-85700000D02*
X153705000Y-85695000D01*
X152400000Y-88295000D02*
X153355000Y-88295000D01*
D36*
X156180000Y-85695000D02*
X154940000Y-85695000D01*
D37*
X131200000Y-74050000D02*
X134112000Y-76962000D01*
X134112000Y-76962000D02*
X138430000Y-81280000D01*
D36*
X173685000Y-92795000D02*
X173685000Y-95165000D01*
X173685000Y-85175000D02*
X173685000Y-87545000D01*
D37*
X131805000Y-115865000D02*
X132325000Y-115865000D01*
X137910000Y-115326000D02*
X137920000Y-115316000D01*
X122650000Y-74050000D02*
X131200000Y-74050000D01*
X141850000Y-84700000D02*
X138430000Y-81280000D01*
X137910000Y-117602000D02*
X137910000Y-115326000D01*
X133350000Y-112076000D02*
X130683000Y-114743000D01*
X137017000Y-74057000D02*
X134112000Y-76962000D01*
X141097000Y-75057000D02*
X140097000Y-74057000D01*
X132875000Y-117025000D02*
X132875000Y-118143000D01*
X133350000Y-98552000D02*
X133350000Y-112076000D01*
X115951000Y-102477000D02*
X118679000Y-105205000D01*
X132804000Y-117165000D02*
X132325000Y-117165000D01*
X120110000Y-87130000D02*
X119610736Y-87130000D01*
D36*
X173685000Y-102785000D02*
X173685000Y-108035000D01*
D37*
%TO.N,GND*%
X134400000Y-115840000D02*
X134375000Y-115865000D01*
X115951000Y-96786000D02*
X115951000Y-95504000D01*
X119679000Y-103005000D02*
X117943000Y-103005000D01*
X120110000Y-86130000D02*
X118009800Y-86130000D01*
X117279000Y-100015000D02*
X117279000Y-101415000D01*
X130157000Y-116143000D02*
X129500000Y-116800000D01*
X130683000Y-116143000D02*
X131055000Y-116515000D01*
X132325000Y-118375000D02*
X132325000Y-117815000D01*
X116279000Y-114628000D02*
X116332000Y-114681000D01*
X154755000Y-88295000D02*
X153650000Y-89400000D01*
X154940000Y-88295000D02*
X154755000Y-88295000D01*
X151505000Y-85695000D02*
X150800000Y-86400000D01*
X116279000Y-113165000D02*
X116279000Y-114628000D01*
X130683000Y-116143000D02*
X130157000Y-116143000D01*
X131900000Y-118800000D02*
X131890000Y-118810000D01*
X134400000Y-114900000D02*
X134400000Y-115840000D01*
X131900000Y-118800000D02*
X132325000Y-118375000D01*
X131055000Y-116515000D02*
X132325000Y-116515000D01*
X118009800Y-86130000D02*
X118008400Y-86131400D01*
X117602000Y-96786000D02*
X117602000Y-95504000D01*
X117279000Y-101415000D02*
X117221000Y-101473000D01*
X117943000Y-103005000D02*
X117914000Y-103034000D01*
X152400000Y-85695000D02*
X151505000Y-85695000D01*
X131890000Y-118810000D02*
X130683000Y-118810000D01*
%TO.N,VCC*%
X153002000Y-75217000D02*
X153002000Y-76520000D01*
D38*
X140208000Y-77978000D02*
X138430000Y-76200000D01*
D37*
X156083000Y-73533000D02*
X154686000Y-73533000D01*
X154686000Y-73533000D02*
X153002000Y-75217000D01*
D38*
X153002000Y-76520000D02*
X152415500Y-76520000D01*
X152019000Y-79756000D02*
X152593000Y-80330000D01*
X152019000Y-76916500D02*
X152019000Y-77978000D01*
X152415500Y-76520000D02*
X152019000Y-76916500D01*
X152019000Y-77978000D02*
X140208000Y-77978000D01*
X152593000Y-80330000D02*
X153002000Y-80330000D01*
D37*
%TO.N,/OLED1*%
X151450000Y-86995000D02*
X152400000Y-86995000D01*
X151130000Y-87315000D02*
X151450000Y-86995000D01*
X151130000Y-92710000D02*
X151130000Y-87315000D01*
%TO.N,/OLED2*%
X156045000Y-86995000D02*
X154940000Y-86995000D01*
X153670000Y-92710000D02*
X156400000Y-89980000D01*
X156400000Y-89980000D02*
X156400000Y-87350000D01*
X156400000Y-87350000D02*
X156045000Y-86995000D01*
%TO.N,/BME_CS*%
X134375000Y-116515000D02*
X135345000Y-116515000D01*
X135345000Y-116515000D02*
X136410000Y-115450000D01*
X136410000Y-115450000D02*
X136410000Y-115316000D01*
%TO.N,/DAT2*%
X125984000Y-103632000D02*
X125984000Y-99568000D01*
X128517000Y-99314000D02*
X129540000Y-98291000D01*
X119879000Y-108505000D02*
X121111000Y-108505000D01*
X121111000Y-108505000D02*
X125984000Y-103632000D01*
X125984000Y-99568000D02*
X126238000Y-99314000D01*
X126238000Y-99314000D02*
X128517000Y-99314000D01*
%TO.N,/DAT1*%
X119692000Y-100618000D02*
X119879000Y-100805000D01*
X119692000Y-98328000D02*
X119692000Y-100618000D01*
D38*
%TO.N,Net-(J1-Pin_1)*%
X149733000Y-83947000D02*
X155956000Y-83947000D01*
X155956000Y-83947000D02*
X160909000Y-88900000D01*
D36*
X148320000Y-81336000D02*
X148320000Y-82534000D01*
D38*
X167767000Y-87884000D02*
X167767000Y-83693000D01*
X148320000Y-82534000D02*
X149733000Y-83947000D01*
X160909000Y-88900000D02*
X166751000Y-88900000D01*
X167767000Y-83693000D02*
X165354000Y-81280000D01*
X166751000Y-88900000D02*
X167767000Y-87884000D01*
%TO.N,Net-(J1-Pin_2)*%
X158557000Y-82230000D02*
X158115000Y-81788000D01*
X146320000Y-80086000D02*
X147539000Y-78867000D01*
X158115000Y-80775500D02*
X157669500Y-80330000D01*
X146320000Y-81336000D02*
X146320000Y-80086000D01*
X152555000Y-78867000D02*
X153002000Y-78420000D01*
X158115000Y-81788000D02*
X158115000Y-80775500D01*
X147539000Y-78867000D02*
X152555000Y-78867000D01*
X159228000Y-82230000D02*
X158557000Y-82230000D01*
X157669500Y-80330000D02*
X155608000Y-80330000D01*
D37*
%TO.N,/SDA*%
X126492000Y-95758000D02*
X130302000Y-95758000D01*
X133985000Y-112903000D02*
X133477000Y-113411000D01*
X136410000Y-116840000D02*
X135636000Y-116840000D01*
X125984000Y-95250000D02*
X126492000Y-95758000D01*
X135509000Y-112903000D02*
X135509000Y-100950500D01*
X137968633Y-120500000D02*
X158750000Y-99718633D01*
X135636000Y-116840000D02*
X135311000Y-117165000D01*
X135509000Y-112903000D02*
X133985000Y-112903000D01*
X136200000Y-120500000D02*
X137968633Y-120500000D01*
X133477000Y-113411000D02*
X133477000Y-117777000D01*
X120110000Y-88130000D02*
X121420000Y-88130000D01*
X158750000Y-99718633D02*
X158750000Y-92710000D01*
X135311000Y-117165000D02*
X134375000Y-117165000D01*
X133477000Y-117777000D02*
X136200000Y-120500000D01*
X121420000Y-88130000D02*
X123190000Y-86360000D01*
X134375000Y-117165000D02*
X133477000Y-117165000D01*
X135509000Y-100950500D02*
X133999500Y-99441000D01*
D39*
%TO.N,/SCL*%
X156210000Y-101490000D02*
X156210000Y-92710000D01*
D37*
X134375000Y-117815000D02*
X134924000Y-118364000D01*
X136400000Y-118364000D02*
X137200000Y-119164000D01*
X139319000Y-113030000D02*
X141994500Y-115705500D01*
X121500000Y-89130000D02*
X122960000Y-89130000D01*
X137200000Y-119164000D02*
X137750000Y-119164000D01*
X138536000Y-119164000D02*
X141994500Y-115705500D01*
X134634767Y-98185767D02*
X139319000Y-102870000D01*
X120110000Y-89130000D02*
X121500000Y-89130000D01*
X137750000Y-119164000D02*
X138536000Y-119164000D01*
X139319000Y-102870000D02*
X139319000Y-113030000D01*
X122960000Y-89130000D02*
X123190000Y-88900000D01*
X137750000Y-119164000D02*
X137236500Y-119164000D01*
X141994500Y-115705500D02*
X156210000Y-101490000D01*
X126756503Y-94879503D02*
X131318000Y-94879503D01*
X134924000Y-118364000D02*
X136400000Y-118364000D01*
X125984000Y-94107000D02*
X126756503Y-94879503D01*
D38*
%TO.N,Net-(SW1-A)*%
X165354000Y-84280000D02*
X162766000Y-84280000D01*
X155636000Y-82230000D02*
X156591000Y-83185000D01*
X160843000Y-78420000D02*
X159228000Y-78420000D01*
X155608000Y-82230000D02*
X155636000Y-82230000D01*
X165052000Y-84582000D02*
X165354000Y-84280000D01*
X157669500Y-76520000D02*
X155608000Y-76520000D01*
X162766000Y-84280000D02*
X161671000Y-83185000D01*
X158115000Y-77978000D02*
X158115000Y-76965500D01*
X161671000Y-79248000D02*
X160843000Y-78420000D01*
X156591000Y-83185000D02*
X161671000Y-83185000D01*
X161671000Y-83185000D02*
X161671000Y-79248000D01*
X158557000Y-78420000D02*
X158115000Y-77978000D01*
X158115000Y-76965500D02*
X157669500Y-76520000D01*
X159228000Y-78420000D02*
X158557000Y-78420000D01*
D37*
%TO.N,/CD*%
X130315000Y-107733000D02*
X130311000Y-107737000D01*
X130429000Y-107315000D02*
X130429000Y-101615000D01*
X130483200Y-101560800D02*
X130429000Y-101615000D01*
X123190000Y-81280000D02*
X123190000Y-81407000D01*
X132588000Y-98313000D02*
X132588000Y-99314000D01*
X130444000Y-101600000D02*
X130429000Y-101615000D01*
X132573000Y-98298000D02*
X132588000Y-98313000D01*
X123190000Y-81407000D02*
X132588000Y-90805000D01*
X132588000Y-99314000D02*
X130429000Y-101473000D01*
X131191000Y-98291000D02*
X132566000Y-98291000D01*
X132566000Y-98291000D02*
X132573000Y-98298000D01*
X130429000Y-101473000D02*
X130429000Y-101615000D01*
X132588000Y-90805000D02*
X132588000Y-98283000D01*
X132588000Y-98283000D02*
X132573000Y-98298000D01*
X130487000Y-101557000D02*
X130429000Y-101615000D01*
%TO.N,/MISO*%
X121343000Y-98291000D02*
X122098000Y-97536000D01*
X132080000Y-86360000D02*
X138430000Y-86360000D01*
X130683000Y-87757000D02*
X132080000Y-86360000D01*
X121343000Y-101441000D02*
X120879000Y-101905000D01*
X121343000Y-98328000D02*
X121343000Y-101441000D01*
X122098000Y-97536000D02*
X124206000Y-97536000D01*
X129603500Y-88836500D02*
X129602793Y-88836500D01*
X120879000Y-101905000D02*
X119879000Y-101905000D01*
X124206000Y-94233293D02*
X124206000Y-96131500D01*
X129602793Y-88836500D02*
X124206000Y-94233293D01*
%TO.N,/SCK*%
X123112250Y-98291000D02*
X123063000Y-98291000D01*
X120403264Y-104105000D02*
X119879000Y-104105000D01*
X125222000Y-93782979D02*
X127437979Y-91567000D01*
X133350000Y-91567000D02*
X136017000Y-88900000D01*
X127437979Y-91567000D02*
X131684500Y-91567000D01*
X123063000Y-98291000D02*
X123063000Y-101445264D01*
X123952000Y-99060000D02*
X123881250Y-99060000D01*
X125222000Y-96131500D02*
X125222000Y-93782979D01*
X123063000Y-101445264D02*
X120403264Y-104105000D01*
X123881250Y-99060000D02*
X123112250Y-98291000D01*
X136017000Y-88900000D02*
X138430000Y-88900000D01*
%TO.N,/MOSI*%
X131734764Y-97536000D02*
X132080000Y-97190764D01*
X124841000Y-98298000D02*
X125603000Y-97536000D01*
X127134000Y-97536000D02*
X127889000Y-98291000D01*
X132080000Y-93345000D02*
X131699000Y-92964000D01*
X124460000Y-99471239D02*
X124841000Y-99090239D01*
X125603000Y-97536000D02*
X127134000Y-97536000D01*
X124460000Y-102724000D02*
X124460000Y-99471239D01*
X120879000Y-106305000D02*
X124460000Y-102724000D01*
X128644000Y-97536000D02*
X131734764Y-97536000D01*
X119879000Y-106305000D02*
X120879000Y-106305000D01*
X124841000Y-99090239D02*
X124841000Y-98298000D01*
X136525000Y-89789000D02*
X133350000Y-92964000D01*
X132080000Y-97190764D02*
X132080000Y-93345000D01*
X127889000Y-98291000D02*
X128644000Y-97536000D01*
%TO.N,/CS_SD*%
X121279000Y-107405000D02*
X120279000Y-107405000D01*
X125222000Y-103462000D02*
X121279000Y-107405000D01*
X125222000Y-100965000D02*
X125222000Y-99307000D01*
X125222000Y-99307000D02*
X126238000Y-98291000D01*
X125222000Y-100965000D02*
X125222000Y-103462000D01*
X123190000Y-83820000D02*
X124587000Y-85217000D01*
X124587000Y-85217000D02*
X124587000Y-93218000D01*
X124587000Y-93218000D02*
X122174000Y-95631000D01*
%TO.N,/SW2*%
X170485000Y-79925000D02*
X170485000Y-85175000D01*
X169841000Y-79925000D02*
X167767000Y-77851000D01*
X167767000Y-77851000D02*
X167767000Y-75311000D01*
X164719000Y-72263000D02*
X124327500Y-72263000D01*
X170485000Y-79925000D02*
X169841000Y-79925000D01*
X124327500Y-72263000D02*
X123190000Y-73400500D01*
X167767000Y-75311000D02*
X164719000Y-72263000D01*
%TO.N,/SW3*%
X120777000Y-73025000D02*
X120777000Y-78740000D01*
X168910000Y-77470000D02*
X168910000Y-75888314D01*
X169799000Y-78359000D02*
X168910000Y-77470000D01*
X122047000Y-71755000D02*
X120777000Y-73025000D01*
X168910000Y-75888314D02*
X164776686Y-71755000D01*
X171323000Y-78359000D02*
X169799000Y-78359000D01*
X164776686Y-71755000D02*
X122047000Y-71755000D01*
X172085000Y-86741000D02*
X172085000Y-79121000D01*
X170485000Y-87545000D02*
X171281000Y-87545000D01*
X170485000Y-87545000D02*
X170485000Y-92795000D01*
X171281000Y-87545000D02*
X172085000Y-86741000D01*
X172085000Y-79121000D02*
X171323000Y-78359000D01*
%TO.N,/SW4*%
X151638000Y-107950000D02*
X152908000Y-106680000D01*
X127508000Y-93980000D02*
X131318000Y-93980000D01*
X136906000Y-93980000D02*
X133350000Y-93980000D01*
X158970000Y-106680000D02*
X170485000Y-95165000D01*
X126726109Y-93198109D02*
X127508000Y-93980000D01*
X170485000Y-95165000D02*
X170485000Y-100415000D01*
X152908000Y-106680000D02*
X158970000Y-106680000D01*
X150234734Y-106546734D02*
X138430000Y-94742000D01*
%TO.N,/SW5*%
X139001500Y-93916500D02*
X150933234Y-105848234D01*
X152908000Y-107823000D02*
X153120000Y-108035000D01*
X153120000Y-108035000D02*
X170485000Y-108035000D01*
X170485000Y-102785000D02*
X170485000Y-108035000D01*
%TD*%
%TA.AperFunction,Conductor*%
%TO.N,Net-(J1-Pin_2)*%
G36*
X157411632Y-77168868D02*
G01*
X157415000Y-77177000D01*
X157415000Y-77771135D01*
X157413186Y-77777334D01*
X155961000Y-80046497D01*
X155961000Y-80602000D01*
X155957632Y-80610132D01*
X155949500Y-80613500D01*
X155258762Y-80613500D01*
X155251964Y-80611275D01*
X155250404Y-80610132D01*
X152653702Y-78706946D01*
X152649134Y-78699423D01*
X152649000Y-78697671D01*
X152649000Y-77198000D01*
X152652368Y-77189868D01*
X152660500Y-77186500D01*
X155961000Y-77186500D01*
X156589000Y-77165500D01*
X157403500Y-77165500D01*
X157411632Y-77168868D01*
G37*
%TD.AperFunction*%
%TD*%
%TA.AperFunction,Conductor*%
%TO.N,GND*%
G36*
X160524625Y-79022771D02*
G01*
X160528000Y-79030900D01*
X160528000Y-81649503D01*
X160524632Y-81657635D01*
X160516504Y-81661003D01*
X158826392Y-81661548D01*
X158818259Y-81658182D01*
X158814888Y-81650052D01*
X158814888Y-81650047D01*
X158815000Y-80634500D01*
X158815000Y-80025500D01*
X158814819Y-79032258D01*
X158818186Y-79024126D01*
X158826307Y-79020756D01*
X160516491Y-79019409D01*
X160524625Y-79022771D01*
G37*
%TD.AperFunction*%
%TD*%
%TA.AperFunction,Conductor*%
%TO.N,GND*%
G36*
X160524625Y-75212771D02*
G01*
X160528000Y-75220900D01*
X160528000Y-77839503D01*
X160524632Y-77847635D01*
X160516504Y-77851003D01*
X158826392Y-77851548D01*
X158818259Y-77848182D01*
X158814888Y-77840052D01*
X158814888Y-77840047D01*
X158815000Y-76824500D01*
X158815000Y-76215500D01*
X158814819Y-75222258D01*
X158818186Y-75214126D01*
X158826307Y-75210756D01*
X160516491Y-75209409D01*
X160524625Y-75212771D01*
G37*
%TD.AperFunction*%
%TD*%
%TA.AperFunction,Conductor*%
%TO.N,Net-(SW1-A)*%
G36*
X157411632Y-80978868D02*
G01*
X157415000Y-80987000D01*
X157415000Y-81578200D01*
X157411632Y-81586332D01*
X157409692Y-81587891D01*
X155963831Y-82511691D01*
X155957639Y-82513500D01*
X152660500Y-82513500D01*
X152652368Y-82510132D01*
X152649000Y-82502000D01*
X152649000Y-81008000D01*
X152652368Y-80999868D01*
X152660500Y-80996500D01*
X155961000Y-80996500D01*
X156589000Y-80975500D01*
X157403500Y-80975500D01*
X157411632Y-80978868D01*
G37*
%TD.AperFunction*%
%TD*%
M02*
