%TF.GenerationSoftware,KiCad,Pcbnew,7.0.8*%
%TF.CreationDate,2023-11-01T10:58:09-04:00*%
%TF.ProjectId,destinationWeatherStation_r4-5,64657374-696e-4617-9469-6f6e57656174,4.5*%
%TF.SameCoordinates,Original*%
%TF.FileFunction,Copper,L2,Bot*%
%TF.FilePolarity,Positive*%
%FSLAX46Y46*%
G04 Gerber Fmt 4.6, Leading zero omitted, Abs format (unit mm)*
G04 Created by KiCad (PCBNEW 7.0.8) date 2023-11-01 10:58:09*
%MOMM*%
%LPD*%
G01*
G04 APERTURE LIST*
%TA.AperFunction,ComponentPad*%
%ADD10O,2.600000X1.350000*%
%TD*%
%TA.AperFunction,ComponentPad*%
%ADD11C,1.700000*%
%TD*%
%TA.AperFunction,ComponentPad*%
%ADD12C,2.000000*%
%TD*%
%TA.AperFunction,ComponentPad*%
%ADD13C,1.750000*%
%TD*%
%TA.AperFunction,ViaPad*%
%ADD14C,0.700000*%
%TD*%
%TA.AperFunction,ViaPad*%
%ADD15C,1.000000*%
%TD*%
%TA.AperFunction,Conductor*%
%ADD16C,0.200000*%
%TD*%
%TA.AperFunction,Conductor*%
%ADD17C,0.500000*%
%TD*%
G04 APERTURE END LIST*
D10*
%TO.P,SW1,*%
%TO.N,*%
X165354000Y-87080000D03*
X165354000Y-75480000D03*
D11*
%TO.P,SW1,1,A*%
%TO.N,Net-(SW1-A)*%
X165354000Y-84280000D03*
%TO.P,SW1,2,B*%
%TO.N,Net-(J1-Pin_1)*%
X165354000Y-81280000D03*
%TO.P,SW1,3,C*%
%TO.N,unconnected-(SW1-C-Pad3)*%
X165354000Y-78280000D03*
%TD*%
D12*
%TO.P,TP3,1,1*%
%TO.N,GND*%
X159639000Y-73660000D03*
%TD*%
D13*
%TO.P,U1,1,D0*%
%TO.N,/SW2*%
X123190000Y-76200000D03*
%TO.P,U1,2,D1*%
%TO.N,/SW3*%
X123190000Y-78740000D03*
%TO.P,U1,3,D2*%
%TO.N,/CD*%
X123190000Y-81280000D03*
%TO.P,U1,4,D3*%
%TO.N,/CS_SD*%
X123190000Y-83820000D03*
%TO.P,U1,5,SDA*%
%TO.N,/SDA*%
X123190000Y-86360000D03*
%TO.P,U1,6,SCL*%
%TO.N,/SCL*%
X123190000Y-88900000D03*
%TO.P,U1,7,D6*%
%TO.N,/SW4*%
X123190000Y-91440000D03*
%TO.P,U1,8,D7*%
%TO.N,/SW5*%
X138430000Y-91440000D03*
%TO.P,U1,9,SCK*%
%TO.N,/SCK*%
X138430000Y-88900000D03*
%TO.P,U1,10,MISO*%
%TO.N,/MISO*%
X138430000Y-86360000D03*
%TO.P,U1,11,MOSI*%
%TO.N,/MOSI*%
X138430000Y-83820000D03*
%TO.P,U1,12,3V3*%
%TO.N,+3V3*%
X138430000Y-81280000D03*
%TO.P,U1,13,GND*%
%TO.N,GND*%
X138430000Y-78740000D03*
%TO.P,U1,14,VIN*%
%TO.N,VCC*%
X138430000Y-76200000D03*
%TD*%
%TO.P,U3,1,GND*%
%TO.N,/OLED1*%
X151130000Y-92710000D03*
%TO.P,U3,2,VCC*%
%TO.N,/OLED2*%
X153670000Y-92710000D03*
%TO.P,U3,3,SCL*%
%TO.N,/SCL*%
X156210000Y-92710000D03*
%TO.P,U3,4,SDA*%
%TO.N,/SDA*%
X158750000Y-92710000D03*
%TD*%
D14*
%TO.N,+3V3*%
X139185734Y-117595734D03*
X134366000Y-119634000D03*
D15*
%TO.N,GND*%
X153650000Y-89400000D03*
D14*
X117602000Y-95504000D03*
X160147000Y-76581000D03*
D15*
X150800000Y-86400000D03*
D14*
X117914000Y-103034000D03*
X116332000Y-114681000D03*
X159258000Y-79375000D03*
X115951000Y-95504000D03*
D15*
X131900000Y-118800000D03*
D14*
X160147000Y-81280000D03*
X160147000Y-79375000D03*
X160147000Y-75565000D03*
X160147000Y-77470000D03*
X160147000Y-80391000D03*
D15*
X129500000Y-116800000D03*
D14*
X159258000Y-75565000D03*
X117221000Y-101473000D03*
D15*
X134400000Y-114900000D03*
X118008400Y-86131400D03*
D14*
X159258000Y-77470000D03*
X159258000Y-81280000D03*
%TO.N,VCC*%
X152019000Y-77978000D03*
X152019000Y-79756000D03*
%TO.N,/SDA*%
X130302000Y-95758000D03*
X125984000Y-95250000D03*
X133999500Y-99441000D03*
%TO.N,/SCL*%
X134634767Y-98185767D03*
X125984000Y-94107000D03*
X131318000Y-94879503D03*
%TO.N,/MISO*%
X124206000Y-97536000D03*
X124206000Y-96131500D03*
X129603500Y-88836500D03*
X130683000Y-87757000D03*
%TO.N,/SCK*%
X133350000Y-91567000D03*
X125222000Y-96131500D03*
X131684500Y-91567000D03*
X123952000Y-99060000D03*
%TO.N,/MOSI*%
X133350000Y-92964000D03*
X131699000Y-92964000D03*
X136525000Y-89789000D03*
%TO.N,/CS_SD*%
X122174000Y-95631000D03*
X125222000Y-100965000D03*
%TO.N,/SW2*%
X123190000Y-73400500D03*
%TO.N,/SW3*%
X120777000Y-78740000D03*
%TO.N,/SW4*%
X150234734Y-106546734D03*
X151638000Y-107950000D03*
X136906000Y-93980000D03*
X131318000Y-93980000D03*
X133350000Y-93980000D03*
X126726109Y-93198109D03*
X138430000Y-94742000D03*
%TO.N,/SW5*%
X139001500Y-93916500D03*
X152908000Y-107823000D03*
X150933234Y-105848234D03*
%TD*%
D16*
%TO.N,/SDA*%
X121615000Y-92532000D02*
X124333000Y-95250000D01*
X121615000Y-87935000D02*
X121615000Y-92532000D01*
X123190000Y-86360000D02*
X121615000Y-87935000D01*
X124333000Y-95250000D02*
X125984000Y-95250000D01*
%TO.N,+3V3*%
X137147468Y-119634000D02*
X134366000Y-119634000D01*
X139185734Y-117595734D02*
X137147468Y-119634000D01*
D17*
%TO.N,VCC*%
X152019000Y-79756000D02*
X152019000Y-77978000D01*
D16*
%TO.N,/SDA*%
X133985000Y-99441000D02*
X133999500Y-99441000D01*
X130302000Y-95758000D02*
X133985000Y-99441000D01*
%TO.N,/SCL*%
X122015000Y-90075000D02*
X122015000Y-91925007D01*
X131318000Y-94879503D02*
X134624264Y-98185767D01*
X123190000Y-88900000D02*
X122015000Y-90075000D01*
X124196993Y-94107000D02*
X125984000Y-94107000D01*
X134624264Y-98185767D02*
X134634767Y-98185767D01*
X122015000Y-91925007D02*
X124196993Y-94107000D01*
%TO.N,/MISO*%
X129603500Y-88836500D02*
X130683000Y-87757000D01*
X124206000Y-97536000D02*
X124206000Y-96131500D01*
%TO.N,/SCK*%
X123952000Y-99060000D02*
X125222000Y-97790000D01*
X131684500Y-91567000D02*
X133350000Y-91567000D01*
X125222000Y-97790000D02*
X125222000Y-96131500D01*
%TO.N,/MOSI*%
X136525000Y-85725000D02*
X138430000Y-83820000D01*
X131699000Y-92964000D02*
X133350000Y-92964000D01*
X136525000Y-89789000D02*
X136525000Y-85725000D01*
%TO.N,/CS_SD*%
X122174000Y-98201239D02*
X122174000Y-95631000D01*
X124937761Y-100965000D02*
X122174000Y-98201239D01*
X125222000Y-100965000D02*
X124937761Y-100965000D01*
%TO.N,/SW2*%
X123190000Y-73400500D02*
X123190000Y-76200000D01*
%TO.N,/SW3*%
X120777000Y-78740000D02*
X123190000Y-78740000D01*
%TO.N,/SW4*%
X151638000Y-107950000D02*
X150234734Y-106546734D01*
X137668000Y-93980000D02*
X136906000Y-93980000D01*
X124968000Y-91440000D02*
X126726109Y-93198109D01*
X133350000Y-93980000D02*
X131318000Y-93980000D01*
X138430000Y-94742000D02*
X137668000Y-93980000D01*
X123190000Y-91440000D02*
X124968000Y-91440000D01*
%TO.N,/SW5*%
X138430000Y-93345000D02*
X138430000Y-91440000D01*
X152908000Y-107823000D02*
X150933234Y-105848234D01*
X139001500Y-93916500D02*
X138430000Y-93345000D01*
%TD*%
%TA.AperFunction,Conductor*%
%TO.N,GND*%
G36*
X172720140Y-71501506D02*
G01*
X173055779Y-71517995D01*
X173056315Y-71518048D01*
X173251658Y-71547024D01*
X173388595Y-71567338D01*
X173389140Y-71567446D01*
X173714977Y-71649063D01*
X173715500Y-71649222D01*
X174031771Y-71762386D01*
X174032274Y-71762594D01*
X174184107Y-71834406D01*
X174335929Y-71906213D01*
X174336427Y-71906479D01*
X174430721Y-71962996D01*
X174624535Y-72079163D01*
X174624997Y-72079472D01*
X174894791Y-72279567D01*
X174895225Y-72279922D01*
X174999210Y-72374168D01*
X175144106Y-72505494D01*
X175144505Y-72505893D01*
X175370074Y-72754771D01*
X175370432Y-72755208D01*
X175570527Y-73025002D01*
X175570841Y-73025472D01*
X175743520Y-73313572D01*
X175743786Y-73314070D01*
X175887400Y-73617714D01*
X175887616Y-73618236D01*
X176000776Y-73934498D01*
X176000939Y-73935035D01*
X176006259Y-73956274D01*
X176082551Y-74260851D01*
X176082661Y-74261404D01*
X176131950Y-74593674D01*
X176132005Y-74594236D01*
X176148493Y-74929856D01*
X176148500Y-74930138D01*
X176148500Y-118109861D01*
X176148493Y-118110143D01*
X176132005Y-118445763D01*
X176131950Y-118446325D01*
X176082661Y-118778595D01*
X176082551Y-118779148D01*
X176000940Y-119104961D01*
X176000776Y-119105501D01*
X175887616Y-119421763D01*
X175887400Y-119422285D01*
X175743786Y-119725929D01*
X175743520Y-119726427D01*
X175570841Y-120014527D01*
X175570527Y-120014997D01*
X175370432Y-120284791D01*
X175370074Y-120285228D01*
X175144505Y-120534106D01*
X175144106Y-120534505D01*
X174895228Y-120760074D01*
X174894791Y-120760432D01*
X174624997Y-120960527D01*
X174624527Y-120960841D01*
X174336427Y-121133520D01*
X174335929Y-121133786D01*
X174032285Y-121277400D01*
X174031763Y-121277616D01*
X173715501Y-121390776D01*
X173714961Y-121390940D01*
X173389148Y-121472551D01*
X173388595Y-121472661D01*
X173056325Y-121521950D01*
X173055763Y-121522005D01*
X172811789Y-121533990D01*
X172720140Y-121538493D01*
X172719862Y-121538500D01*
X116840138Y-121538500D01*
X116839859Y-121538493D01*
X116727982Y-121532997D01*
X116504236Y-121522005D01*
X116503674Y-121521950D01*
X116171404Y-121472661D01*
X116170851Y-121472551D01*
X115845038Y-121390940D01*
X115844498Y-121390776D01*
X115528236Y-121277616D01*
X115527714Y-121277400D01*
X115224070Y-121133786D01*
X115223572Y-121133520D01*
X114935472Y-120960841D01*
X114935002Y-120960527D01*
X114665208Y-120760432D01*
X114664771Y-120760074D01*
X114415893Y-120534505D01*
X114415494Y-120534106D01*
X114189925Y-120285228D01*
X114189567Y-120284791D01*
X113989472Y-120014997D01*
X113989163Y-120014535D01*
X113863479Y-119804843D01*
X113816479Y-119726427D01*
X113816213Y-119725929D01*
X113698590Y-119477238D01*
X113672594Y-119422274D01*
X113672383Y-119421763D01*
X113639964Y-119331159D01*
X113559222Y-119105500D01*
X113559063Y-119104977D01*
X113477446Y-118779140D01*
X113477338Y-118778595D01*
X113428049Y-118446325D01*
X113427995Y-118445779D01*
X113411506Y-118110141D01*
X113411503Y-118110000D01*
X115183393Y-118110000D01*
X115203789Y-118369155D01*
X115264471Y-118621915D01*
X115264472Y-118621918D01*
X115264473Y-118621920D01*
X115363952Y-118862084D01*
X115499777Y-119083729D01*
X115668602Y-119281398D01*
X115866271Y-119450223D01*
X116087916Y-119586048D01*
X116328080Y-119685527D01*
X116328083Y-119685527D01*
X116328084Y-119685528D01*
X116580845Y-119746210D01*
X116580847Y-119746210D01*
X116580850Y-119746211D01*
X116775111Y-119761500D01*
X116775115Y-119761500D01*
X116904885Y-119761500D01*
X116904889Y-119761500D01*
X117099150Y-119746211D01*
X117099153Y-119746210D01*
X117099155Y-119746210D01*
X117225535Y-119715869D01*
X117351920Y-119685527D01*
X117476317Y-119634000D01*
X133760318Y-119634000D01*
X133780956Y-119790762D01*
X133841464Y-119936841D01*
X133937718Y-120062282D01*
X134063159Y-120158536D01*
X134209238Y-120219044D01*
X134366000Y-120239682D01*
X134522762Y-120219044D01*
X134668841Y-120158536D01*
X134794282Y-120062282D01*
X134850514Y-119988999D01*
X134858137Y-119984598D01*
X134859638Y-119984500D01*
X137109925Y-119984500D01*
X137112285Y-119984745D01*
X137132783Y-119989043D01*
X137167262Y-119984745D01*
X137168875Y-119984544D01*
X137169587Y-119984500D01*
X137176506Y-119984500D01*
X137176508Y-119984500D01*
X137198008Y-119980912D01*
X137248861Y-119974573D01*
X137254024Y-119972048D01*
X137257178Y-119971037D01*
X137262849Y-119970092D01*
X137307912Y-119945704D01*
X137353952Y-119923198D01*
X137358015Y-119919133D01*
X137360672Y-119917152D01*
X137365726Y-119914418D01*
X137400425Y-119876724D01*
X139084520Y-118192628D01*
X139092651Y-118189261D01*
X139094149Y-118189358D01*
X139185734Y-118201416D01*
X139342496Y-118180778D01*
X139488575Y-118120270D01*
X139501959Y-118110000D01*
X171063393Y-118110000D01*
X171083789Y-118369155D01*
X171144471Y-118621915D01*
X171144472Y-118621918D01*
X171144473Y-118621920D01*
X171243952Y-118862084D01*
X171379777Y-119083729D01*
X171548602Y-119281398D01*
X171746271Y-119450223D01*
X171967916Y-119586048D01*
X172208080Y-119685527D01*
X172208083Y-119685527D01*
X172208084Y-119685528D01*
X172460845Y-119746210D01*
X172460847Y-119746210D01*
X172460850Y-119746211D01*
X172655111Y-119761500D01*
X172655115Y-119761500D01*
X172784885Y-119761500D01*
X172784889Y-119761500D01*
X172979150Y-119746211D01*
X172979153Y-119746210D01*
X172979155Y-119746210D01*
X173105535Y-119715869D01*
X173231920Y-119685527D01*
X173472084Y-119586048D01*
X173693729Y-119450223D01*
X173891398Y-119281398D01*
X174060223Y-119083729D01*
X174196048Y-118862084D01*
X174295527Y-118621920D01*
X174356211Y-118369150D01*
X174376607Y-118110000D01*
X174356211Y-117850850D01*
X174332598Y-117752495D01*
X174295528Y-117598084D01*
X174295527Y-117598081D01*
X174196048Y-117357917D01*
X174196048Y-117357916D01*
X174060223Y-117136271D01*
X173891398Y-116938602D01*
X173693729Y-116769777D01*
X173472084Y-116633952D01*
X173231920Y-116534473D01*
X173231918Y-116534472D01*
X173231915Y-116534471D01*
X172979154Y-116473789D01*
X172979156Y-116473789D01*
X172862593Y-116464615D01*
X172784889Y-116458500D01*
X172655111Y-116458500D01*
X172577406Y-116464615D01*
X172460844Y-116473789D01*
X172208084Y-116534471D01*
X172208081Y-116534472D01*
X171967917Y-116633951D01*
X171746274Y-116769775D01*
X171746271Y-116769777D01*
X171548602Y-116938602D01*
X171379777Y-117136271D01*
X171379775Y-117136273D01*
X171379775Y-117136274D01*
X171243951Y-117357917D01*
X171144472Y-117598081D01*
X171144471Y-117598084D01*
X171083789Y-117850844D01*
X171063393Y-118110000D01*
X139501959Y-118110000D01*
X139614016Y-118024016D01*
X139710270Y-117898575D01*
X139770778Y-117752496D01*
X139791416Y-117595734D01*
X139770778Y-117438972D01*
X139710270Y-117292893D01*
X139614016Y-117167452D01*
X139488575Y-117071198D01*
X139342496Y-117010690D01*
X139185734Y-116990052D01*
X139028972Y-117010690D01*
X138882893Y-117071198D01*
X138757452Y-117167452D01*
X138661198Y-117292893D01*
X138600690Y-117438972D01*
X138580052Y-117595734D01*
X138592107Y-117687314D01*
X138589828Y-117695816D01*
X138588837Y-117696947D01*
X137005654Y-119280132D01*
X136997522Y-119283500D01*
X134859638Y-119283500D01*
X134851506Y-119280132D01*
X134850514Y-119279001D01*
X134841498Y-119267251D01*
X134794282Y-119205718D01*
X134668841Y-119109464D01*
X134522762Y-119048956D01*
X134366000Y-119028318D01*
X134209238Y-119048956D01*
X134063159Y-119109464D01*
X133937718Y-119205718D01*
X133841464Y-119331159D01*
X133780956Y-119477238D01*
X133760318Y-119634000D01*
X117476317Y-119634000D01*
X117592084Y-119586048D01*
X117813729Y-119450223D01*
X118011398Y-119281398D01*
X118180223Y-119083729D01*
X118316048Y-118862084D01*
X118415527Y-118621920D01*
X118476211Y-118369150D01*
X118496607Y-118110000D01*
X118476211Y-117850850D01*
X118452598Y-117752495D01*
X118415528Y-117598084D01*
X118415527Y-117598081D01*
X118316048Y-117357917D01*
X118316048Y-117357916D01*
X118180223Y-117136271D01*
X118011398Y-116938602D01*
X117813729Y-116769777D01*
X117592084Y-116633952D01*
X117351920Y-116534473D01*
X117351918Y-116534472D01*
X117351915Y-116534471D01*
X117099154Y-116473789D01*
X117099156Y-116473789D01*
X116982593Y-116464615D01*
X116904889Y-116458500D01*
X116775111Y-116458500D01*
X116697406Y-116464615D01*
X116580844Y-116473789D01*
X116328084Y-116534471D01*
X116328081Y-116534472D01*
X116087917Y-116633951D01*
X115866274Y-116769775D01*
X115866271Y-116769777D01*
X115668602Y-116938602D01*
X115499777Y-117136271D01*
X115499775Y-117136273D01*
X115499775Y-117136274D01*
X115363951Y-117357917D01*
X115264472Y-117598081D01*
X115264471Y-117598084D01*
X115203789Y-117850844D01*
X115183393Y-118110000D01*
X113411503Y-118110000D01*
X113411500Y-118109861D01*
X113411500Y-106546734D01*
X149629052Y-106546734D01*
X149649690Y-106703496D01*
X149710198Y-106849575D01*
X149806452Y-106975016D01*
X149931893Y-107071270D01*
X150077972Y-107131778D01*
X150234734Y-107152416D01*
X150326314Y-107140359D01*
X150334816Y-107142637D01*
X150335947Y-107143629D01*
X151041104Y-107848785D01*
X151044472Y-107856917D01*
X151044374Y-107858418D01*
X151032318Y-107949999D01*
X151032318Y-107950000D01*
X151052956Y-108106762D01*
X151113464Y-108252841D01*
X151209718Y-108378282D01*
X151335159Y-108474536D01*
X151481238Y-108535044D01*
X151638000Y-108555682D01*
X151794762Y-108535044D01*
X151940841Y-108474536D01*
X152066282Y-108378282D01*
X152162536Y-108252841D01*
X152223044Y-108106762D01*
X152243682Y-107950000D01*
X152223044Y-107793238D01*
X152162536Y-107647159D01*
X152066282Y-107521718D01*
X151940841Y-107425464D01*
X151794762Y-107364956D01*
X151638000Y-107344318D01*
X151637999Y-107344318D01*
X151546418Y-107356373D01*
X151537916Y-107354094D01*
X151536785Y-107353103D01*
X150831629Y-106647947D01*
X150828261Y-106639815D01*
X150828359Y-106638314D01*
X150840416Y-106546734D01*
X150828299Y-106454701D01*
X150830577Y-106446200D01*
X150838200Y-106441799D01*
X150841200Y-106441799D01*
X150933234Y-106453916D01*
X151024814Y-106441859D01*
X151033316Y-106444137D01*
X151034447Y-106445129D01*
X152311104Y-107721785D01*
X152314472Y-107729917D01*
X152314374Y-107731418D01*
X152306236Y-107793238D01*
X152302318Y-107823000D01*
X152322956Y-107979762D01*
X152383464Y-108125841D01*
X152479718Y-108251282D01*
X152605159Y-108347536D01*
X152751238Y-108408044D01*
X152908000Y-108428682D01*
X153064762Y-108408044D01*
X153210841Y-108347536D01*
X153336282Y-108251282D01*
X153432536Y-108125841D01*
X153493044Y-107979762D01*
X153513682Y-107823000D01*
X153493044Y-107666238D01*
X153432536Y-107520159D01*
X153336282Y-107394718D01*
X153210841Y-107298464D01*
X153064762Y-107237956D01*
X152908000Y-107217318D01*
X152907999Y-107217318D01*
X152816418Y-107229373D01*
X152807916Y-107227094D01*
X152806785Y-107226103D01*
X151530129Y-105949447D01*
X151526761Y-105941315D01*
X151526859Y-105939814D01*
X151538916Y-105848234D01*
X151518278Y-105691472D01*
X151457770Y-105545393D01*
X151361516Y-105419952D01*
X151236075Y-105323698D01*
X151089996Y-105263190D01*
X150933234Y-105242552D01*
X150776472Y-105263190D01*
X150630393Y-105323698D01*
X150504952Y-105419952D01*
X150408698Y-105545393D01*
X150348190Y-105691472D01*
X150327552Y-105848234D01*
X150339667Y-105940264D01*
X150337388Y-105948766D01*
X150329766Y-105953167D01*
X150326764Y-105953167D01*
X150234734Y-105941052D01*
X150077972Y-105961690D01*
X149931893Y-106022198D01*
X149806452Y-106118452D01*
X149710198Y-106243893D01*
X149649690Y-106389972D01*
X149629052Y-106546734D01*
X113411500Y-106546734D01*
X113411500Y-92517314D01*
X121259956Y-92517314D01*
X121264456Y-92553406D01*
X121264500Y-92554118D01*
X121264500Y-92561038D01*
X121268087Y-92582540D01*
X121274426Y-92633391D01*
X121276951Y-92638557D01*
X121277961Y-92641711D01*
X121278696Y-92646113D01*
X121278908Y-92647381D01*
X121303295Y-92692444D01*
X121325802Y-92738484D01*
X121325803Y-92738485D01*
X121329865Y-92742547D01*
X121331846Y-92745204D01*
X121334580Y-92750255D01*
X121334582Y-92750258D01*
X121355840Y-92769827D01*
X121372275Y-92784957D01*
X124058614Y-95471296D01*
X124060109Y-95473138D01*
X124071560Y-95490666D01*
X124071565Y-95490671D01*
X124078466Y-95496041D01*
X124100269Y-95513011D01*
X124100790Y-95513472D01*
X124105693Y-95518375D01*
X124106367Y-95518856D01*
X124111027Y-95526323D01*
X124109043Y-95534898D01*
X124101576Y-95539558D01*
X124101182Y-95539617D01*
X124049238Y-95546456D01*
X123903159Y-95606964D01*
X123777718Y-95703218D01*
X123681464Y-95828659D01*
X123620956Y-95974738D01*
X123600318Y-96131500D01*
X123620956Y-96288262D01*
X123681464Y-96434341D01*
X123777718Y-96559782D01*
X123851001Y-96616014D01*
X123855402Y-96623636D01*
X123855500Y-96625137D01*
X123855500Y-97042361D01*
X123852132Y-97050493D01*
X123851001Y-97051484D01*
X123777721Y-97107714D01*
X123777718Y-97107717D01*
X123681464Y-97233159D01*
X123620956Y-97379238D01*
X123600318Y-97536000D01*
X123620956Y-97692762D01*
X123681464Y-97838841D01*
X123777718Y-97964282D01*
X123903159Y-98060536D01*
X124049238Y-98121044D01*
X124206000Y-98141682D01*
X124362762Y-98121044D01*
X124364845Y-98120180D01*
X124373646Y-98120180D01*
X124379871Y-98126403D01*
X124379872Y-98135204D01*
X124377379Y-98138937D01*
X124053213Y-98463103D01*
X124045081Y-98466471D01*
X124043580Y-98466373D01*
X123952000Y-98454318D01*
X123795238Y-98474956D01*
X123649159Y-98535464D01*
X123523718Y-98631718D01*
X123427464Y-98757159D01*
X123374925Y-98883994D01*
X123368701Y-98890218D01*
X123359899Y-98890218D01*
X123356168Y-98887725D01*
X122527868Y-98059425D01*
X122524500Y-98051293D01*
X122524500Y-96124637D01*
X122527868Y-96116505D01*
X122528991Y-96115519D01*
X122602282Y-96059282D01*
X122698536Y-95933841D01*
X122759044Y-95787762D01*
X122779682Y-95631000D01*
X122759044Y-95474238D01*
X122698536Y-95328159D01*
X122602282Y-95202718D01*
X122476841Y-95106464D01*
X122330762Y-95045956D01*
X122174000Y-95025318D01*
X122017238Y-95045956D01*
X121871159Y-95106464D01*
X121745718Y-95202718D01*
X121649464Y-95328159D01*
X121588956Y-95474238D01*
X121568318Y-95631000D01*
X121588956Y-95787762D01*
X121649464Y-95933841D01*
X121745718Y-96059282D01*
X121819001Y-96115514D01*
X121823402Y-96123136D01*
X121823500Y-96124637D01*
X121823500Y-98163696D01*
X121823255Y-98166056D01*
X121818956Y-98186553D01*
X121823456Y-98222645D01*
X121823500Y-98223357D01*
X121823500Y-98230277D01*
X121827087Y-98251779D01*
X121833426Y-98302630D01*
X121835951Y-98307796D01*
X121836961Y-98310950D01*
X121837696Y-98315352D01*
X121837908Y-98316620D01*
X121862295Y-98361683D01*
X121884802Y-98407723D01*
X121884803Y-98407724D01*
X121888865Y-98411786D01*
X121890846Y-98414443D01*
X121893580Y-98419494D01*
X121893582Y-98419497D01*
X121931275Y-98454196D01*
X124662289Y-101185210D01*
X124664782Y-101188941D01*
X124697464Y-101267841D01*
X124793718Y-101393282D01*
X124919159Y-101489536D01*
X125065238Y-101550044D01*
X125222000Y-101570682D01*
X125378762Y-101550044D01*
X125524841Y-101489536D01*
X125650282Y-101393282D01*
X125746536Y-101267841D01*
X125807044Y-101121762D01*
X125827682Y-100965000D01*
X125807044Y-100808238D01*
X125746536Y-100662159D01*
X125650282Y-100536718D01*
X125524841Y-100440464D01*
X125378762Y-100379956D01*
X125222000Y-100359318D01*
X125065238Y-100379956D01*
X124919009Y-100440526D01*
X124910207Y-100440526D01*
X124906476Y-100438033D01*
X124124273Y-99655830D01*
X124120905Y-99647698D01*
X124124273Y-99639566D01*
X124128001Y-99637074D01*
X124254841Y-99584536D01*
X124380282Y-99488282D01*
X124476536Y-99362841D01*
X124537044Y-99216762D01*
X124557682Y-99060000D01*
X124545625Y-98968417D01*
X124547903Y-98959916D01*
X124548887Y-98958793D01*
X125443299Y-98064381D01*
X125445129Y-98062895D01*
X125462669Y-98051437D01*
X125485011Y-98022729D01*
X125485465Y-98022215D01*
X125490375Y-98017307D01*
X125503041Y-97999565D01*
X125534517Y-97959126D01*
X125536383Y-97953686D01*
X125537901Y-97950740D01*
X125541236Y-97946070D01*
X125541235Y-97946070D01*
X125541239Y-97946066D01*
X125555856Y-97896966D01*
X125572500Y-97848488D01*
X125572500Y-97842740D01*
X125572978Y-97839458D01*
X125573162Y-97838840D01*
X125574617Y-97833954D01*
X125572500Y-97782769D01*
X125572500Y-96625137D01*
X125575868Y-96617005D01*
X125576991Y-96616019D01*
X125650282Y-96559782D01*
X125746536Y-96434341D01*
X125807044Y-96288262D01*
X125827682Y-96131500D01*
X125807044Y-95974738D01*
X125746536Y-95828659D01*
X125742243Y-95823065D01*
X125739965Y-95814565D01*
X125744366Y-95806942D01*
X125752867Y-95804663D01*
X125755767Y-95805439D01*
X125827238Y-95835044D01*
X125984000Y-95855682D01*
X126140762Y-95835044D01*
X126286841Y-95774536D01*
X126308391Y-95758000D01*
X129696318Y-95758000D01*
X129716956Y-95914762D01*
X129777464Y-96060841D01*
X129873718Y-96186282D01*
X129999159Y-96282536D01*
X130145238Y-96343044D01*
X130302000Y-96363682D01*
X130393580Y-96351625D01*
X130402082Y-96353903D01*
X130403213Y-96354895D01*
X133400917Y-99352599D01*
X133404285Y-99360731D01*
X133404187Y-99362232D01*
X133393818Y-99440999D01*
X133393818Y-99441000D01*
X133414456Y-99597762D01*
X133474964Y-99743841D01*
X133571218Y-99869282D01*
X133696659Y-99965536D01*
X133842738Y-100026044D01*
X133999500Y-100046682D01*
X134156262Y-100026044D01*
X134302341Y-99965536D01*
X134427782Y-99869282D01*
X134524036Y-99743841D01*
X134584544Y-99597762D01*
X134605182Y-99441000D01*
X134584544Y-99284238D01*
X134524036Y-99138159D01*
X134427782Y-99012718D01*
X134302341Y-98916464D01*
X134156262Y-98855956D01*
X133999500Y-98835318D01*
X133999499Y-98835318D01*
X133895105Y-98849060D01*
X133886603Y-98846781D01*
X133885472Y-98845790D01*
X130898895Y-95859213D01*
X130895527Y-95851081D01*
X130895625Y-95849580D01*
X130897539Y-95835043D01*
X130907682Y-95758000D01*
X130887044Y-95601238D01*
X130826536Y-95455159D01*
X130730282Y-95329718D01*
X130604841Y-95233464D01*
X130458762Y-95172956D01*
X130302000Y-95152318D01*
X130145238Y-95172956D01*
X129999159Y-95233464D01*
X129873718Y-95329718D01*
X129777464Y-95455159D01*
X129716956Y-95601238D01*
X129696318Y-95758000D01*
X126308391Y-95758000D01*
X126412282Y-95678282D01*
X126508536Y-95552841D01*
X126569044Y-95406762D01*
X126589682Y-95250000D01*
X126569044Y-95093238D01*
X126508536Y-94947159D01*
X126456622Y-94879503D01*
X130712318Y-94879503D01*
X130732956Y-95036265D01*
X130793464Y-95182344D01*
X130889718Y-95307785D01*
X131015159Y-95404039D01*
X131161238Y-95464547D01*
X131318000Y-95485185D01*
X131409580Y-95473128D01*
X131418082Y-95475406D01*
X131419213Y-95476398D01*
X134036649Y-98093834D01*
X134040017Y-98101966D01*
X134039919Y-98103467D01*
X134031680Y-98166056D01*
X134029085Y-98185767D01*
X134049723Y-98342529D01*
X134110231Y-98488608D01*
X134206485Y-98614049D01*
X134331926Y-98710303D01*
X134478005Y-98770811D01*
X134634767Y-98791449D01*
X134791529Y-98770811D01*
X134937608Y-98710303D01*
X135063049Y-98614049D01*
X135159303Y-98488608D01*
X135219811Y-98342529D01*
X135240449Y-98185767D01*
X135219811Y-98029005D01*
X135159303Y-97882926D01*
X135063049Y-97757485D01*
X134937608Y-97661231D01*
X134791529Y-97600723D01*
X134634767Y-97580085D01*
X134634766Y-97580085D01*
X134533904Y-97593362D01*
X134525402Y-97591083D01*
X134524271Y-97590092D01*
X131914895Y-94980716D01*
X131911527Y-94972584D01*
X131911625Y-94971083D01*
X131923682Y-94879503D01*
X131903044Y-94722741D01*
X131842536Y-94576662D01*
X131746282Y-94451221D01*
X131730191Y-94438874D01*
X131725791Y-94431252D01*
X131728069Y-94422750D01*
X131730193Y-94420627D01*
X131746279Y-94408284D01*
X131746282Y-94408282D01*
X131802514Y-94334999D01*
X131810137Y-94330598D01*
X131811638Y-94330500D01*
X132856362Y-94330500D01*
X132864494Y-94333868D01*
X132865486Y-94334999D01*
X132921718Y-94408282D01*
X133047159Y-94504536D01*
X133193238Y-94565044D01*
X133350000Y-94585682D01*
X133506762Y-94565044D01*
X133652841Y-94504536D01*
X133778282Y-94408282D01*
X133874536Y-94282841D01*
X133935044Y-94136762D01*
X133955682Y-93980000D01*
X136300318Y-93980000D01*
X136320956Y-94136762D01*
X136381464Y-94282841D01*
X136477718Y-94408282D01*
X136603159Y-94504536D01*
X136749238Y-94565044D01*
X136906000Y-94585682D01*
X137062762Y-94565044D01*
X137208841Y-94504536D01*
X137334282Y-94408282D01*
X137390514Y-94334999D01*
X137398137Y-94330598D01*
X137399638Y-94330500D01*
X137518054Y-94330500D01*
X137526186Y-94333868D01*
X137833104Y-94640785D01*
X137836472Y-94648917D01*
X137836374Y-94650418D01*
X137826853Y-94722741D01*
X137824318Y-94742000D01*
X137844956Y-94898762D01*
X137905464Y-95044841D01*
X138001718Y-95170282D01*
X138127159Y-95266536D01*
X138273238Y-95327044D01*
X138430000Y-95347682D01*
X138586762Y-95327044D01*
X138732841Y-95266536D01*
X138858282Y-95170282D01*
X138954536Y-95044841D01*
X139015044Y-94898762D01*
X139035682Y-94742000D01*
X139015044Y-94585238D01*
X138995310Y-94537596D01*
X138995310Y-94528796D01*
X139001534Y-94522572D01*
X139004428Y-94521796D01*
X139158262Y-94501544D01*
X139304341Y-94441036D01*
X139429782Y-94344782D01*
X139526036Y-94219341D01*
X139586544Y-94073262D01*
X139607182Y-93916500D01*
X139586544Y-93759738D01*
X139526036Y-93613659D01*
X139429782Y-93488218D01*
X139304341Y-93391964D01*
X139158262Y-93331456D01*
X139001500Y-93310818D01*
X139001499Y-93310818D01*
X138909918Y-93322873D01*
X138901416Y-93320594D01*
X138900285Y-93319603D01*
X138783868Y-93203186D01*
X138780500Y-93195054D01*
X138780500Y-92710000D01*
X149999678Y-92710000D01*
X150018923Y-92917693D01*
X150076005Y-93118316D01*
X150076009Y-93118326D01*
X150168981Y-93305039D01*
X150168983Y-93305042D01*
X150294674Y-93471484D01*
X150294677Y-93471487D01*
X150294682Y-93471493D01*
X150411715Y-93578182D01*
X150448832Y-93612019D01*
X150617617Y-93716526D01*
X150626172Y-93721823D01*
X150820673Y-93797173D01*
X150820679Y-93797174D01*
X150820685Y-93797176D01*
X150939022Y-93819296D01*
X151025707Y-93835500D01*
X151234293Y-93835500D01*
X151342435Y-93815285D01*
X151439314Y-93797176D01*
X151439317Y-93797174D01*
X151439327Y-93797173D01*
X151633828Y-93721823D01*
X151727056Y-93664098D01*
X151811167Y-93612019D01*
X151811168Y-93612017D01*
X151811171Y-93612016D01*
X151965318Y-93471493D01*
X151973710Y-93460381D01*
X152091016Y-93305042D01*
X152091018Y-93305039D01*
X152091017Y-93305039D01*
X152091019Y-93305038D01*
X152183994Y-93118319D01*
X152241076Y-92917696D01*
X152260322Y-92710000D01*
X152539678Y-92710000D01*
X152558923Y-92917693D01*
X152616005Y-93118316D01*
X152616009Y-93118326D01*
X152708981Y-93305039D01*
X152708983Y-93305042D01*
X152834674Y-93471484D01*
X152834677Y-93471487D01*
X152834682Y-93471493D01*
X152951715Y-93578182D01*
X152988832Y-93612019D01*
X153157617Y-93716526D01*
X153166172Y-93721823D01*
X153360673Y-93797173D01*
X153360679Y-93797174D01*
X153360685Y-93797176D01*
X153479022Y-93819296D01*
X153565707Y-93835500D01*
X153774293Y-93835500D01*
X153882435Y-93815285D01*
X153979314Y-93797176D01*
X153979317Y-93797174D01*
X153979327Y-93797173D01*
X154173828Y-93721823D01*
X154267056Y-93664098D01*
X154351167Y-93612019D01*
X154351168Y-93612017D01*
X154351171Y-93612016D01*
X154505318Y-93471493D01*
X154513710Y-93460381D01*
X154631016Y-93305042D01*
X154631018Y-93305039D01*
X154631017Y-93305039D01*
X154631019Y-93305038D01*
X154723994Y-93118319D01*
X154781076Y-92917696D01*
X154800322Y-92710000D01*
X155079678Y-92710000D01*
X155098923Y-92917693D01*
X155156005Y-93118316D01*
X155156009Y-93118326D01*
X155248981Y-93305039D01*
X155248983Y-93305042D01*
X155374674Y-93471484D01*
X155374677Y-93471487D01*
X155374682Y-93471493D01*
X155491715Y-93578182D01*
X155528832Y-93612019D01*
X155697617Y-93716526D01*
X155706172Y-93721823D01*
X155900673Y-93797173D01*
X155900679Y-93797174D01*
X155900685Y-93797176D01*
X156019022Y-93819296D01*
X156105707Y-93835500D01*
X156314293Y-93835500D01*
X156422435Y-93815285D01*
X156519314Y-93797176D01*
X156519317Y-93797174D01*
X156519327Y-93797173D01*
X156713828Y-93721823D01*
X156807056Y-93664098D01*
X156891167Y-93612019D01*
X156891168Y-93612017D01*
X156891171Y-93612016D01*
X157045318Y-93471493D01*
X157053710Y-93460381D01*
X157171016Y-93305042D01*
X157171018Y-93305039D01*
X157171017Y-93305039D01*
X157171019Y-93305038D01*
X157263994Y-93118319D01*
X157321076Y-92917696D01*
X157340322Y-92710000D01*
X157619678Y-92710000D01*
X157638923Y-92917693D01*
X157696005Y-93118316D01*
X157696009Y-93118326D01*
X157788981Y-93305039D01*
X157788983Y-93305042D01*
X157914674Y-93471484D01*
X157914677Y-93471487D01*
X157914682Y-93471493D01*
X158031715Y-93578182D01*
X158068832Y-93612019D01*
X158237617Y-93716526D01*
X158246172Y-93721823D01*
X158440673Y-93797173D01*
X158440679Y-93797174D01*
X158440685Y-93797176D01*
X158559022Y-93819296D01*
X158645707Y-93835500D01*
X158854293Y-93835500D01*
X158962435Y-93815285D01*
X159059314Y-93797176D01*
X159059317Y-93797174D01*
X159059327Y-93797173D01*
X159253828Y-93721823D01*
X159347056Y-93664098D01*
X159431167Y-93612019D01*
X159431168Y-93612017D01*
X159431171Y-93612016D01*
X159585318Y-93471493D01*
X159593710Y-93460381D01*
X159711016Y-93305042D01*
X159711018Y-93305039D01*
X159711017Y-93305039D01*
X159711019Y-93305038D01*
X159803994Y-93118319D01*
X159861076Y-92917696D01*
X159880322Y-92710000D01*
X159861076Y-92502304D01*
X159803994Y-92301681D01*
X159711019Y-92114962D01*
X159711018Y-92114961D01*
X159711018Y-92114960D01*
X159711016Y-92114957D01*
X159585325Y-91948515D01*
X159585321Y-91948512D01*
X159585318Y-91948507D01*
X159431171Y-91807984D01*
X159431172Y-91807984D01*
X159431167Y-91807980D01*
X159253837Y-91698182D01*
X159253832Y-91698179D01*
X159253828Y-91698177D01*
X159253823Y-91698175D01*
X159253817Y-91698172D01*
X159104773Y-91640432D01*
X159059327Y-91622827D01*
X159059324Y-91622826D01*
X159059314Y-91622823D01*
X158854295Y-91584500D01*
X158854293Y-91584500D01*
X158645707Y-91584500D01*
X158645704Y-91584500D01*
X158440685Y-91622823D01*
X158440670Y-91622828D01*
X158246182Y-91698172D01*
X158246162Y-91698182D01*
X158068832Y-91807980D01*
X157969941Y-91898131D01*
X157914682Y-91948507D01*
X157914680Y-91948509D01*
X157914674Y-91948515D01*
X157788983Y-92114957D01*
X157788981Y-92114960D01*
X157696009Y-92301673D01*
X157696005Y-92301683D01*
X157638923Y-92502306D01*
X157619678Y-92710000D01*
X157340322Y-92710000D01*
X157321076Y-92502304D01*
X157263994Y-92301681D01*
X157171019Y-92114962D01*
X157171018Y-92114961D01*
X157171018Y-92114960D01*
X157171016Y-92114957D01*
X157045325Y-91948515D01*
X157045321Y-91948512D01*
X157045318Y-91948507D01*
X156891171Y-91807984D01*
X156891172Y-91807984D01*
X156891167Y-91807980D01*
X156713837Y-91698182D01*
X156713832Y-91698179D01*
X156713828Y-91698177D01*
X156713823Y-91698175D01*
X156713817Y-91698172D01*
X156564773Y-91640432D01*
X156519327Y-91622827D01*
X156519324Y-91622826D01*
X156519314Y-91622823D01*
X156314295Y-91584500D01*
X156314293Y-91584500D01*
X156105707Y-91584500D01*
X156105704Y-91584500D01*
X155900685Y-91622823D01*
X155900670Y-91622828D01*
X155706182Y-91698172D01*
X155706162Y-91698182D01*
X155528832Y-91807980D01*
X155429941Y-91898131D01*
X155374682Y-91948507D01*
X155374680Y-91948509D01*
X155374674Y-91948515D01*
X155248983Y-92114957D01*
X155248981Y-92114960D01*
X155156009Y-92301673D01*
X155156005Y-92301683D01*
X155098923Y-92502306D01*
X155079678Y-92710000D01*
X154800322Y-92710000D01*
X154781076Y-92502304D01*
X154723994Y-92301681D01*
X154631019Y-92114962D01*
X154631018Y-92114961D01*
X154631018Y-92114960D01*
X154631016Y-92114957D01*
X154505325Y-91948515D01*
X154505321Y-91948512D01*
X154505318Y-91948507D01*
X154351171Y-91807984D01*
X154351172Y-91807984D01*
X154351167Y-91807980D01*
X154173837Y-91698182D01*
X154173832Y-91698179D01*
X154173828Y-91698177D01*
X154173823Y-91698175D01*
X154173817Y-91698172D01*
X154024773Y-91640432D01*
X153979327Y-91622827D01*
X153979324Y-91622826D01*
X153979314Y-91622823D01*
X153774295Y-91584500D01*
X153774293Y-91584500D01*
X153565707Y-91584500D01*
X153565704Y-91584500D01*
X153360685Y-91622823D01*
X153360670Y-91622828D01*
X153166182Y-91698172D01*
X153166162Y-91698182D01*
X152988832Y-91807980D01*
X152889941Y-91898131D01*
X152834682Y-91948507D01*
X152834680Y-91948509D01*
X152834674Y-91948515D01*
X152708983Y-92114957D01*
X152708981Y-92114960D01*
X152616009Y-92301673D01*
X152616005Y-92301683D01*
X152558923Y-92502306D01*
X152539678Y-92710000D01*
X152260322Y-92710000D01*
X152241076Y-92502304D01*
X152183994Y-92301681D01*
X152091019Y-92114962D01*
X152091018Y-92114961D01*
X152091018Y-92114960D01*
X152091016Y-92114957D01*
X151965325Y-91948515D01*
X151965321Y-91948512D01*
X151965318Y-91948507D01*
X151811171Y-91807984D01*
X151811172Y-91807984D01*
X151811167Y-91807980D01*
X151633837Y-91698182D01*
X151633832Y-91698179D01*
X151633828Y-91698177D01*
X151633823Y-91698175D01*
X151633817Y-91698172D01*
X151484773Y-91640432D01*
X151439327Y-91622827D01*
X151439324Y-91622826D01*
X151439314Y-91622823D01*
X151234295Y-91584500D01*
X151234293Y-91584500D01*
X151025707Y-91584500D01*
X151025704Y-91584500D01*
X150820685Y-91622823D01*
X150820670Y-91622828D01*
X150626182Y-91698172D01*
X150626162Y-91698182D01*
X150448832Y-91807980D01*
X150349941Y-91898131D01*
X150294682Y-91948507D01*
X150294680Y-91948509D01*
X150294674Y-91948515D01*
X150168983Y-92114957D01*
X150168981Y-92114960D01*
X150076009Y-92301673D01*
X150076005Y-92301683D01*
X150018923Y-92502306D01*
X149999678Y-92710000D01*
X138780500Y-92710000D01*
X138780500Y-92519099D01*
X138783868Y-92510967D01*
X138787846Y-92508376D01*
X138803520Y-92502304D01*
X138933828Y-92451823D01*
X139038814Y-92386818D01*
X139111167Y-92342019D01*
X139111168Y-92342017D01*
X139111171Y-92342016D01*
X139265318Y-92201493D01*
X139348355Y-92091535D01*
X139391016Y-92035042D01*
X139391018Y-92035039D01*
X139391017Y-92035039D01*
X139391019Y-92035038D01*
X139483994Y-91848319D01*
X139541076Y-91647696D01*
X139560322Y-91440000D01*
X139541076Y-91232304D01*
X139483994Y-91031681D01*
X139391019Y-90844962D01*
X139391018Y-90844961D01*
X139391018Y-90844960D01*
X139391016Y-90844957D01*
X139265325Y-90678515D01*
X139265321Y-90678512D01*
X139265318Y-90678507D01*
X139111171Y-90537984D01*
X139111172Y-90537984D01*
X139111167Y-90537980D01*
X138933837Y-90428182D01*
X138933832Y-90428179D01*
X138933828Y-90428177D01*
X138933823Y-90428175D01*
X138933817Y-90428172D01*
X138784773Y-90370432D01*
X138739327Y-90352827D01*
X138739324Y-90352826D01*
X138739314Y-90352823D01*
X138534295Y-90314500D01*
X138534293Y-90314500D01*
X138325707Y-90314500D01*
X138325704Y-90314500D01*
X138120685Y-90352823D01*
X138120670Y-90352828D01*
X137926182Y-90428172D01*
X137926162Y-90428182D01*
X137748832Y-90537980D01*
X137649941Y-90628131D01*
X137594682Y-90678507D01*
X137594680Y-90678509D01*
X137594674Y-90678515D01*
X137468983Y-90844957D01*
X137468981Y-90844960D01*
X137376009Y-91031673D01*
X137376005Y-91031683D01*
X137318923Y-91232306D01*
X137299678Y-91440000D01*
X137318923Y-91647693D01*
X137364529Y-91807980D01*
X137376006Y-91848319D01*
X137376007Y-91848321D01*
X137376009Y-91848326D01*
X137468981Y-92035039D01*
X137468983Y-92035042D01*
X137594674Y-92201484D01*
X137594677Y-92201487D01*
X137594682Y-92201493D01*
X137704586Y-92301683D01*
X137748832Y-92342019D01*
X137926162Y-92451817D01*
X137926172Y-92451823D01*
X137926180Y-92451826D01*
X137926182Y-92451827D01*
X138072154Y-92508376D01*
X138078520Y-92514454D01*
X138079500Y-92519099D01*
X138079500Y-93307457D01*
X138079255Y-93309817D01*
X138074956Y-93330314D01*
X138079456Y-93366406D01*
X138079500Y-93367118D01*
X138079500Y-93374040D01*
X138080818Y-93381941D01*
X138083087Y-93395540D01*
X138089426Y-93446391D01*
X138091951Y-93451557D01*
X138092961Y-93454711D01*
X138093087Y-93455464D01*
X138093908Y-93460381D01*
X138118295Y-93505444D01*
X138140802Y-93551484D01*
X138140803Y-93551485D01*
X138144865Y-93555547D01*
X138146846Y-93558204D01*
X138149580Y-93563255D01*
X138149582Y-93563258D01*
X138187275Y-93597957D01*
X138404603Y-93815285D01*
X138407971Y-93823417D01*
X138407873Y-93824918D01*
X138395818Y-93916499D01*
X138416456Y-94073261D01*
X138436188Y-94120901D01*
X138436188Y-94129703D01*
X138429964Y-94135927D01*
X138427064Y-94136704D01*
X138338418Y-94148374D01*
X138329916Y-94146096D01*
X138328785Y-94145104D01*
X137942384Y-93758702D01*
X137940893Y-93756866D01*
X137929437Y-93739331D01*
X137929434Y-93739329D01*
X137929434Y-93739328D01*
X137919069Y-93731261D01*
X137900730Y-93716988D01*
X137900208Y-93716526D01*
X137895307Y-93711625D01*
X137895303Y-93711622D01*
X137895302Y-93711621D01*
X137877561Y-93698955D01*
X137837127Y-93667483D01*
X137837124Y-93667481D01*
X137831688Y-93665615D01*
X137828744Y-93664100D01*
X137824066Y-93660760D01*
X137824065Y-93660759D01*
X137774954Y-93646138D01*
X137726488Y-93629500D01*
X137720741Y-93629500D01*
X137717460Y-93629022D01*
X137711952Y-93627382D01*
X137660769Y-93629500D01*
X137399638Y-93629500D01*
X137391506Y-93626132D01*
X137390514Y-93625001D01*
X137354588Y-93578182D01*
X137334282Y-93551718D01*
X137208841Y-93455464D01*
X137062762Y-93394956D01*
X136906000Y-93374318D01*
X136749238Y-93394956D01*
X136603159Y-93455464D01*
X136477718Y-93551718D01*
X136381464Y-93677159D01*
X136320956Y-93823238D01*
X136300318Y-93980000D01*
X133955682Y-93980000D01*
X133935044Y-93823238D01*
X133874536Y-93677159D01*
X133778282Y-93551718D01*
X133686280Y-93481123D01*
X133681880Y-93473501D01*
X133684158Y-93464999D01*
X133686278Y-93462878D01*
X133778282Y-93392282D01*
X133874536Y-93266841D01*
X133935044Y-93120762D01*
X133955682Y-92964000D01*
X133935044Y-92807238D01*
X133874536Y-92661159D01*
X133778282Y-92535718D01*
X133652841Y-92439464D01*
X133506762Y-92378956D01*
X133350000Y-92358318D01*
X133193238Y-92378956D01*
X133047159Y-92439464D01*
X132921718Y-92535718D01*
X132865486Y-92609001D01*
X132857863Y-92613402D01*
X132856362Y-92613500D01*
X132192638Y-92613500D01*
X132184506Y-92610132D01*
X132183514Y-92609001D01*
X132170796Y-92592427D01*
X132127282Y-92535718D01*
X132001841Y-92439464D01*
X131855762Y-92378956D01*
X131699000Y-92358318D01*
X131542238Y-92378956D01*
X131396159Y-92439464D01*
X131270718Y-92535718D01*
X131174464Y-92661159D01*
X131113956Y-92807238D01*
X131093318Y-92964000D01*
X131113956Y-93120762D01*
X131174464Y-93266841D01*
X131223169Y-93330315D01*
X131250410Y-93365816D01*
X131252688Y-93374318D01*
X131248287Y-93381941D01*
X131242787Y-93384219D01*
X131161236Y-93394956D01*
X131037063Y-93446391D01*
X131015159Y-93455464D01*
X130889718Y-93551718D01*
X130793464Y-93677159D01*
X130732956Y-93823238D01*
X130712318Y-93980000D01*
X130732956Y-94136762D01*
X130793464Y-94282841D01*
X130889718Y-94408282D01*
X130905807Y-94420627D01*
X130910208Y-94428250D01*
X130907930Y-94436752D01*
X130905807Y-94438874D01*
X130889721Y-94451217D01*
X130889718Y-94451220D01*
X130802379Y-94565044D01*
X130793464Y-94576662D01*
X130732956Y-94722741D01*
X130712318Y-94879503D01*
X126456622Y-94879503D01*
X126412282Y-94821718D01*
X126286841Y-94725464D01*
X126199109Y-94689124D01*
X126192886Y-94682901D01*
X126192886Y-94674099D01*
X126199109Y-94667875D01*
X126286841Y-94631536D01*
X126412282Y-94535282D01*
X126508536Y-94409841D01*
X126569044Y-94263762D01*
X126589682Y-94107000D01*
X126569044Y-93950238D01*
X126508536Y-93804159D01*
X126482700Y-93770489D01*
X126480423Y-93761988D01*
X126484824Y-93754365D01*
X126493326Y-93752087D01*
X126496221Y-93752862D01*
X126569345Y-93783152D01*
X126569344Y-93783152D01*
X126569347Y-93783153D01*
X126726109Y-93803791D01*
X126882871Y-93783153D01*
X127028950Y-93722645D01*
X127154391Y-93626391D01*
X127250645Y-93500950D01*
X127311153Y-93354871D01*
X127331791Y-93198109D01*
X127311153Y-93041347D01*
X127250645Y-92895268D01*
X127154391Y-92769827D01*
X127028950Y-92673573D01*
X126882871Y-92613065D01*
X126726109Y-92592427D01*
X126726108Y-92592427D01*
X126634527Y-92604483D01*
X126626025Y-92602204D01*
X126624894Y-92601213D01*
X125590682Y-91567000D01*
X131078818Y-91567000D01*
X131099456Y-91723762D01*
X131159964Y-91869841D01*
X131256218Y-91995282D01*
X131381659Y-92091536D01*
X131527738Y-92152044D01*
X131684500Y-92172682D01*
X131841262Y-92152044D01*
X131987341Y-92091536D01*
X132112782Y-91995282D01*
X132169014Y-91921999D01*
X132176637Y-91917598D01*
X132178138Y-91917500D01*
X132856362Y-91917500D01*
X132864494Y-91920868D01*
X132865486Y-91921999D01*
X132921718Y-91995282D01*
X133047159Y-92091536D01*
X133193238Y-92152044D01*
X133350000Y-92172682D01*
X133506762Y-92152044D01*
X133652841Y-92091536D01*
X133778282Y-91995282D01*
X133874536Y-91869841D01*
X133935044Y-91723762D01*
X133955682Y-91567000D01*
X133935044Y-91410238D01*
X133874536Y-91264159D01*
X133778282Y-91138718D01*
X133652841Y-91042464D01*
X133506762Y-90981956D01*
X133350000Y-90961318D01*
X133193238Y-90981956D01*
X133047159Y-91042464D01*
X132921718Y-91138718D01*
X132865486Y-91212001D01*
X132857863Y-91216402D01*
X132856362Y-91216500D01*
X132178138Y-91216500D01*
X132170006Y-91213132D01*
X132169014Y-91212001D01*
X132159291Y-91199330D01*
X132112782Y-91138718D01*
X131987341Y-91042464D01*
X131841262Y-90981956D01*
X131684500Y-90961318D01*
X131527738Y-90981956D01*
X131381659Y-91042464D01*
X131256218Y-91138718D01*
X131159964Y-91264159D01*
X131099456Y-91410238D01*
X131078818Y-91567000D01*
X125590682Y-91567000D01*
X125242384Y-91218702D01*
X125240893Y-91216866D01*
X125229437Y-91199331D01*
X125229434Y-91199329D01*
X125229434Y-91199328D01*
X125219069Y-91191261D01*
X125200730Y-91176988D01*
X125200208Y-91176526D01*
X125195307Y-91171625D01*
X125195303Y-91171622D01*
X125195302Y-91171621D01*
X125177561Y-91158955D01*
X125137127Y-91127483D01*
X125137124Y-91127481D01*
X125131688Y-91125615D01*
X125128744Y-91124100D01*
X125124066Y-91120760D01*
X125124065Y-91120759D01*
X125074954Y-91106138D01*
X125026488Y-91089500D01*
X125020741Y-91089500D01*
X125017460Y-91089022D01*
X125011952Y-91087382D01*
X124960769Y-91089500D01*
X124269129Y-91089500D01*
X124260997Y-91086132D01*
X124258068Y-91081147D01*
X124247062Y-91042464D01*
X124243994Y-91031681D01*
X124151019Y-90844962D01*
X124151018Y-90844961D01*
X124151018Y-90844960D01*
X124151016Y-90844957D01*
X124025325Y-90678515D01*
X124025321Y-90678512D01*
X124025318Y-90678507D01*
X123871171Y-90537984D01*
X123871172Y-90537984D01*
X123871167Y-90537980D01*
X123693837Y-90428182D01*
X123693832Y-90428179D01*
X123693828Y-90428177D01*
X123693823Y-90428175D01*
X123693817Y-90428172D01*
X123544773Y-90370432D01*
X123499327Y-90352827D01*
X123499324Y-90352826D01*
X123499314Y-90352823D01*
X123294295Y-90314500D01*
X123294293Y-90314500D01*
X123085707Y-90314500D01*
X123085704Y-90314500D01*
X122880685Y-90352823D01*
X122880670Y-90352828D01*
X122686182Y-90428172D01*
X122686162Y-90428182D01*
X122508830Y-90537982D01*
X122508828Y-90537983D01*
X122384747Y-90651099D01*
X122376469Y-90654088D01*
X122368501Y-90650347D01*
X122365500Y-90642600D01*
X122365500Y-90224945D01*
X122368867Y-90216814D01*
X122672127Y-89913553D01*
X122680258Y-89910186D01*
X122685628Y-89911719D01*
X122685696Y-89911585D01*
X122686163Y-89911817D01*
X122686172Y-89911823D01*
X122880673Y-89987173D01*
X122880679Y-89987174D01*
X122880685Y-89987176D01*
X123010417Y-90011426D01*
X123085707Y-90025500D01*
X123294293Y-90025500D01*
X123401623Y-90005436D01*
X123499314Y-89987176D01*
X123499317Y-89987174D01*
X123499327Y-89987173D01*
X123693828Y-89911823D01*
X123773558Y-89862455D01*
X123871167Y-89802019D01*
X123871168Y-89802017D01*
X123871171Y-89802016D01*
X123885449Y-89789000D01*
X135919318Y-89789000D01*
X135939956Y-89945762D01*
X136000464Y-90091841D01*
X136096718Y-90217282D01*
X136222159Y-90313536D01*
X136368238Y-90374044D01*
X136525000Y-90394682D01*
X136681762Y-90374044D01*
X136827841Y-90313536D01*
X136953282Y-90217282D01*
X137049536Y-90091841D01*
X137110044Y-89945762D01*
X137130682Y-89789000D01*
X137110044Y-89632238D01*
X137049536Y-89486159D01*
X136953282Y-89360718D01*
X136953281Y-89360717D01*
X136953278Y-89360714D01*
X136879999Y-89304484D01*
X136875598Y-89296862D01*
X136875500Y-89295361D01*
X136875500Y-88900000D01*
X137299678Y-88900000D01*
X137318923Y-89107693D01*
X137318924Y-89107696D01*
X137376006Y-89308319D01*
X137376007Y-89308321D01*
X137376009Y-89308326D01*
X137468981Y-89495039D01*
X137468983Y-89495042D01*
X137594674Y-89661484D01*
X137594677Y-89661487D01*
X137594682Y-89661493D01*
X137728106Y-89783125D01*
X137748832Y-89802019D01*
X137926004Y-89911719D01*
X137926172Y-89911823D01*
X138120673Y-89987173D01*
X138120679Y-89987174D01*
X138120685Y-89987176D01*
X138250417Y-90011426D01*
X138325707Y-90025500D01*
X138534293Y-90025500D01*
X138641623Y-90005436D01*
X138739314Y-89987176D01*
X138739317Y-89987174D01*
X138739327Y-89987173D01*
X138933828Y-89911823D01*
X139013558Y-89862455D01*
X139111167Y-89802019D01*
X139111168Y-89802017D01*
X139111171Y-89802016D01*
X139265318Y-89661493D01*
X139287411Y-89632238D01*
X139391016Y-89495042D01*
X139391018Y-89495039D01*
X139391017Y-89495039D01*
X139391019Y-89495038D01*
X139483994Y-89308319D01*
X139541076Y-89107696D01*
X139560322Y-88900000D01*
X139541076Y-88692304D01*
X139483994Y-88491681D01*
X139391019Y-88304962D01*
X139391018Y-88304961D01*
X139391018Y-88304960D01*
X139391016Y-88304957D01*
X139265325Y-88138515D01*
X139265321Y-88138512D01*
X139265318Y-88138507D01*
X139111171Y-87997984D01*
X139111172Y-87997984D01*
X139111167Y-87997980D01*
X138933837Y-87888182D01*
X138933832Y-87888179D01*
X138933828Y-87888177D01*
X138933823Y-87888175D01*
X138933817Y-87888172D01*
X138778609Y-87828045D01*
X138739327Y-87812827D01*
X138739324Y-87812826D01*
X138739314Y-87812823D01*
X138534295Y-87774500D01*
X138534293Y-87774500D01*
X138325707Y-87774500D01*
X138325704Y-87774500D01*
X138120685Y-87812823D01*
X138120670Y-87812828D01*
X137926182Y-87888172D01*
X137926162Y-87888182D01*
X137748832Y-87997980D01*
X137662357Y-88076813D01*
X137594682Y-88138507D01*
X137594680Y-88138509D01*
X137594674Y-88138515D01*
X137468983Y-88304957D01*
X137468981Y-88304960D01*
X137376009Y-88491673D01*
X137376005Y-88491683D01*
X137318923Y-88692306D01*
X137299678Y-88900000D01*
X136875500Y-88900000D01*
X136875500Y-86360000D01*
X137299678Y-86360000D01*
X137318923Y-86567693D01*
X137318924Y-86567696D01*
X137376006Y-86768319D01*
X137376007Y-86768321D01*
X137376009Y-86768326D01*
X137468981Y-86955039D01*
X137468983Y-86955042D01*
X137594674Y-87121484D01*
X137594677Y-87121487D01*
X137594682Y-87121493D01*
X137716412Y-87232464D01*
X137748832Y-87262019D01*
X137926004Y-87371719D01*
X137926172Y-87371823D01*
X138120673Y-87447173D01*
X138120679Y-87447174D01*
X138120685Y-87447176D01*
X138250417Y-87471426D01*
X138325707Y-87485500D01*
X138534293Y-87485500D01*
X138641623Y-87465436D01*
X138739314Y-87447176D01*
X138739317Y-87447174D01*
X138739327Y-87447173D01*
X138933828Y-87371823D01*
X139013558Y-87322455D01*
X139111167Y-87262019D01*
X139111168Y-87262017D01*
X139111171Y-87262016D01*
X139204129Y-87177274D01*
X163803500Y-87177274D01*
X163835691Y-87328718D01*
X163843950Y-87367574D01*
X163896454Y-87485500D01*
X163923078Y-87545299D01*
X164037431Y-87702692D01*
X164037434Y-87702694D01*
X164037435Y-87702696D01*
X164182009Y-87832871D01*
X164182010Y-87832872D01*
X164322117Y-87913762D01*
X164350492Y-87930144D01*
X164535518Y-87990262D01*
X164680496Y-88005500D01*
X164680504Y-88005500D01*
X166027496Y-88005500D01*
X166027504Y-88005500D01*
X166172482Y-87990262D01*
X166357508Y-87930144D01*
X166482097Y-87858213D01*
X166525989Y-87832872D01*
X166525990Y-87832871D01*
X166525989Y-87832871D01*
X166525992Y-87832870D01*
X166670569Y-87702692D01*
X166784922Y-87545299D01*
X166864051Y-87367571D01*
X166904500Y-87177274D01*
X166904500Y-86982726D01*
X166864051Y-86792429D01*
X166784922Y-86614701D01*
X166670569Y-86457308D01*
X166670565Y-86457304D01*
X166670564Y-86457303D01*
X166525990Y-86327128D01*
X166525989Y-86327127D01*
X166357509Y-86229856D01*
X166264995Y-86199797D01*
X166172482Y-86169738D01*
X166172480Y-86169737D01*
X166172478Y-86169737D01*
X166049758Y-86156839D01*
X166027504Y-86154500D01*
X164680496Y-86154500D01*
X164535521Y-86169737D01*
X164535518Y-86169738D01*
X164350490Y-86229856D01*
X164182010Y-86327127D01*
X164182009Y-86327128D01*
X164037435Y-86457303D01*
X164037432Y-86457307D01*
X164037431Y-86457308D01*
X163957229Y-86567696D01*
X163923076Y-86614704D01*
X163843950Y-86792425D01*
X163843949Y-86792428D01*
X163843949Y-86792429D01*
X163803500Y-86982726D01*
X163803500Y-87177274D01*
X139204129Y-87177274D01*
X139265318Y-87121493D01*
X139391019Y-86955038D01*
X139483994Y-86768319D01*
X139541076Y-86567696D01*
X139560322Y-86360000D01*
X139541076Y-86152304D01*
X139483994Y-85951681D01*
X139391019Y-85764962D01*
X139391018Y-85764961D01*
X139391018Y-85764960D01*
X139391016Y-85764957D01*
X139265325Y-85598515D01*
X139265321Y-85598512D01*
X139265318Y-85598507D01*
X139111171Y-85457984D01*
X139111172Y-85457984D01*
X139111167Y-85457980D01*
X138933837Y-85348182D01*
X138933832Y-85348179D01*
X138933828Y-85348177D01*
X138933823Y-85348175D01*
X138933817Y-85348172D01*
X138784773Y-85290432D01*
X138739327Y-85272827D01*
X138739324Y-85272826D01*
X138739314Y-85272823D01*
X138534295Y-85234500D01*
X138534293Y-85234500D01*
X138325707Y-85234500D01*
X138325704Y-85234500D01*
X138120685Y-85272823D01*
X138120670Y-85272828D01*
X137926182Y-85348172D01*
X137926162Y-85348182D01*
X137748832Y-85457980D01*
X137649941Y-85548131D01*
X137594682Y-85598507D01*
X137594680Y-85598509D01*
X137594674Y-85598515D01*
X137468983Y-85764957D01*
X137468981Y-85764960D01*
X137376009Y-85951673D01*
X137376005Y-85951683D01*
X137318923Y-86152306D01*
X137299678Y-86360000D01*
X136875500Y-86360000D01*
X136875500Y-85874945D01*
X136878868Y-85866813D01*
X137365182Y-85380499D01*
X137912127Y-84833553D01*
X137920258Y-84830186D01*
X137925628Y-84831719D01*
X137925696Y-84831585D01*
X137926163Y-84831817D01*
X137926172Y-84831823D01*
X138120673Y-84907173D01*
X138120679Y-84907174D01*
X138120685Y-84907176D01*
X138250417Y-84931426D01*
X138325707Y-84945500D01*
X138534293Y-84945500D01*
X138641623Y-84925436D01*
X138739314Y-84907176D01*
X138739317Y-84907174D01*
X138739327Y-84907173D01*
X138933828Y-84831823D01*
X139013558Y-84782455D01*
X139111167Y-84722019D01*
X139111168Y-84722017D01*
X139111171Y-84722016D01*
X139265318Y-84581493D01*
X139391019Y-84415038D01*
X139458260Y-84280000D01*
X164248785Y-84280000D01*
X164267602Y-84483080D01*
X164323418Y-84679251D01*
X164414327Y-84861822D01*
X164414329Y-84861825D01*
X164537228Y-85024570D01*
X164537231Y-85024573D01*
X164537236Y-85024579D01*
X164687959Y-85161981D01*
X164861363Y-85269348D01*
X164861371Y-85269351D01*
X164861373Y-85269352D01*
X165051538Y-85343022D01*
X165051539Y-85343022D01*
X165051544Y-85343024D01*
X165252024Y-85380500D01*
X165455976Y-85380500D01*
X165656456Y-85343024D01*
X165846637Y-85269348D01*
X166020041Y-85161981D01*
X166170764Y-85024579D01*
X166293673Y-84861821D01*
X166384582Y-84679250D01*
X166440397Y-84483083D01*
X166459215Y-84280000D01*
X166440397Y-84076917D01*
X166384582Y-83880750D01*
X166293673Y-83698179D01*
X166293672Y-83698178D01*
X166293672Y-83698177D01*
X166293670Y-83698174D01*
X166170771Y-83535429D01*
X166170767Y-83535426D01*
X166170764Y-83535421D01*
X166020041Y-83398019D01*
X166020040Y-83398018D01*
X165933339Y-83344335D01*
X165846637Y-83290652D01*
X165846632Y-83290650D01*
X165846626Y-83290647D01*
X165656461Y-83216977D01*
X165455978Y-83179500D01*
X165455976Y-83179500D01*
X165252024Y-83179500D01*
X165252021Y-83179500D01*
X165051538Y-83216977D01*
X164861373Y-83290647D01*
X164861361Y-83290653D01*
X164687959Y-83398018D01*
X164599659Y-83478514D01*
X164537236Y-83535421D01*
X164537234Y-83535423D01*
X164537228Y-83535429D01*
X164414329Y-83698174D01*
X164414327Y-83698177D01*
X164323418Y-83880748D01*
X164267602Y-84076919D01*
X164248785Y-84280000D01*
X139458260Y-84280000D01*
X139483994Y-84228319D01*
X139541076Y-84027696D01*
X139560322Y-83820000D01*
X139541076Y-83612304D01*
X139483994Y-83411681D01*
X139391019Y-83224962D01*
X139391018Y-83224961D01*
X139391018Y-83224960D01*
X139391016Y-83224957D01*
X139265325Y-83058515D01*
X139265321Y-83058512D01*
X139265318Y-83058507D01*
X139111171Y-82917984D01*
X139111172Y-82917984D01*
X139111167Y-82917980D01*
X138933837Y-82808182D01*
X138933832Y-82808179D01*
X138933828Y-82808177D01*
X138933823Y-82808175D01*
X138933817Y-82808172D01*
X138784773Y-82750432D01*
X138739327Y-82732827D01*
X138739324Y-82732826D01*
X138739314Y-82732823D01*
X138534295Y-82694500D01*
X138534293Y-82694500D01*
X138325707Y-82694500D01*
X138325704Y-82694500D01*
X138120685Y-82732823D01*
X138120670Y-82732828D01*
X137926182Y-82808172D01*
X137926162Y-82808182D01*
X137748832Y-82917980D01*
X137649941Y-83008131D01*
X137594682Y-83058507D01*
X137594680Y-83058509D01*
X137594674Y-83058515D01*
X137468983Y-83224957D01*
X137468981Y-83224960D01*
X137376009Y-83411673D01*
X137376005Y-83411683D01*
X137318923Y-83612306D01*
X137299678Y-83820000D01*
X137318923Y-84027693D01*
X137376006Y-84228320D01*
X137422177Y-84321043D01*
X137422787Y-84329824D01*
X137420015Y-84334301D01*
X136303701Y-85450615D01*
X136301859Y-85452110D01*
X136284334Y-85463560D01*
X136284331Y-85463563D01*
X136261994Y-85492259D01*
X136261523Y-85492792D01*
X136256630Y-85497686D01*
X136256627Y-85497689D01*
X136243955Y-85515438D01*
X136212483Y-85555872D01*
X136212483Y-85555873D01*
X136210615Y-85561311D01*
X136209100Y-85564254D01*
X136205760Y-85568934D01*
X136191138Y-85618045D01*
X136174500Y-85666511D01*
X136174500Y-85672259D01*
X136174022Y-85675540D01*
X136172382Y-85681047D01*
X136174500Y-85732231D01*
X136174500Y-89295361D01*
X136171132Y-89303493D01*
X136170001Y-89304484D01*
X136096721Y-89360714D01*
X136096718Y-89360717D01*
X136000464Y-89486159D01*
X135939956Y-89632238D01*
X135919318Y-89789000D01*
X123885449Y-89789000D01*
X124025318Y-89661493D01*
X124047411Y-89632238D01*
X124151016Y-89495042D01*
X124151018Y-89495039D01*
X124151017Y-89495039D01*
X124151019Y-89495038D01*
X124243994Y-89308319D01*
X124301076Y-89107696D01*
X124320322Y-88900000D01*
X124314438Y-88836500D01*
X128997818Y-88836500D01*
X129018456Y-88993262D01*
X129078964Y-89139341D01*
X129175218Y-89264782D01*
X129300659Y-89361036D01*
X129446738Y-89421544D01*
X129603500Y-89442182D01*
X129760262Y-89421544D01*
X129906341Y-89361036D01*
X130031782Y-89264782D01*
X130128036Y-89139341D01*
X130188544Y-88993262D01*
X130209182Y-88836500D01*
X130197125Y-88744917D01*
X130199403Y-88736416D01*
X130200387Y-88735293D01*
X130581786Y-88353894D01*
X130589917Y-88350527D01*
X130591415Y-88350624D01*
X130683000Y-88362682D01*
X130839762Y-88342044D01*
X130985841Y-88281536D01*
X131111282Y-88185282D01*
X131207536Y-88059841D01*
X131268044Y-87913762D01*
X131288682Y-87757000D01*
X131268044Y-87600238D01*
X131207536Y-87454159D01*
X131111282Y-87328718D01*
X130985841Y-87232464D01*
X130839762Y-87171956D01*
X130683000Y-87151318D01*
X130526238Y-87171956D01*
X130380159Y-87232464D01*
X130254718Y-87328718D01*
X130158464Y-87454159D01*
X130097956Y-87600238D01*
X130077318Y-87757000D01*
X130089373Y-87848580D01*
X130087094Y-87857082D01*
X130086103Y-87858213D01*
X129704713Y-88239603D01*
X129696581Y-88242971D01*
X129695080Y-88242873D01*
X129603500Y-88230818D01*
X129446738Y-88251456D01*
X129300659Y-88311964D01*
X129175218Y-88408218D01*
X129078964Y-88533659D01*
X129018456Y-88679738D01*
X128997818Y-88836500D01*
X124314438Y-88836500D01*
X124301076Y-88692304D01*
X124243994Y-88491681D01*
X124151019Y-88304962D01*
X124151018Y-88304961D01*
X124151018Y-88304960D01*
X124151016Y-88304957D01*
X124025325Y-88138515D01*
X124025321Y-88138512D01*
X124025318Y-88138507D01*
X123871171Y-87997984D01*
X123871172Y-87997984D01*
X123871167Y-87997980D01*
X123693837Y-87888182D01*
X123693832Y-87888179D01*
X123693828Y-87888177D01*
X123693823Y-87888175D01*
X123693817Y-87888172D01*
X123538609Y-87828045D01*
X123499327Y-87812827D01*
X123499324Y-87812826D01*
X123499314Y-87812823D01*
X123294295Y-87774500D01*
X123294293Y-87774500D01*
X123085707Y-87774500D01*
X123085704Y-87774500D01*
X122880685Y-87812823D01*
X122880670Y-87812828D01*
X122686182Y-87888172D01*
X122686162Y-87888182D01*
X122508832Y-87997980D01*
X122422357Y-88076813D01*
X122354682Y-88138507D01*
X122354680Y-88138509D01*
X122354674Y-88138515D01*
X122228983Y-88304957D01*
X122228981Y-88304960D01*
X122136009Y-88491673D01*
X122136005Y-88491683D01*
X122078923Y-88692306D01*
X122059678Y-88900000D01*
X122078923Y-89107693D01*
X122136006Y-89308320D01*
X122182177Y-89401043D01*
X122182787Y-89409824D01*
X122180015Y-89414301D01*
X121985132Y-89609185D01*
X121977000Y-89612553D01*
X121968868Y-89609185D01*
X121965500Y-89601053D01*
X121965500Y-88084945D01*
X121968867Y-88076814D01*
X122672127Y-87373553D01*
X122680258Y-87370186D01*
X122685628Y-87371719D01*
X122685696Y-87371585D01*
X122686163Y-87371817D01*
X122686172Y-87371823D01*
X122880673Y-87447173D01*
X122880679Y-87447174D01*
X122880685Y-87447176D01*
X123010417Y-87471426D01*
X123085707Y-87485500D01*
X123294293Y-87485500D01*
X123401623Y-87465436D01*
X123499314Y-87447176D01*
X123499317Y-87447174D01*
X123499327Y-87447173D01*
X123693828Y-87371823D01*
X123773558Y-87322455D01*
X123871167Y-87262019D01*
X123871168Y-87262017D01*
X123871171Y-87262016D01*
X124025318Y-87121493D01*
X124151019Y-86955038D01*
X124243994Y-86768319D01*
X124301076Y-86567696D01*
X124320322Y-86360000D01*
X124301076Y-86152304D01*
X124243994Y-85951681D01*
X124151019Y-85764962D01*
X124151018Y-85764961D01*
X124151018Y-85764960D01*
X124151016Y-85764957D01*
X124025325Y-85598515D01*
X124025321Y-85598512D01*
X124025318Y-85598507D01*
X123871171Y-85457984D01*
X123871172Y-85457984D01*
X123871167Y-85457980D01*
X123693837Y-85348182D01*
X123693832Y-85348179D01*
X123693828Y-85348177D01*
X123693823Y-85348175D01*
X123693817Y-85348172D01*
X123544773Y-85290432D01*
X123499327Y-85272827D01*
X123499324Y-85272826D01*
X123499314Y-85272823D01*
X123294295Y-85234500D01*
X123294293Y-85234500D01*
X123085707Y-85234500D01*
X123085704Y-85234500D01*
X122880685Y-85272823D01*
X122880670Y-85272828D01*
X122686182Y-85348172D01*
X122686162Y-85348182D01*
X122508832Y-85457980D01*
X122409941Y-85548131D01*
X122354682Y-85598507D01*
X122354680Y-85598509D01*
X122354674Y-85598515D01*
X122228983Y-85764957D01*
X122228981Y-85764960D01*
X122136009Y-85951673D01*
X122136005Y-85951683D01*
X122078923Y-86152306D01*
X122059678Y-86360000D01*
X122078923Y-86567693D01*
X122136006Y-86768320D01*
X122182177Y-86861043D01*
X122182787Y-86869824D01*
X122180015Y-86874301D01*
X121393701Y-87660615D01*
X121391859Y-87662110D01*
X121374334Y-87673560D01*
X121374331Y-87673563D01*
X121351994Y-87702259D01*
X121351523Y-87702792D01*
X121346630Y-87707686D01*
X121346627Y-87707689D01*
X121333955Y-87725438D01*
X121302483Y-87765872D01*
X121302483Y-87765873D01*
X121300615Y-87771311D01*
X121299100Y-87774254D01*
X121295760Y-87778934D01*
X121281138Y-87828045D01*
X121264500Y-87876511D01*
X121264500Y-87882259D01*
X121264022Y-87885540D01*
X121262382Y-87891047D01*
X121264500Y-87942231D01*
X121264500Y-92494457D01*
X121264255Y-92496817D01*
X121259956Y-92517314D01*
X113411500Y-92517314D01*
X113411500Y-83820000D01*
X122059678Y-83820000D01*
X122078923Y-84027693D01*
X122092929Y-84076917D01*
X122136006Y-84228319D01*
X122136007Y-84228321D01*
X122136009Y-84228326D01*
X122228981Y-84415039D01*
X122228983Y-84415042D01*
X122354674Y-84581484D01*
X122354677Y-84581487D01*
X122354682Y-84581493D01*
X122461917Y-84679250D01*
X122508832Y-84722019D01*
X122686004Y-84831719D01*
X122686172Y-84831823D01*
X122880673Y-84907173D01*
X122880679Y-84907174D01*
X122880685Y-84907176D01*
X123010417Y-84931426D01*
X123085707Y-84945500D01*
X123294293Y-84945500D01*
X123401623Y-84925436D01*
X123499314Y-84907176D01*
X123499317Y-84907174D01*
X123499327Y-84907173D01*
X123693828Y-84831823D01*
X123773558Y-84782455D01*
X123871167Y-84722019D01*
X123871168Y-84722017D01*
X123871171Y-84722016D01*
X124025318Y-84581493D01*
X124151019Y-84415038D01*
X124243994Y-84228319D01*
X124301076Y-84027696D01*
X124320322Y-83820000D01*
X124301076Y-83612304D01*
X124243994Y-83411681D01*
X124151019Y-83224962D01*
X124151018Y-83224961D01*
X124151018Y-83224960D01*
X124151016Y-83224957D01*
X124025325Y-83058515D01*
X124025321Y-83058512D01*
X124025318Y-83058507D01*
X123871171Y-82917984D01*
X123871172Y-82917984D01*
X123871167Y-82917980D01*
X123693837Y-82808182D01*
X123693832Y-82808179D01*
X123693828Y-82808177D01*
X123693823Y-82808175D01*
X123693817Y-82808172D01*
X123544773Y-82750432D01*
X123499327Y-82732827D01*
X123499324Y-82732826D01*
X123499314Y-82732823D01*
X123294295Y-82694500D01*
X123294293Y-82694500D01*
X123085707Y-82694500D01*
X123085704Y-82694500D01*
X122880685Y-82732823D01*
X122880670Y-82732828D01*
X122686182Y-82808172D01*
X122686162Y-82808182D01*
X122508832Y-82917980D01*
X122409941Y-83008131D01*
X122354682Y-83058507D01*
X122354680Y-83058509D01*
X122354674Y-83058515D01*
X122228983Y-83224957D01*
X122228981Y-83224960D01*
X122136009Y-83411673D01*
X122136005Y-83411683D01*
X122078923Y-83612306D01*
X122059678Y-83820000D01*
X113411500Y-83820000D01*
X113411500Y-81280000D01*
X122059678Y-81280000D01*
X122078923Y-81487693D01*
X122136005Y-81688316D01*
X122136009Y-81688326D01*
X122228981Y-81875039D01*
X122228983Y-81875042D01*
X122354674Y-82041484D01*
X122354677Y-82041487D01*
X122354682Y-82041493D01*
X122486852Y-82161981D01*
X122508832Y-82182019D01*
X122649880Y-82269352D01*
X122686172Y-82291823D01*
X122880673Y-82367173D01*
X122880679Y-82367174D01*
X122880685Y-82367176D01*
X123010417Y-82391426D01*
X123085707Y-82405500D01*
X123294293Y-82405500D01*
X123401623Y-82385436D01*
X123499314Y-82367176D01*
X123499317Y-82367174D01*
X123499327Y-82367173D01*
X123693828Y-82291823D01*
X123773558Y-82242455D01*
X123871167Y-82182019D01*
X123871168Y-82182017D01*
X123871171Y-82182016D01*
X124025318Y-82041493D01*
X124151019Y-81875038D01*
X124243994Y-81688319D01*
X124301076Y-81487696D01*
X124320322Y-81280000D01*
X137299678Y-81280000D01*
X137318923Y-81487693D01*
X137376005Y-81688316D01*
X137376009Y-81688326D01*
X137468981Y-81875039D01*
X137468983Y-81875042D01*
X137594674Y-82041484D01*
X137594677Y-82041487D01*
X137594682Y-82041493D01*
X137726852Y-82161981D01*
X137748832Y-82182019D01*
X137889880Y-82269352D01*
X137926172Y-82291823D01*
X138120673Y-82367173D01*
X138120679Y-82367174D01*
X138120685Y-82367176D01*
X138250417Y-82391426D01*
X138325707Y-82405500D01*
X138534293Y-82405500D01*
X138641623Y-82385436D01*
X138739314Y-82367176D01*
X138739317Y-82367174D01*
X138739327Y-82367173D01*
X138933828Y-82291823D01*
X139013558Y-82242455D01*
X139111167Y-82182019D01*
X139111168Y-82182017D01*
X139111171Y-82182016D01*
X139265318Y-82041493D01*
X139391019Y-81875038D01*
X139483994Y-81688319D01*
X139541076Y-81487696D01*
X139560322Y-81280000D01*
X164248785Y-81280000D01*
X164267602Y-81483080D01*
X164323418Y-81679251D01*
X164414327Y-81861822D01*
X164414329Y-81861825D01*
X164537228Y-82024570D01*
X164537231Y-82024573D01*
X164537236Y-82024579D01*
X164687959Y-82161981D01*
X164861363Y-82269348D01*
X164861371Y-82269351D01*
X164861373Y-82269352D01*
X165051538Y-82343022D01*
X165051539Y-82343022D01*
X165051544Y-82343024D01*
X165252024Y-82380500D01*
X165455976Y-82380500D01*
X165656456Y-82343024D01*
X165846637Y-82269348D01*
X166020041Y-82161981D01*
X166170764Y-82024579D01*
X166293673Y-81861821D01*
X166384582Y-81679250D01*
X166440397Y-81483083D01*
X166459215Y-81280000D01*
X166440397Y-81076917D01*
X166384582Y-80880750D01*
X166293673Y-80698179D01*
X166293672Y-80698178D01*
X166293672Y-80698177D01*
X166293670Y-80698174D01*
X166170771Y-80535429D01*
X166170767Y-80535426D01*
X166170764Y-80535421D01*
X166020041Y-80398019D01*
X166020040Y-80398018D01*
X165928021Y-80341043D01*
X165846637Y-80290652D01*
X165846632Y-80290650D01*
X165846626Y-80290647D01*
X165656461Y-80216977D01*
X165455978Y-80179500D01*
X165455976Y-80179500D01*
X165252024Y-80179500D01*
X165252021Y-80179500D01*
X165051538Y-80216977D01*
X164861373Y-80290647D01*
X164861361Y-80290653D01*
X164687959Y-80398018D01*
X164599659Y-80478514D01*
X164537236Y-80535421D01*
X164537234Y-80535423D01*
X164537228Y-80535429D01*
X164414329Y-80698174D01*
X164414327Y-80698177D01*
X164323418Y-80880748D01*
X164267602Y-81076919D01*
X164248785Y-81280000D01*
X139560322Y-81280000D01*
X139541076Y-81072304D01*
X139483994Y-80871681D01*
X139391019Y-80684962D01*
X139391018Y-80684961D01*
X139391018Y-80684960D01*
X139391016Y-80684957D01*
X139265325Y-80518515D01*
X139265321Y-80518512D01*
X139265318Y-80518507D01*
X139138800Y-80403171D01*
X139111167Y-80377980D01*
X138933837Y-80268182D01*
X138933832Y-80268179D01*
X138933828Y-80268177D01*
X138933823Y-80268175D01*
X138933817Y-80268172D01*
X138784773Y-80210432D01*
X138739327Y-80192827D01*
X138739324Y-80192826D01*
X138739314Y-80192823D01*
X138534295Y-80154500D01*
X138534293Y-80154500D01*
X138325707Y-80154500D01*
X138325704Y-80154500D01*
X138120685Y-80192823D01*
X138120670Y-80192828D01*
X137926182Y-80268172D01*
X137926162Y-80268182D01*
X137748832Y-80377980D01*
X137649941Y-80468131D01*
X137594682Y-80518507D01*
X137594680Y-80518509D01*
X137594674Y-80518515D01*
X137468983Y-80684957D01*
X137468981Y-80684960D01*
X137376009Y-80871673D01*
X137376005Y-80871683D01*
X137318923Y-81072306D01*
X137299678Y-81280000D01*
X124320322Y-81280000D01*
X124301076Y-81072304D01*
X124243994Y-80871681D01*
X124151019Y-80684962D01*
X124151018Y-80684961D01*
X124151018Y-80684960D01*
X124151016Y-80684957D01*
X124025325Y-80518515D01*
X124025321Y-80518512D01*
X124025318Y-80518507D01*
X123898800Y-80403171D01*
X123871167Y-80377980D01*
X123693837Y-80268182D01*
X123693832Y-80268179D01*
X123693828Y-80268177D01*
X123693823Y-80268175D01*
X123693817Y-80268172D01*
X123544773Y-80210432D01*
X123499327Y-80192827D01*
X123499324Y-80192826D01*
X123499314Y-80192823D01*
X123294295Y-80154500D01*
X123294293Y-80154500D01*
X123085707Y-80154500D01*
X123085704Y-80154500D01*
X122880685Y-80192823D01*
X122880670Y-80192828D01*
X122686182Y-80268172D01*
X122686162Y-80268182D01*
X122508832Y-80377980D01*
X122409941Y-80468131D01*
X122354682Y-80518507D01*
X122354680Y-80518509D01*
X122354674Y-80518515D01*
X122228983Y-80684957D01*
X122228981Y-80684960D01*
X122136009Y-80871673D01*
X122136005Y-80871683D01*
X122078923Y-81072306D01*
X122059678Y-81280000D01*
X113411500Y-81280000D01*
X113411500Y-78740000D01*
X120171318Y-78740000D01*
X120191956Y-78896762D01*
X120252464Y-79042841D01*
X120348718Y-79168282D01*
X120474159Y-79264536D01*
X120620238Y-79325044D01*
X120777000Y-79345682D01*
X120933762Y-79325044D01*
X121079841Y-79264536D01*
X121205282Y-79168282D01*
X121261514Y-79094999D01*
X121269137Y-79090598D01*
X121270638Y-79090500D01*
X122110871Y-79090500D01*
X122119003Y-79093868D01*
X122121931Y-79098851D01*
X122129750Y-79126332D01*
X122136006Y-79148320D01*
X122228981Y-79335039D01*
X122228983Y-79335042D01*
X122354674Y-79501484D01*
X122354677Y-79501487D01*
X122354682Y-79501493D01*
X122461904Y-79599238D01*
X122508832Y-79642019D01*
X122686162Y-79751817D01*
X122686172Y-79751823D01*
X122880673Y-79827173D01*
X122880679Y-79827174D01*
X122880685Y-79827176D01*
X123010417Y-79851426D01*
X123085707Y-79865500D01*
X123294293Y-79865500D01*
X123401623Y-79845436D01*
X123499314Y-79827176D01*
X123499317Y-79827174D01*
X123499327Y-79827173D01*
X123693828Y-79751823D01*
X123773558Y-79702455D01*
X123871167Y-79642019D01*
X123871168Y-79642017D01*
X123871171Y-79642016D01*
X124025318Y-79501493D01*
X124083137Y-79424929D01*
X124151016Y-79335042D01*
X124151018Y-79335039D01*
X124151017Y-79335039D01*
X124151019Y-79335038D01*
X124243994Y-79148319D01*
X124301076Y-78947696D01*
X124320322Y-78740000D01*
X137050288Y-78740000D01*
X137069106Y-78967098D01*
X137125044Y-79187989D01*
X137125046Y-79187994D01*
X137216581Y-79396673D01*
X137216583Y-79396677D01*
X137296873Y-79519570D01*
X137296874Y-79519570D01*
X137925210Y-78891233D01*
X137930662Y-78917465D01*
X137997058Y-79045604D01*
X138095564Y-79151077D01*
X138218873Y-79226063D01*
X138280283Y-79243269D01*
X137649016Y-79874537D01*
X137675370Y-79895050D01*
X137675373Y-79895052D01*
X137875770Y-80003499D01*
X137875778Y-80003503D01*
X138091300Y-80077492D01*
X138091310Y-80077494D01*
X138316066Y-80115000D01*
X138543934Y-80115000D01*
X138768689Y-80077494D01*
X138768699Y-80077492D01*
X138984221Y-80003503D01*
X138984229Y-80003499D01*
X139184625Y-79895052D01*
X139210982Y-79874537D01*
X139092445Y-79756000D01*
X151413318Y-79756000D01*
X151433956Y-79912762D01*
X151494464Y-80058841D01*
X151590718Y-80184282D01*
X151716159Y-80280536D01*
X151862238Y-80341044D01*
X152019000Y-80361682D01*
X152175762Y-80341044D01*
X152321841Y-80280536D01*
X152447282Y-80184282D01*
X152543536Y-80058841D01*
X152604044Y-79912762D01*
X152624682Y-79756000D01*
X152604044Y-79599238D01*
X152543536Y-79453159D01*
X152537386Y-79445144D01*
X152521876Y-79424929D01*
X152519500Y-79417929D01*
X152519500Y-78316069D01*
X152521876Y-78309068D01*
X152543536Y-78280841D01*
X152543884Y-78280000D01*
X164248785Y-78280000D01*
X164267602Y-78483080D01*
X164323418Y-78679251D01*
X164414327Y-78861822D01*
X164414329Y-78861825D01*
X164537228Y-79024570D01*
X164537231Y-79024573D01*
X164537236Y-79024579D01*
X164687959Y-79161981D01*
X164861363Y-79269348D01*
X164861371Y-79269351D01*
X164861373Y-79269352D01*
X165051538Y-79343022D01*
X165051539Y-79343022D01*
X165051544Y-79343024D01*
X165252024Y-79380500D01*
X165455976Y-79380500D01*
X165656456Y-79343024D01*
X165846637Y-79269348D01*
X166020041Y-79161981D01*
X166170764Y-79024579D01*
X166293673Y-78861821D01*
X166384582Y-78679250D01*
X166440397Y-78483083D01*
X166459215Y-78280000D01*
X166440397Y-78076917D01*
X166384582Y-77880750D01*
X166293673Y-77698179D01*
X166293672Y-77698178D01*
X166293672Y-77698177D01*
X166293670Y-77698174D01*
X166170771Y-77535429D01*
X166170767Y-77535426D01*
X166170764Y-77535421D01*
X166020041Y-77398019D01*
X166020040Y-77398018D01*
X165933339Y-77344335D01*
X165846637Y-77290652D01*
X165846632Y-77290650D01*
X165846626Y-77290647D01*
X165656461Y-77216977D01*
X165455978Y-77179500D01*
X165455976Y-77179500D01*
X165252024Y-77179500D01*
X165252021Y-77179500D01*
X165051538Y-77216977D01*
X164861373Y-77290647D01*
X164861361Y-77290653D01*
X164687959Y-77398018D01*
X164601874Y-77476496D01*
X164537236Y-77535421D01*
X164537234Y-77535423D01*
X164537228Y-77535429D01*
X164414329Y-77698174D01*
X164414327Y-77698177D01*
X164323418Y-77880748D01*
X164267602Y-78076919D01*
X164248785Y-78280000D01*
X152543884Y-78280000D01*
X152604044Y-78134762D01*
X152624682Y-77978000D01*
X152604044Y-77821238D01*
X152543536Y-77675159D01*
X152447282Y-77549718D01*
X152321841Y-77453464D01*
X152175762Y-77392956D01*
X152019000Y-77372318D01*
X151862238Y-77392956D01*
X151716159Y-77453464D01*
X151590718Y-77549718D01*
X151494464Y-77675159D01*
X151433956Y-77821238D01*
X151413318Y-77978000D01*
X151433956Y-78134762D01*
X151494464Y-78280841D01*
X151516124Y-78309068D01*
X151518500Y-78316069D01*
X151518500Y-79417929D01*
X151516124Y-79424929D01*
X151494465Y-79453157D01*
X151494464Y-79453158D01*
X151494464Y-79453159D01*
X151433956Y-79599238D01*
X151413318Y-79756000D01*
X139092445Y-79756000D01*
X138582564Y-79246119D01*
X138705346Y-79192788D01*
X138817296Y-79101709D01*
X138900522Y-78983805D01*
X138933780Y-78890225D01*
X139563125Y-79519570D01*
X139563126Y-79519570D01*
X139643416Y-79396677D01*
X139643418Y-79396673D01*
X139734953Y-79187994D01*
X139734955Y-79187989D01*
X139790893Y-78967098D01*
X139809711Y-78740000D01*
X139790893Y-78512901D01*
X139734955Y-78292010D01*
X139734953Y-78292005D01*
X139643418Y-78083326D01*
X139643416Y-78083322D01*
X139563125Y-77960428D01*
X139563124Y-77960428D01*
X138934788Y-78588764D01*
X138929338Y-78562535D01*
X138862942Y-78434396D01*
X138764436Y-78328923D01*
X138641127Y-78253937D01*
X138579713Y-78236729D01*
X139210982Y-77605461D01*
X139210983Y-77605461D01*
X139184629Y-77584950D01*
X139184626Y-77584947D01*
X138984229Y-77476500D01*
X138984221Y-77476496D01*
X138768699Y-77402507D01*
X138768689Y-77402505D01*
X138543934Y-77365000D01*
X138316066Y-77365000D01*
X138091310Y-77402505D01*
X138091300Y-77402507D01*
X137875778Y-77476496D01*
X137875770Y-77476500D01*
X137675373Y-77584947D01*
X137675370Y-77584950D01*
X137649016Y-77605461D01*
X138277435Y-78233880D01*
X138154654Y-78287212D01*
X138042704Y-78378291D01*
X137959478Y-78496195D01*
X137926219Y-78589773D01*
X137296874Y-77960428D01*
X137296873Y-77960428D01*
X137216583Y-78083322D01*
X137216581Y-78083326D01*
X137125046Y-78292005D01*
X137125044Y-78292010D01*
X137069106Y-78512901D01*
X137050288Y-78740000D01*
X124320322Y-78740000D01*
X124301076Y-78532304D01*
X124243994Y-78331681D01*
X124151019Y-78144962D01*
X124151018Y-78144961D01*
X124151018Y-78144960D01*
X124151016Y-78144957D01*
X124025325Y-77978515D01*
X124025321Y-77978512D01*
X124025318Y-77978507D01*
X123871171Y-77837984D01*
X123871172Y-77837984D01*
X123871167Y-77837980D01*
X123693837Y-77728182D01*
X123693832Y-77728179D01*
X123693828Y-77728177D01*
X123693823Y-77728175D01*
X123693817Y-77728172D01*
X123544773Y-77670432D01*
X123499327Y-77652827D01*
X123499324Y-77652826D01*
X123499314Y-77652823D01*
X123294295Y-77614500D01*
X123294293Y-77614500D01*
X123085707Y-77614500D01*
X123085704Y-77614500D01*
X122880685Y-77652823D01*
X122880670Y-77652828D01*
X122686182Y-77728172D01*
X122686162Y-77728182D01*
X122508832Y-77837980D01*
X122409941Y-77928131D01*
X122354682Y-77978507D01*
X122354680Y-77978509D01*
X122354674Y-77978515D01*
X122228983Y-78144957D01*
X122228981Y-78144960D01*
X122136006Y-78331679D01*
X122136005Y-78331683D01*
X122122745Y-78378291D01*
X122121932Y-78381147D01*
X122116467Y-78388047D01*
X122110871Y-78389500D01*
X121270638Y-78389500D01*
X121262506Y-78386132D01*
X121261514Y-78385001D01*
X121252498Y-78373251D01*
X121205282Y-78311718D01*
X121079841Y-78215464D01*
X120933762Y-78154956D01*
X120777000Y-78134318D01*
X120620238Y-78154956D01*
X120474159Y-78215464D01*
X120348718Y-78311718D01*
X120252464Y-78437159D01*
X120191956Y-78583238D01*
X120171318Y-78740000D01*
X113411500Y-78740000D01*
X113411500Y-74930138D01*
X113411503Y-74930000D01*
X115183393Y-74930000D01*
X115203789Y-75189155D01*
X115264471Y-75441915D01*
X115264472Y-75441918D01*
X115320538Y-75577272D01*
X115363952Y-75682084D01*
X115499777Y-75903729D01*
X115668602Y-76101398D01*
X115866271Y-76270223D01*
X116087916Y-76406048D01*
X116328080Y-76505527D01*
X116328083Y-76505527D01*
X116328084Y-76505528D01*
X116580845Y-76566210D01*
X116580847Y-76566210D01*
X116580850Y-76566211D01*
X116775111Y-76581500D01*
X116775115Y-76581500D01*
X116904885Y-76581500D01*
X116904889Y-76581500D01*
X117099150Y-76566211D01*
X117099153Y-76566210D01*
X117099155Y-76566210D01*
X117225535Y-76535869D01*
X117351920Y-76505527D01*
X117592084Y-76406048D01*
X117813729Y-76270223D01*
X117895950Y-76200000D01*
X122059678Y-76200000D01*
X122078923Y-76407693D01*
X122136005Y-76608316D01*
X122136009Y-76608326D01*
X122228981Y-76795039D01*
X122228983Y-76795042D01*
X122354674Y-76961484D01*
X122354677Y-76961487D01*
X122354682Y-76961493D01*
X122488106Y-77083125D01*
X122508832Y-77102019D01*
X122686162Y-77211817D01*
X122686172Y-77211823D01*
X122880673Y-77287173D01*
X122880679Y-77287174D01*
X122880685Y-77287176D01*
X123010417Y-77311426D01*
X123085707Y-77325500D01*
X123294293Y-77325500D01*
X123401623Y-77305436D01*
X123499314Y-77287176D01*
X123499317Y-77287174D01*
X123499327Y-77287173D01*
X123693828Y-77211823D01*
X123773558Y-77162455D01*
X123871167Y-77102019D01*
X123871168Y-77102017D01*
X123871171Y-77102016D01*
X124025318Y-76961493D01*
X124151019Y-76795038D01*
X124243994Y-76608319D01*
X124301076Y-76407696D01*
X124320322Y-76200000D01*
X137299678Y-76200000D01*
X137318923Y-76407693D01*
X137376005Y-76608316D01*
X137376009Y-76608326D01*
X137468981Y-76795039D01*
X137468983Y-76795042D01*
X137594674Y-76961484D01*
X137594677Y-76961487D01*
X137594682Y-76961493D01*
X137728106Y-77083125D01*
X137748832Y-77102019D01*
X137926162Y-77211817D01*
X137926172Y-77211823D01*
X138120673Y-77287173D01*
X138120679Y-77287174D01*
X138120685Y-77287176D01*
X138250417Y-77311426D01*
X138325707Y-77325500D01*
X138534293Y-77325500D01*
X138641623Y-77305436D01*
X138739314Y-77287176D01*
X138739317Y-77287174D01*
X138739327Y-77287173D01*
X138933828Y-77211823D01*
X139013558Y-77162455D01*
X139111167Y-77102019D01*
X139111168Y-77102017D01*
X139111171Y-77102016D01*
X139265318Y-76961493D01*
X139391019Y-76795038D01*
X139483994Y-76608319D01*
X139541076Y-76407696D01*
X139560322Y-76200000D01*
X139541076Y-75992304D01*
X139483994Y-75791681D01*
X139391019Y-75604962D01*
X139391018Y-75604961D01*
X139391018Y-75604960D01*
X139391016Y-75604957D01*
X139370111Y-75577274D01*
X163803500Y-75577274D01*
X163843949Y-75767571D01*
X163923078Y-75945299D01*
X164037431Y-76102692D01*
X164037434Y-76102694D01*
X164037435Y-76102696D01*
X164182009Y-76232871D01*
X164182010Y-76232872D01*
X164350490Y-76330143D01*
X164350492Y-76330144D01*
X164535518Y-76390262D01*
X164680496Y-76405500D01*
X164680504Y-76405500D01*
X166027496Y-76405500D01*
X166027504Y-76405500D01*
X166172482Y-76390262D01*
X166357508Y-76330144D01*
X166525992Y-76232870D01*
X166670569Y-76102692D01*
X166784922Y-75945299D01*
X166864051Y-75767571D01*
X166904500Y-75577274D01*
X166904500Y-75382726D01*
X166864051Y-75192429D01*
X166784922Y-75014701D01*
X166723383Y-74930000D01*
X171063393Y-74930000D01*
X171083789Y-75189155D01*
X171144471Y-75441915D01*
X171144472Y-75441918D01*
X171200538Y-75577272D01*
X171243952Y-75682084D01*
X171379777Y-75903729D01*
X171548602Y-76101398D01*
X171746271Y-76270223D01*
X171967916Y-76406048D01*
X172208080Y-76505527D01*
X172208083Y-76505527D01*
X172208084Y-76505528D01*
X172460845Y-76566210D01*
X172460847Y-76566210D01*
X172460850Y-76566211D01*
X172655111Y-76581500D01*
X172655115Y-76581500D01*
X172784885Y-76581500D01*
X172784889Y-76581500D01*
X172979150Y-76566211D01*
X172979153Y-76566210D01*
X172979155Y-76566210D01*
X173105535Y-76535869D01*
X173231920Y-76505527D01*
X173472084Y-76406048D01*
X173693729Y-76270223D01*
X173891398Y-76101398D01*
X174060223Y-75903729D01*
X174196048Y-75682084D01*
X174295527Y-75441920D01*
X174356211Y-75189150D01*
X174376607Y-74930000D01*
X174356211Y-74670850D01*
X174346369Y-74629856D01*
X174295528Y-74418084D01*
X174295527Y-74418081D01*
X174278249Y-74376366D01*
X174196048Y-74177916D01*
X174060223Y-73956271D01*
X173891398Y-73758602D01*
X173693729Y-73589777D01*
X173472084Y-73453952D01*
X173343040Y-73400500D01*
X173231918Y-73354472D01*
X173231915Y-73354471D01*
X172979154Y-73293789D01*
X172979156Y-73293789D01*
X172862593Y-73284615D01*
X172784889Y-73278500D01*
X172655111Y-73278500D01*
X172577406Y-73284615D01*
X172460844Y-73293789D01*
X172208084Y-73354471D01*
X172208081Y-73354472D01*
X171967917Y-73453951D01*
X171746274Y-73589775D01*
X171746271Y-73589777D01*
X171548602Y-73758602D01*
X171379777Y-73956271D01*
X171379775Y-73956273D01*
X171379775Y-73956274D01*
X171243951Y-74177917D01*
X171144472Y-74418081D01*
X171144471Y-74418084D01*
X171083789Y-74670844D01*
X171063393Y-74930000D01*
X166723383Y-74930000D01*
X166670569Y-74857308D01*
X166670565Y-74857304D01*
X166670564Y-74857303D01*
X166525990Y-74727128D01*
X166525989Y-74727127D01*
X166357509Y-74629856D01*
X166246150Y-74593674D01*
X166172482Y-74569738D01*
X166172480Y-74569737D01*
X166172478Y-74569737D01*
X166049758Y-74556839D01*
X166027504Y-74554500D01*
X164680496Y-74554500D01*
X164535521Y-74569737D01*
X164535518Y-74569738D01*
X164350490Y-74629856D01*
X164182010Y-74727127D01*
X164182009Y-74727128D01*
X164037435Y-74857303D01*
X164037432Y-74857307D01*
X164037431Y-74857308D01*
X163991841Y-74920057D01*
X163923076Y-75014704D01*
X163843950Y-75192425D01*
X163843949Y-75192428D01*
X163843949Y-75192429D01*
X163803500Y-75382726D01*
X163803500Y-75577274D01*
X139370111Y-75577274D01*
X139265325Y-75438515D01*
X139265321Y-75438512D01*
X139265318Y-75438507D01*
X139111171Y-75297984D01*
X139111172Y-75297984D01*
X139111167Y-75297980D01*
X138933837Y-75188182D01*
X138933832Y-75188179D01*
X138933828Y-75188177D01*
X138933823Y-75188175D01*
X138933817Y-75188172D01*
X138760163Y-75120899D01*
X138739327Y-75112827D01*
X138739324Y-75112826D01*
X138739314Y-75112823D01*
X138534295Y-75074500D01*
X138534293Y-75074500D01*
X138325707Y-75074500D01*
X138325704Y-75074500D01*
X138120685Y-75112823D01*
X138120670Y-75112828D01*
X137926182Y-75188172D01*
X137926162Y-75188182D01*
X137748832Y-75297980D01*
X137655871Y-75382726D01*
X137594682Y-75438507D01*
X137594680Y-75438509D01*
X137594674Y-75438515D01*
X137468983Y-75604957D01*
X137468981Y-75604960D01*
X137376009Y-75791673D01*
X137376005Y-75791683D01*
X137318923Y-75992306D01*
X137299678Y-76200000D01*
X124320322Y-76200000D01*
X124301076Y-75992304D01*
X124243994Y-75791681D01*
X124151019Y-75604962D01*
X124151018Y-75604961D01*
X124151018Y-75604960D01*
X124151016Y-75604957D01*
X124025325Y-75438515D01*
X124025321Y-75438512D01*
X124025318Y-75438507D01*
X123871171Y-75297984D01*
X123871172Y-75297984D01*
X123871167Y-75297980D01*
X123693837Y-75188182D01*
X123693832Y-75188179D01*
X123693828Y-75188177D01*
X123693823Y-75188175D01*
X123693817Y-75188172D01*
X123547846Y-75131622D01*
X123541480Y-75125544D01*
X123540500Y-75120899D01*
X123540500Y-73894137D01*
X123543868Y-73886005D01*
X123544991Y-73885019D01*
X123618282Y-73828782D01*
X123714536Y-73703341D01*
X123732488Y-73660000D01*
X158133859Y-73660000D01*
X158154388Y-73907743D01*
X158215411Y-74148715D01*
X158215414Y-74148725D01*
X158315267Y-74376366D01*
X158315271Y-74376375D01*
X158415563Y-74529881D01*
X159155922Y-73789521D01*
X159179507Y-73869844D01*
X159257239Y-73990798D01*
X159365900Y-74084952D01*
X159496685Y-74144680D01*
X159506465Y-74146086D01*
X158768942Y-74883610D01*
X158815767Y-74920054D01*
X158815770Y-74920057D01*
X159034386Y-75038364D01*
X159034394Y-75038368D01*
X159269509Y-75119083D01*
X159269519Y-75119085D01*
X159514708Y-75160000D01*
X159763292Y-75160000D01*
X160008480Y-75119085D01*
X160008490Y-75119083D01*
X160243605Y-75038368D01*
X160243613Y-75038364D01*
X160462229Y-74920057D01*
X160462232Y-74920054D01*
X160509056Y-74883610D01*
X159771532Y-74146086D01*
X159781315Y-74144680D01*
X159912100Y-74084952D01*
X160020761Y-73990798D01*
X160098493Y-73869844D01*
X160122077Y-73789523D01*
X160862435Y-74529881D01*
X160862436Y-74529881D01*
X160962728Y-74376375D01*
X160962732Y-74376366D01*
X161062585Y-74148725D01*
X161062588Y-74148715D01*
X161123611Y-73907743D01*
X161144140Y-73660000D01*
X161123611Y-73412256D01*
X161062588Y-73171284D01*
X161062585Y-73171274D01*
X160962732Y-72943633D01*
X160962728Y-72943624D01*
X160862435Y-72790117D01*
X160122076Y-73530475D01*
X160098493Y-73450156D01*
X160020761Y-73329202D01*
X159912100Y-73235048D01*
X159781315Y-73175320D01*
X159771530Y-73173913D01*
X160509056Y-72436388D01*
X160462232Y-72399945D01*
X160462229Y-72399942D01*
X160243613Y-72281635D01*
X160243605Y-72281631D01*
X160008490Y-72200916D01*
X160008480Y-72200914D01*
X159763292Y-72160000D01*
X159514708Y-72160000D01*
X159269519Y-72200914D01*
X159269509Y-72200916D01*
X159034394Y-72281631D01*
X159034386Y-72281635D01*
X158815770Y-72399942D01*
X158815766Y-72399945D01*
X158768942Y-72436388D01*
X159506467Y-73173913D01*
X159496685Y-73175320D01*
X159365900Y-73235048D01*
X159257239Y-73329202D01*
X159179507Y-73450156D01*
X159155922Y-73530476D01*
X158415563Y-72790117D01*
X158415562Y-72790117D01*
X158315271Y-72943624D01*
X158315267Y-72943633D01*
X158215414Y-73171274D01*
X158215411Y-73171284D01*
X158154388Y-73412256D01*
X158133859Y-73660000D01*
X123732488Y-73660000D01*
X123775044Y-73557262D01*
X123795682Y-73400500D01*
X123775044Y-73243738D01*
X123714536Y-73097659D01*
X123618282Y-72972218D01*
X123492841Y-72875964D01*
X123346762Y-72815456D01*
X123190000Y-72794818D01*
X123033238Y-72815456D01*
X122887159Y-72875964D01*
X122761718Y-72972218D01*
X122665464Y-73097659D01*
X122604956Y-73243738D01*
X122584318Y-73400500D01*
X122604956Y-73557262D01*
X122665464Y-73703341D01*
X122761718Y-73828782D01*
X122835001Y-73885014D01*
X122839402Y-73892636D01*
X122839500Y-73894137D01*
X122839500Y-75120899D01*
X122836132Y-75129031D01*
X122832154Y-75131622D01*
X122686182Y-75188172D01*
X122686162Y-75188182D01*
X122508832Y-75297980D01*
X122415871Y-75382726D01*
X122354682Y-75438507D01*
X122354680Y-75438509D01*
X122354674Y-75438515D01*
X122228983Y-75604957D01*
X122228981Y-75604960D01*
X122136009Y-75791673D01*
X122136005Y-75791683D01*
X122078923Y-75992306D01*
X122059678Y-76200000D01*
X117895950Y-76200000D01*
X118011398Y-76101398D01*
X118180223Y-75903729D01*
X118316048Y-75682084D01*
X118415527Y-75441920D01*
X118476211Y-75189150D01*
X118496607Y-74930000D01*
X118476211Y-74670850D01*
X118466369Y-74629856D01*
X118415528Y-74418084D01*
X118415527Y-74418081D01*
X118398249Y-74376366D01*
X118316048Y-74177916D01*
X118180223Y-73956271D01*
X118011398Y-73758602D01*
X117813729Y-73589777D01*
X117592084Y-73453952D01*
X117463040Y-73400500D01*
X117351918Y-73354472D01*
X117351915Y-73354471D01*
X117099154Y-73293789D01*
X117099156Y-73293789D01*
X116982593Y-73284615D01*
X116904889Y-73278500D01*
X116775111Y-73278500D01*
X116697406Y-73284615D01*
X116580844Y-73293789D01*
X116328084Y-73354471D01*
X116328081Y-73354472D01*
X116087917Y-73453951D01*
X115866274Y-73589775D01*
X115866271Y-73589777D01*
X115668602Y-73758602D01*
X115499777Y-73956271D01*
X115499775Y-73956273D01*
X115499775Y-73956274D01*
X115363951Y-74177917D01*
X115264472Y-74418081D01*
X115264471Y-74418084D01*
X115203789Y-74670844D01*
X115183393Y-74930000D01*
X113411503Y-74930000D01*
X113411507Y-74929856D01*
X113415071Y-74857303D01*
X113427995Y-74594218D01*
X113428047Y-74593686D01*
X113477338Y-74261404D01*
X113477445Y-74260863D01*
X113559065Y-73935017D01*
X113559223Y-73934498D01*
X113568796Y-73907743D01*
X113672389Y-73618221D01*
X113672591Y-73617732D01*
X113816213Y-73314070D01*
X113816479Y-73313572D01*
X113820751Y-73306445D01*
X113989169Y-73025455D01*
X113989464Y-73025013D01*
X114189568Y-72755206D01*
X114189914Y-72754784D01*
X114415500Y-72505886D01*
X114415886Y-72505500D01*
X114664784Y-72279914D01*
X114665208Y-72279567D01*
X114705866Y-72249413D01*
X114935013Y-72079464D01*
X114935455Y-72079169D01*
X115223575Y-71906476D01*
X115224070Y-71906213D01*
X115257382Y-71890457D01*
X115527732Y-71762591D01*
X115528221Y-71762389D01*
X115844505Y-71649220D01*
X115845017Y-71649065D01*
X116170863Y-71567445D01*
X116171404Y-71567338D01*
X116249944Y-71555687D01*
X116503686Y-71518047D01*
X116504218Y-71517995D01*
X116839859Y-71501506D01*
X116840138Y-71501500D01*
X116894851Y-71501500D01*
X172665149Y-71501500D01*
X172719862Y-71501500D01*
X172720140Y-71501506D01*
G37*
%TD.AperFunction*%
%TD*%
M02*
