%TF.GenerationSoftware,KiCad,Pcbnew,7.0.8*%
%TF.CreationDate,2023-11-01T10:58:09-04:00*%
%TF.ProjectId,destinationWeatherStation_r4-5,64657374-696e-4617-9469-6f6e57656174,4.5*%
%TF.SameCoordinates,Original*%
%TF.FileFunction,Paste,Top*%
%TF.FilePolarity,Positive*%
%FSLAX46Y46*%
G04 Gerber Fmt 4.6, Leading zero omitted, Abs format (unit mm)*
G04 Created by KiCad (PCBNEW 7.0.8) date 2023-11-01 10:58:09*
%MOMM*%
%LPD*%
G01*
G04 APERTURE LIST*
%ADD10R,1.000000X1.550000*%
%ADD11R,0.826000X0.609000*%
%ADD12R,0.970000X0.871000*%
%ADD13R,1.500000X3.400000*%
%ADD14R,1.000000X3.500000*%
%ADD15R,0.706000X0.567000*%
%ADD16R,2.000000X0.800000*%
%ADD17R,1.400000X1.800000*%
%ADD18R,1.900000X1.400000*%
%ADD19R,0.820000X0.929000*%
%ADD20R,0.929000X0.820000*%
%ADD21R,1.800000X1.200000*%
%ADD22R,1.550000X0.600000*%
%ADD23R,0.500000X0.350000*%
G04 APERTURE END LIST*
D10*
%TO.C,SW5*%
X173685000Y-102785000D03*
X173685000Y-108035000D03*
X170485000Y-102785000D03*
X170485000Y-108035000D03*
%TD*%
%TO.C,SW3*%
X173685000Y-87545000D03*
X173685000Y-92795000D03*
X170485000Y-87545000D03*
X170485000Y-92795000D03*
%TD*%
%TO.C,SW2*%
X173685000Y-79925000D03*
X173685000Y-85175000D03*
X170485000Y-79925000D03*
X170485000Y-85175000D03*
%TD*%
D11*
%TO.C,Q2*%
X159228000Y-78420000D03*
X159228000Y-76520000D03*
X157002000Y-77470000D03*
%TD*%
D12*
%TO.C,C2*%
X130683000Y-117360000D03*
X130683000Y-118860000D03*
%TD*%
D13*
%TO.C,J1*%
X150670000Y-75586000D03*
X143970000Y-75586000D03*
D14*
X148320000Y-81336000D03*
X146320000Y-81336000D03*
%TD*%
D15*
%TO.C,Q4*%
X155608000Y-78420000D03*
X155608000Y-77470000D03*
X155608000Y-76520000D03*
X153002000Y-76520000D03*
X153002000Y-77470000D03*
X153002000Y-78420000D03*
%TD*%
D16*
%TO.C,J2*%
X119879000Y-108505000D03*
X120279000Y-107405000D03*
X119879000Y-106305000D03*
X119679000Y-105205000D03*
X119879000Y-104105000D03*
X119679000Y-103005000D03*
X119879000Y-101905000D03*
X119879000Y-100805000D03*
D17*
X130429000Y-101615000D03*
X130429000Y-107315000D03*
D18*
X117279000Y-100015000D03*
X116279000Y-113165000D03*
%TD*%
D10*
%TO.C,SW4*%
X173685000Y-95165000D03*
X173685000Y-100415000D03*
X170485000Y-95165000D03*
X170485000Y-100415000D03*
%TD*%
D19*
%TO.C,R10*%
X137910000Y-118364000D03*
X136400000Y-118364000D03*
%TD*%
D20*
%TO.C,R5*%
X127889000Y-96781000D03*
X127889000Y-98291000D03*
%TD*%
D12*
%TO.C,C4*%
X117602000Y-98286000D03*
X117602000Y-96786000D03*
%TD*%
D20*
%TO.C,R3*%
X121343000Y-96781000D03*
X121343000Y-98291000D03*
%TD*%
D21*
%TO.C,J3*%
X116235000Y-84830000D03*
X116235000Y-90430000D03*
D22*
X120110000Y-86130000D03*
X120110000Y-87130000D03*
X120110000Y-88130000D03*
X120110000Y-89130000D03*
%TD*%
D20*
%TO.C,R1*%
X131191000Y-96781000D03*
X131191000Y-98291000D03*
%TD*%
D23*
%TO.C,U2*%
X134375000Y-115865000D03*
X134375000Y-116515000D03*
X134375000Y-117165000D03*
X134375000Y-117815000D03*
X132325000Y-117815000D03*
X132325000Y-117165000D03*
X132325000Y-116515000D03*
X132325000Y-115865000D03*
%TD*%
D11*
%TO.C,Q1*%
X159228000Y-82230000D03*
X159228000Y-80330000D03*
X157002000Y-81280000D03*
%TD*%
D20*
%TO.C,R2*%
X119692000Y-96781000D03*
X119692000Y-98291000D03*
%TD*%
D19*
%TO.C,R9*%
X137920000Y-116840000D03*
X136410000Y-116840000D03*
%TD*%
D20*
%TO.C,R6*%
X126238000Y-96781000D03*
X126238000Y-98291000D03*
%TD*%
%TO.C,R7*%
X129540000Y-96781000D03*
X129540000Y-98291000D03*
%TD*%
D19*
%TO.C,R8*%
X137920000Y-115316000D03*
X136410000Y-115316000D03*
%TD*%
D12*
%TO.C,C1*%
X130683000Y-114693000D03*
X130683000Y-116193000D03*
%TD*%
D20*
%TO.C,R4*%
X123063000Y-96781000D03*
X123063000Y-98291000D03*
%TD*%
D12*
%TO.C,C3*%
X115951000Y-98286000D03*
X115951000Y-96786000D03*
%TD*%
D15*
%TO.C,Q3*%
X155608000Y-82230000D03*
X155608000Y-81280000D03*
X155608000Y-80330000D03*
X153002000Y-80330000D03*
X153002000Y-81280000D03*
X153002000Y-82230000D03*
%TD*%
M02*
